<svg xmlns="http://www.w3.org/2000/svg" xmlns:xlink="http://www.w3.org/1999/xlink" width="683" height="560" contentStyleType="text/css" data-diagram-type="DESCRIPTION" preserveAspectRatio="none" version="1.1" viewBox="0 0 683 560" zoomAndPan="magnify" style="width:683px;height:560px;background:#fff"><title>&lt;font size=18&gt;&lt;b&gt;DFD Level 2&lt;/b&gt;&lt;/font&gt; &lt;font size=14 color=#607D8B&gt;Process 4.0 - Loan Management&lt;/font&gt;</title><g><g class="title" data-source-line="23"><text x="279.563" y="27.402" fill="#000" font-family="'Segoe UI, Roboto, Arial, sans-serif'" font-size="18" font-weight="bold" lengthAdjust="spacing" textLength="110.716">DFD Level 2</text><text x="219.089" y="44.734" fill="#607D8B" font-family="'Segoe UI, Roboto, Arial, sans-serif'" font-size="14" font-weight="bold" lengthAdjust="spacing" textLength="231.663">Process 4.0 - Loan Management</text></g><g id="entity_E1" class="entity" data-entity="E1" data-source-line="35" data-uid="ent0002"><rect width="59.053" height="45.91" x="14.39" y="65.688" fill="#0D47A1" rx="5" ry="5" style="stroke:#0d47a1;stroke-width:.5"/><text x="26.224" y="86.322" fill="#FFF" font-family="'Segoe UI, Roboto, Arial, sans-serif'" font-size="11" font-style="italic" lengthAdjust="spacing" textLength="35.385">«User»</text><text x="24.39" y="99.277" fill="#FFF" font-family="'Segoe UI, Roboto, Arial, sans-serif'" font-size="11" font-weight="bold" lengthAdjust="spacing" textLength="39.053">Officer</text></g><g id="entity_E2" class="entity" data-entity="E2" data-source-line="36" data-uid="ent0003"><rect width="73.405" height="45.91" x="309.22" y="65.688" fill="#0D47A1" rx="5" ry="5" style="stroke:#0d47a1;stroke-width:.5"/><text x="328.23" y="86.322" fill="#FFF" font-family="'Segoe UI, Roboto, Arial, sans-serif'" font-size="11" font-style="italic" lengthAdjust="spacing" textLength="35.385">«User»</text><text x="319.22" y="99.277" fill="#FFF" font-family="'Segoe UI, Roboto, Arial, sans-serif'" font-size="11" font-weight="bold" lengthAdjust="spacing" textLength="53.405">President</text></g><g id="entity_E3" class="entity" data-entity="E3" data-source-line="37" data-uid="ent0004"><rect width="65.832" height="45.91" x="608.01" y="65.688" fill="#0D47A1" rx="5" ry="5" style="stroke:#0d47a1;stroke-width:.5"/><text x="623.233" y="86.322" fill="#FFF" font-family="'Segoe UI, Roboto, Arial, sans-serif'" font-size="11" font-style="italic" lengthAdjust="spacing" textLength="35.385">«User»</text><text x="618.01" y="99.277" fill="#FFF" font-family="'Segoe UI, Roboto, Arial, sans-serif'" font-size="11" font-weight="bold" lengthAdjust="spacing" textLength="45.831">Member</text></g><g id="entity_P41" class="entity" data-entity="P41" data-source-line="49" data-uid="ent0005"><rect width="73.842" height="71.82" x="7" y="185.597" fill="#1565C0" rx="10" ry="10" style="stroke:#1565c0;stroke-width:.5"/><text x="18" y="206.232" fill="#FFF" font-family="'Segoe UI, Roboto, Arial, sans-serif'" font-size="11" font-style="italic" lengthAdjust="spacing" textLength="51.842">«Process»</text><text x="19.579" y="219.187" fill="#FFF" font-family="'Segoe UI, Roboto, Arial, sans-serif'" font-size="11" font-weight="bold" lengthAdjust="spacing" textLength="17.23">4.1</text><text x="19.579" y="232.142" fill="#FFF" font-family="'Segoe UI, Roboto, Arial, sans-serif'" font-size="11" lengthAdjust="spacing" textLength="32.629">Check</text><text x="19.579" y="245.097" fill="#FFF" font-family="'Segoe UI, Roboto, Arial, sans-serif'" font-size="11" lengthAdjust="spacing" textLength="48.684">Eligibility</text></g><g id="entity_P42" class="entity" data-entity="P42" data-source-line="50" data-uid="ent0006"><rect width="80.382" height="71.82" x="155.73" y="185.597" fill="#1565C0" rx="10" ry="10" style="stroke:#1565c0;stroke-width:.5"/><text x="170" y="206.232" fill="#FFF" font-family="'Segoe UI, Roboto, Arial, sans-serif'" font-size="11" font-style="italic" lengthAdjust="spacing" textLength="51.842">«Process»</text><text x="165.73" y="219.187" fill="#FFF" font-family="'Segoe UI, Roboto, Arial, sans-serif'" font-size="11" font-weight="bold" lengthAdjust="spacing" textLength="17.23">4.2</text><text x="165.73" y="232.142" fill="#FFF" font-family="'Segoe UI, Roboto, Arial, sans-serif'" font-size="11" lengthAdjust="spacing" textLength="34.558">Create</text><text x="165.73" y="245.097" fill="#FFF" font-family="'Segoe UI, Roboto, Arial, sans-serif'" font-size="11" lengthAdjust="spacing" textLength="60.382">Application</text></g><g id="entity_P43" class="entity" data-entity="P43" data-source-line="51" data-uid="ent0007"><rect width="73.842" height="58.865" x="309" y="192.077" fill="#1565C0" rx="10" ry="10" style="stroke:#1565c0;stroke-width:.5"/><text x="320" y="212.712" fill="#FFF" font-family="'Segoe UI, Roboto, Arial, sans-serif'" font-size="11" font-style="italic" lengthAdjust="spacing" textLength="51.842">«Process»</text><text x="322.1" y="225.667" fill="#FFF" font-family="'Segoe UI, Roboto, Arial, sans-serif'" font-size="11" font-weight="bold" lengthAdjust="spacing" textLength="17.23">4.3</text><text x="322.1" y="238.622" fill="#FFF" font-family="'Segoe UI, Roboto, Arial, sans-serif'" font-size="11" lengthAdjust="spacing" textLength="47.642">Approval</text></g><g id="entity_P44" class="entity" data-entity="P44" data-source-line="52" data-uid="ent0008"><rect width="73.842" height="58.865" x="468" y="192.077" fill="#1565C0" rx="10" ry="10" style="stroke:#1565c0;stroke-width:.5"/><text x="479" y="212.712" fill="#FFF" font-family="'Segoe UI, Roboto, Arial, sans-serif'" font-size="11" font-style="italic" lengthAdjust="spacing" textLength="51.842">«Process»</text><text x="481.414" y="225.667" fill="#FFF" font-family="'Segoe UI, Roboto, Arial, sans-serif'" font-size="11" font-weight="bold" lengthAdjust="spacing" textLength="17.23">4.4</text><text x="481.414" y="238.622" fill="#FFF" font-family="'Segoe UI, Roboto, Arial, sans-serif'" font-size="11" lengthAdjust="spacing" textLength="47.013">Disburse</text></g><g id="entity_P45" class="entity" data-entity="P45" data-source-line="53" data-uid="ent0009"><rect width="73.842" height="58.865" x="604" y="192.077" fill="#1565C0" rx="10" ry="10" style="stroke:#1565c0;stroke-width:.5"/><text x="615" y="212.712" fill="#FFF" font-family="'Segoe UI, Roboto, Arial, sans-serif'" font-size="11" font-style="italic" lengthAdjust="spacing" textLength="51.842">«Process»</text><text x="626.124" y="225.667" fill="#FFF" font-family="'Segoe UI, Roboto, Arial, sans-serif'" font-size="11" font-weight="bold" lengthAdjust="spacing" textLength="17.23">4.5</text><text x="626.124" y="238.622" fill="#FFF" font-family="'Segoe UI, Roboto, Arial, sans-serif'" font-size="11" lengthAdjust="spacing" textLength="29.595">Track</text></g><g id="entity_D2" class="entity" data-entity="D2" data-source-line="64" data-uid="ent0010"><path fill="#42A5F5" d="M9.4,341.4175 C9.4,331.4175 43.9164,331.4175 43.9164,331.4175 C43.9164,331.4175 78.4327,331.4175 78.4327,341.4175 L78.4327,389.2827 C78.4327,399.2827 43.9164,399.2827 43.9164,399.2827 C43.9164,399.2827 9.4,399.2827 9.4,389.2827 L9.4,341.4175"/><path style="stroke:#42a5f5;stroke-width:.5" fill="none" d="M9.4,341.4175 C9.4,351.4175 43.9164,351.4175 43.9164,351.4175 C43.9164,351.4175 78.4327,351.4175 78.4327,341.4175"/><text x="24.441" y="366.052" fill="#FFF" font-family="'Segoe UI, Roboto, Arial, sans-serif'" font-size="11" font-style="italic" lengthAdjust="spacing" textLength="38.951">«Store»</text><text x="19.4" y="379.007" fill="#FFF" font-family="'Segoe UI, Roboto, Arial, sans-serif'" font-size="11" lengthAdjust="spacing" textLength="15.195">D2</text><text x="19.4" y="391.962" fill="#FFF" font-family="'Segoe UI, Roboto, Arial, sans-serif'" font-size="11" lengthAdjust="spacing" textLength="49.033">Members</text></g><g id="entity_D4" class="entity" data-entity="D4" data-source-line="65" data-uid="ent0011"><path fill="#42A5F5" d="M347.45,341.4175 C347.45,331.4175 377.9256,331.4175 377.9256,331.4175 C377.9256,331.4175 408.4012,331.4175 408.4012,341.4175 L408.4012,389.2827 C408.4012,399.2827 377.9256,399.2827 377.9256,399.2827 C377.9256,399.2827 347.45,399.2827 347.45,389.2827 L347.45,341.4175"/><path style="stroke:#42a5f5;stroke-width:.5" fill="none" d="M347.45,341.4175 C347.45,351.4175 377.9256,351.4175 377.9256,351.4175 C377.9256,351.4175 408.4012,351.4175 408.4012,341.4175"/><text x="358.45" y="366.052" fill="#FFF" font-family="'Segoe UI, Roboto, Arial, sans-serif'" font-size="11" font-style="italic" lengthAdjust="spacing" textLength="38.951">«Store»</text><text x="362.36" y="379.007" fill="#FFF" font-family="'Segoe UI, Roboto, Arial, sans-serif'" font-size="11" lengthAdjust="spacing" textLength="15.195">D4</text><text x="362.36" y="391.962" fill="#FFF" font-family="'Segoe UI, Roboto, Arial, sans-serif'" font-size="11" lengthAdjust="spacing" textLength="31.131">Loans</text></g><g id="entity_D3" class="entity" data-entity="D3" data-source-line="66" data-uid="ent0012"><path fill="#42A5F5" d="M474.45,341.4175 C474.45,331.4175 504.9256,331.4175 504.9256,331.4175 C504.9256,331.4175 535.4012,331.4175 535.4012,341.4175 L535.4012,389.2827 C535.4012,399.2827 504.9256,399.2827 504.9256,399.2827 C504.9256,399.2827 474.45,399.2827 474.45,389.2827 L474.45,341.4175"/><path style="stroke:#42a5f5;stroke-width:.5" fill="none" d="M474.45,341.4175 C474.45,351.4175 504.9256,351.4175 504.9256,351.4175 C504.9256,351.4175 535.4012,351.4175 535.4012,341.4175"/><text x="485.45" y="366.052" fill="#FFF" font-family="'Segoe UI, Roboto, Arial, sans-serif'" font-size="11" font-style="italic" lengthAdjust="spacing" textLength="38.951">«Store»</text><text x="484.843" y="379.007" fill="#FFF" font-family="'Segoe UI, Roboto, Arial, sans-serif'" font-size="11" lengthAdjust="spacing" textLength="15.195">D3</text><text x="484.843" y="391.962" fill="#FFF" font-family="'Segoe UI, Roboto, Arial, sans-serif'" font-size="11" lengthAdjust="spacing" textLength="40.165">Savings</text></g><g id="link_E1_P41" class="link" data-entity-1="E1" data-entity-2="P41" data-source-line="73" data-uid="lnk13"><path style="stroke:#78909c;stroke-width:1.5" id="E1-to-P41" fill="none" d="M43.92,111.8475 C43.92,131.8975 43.92,155.7575 43.92,179.1075"/><polygon style="stroke:#78909c;stroke-width:1.5" fill="#78909C" points="43.92 185.107 47.92 176.107 43.92 180.107 39.92 176.107 43.92 185.107"/><text x="44.92" y="153.232" fill="#000" font-family="'Segoe UI, Roboto, Arial, sans-serif'" font-size="11" lengthAdjust="spacing" textLength="40.23">request</text></g><g id="link_P41_D2" class="link" data-entity-1="P41" data-entity-2="D2" data-source-line="74" data-uid="lnk14"><path style="stroke:#78909c;stroke-width:1.5" id="P41-to-D2" fill="none" d="M43.92,257.5775 C43.92,280.0575 43.92,303.0575 43.92,325.1575"/><polygon style="stroke:#78909c;stroke-width:1.5" fill="#78909C" points="43.92 331.158 47.92 322.158 43.92 326.158 39.92 322.158 43.92 331.158"/><text x="44.92" y="299.052" fill="#000" font-family="'Segoe UI, Roboto, Arial, sans-serif'" font-size="11" lengthAdjust="spacing" textLength="37.818">5x rule</text></g><g id="link_P41_P42" class="link" data-entity-1="P41" data-entity-2="P42" data-source-line="77" data-uid="lnk15"><path style="stroke:#78909c;stroke-width:1.5" id="P41-to-P42" fill="none" d="M81.1,221.5075 C103.6,221.5075 126.31,221.5075 149.39,221.5075"/><polygon style="stroke:#78909c;stroke-width:1.5" fill="#78909C" points="155.39 221.507 146.39 217.507 150.39 221.507 146.39 225.507 155.39 221.507"/><text x="99.29" y="216.142" fill="#000" font-family="'Segoe UI, Roboto, Arial, sans-serif'" font-size="11" lengthAdjust="spacing" textLength="38.758">eligible</text></g><g id="link_P42_D4" class="link" data-entity-1="P42" data-entity-2="D4" data-source-line="78" data-uid="lnk16"><path style="stroke:#78909c;stroke-width:1.5" id="P42-to-D4" fill="none" d="M234.55,257.6575 C250.44,271.6775 269.24,287.7075 286.92,301.4175 C306.35,316.4875 324.112,328.8929 342.002,340.8529"/><polygon style="stroke:#78909c;stroke-width:1.5" fill="#78909C" points="346.99 344.188 341.731 335.86 342.833 341.409 337.285 342.511 346.99 344.188"/><text x="287.92" y="299.052" fill="#000" font-family="'Segoe UI, Roboto, Arial, sans-serif'" font-size="11" lengthAdjust="spacing" textLength="47.652">PENDING</text></g><g id="link_P42_P43" class="link" data-entity-1="P42" data-entity-2="P43" data-source-line="81" data-uid="lnk17"><path style="stroke:#78909c;stroke-width:1.5" id="P42-to-P43" fill="none" d="M236.51,221.5075 C258.98,221.5075 280.72,221.5075 302.64,221.5075"/><polygon style="stroke:#78909c;stroke-width:1.5" fill="#78909C" points="308.64 221.507 299.64 217.507 303.64 221.507 299.64 225.507 308.64 221.507"/><text x="254.56" y="216.142" fill="#000" font-family="'Segoe UI, Roboto, Arial, sans-serif'" font-size="11" lengthAdjust="spacing" textLength="36.921">submit</text></g><g id="link_E2_P43" class="link" data-entity-1="E2" data-entity-2="P43" data-source-line="82" data-uid="lnk18"><path style="stroke:#78909c;stroke-width:1.5" id="E2-to-P43" fill="none" d="M345.92,111.8475 C345.92,133.8675 345.92,161.7175 345.92,185.7775"/><polygon style="stroke:#78909c;stroke-width:1.5" fill="#78909C" points="345.92 191.778 349.92 182.778 345.92 186.778 341.92 182.778 345.92 191.778"/><text x="346.92" y="153.232" fill="#000" font-family="'Segoe UI, Roboto, Arial, sans-serif'" font-size="11" lengthAdjust="spacing" textLength="43.001">approve</text></g><g id="link_P43_D4" class="link" data-entity-1="P43" data-entity-2="D4" data-source-line="83" data-uid="lnk19"><path style="stroke:#78909c;stroke-width:1.5" id="P43-to-D4" fill="none" d="M342.72,251.3775 C341.84,266.4875 342.03,285.1675 345.92,301.4175 C348.35,311.5575 349.9722,316.5483 354.6922,325.8383"/><polygon style="stroke:#78909c;stroke-width:1.5" fill="#78909C" points="357.41 331.188 356.899 321.352 355.145 326.73 349.767 324.976 357.41 331.188"/><text x="346.92" y="299.052" fill="#000" font-family="'Segoe UI, Roboto, Arial, sans-serif'" font-size="11" lengthAdjust="spacing" textLength="32.345">status</text></g><g id="link_P43_P44" class="link" data-entity-1="P43" data-entity-2="P44" data-source-line="86" data-uid="lnk20"><path style="stroke:#78909c;stroke-width:1.5" id="P43-to-P44" fill="none" d="M383.2,221.5075 C408.62,221.5075 436.17,221.5075 461.6,221.5075"/><polygon style="stroke:#78909c;stroke-width:1.5" fill="#78909C" points="467.6 221.507 458.6 217.507 462.6 221.507 458.6 225.507 467.6 221.507"/><text x="400.92" y="216.142" fill="#000" font-family="'Segoe UI, Roboto, Arial, sans-serif'" font-size="11" lengthAdjust="spacing" textLength="49.924">approved</text></g><g id="link_P44_D4" class="link" data-entity-1="P44" data-entity-2="D4" data-source-line="87" data-uid="lnk21"><path style="stroke:#78909c;stroke-width:1.5" id="P44-to-D4" fill="none" d="M479.22,251.2175 C458.56,274.2875 433.5229,302.2579 411.8229,326.4879"/><polygon style="stroke:#78909c;stroke-width:1.5" fill="#78909C" points="407.82 330.957 416.804 326.922 411.156 327.233 410.845 321.585 407.82 330.957"/><text x="446.23" y="299.052" fill="#000" font-family="'Segoe UI, Roboto, Arial, sans-serif'" font-size="11" lengthAdjust="spacing" textLength="38.478">ACTIVE</text></g><g id="link_P44_D3" class="link" data-entity-1="P44" data-entity-2="D3" data-source-line="88" data-uid="lnk22"><path style="stroke:#78909c;stroke-width:1.5" id="P44-to-D3" fill="none" d="M504.92,251.2175 C504.92,274.2875 504.92,300.7275 504.92,324.9575"/><polygon style="stroke:#78909c;stroke-width:1.5" fill="#78909C" points="504.92 330.957 508.92 321.957 504.92 325.957 500.92 321.957 504.92 330.957"/><text x="505.92" y="299.052" fill="#000" font-family="'Segoe UI, Roboto, Arial, sans-serif'" font-size="11" lengthAdjust="spacing" textLength="30.481">credit</text></g><g id="link_P44_P45" class="link" data-entity-1="P44" data-entity-2="P45" data-source-line="91" data-uid="lnk23"><path style="stroke:#78909c;stroke-width:1.5" id="P44-to-P45" fill="none" d="M542.08,221.5075 C561.27,221.5075 578.62,221.5075 597.8,221.5075"/><polygon style="stroke:#78909c;stroke-width:1.5" fill="#78909C" points="603.8 221.507 594.8 217.507 598.8 221.507 594.8 225.507 603.8 221.507"/><text x="559.92" y="216.142" fill="#000" font-family="'Segoe UI, Roboto, Arial, sans-serif'" font-size="11" lengthAdjust="spacing" textLength="26.635">done</text></g><g id="link_E3_P45" class="link" data-entity-1="E3" data-entity-2="P45" data-source-line="92" data-uid="lnk24"><path style="stroke:#78909c;stroke-width:1.5" id="E3-to-P45" fill="none" d="M640.92,111.8475 C640.92,133.8675 640.92,161.7175 640.92,185.7775"/><polygon style="stroke:#78909c;stroke-width:1.5" fill="#78909C" points="640.92 191.778 644.92 182.778 640.92 186.778 636.92 182.778 640.92 191.778"/><text x="641.92" y="153.232" fill="#000" font-family="'Segoe UI, Roboto, Arial, sans-serif'" font-size="11" lengthAdjust="spacing" textLength="23.477">view</text></g><g id="link_P45_D4" class="link" data-entity-1="P45" data-entity-2="D4" data-source-line="93" data-uid="lnk26"><path style="stroke:#78909c;stroke-width:1.5" id="P45-backto-D4" fill="none" d="M607.4227,255.1771 C589.3727,271.6871 569.42,287.7775 544.92,301.4175 C508.82,321.5275 495.57,316.7975 456.92,331.4175 C440.94,337.4675 423.37,344.7275 408.87,350.8975"/><polygon style="stroke:#78909c;stroke-width:1.5" fill="#78909C" points="611.85 251.127 602.509 254.25 608.161 254.502 607.909 260.153 611.85 251.127"/><text x="566.03" y="299.052" fill="#000" font-family="'Segoe UI, Roboto, Arial, sans-serif'" font-size="11" lengthAdjust="spacing" textLength="20.808">info</text></g><g class="legend" data-source-line="98"><rect width="420.765" height="112.93" x="124.539" y="427.283" fill="none" rx="7.5" ry="7.5" style="stroke:#000;stroke-width:1"/><rect width="53.86" height="16.488" x="129.539" y="434.283" fill="#E3F2FD" style="stroke:none;stroke-width:1"/><text x="187.829" y="447.818" fill="#000" font-family="'Segoe UI, Roboto, Arial, sans-serif'" font-size="14" font-weight="bold" lengthAdjust="spacing" textLength="132.727">Loan Process Flow</text><text x="133.968" y="464.306" fill="#000" font-family="'Segoe UI, Roboto, Arial, sans-serif'" font-size="14" font-weight="bold" lengthAdjust="spacing" textLength="45.001">Step 1</text><text x="187.829" y="464.306" fill="#000" font-family="'Segoe UI, Roboto, Arial, sans-serif'" font-size="14" lengthAdjust="spacing" textLength="348.045">Officer checks member eligibility (5× share capital)</text><text x="133.968" y="480.795" fill="#000" font-family="'Segoe UI, Roboto, Arial, sans-serif'" font-size="14" font-weight="bold" lengthAdjust="spacing" textLength="45.001">Step 2</text><text x="187.829" y="480.795" fill="#000" font-family="'Segoe UI, Roboto, Arial, sans-serif'" font-size="14" lengthAdjust="spacing" textLength="276.609">Create loan application (PENDING status)</text><text x="133.968" y="497.283" fill="#000" font-family="'Segoe UI, Roboto, Arial, sans-serif'" font-size="14" font-weight="bold" lengthAdjust="spacing" textLength="45.001">Step 3</text><text x="187.829" y="497.283" fill="#000" font-family="'Segoe UI, Roboto, Arial, sans-serif'" font-size="14" lengthAdjust="spacing" textLength="197.6">President approves or rejects</text><text x="133.968" y="513.771" fill="#000" font-family="'Segoe UI, Roboto, Arial, sans-serif'" font-size="14" font-weight="bold" lengthAdjust="spacing" textLength="45.001">Step 4</text><text x="187.829" y="513.771" fill="#000" font-family="'Segoe UI, Roboto, Arial, sans-serif'" font-size="14" lengthAdjust="spacing" textLength="256.464">Disburse to member savings (ACTIVE)</text><text x="133.968" y="530.259" fill="#000" font-family="'Segoe UI, Roboto, Arial, sans-serif'" font-size="14" font-weight="bold" lengthAdjust="spacing" textLength="45.001">Step 5</text><text x="187.829" y="530.259" fill="#000" font-family="'Segoe UI, Roboto, Arial, sans-serif'" font-size="14" lengthAdjust="spacing" textLength="179.977">Member tracks loan status</text><line x1="129.539" x2="540.303" y1="434.283" y2="434.283" style="stroke:#000;stroke-width:1"/><line x1="129.539" x2="540.303" y1="450.771" y2="450.771" style="stroke:#000;stroke-width:1"/><line x1="129.539" x2="540.303" y1="467.259" y2="467.259" style="stroke:#000;stroke-width:1"/><line x1="129.539" x2="540.303" y1="483.748" y2="483.748" style="stroke:#000;stroke-width:1"/><line x1="129.539" x2="540.303" y1="500.236" y2="500.236" style="stroke:#000;stroke-width:1"/><line x1="129.539" x2="540.303" y1="516.724" y2="516.724" style="stroke:#000;stroke-width:1"/><line x1="129.539" x2="540.303" y1="533.212" y2="533.212" style="stroke:#000;stroke-width:1"/><line x1="129.539" x2="129.539" y1="434.283" y2="533.212" style="stroke:#000;stroke-width:1"/><line x1="183.399" x2="183.399" y1="434.283" y2="533.212" style="stroke:#000;stroke-width:1"/><line x1="540.303" x2="540.303" y1="434.283" y2="533.212" style="stroke:#000;stroke-width:1"/></g></g></svg>