<svg xmlns="http://www.w3.org/2000/svg" xmlns:xlink="http://www.w3.org/1999/xlink" contentStyleType="text/css" data-diagram-type="DESCRIPTION" height="1117px" preserveAspectRatio="none" style="width:1252px;height:1117px;background:#FFFFFF;" version="1.1" viewBox="0 0 1252 1117" width="1252px" zoomAndPan="magnify"><title>&lt;font size=20&gt;&lt;b&gt;DFD Level 1: System Decomposition&lt;/b&gt;&lt;/font&gt;
&lt;font size=13 color=#607D8B&gt;Ban Sai Yai Savings Group - 6 Main Processes&lt;/font&gt;</title><defs/><g><g class="title" data-source-line="26"><text fill="#000000" font-family="'Segoe UI, Roboto, Arial, sans-serif'" font-size="20" font-weight="bold" lengthAdjust="spacing" textLength="369.502" x="434.6452" y="39.3359">DFD Level 1: System Decomposition</text><text fill="#607D8B" font-family="'Segoe UI, Roboto, Arial, sans-serif'" font-size="13" font-weight="bold" lengthAdjust="spacing" textLength="306.7441" x="466.0241" y="56.123">Ban Sai Yai Savings Group - 6 Main Processes</text></g><!--entity E1--><g class="entity" data-entity="E1" data-source-line="39" data-uid="ent0002" id="entity_E1"><rect fill="#0D47A1" height="100.043" rx="6" ry="6" style="stroke:#0D47A1;stroke-width:0.5;" width="98.2598" x="326.72" y="86.8652"/><text fill="#FFFFFF" font-family="'Segoe UI, Roboto, Arial, sans-serif'" font-size="12" font-style="italic" lengthAdjust="spacing" textLength="38.6016" x="356.5491" y="118.4668">&#171;User&#187;</text><text fill="#FFFFFF" font-family="'Segoe UI, Roboto, Arial, sans-serif'" font-size="12" font-weight="bold" lengthAdjust="spacing" textLength="58.2598" x="346.72" y="152.5996">President</text><text fill="#FFFFFF" font-family="'Segoe UI, Roboto, Arial, sans-serif'" font-size="10" lengthAdjust="spacing" textLength="44.5605" x="346.72" y="164.7988">Approver</text></g><!--entity E2--><g class="entity" data-entity="E2" data-source-line="40" data-uid="ent0003" id="entity_E2"><rect fill="#0D47A1" height="100.043" rx="6" ry="6" style="stroke:#0D47A1;stroke-width:0.5;" width="97.1289" x="465.29" y="86.8652"/><text fill="#FFFFFF" font-family="'Segoe UI, Roboto, Arial, sans-serif'" font-size="12" font-style="italic" lengthAdjust="spacing" textLength="38.6016" x="494.5537" y="118.4668">&#171;User&#187;</text><text fill="#FFFFFF" font-family="'Segoe UI, Roboto, Arial, sans-serif'" font-size="12" font-weight="bold" lengthAdjust="spacing" textLength="57.1289" x="485.29" y="152.5996">Secretary</text><text fill="#FFFFFF" font-family="'Segoe UI, Roboto, Arial, sans-serif'" font-size="10" lengthAdjust="spacing" textLength="54.9072" x="485.29" y="164.7988">Accountant</text></g><!--entity E3--><g class="entity" data-entity="E3" data-source-line="41" data-uid="ent0004" id="entity_E3"><rect fill="#0D47A1" height="100.043" rx="6" ry="6" style="stroke:#0D47A1;stroke-width:0.5;" width="83.2227" x="602.24" y="86.8652"/><text fill="#FFFFFF" font-family="'Segoe UI, Roboto, Arial, sans-serif'" font-size="12" font-style="italic" lengthAdjust="spacing" textLength="38.6016" x="624.5505" y="118.4668">&#171;User&#187;</text><text fill="#FFFFFF" font-family="'Segoe UI, Roboto, Arial, sans-serif'" font-size="12" font-weight="bold" lengthAdjust="spacing" textLength="42.6035" x="622.24" y="152.5996">Officer</text><text fill="#FFFFFF" font-family="'Segoe UI, Roboto, Arial, sans-serif'" font-size="10" lengthAdjust="spacing" textLength="43.2227" x="622.24" y="164.7988">Operator</text></g><!--entity E4--><g class="entity" data-entity="E4" data-source-line="42" data-uid="ent0005" id="entity_E4"><rect fill="#0D47A1" height="100.043" rx="6" ry="6" style="stroke:#0D47A1;stroke-width:0.5;" width="89.998" x="725.85" y="86.8652"/><text fill="#FFFFFF" font-family="'Segoe UI, Roboto, Arial, sans-serif'" font-size="12" font-style="italic" lengthAdjust="spacing" textLength="38.6016" x="751.5482" y="118.4668">&#171;User&#187;</text><text fill="#FFFFFF" font-family="'Segoe UI, Roboto, Arial, sans-serif'" font-size="12" font-weight="bold" lengthAdjust="spacing" textLength="49.998" x="745.85" y="152.5996">Member</text><text fill="#FFFFFF" font-family="'Segoe UI, Roboto, Arial, sans-serif'" font-size="10" lengthAdjust="spacing" textLength="42.7734" x="745.85" y="164.7988">End User</text></g><!--entity P1--><g class="entity" data-entity="P1" data-source-line="55" data-uid="ent0006" id="entity_P1"><rect fill="#1565C0" height="115.3535" rx="12.5" ry="12.5" style="stroke:#1565C0;stroke-width:0.5;" width="139.5176" x="78.09" y="282.9052"/><text fill="#FFFFFF" font-family="'Segoe UI, Roboto, Arial, sans-serif'" font-size="12" font-style="italic" lengthAdjust="spacing" textLength="56.5547" x="119.5714" y="314.5068">&#171;Process&#187;</text><text fill="#FFFFFF" font-family="'Segoe UI, Roboto, Arial, sans-serif'" font-size="12" font-weight="bold" lengthAdjust="spacing" textLength="18.7969" x="98.09" y="348.6396">1.0</text><text fill="#FFFFFF" font-family="'Segoe UI, Roboto, Arial, sans-serif'" font-size="14" lengthAdjust="spacing" textLength="99.5176" x="98.09" y="364.706">Authentication</text><text fill="#FFFFFF" font-family="'Segoe UI, Roboto, Arial, sans-serif'" font-size="9" lengthAdjust="spacing" textLength="49.9087" x="98.09" y="376.3603">JWT / RBAC</text></g><!--entity P2--><g class="entity" data-entity="P2" data-source-line="56" data-uid="ent0007" id="entity_P2"><rect fill="#1565C0" height="115.3535" rx="12.5" ry="12.5" style="stroke:#1565C0;stroke-width:0.5;" width="98.5547" x="274.57" y="282.9052"/><text fill="#FFFFFF" font-family="'Segoe UI, Roboto, Arial, sans-serif'" font-size="12" font-style="italic" lengthAdjust="spacing" textLength="56.5547" x="295.57" y="314.5068">&#171;Process&#187;</text><text fill="#FFFFFF" font-family="'Segoe UI, Roboto, Arial, sans-serif'" font-size="12" font-weight="bold" lengthAdjust="spacing" textLength="18.7969" x="296.2131" y="348.6396">2.0</text><text fill="#FFFFFF" font-family="'Segoe UI, Roboto, Arial, sans-serif'" font-size="14" lengthAdjust="spacing" textLength="55.2686" x="296.2131" y="364.706">Member</text><text fill="#FFFFFF" font-family="'Segoe UI, Roboto, Arial, sans-serif'" font-size="9" lengthAdjust="spacing" textLength="52.6069" x="296.2131" y="376.3603">Registration</text></g><!--entity P3--><g class="entity" data-entity="P3" data-source-line="57" data-uid="ent0008" id="entity_P3"><rect fill="#1565C0" height="115.3535" rx="12.5" ry="12.5" style="stroke:#1565C0;stroke-width:0.5;" width="98.5547" x="571.57" y="282.9052"/><text fill="#FFFFFF" font-family="'Segoe UI, Roboto, Arial, sans-serif'" font-size="12" font-style="italic" lengthAdjust="spacing" textLength="56.5547" x="592.57" y="314.5068">&#171;Process&#187;</text><text fill="#FFFFFF" font-family="'Segoe UI, Roboto, Arial, sans-serif'" font-size="12" font-weight="bold" lengthAdjust="spacing" textLength="18.7969" x="595.2878" y="348.6396">3.0</text><text fill="#FFFFFF" font-family="'Segoe UI, Roboto, Arial, sans-serif'" font-size="14" lengthAdjust="spacing" textLength="51.1191" x="595.2878" y="364.706">Savings</text><text fill="#FFFFFF" font-family="'Segoe UI, Roboto, Arial, sans-serif'" font-size="9" lengthAdjust="spacing" textLength="38.0918" x="595.2878" y="376.3603">Deposits</text></g><!--entity P4--><g class="entity" data-entity="P4" data-source-line="58" data-uid="ent0009" id="entity_P4"><rect fill="#1565C0" height="115.3535" rx="12.5" ry="12.5" style="stroke:#1565C0;stroke-width:0.5;" width="111.6792" x="717.01" y="282.9052"/><text fill="#FFFFFF" font-family="'Segoe UI, Roboto, Arial, sans-serif'" font-size="12" font-style="italic" lengthAdjust="spacing" textLength="56.5547" x="744.5723" y="314.5068">&#171;Process&#187;</text><text fill="#FFFFFF" font-family="'Segoe UI, Roboto, Arial, sans-serif'" font-size="12" font-weight="bold" lengthAdjust="spacing" textLength="18.7969" x="737.01" y="348.6396">4.0</text><text fill="#FFFFFF" font-family="'Segoe UI, Roboto, Arial, sans-serif'" font-size="14" lengthAdjust="spacing" textLength="32.4844" x="737.01" y="364.706">Loan</text><text fill="#FFFFFF" font-family="'Segoe UI, Roboto, Arial, sans-serif'" font-size="9" lengthAdjust="spacing" textLength="71.6792" x="737.01" y="376.3603">Apply / Approve</text></g><!--entity P5--><g class="entity" data-entity="P5" data-source-line="59" data-uid="ent0010" id="entity_P5"><rect fill="#1565C0" height="115.3535" rx="12.5" ry="12.5" style="stroke:#1565C0;stroke-width:0.5;" width="98.5547" x="1062.57" y="282.9052"/><text fill="#FFFFFF" font-family="'Segoe UI, Roboto, Arial, sans-serif'" font-size="12" font-style="italic" lengthAdjust="spacing" textLength="56.5547" x="1083.57" y="314.5068">&#171;Process&#187;</text><text fill="#FFFFFF" font-family="'Segoe UI, Roboto, Arial, sans-serif'" font-size="12" font-weight="bold" lengthAdjust="spacing" textLength="18.7969" x="1083.0578" y="348.6396">5.0</text><text fill="#FFFFFF" font-family="'Segoe UI, Roboto, Arial, sans-serif'" font-size="14" lengthAdjust="spacing" textLength="57.5791" x="1083.0578" y="364.706">Payment</text><text fill="#FFFFFF" font-family="'Segoe UI, Roboto, Arial, sans-serif'" font-size="9" lengthAdjust="spacing" textLength="48.4102" x="1083.0578" y="376.3603">Repayment</text></g><!--entity P6--><g class="entity" data-entity="P6" data-source-line="60" data-uid="ent0011" id="entity_P6"><rect fill="#1565C0" height="115.3535" rx="12.5" ry="12.5" style="stroke:#1565C0;stroke-width:0.5;" width="116.6787" x="863.51" y="494.2652"/><text fill="#FFFFFF" font-family="'Segoe UI, Roboto, Arial, sans-serif'" font-size="12" font-style="italic" lengthAdjust="spacing" textLength="56.5547" x="893.572" y="525.8668">&#171;Process&#187;</text><text fill="#FFFFFF" font-family="'Segoe UI, Roboto, Arial, sans-serif'" font-size="12" font-weight="bold" lengthAdjust="spacing" textLength="18.7969" x="883.51" y="559.9996">6.0</text><text fill="#FFFFFF" font-family="'Segoe UI, Roboto, Arial, sans-serif'" font-size="14" lengthAdjust="spacing" textLength="76.6787" x="883.51" y="576.066">Accounting</text><text fill="#FFFFFF" font-family="'Segoe UI, Roboto, Arial, sans-serif'" font-size="9" lengthAdjust="spacing" textLength="55.2524" x="883.51" y="587.7203">GL / Reports</text></g><!--entity D1--><g class="entity" data-entity="D1" data-source-line="71" data-uid="ent0012" id="entity_D1"><path d="M49.61,506.2452 C49.61,496.2452 91.8561,496.2452 91.8561,496.2452 C91.8561,496.2452 134.1022,496.2452 134.1022,506.2452 L134.1022,597.6437 C134.1022,607.6437 91.8561,607.6437 91.8561,607.6437 C91.8561,607.6437 49.61,607.6437 49.61,597.6437 L49.61,506.2452" fill="#42A5F5"/><path d="M49.61,506.2452 C49.61,516.2452 91.8561,516.2452 91.8561,516.2452 C91.8561,516.2452 134.1022,516.2452 134.1022,506.2452" fill="none" style="stroke:#42A5F5;stroke-width:0.5;"/><text fill="#FFFFFF" font-family="'Segoe UI, Roboto, Arial, sans-serif'" font-size="12" font-style="italic" lengthAdjust="spacing" textLength="42.4922" x="70.61" y="541.8468">&#171;Store&#187;</text><text fill="#FFFFFF" font-family="'Segoe UI, Roboto, Arial, sans-serif'" font-size="12" font-weight="bold" lengthAdjust="spacing" textLength="17.4316" x="75.7838" y="575.9796">D1</text><text fill="#FFFFFF" font-family="'Segoe UI, Roboto, Arial, sans-serif'" font-size="12" lengthAdjust="spacing" textLength="32.1445" x="75.7838" y="590.1124">Users</text></g><!--entity D2--><g class="entity" data-entity="D2" data-source-line="72" data-uid="ent0013" id="entity_D2"><path d="M174.11,506.2452 C174.11,496.2452 220.8551,496.2452 220.8551,496.2452 C220.8551,496.2452 267.6002,496.2452 267.6002,506.2452 L267.6002,597.6437 C267.6002,607.6437 220.8551,607.6437 220.8551,607.6437 C220.8551,607.6437 174.11,607.6437 174.11,597.6437 L174.11,506.2452" fill="#42A5F5"/><path d="M174.11,506.2452 C174.11,516.2452 220.8551,516.2452 220.8551,516.2452 C220.8551,516.2452 267.6002,516.2452 267.6002,506.2452" fill="none" style="stroke:#42A5F5;stroke-width:0.5;"/><text fill="#FFFFFF" font-family="'Segoe UI, Roboto, Arial, sans-serif'" font-size="12" font-style="italic" lengthAdjust="spacing" textLength="42.4922" x="199.609" y="541.8468">&#171;Store&#187;</text><text fill="#FFFFFF" font-family="'Segoe UI, Roboto, Arial, sans-serif'" font-size="12" font-weight="bold" lengthAdjust="spacing" textLength="17.4316" x="194.11" y="575.9796">D2</text><text fill="#FFFFFF" font-family="'Segoe UI, Roboto, Arial, sans-serif'" font-size="12" lengthAdjust="spacing" textLength="53.4902" x="194.11" y="590.1124">Members</text></g><!--entity D3--><g class="entity" data-entity="D3" data-source-line="73" data-uid="ent0014" id="entity_D3"><path d="M307.61,506.2452 C307.61,496.2452 349.8561,496.2452 349.8561,496.2452 C349.8561,496.2452 392.1022,496.2452 392.1022,506.2452 L392.1022,597.6437 C392.1022,607.6437 349.8561,607.6437 349.8561,607.6437 C349.8561,607.6437 307.61,607.6437 307.61,597.6437 L307.61,506.2452" fill="#42A5F5"/><path d="M307.61,506.2452 C307.61,516.2452 349.8561,516.2452 349.8561,516.2452 C349.8561,516.2452 392.1022,516.2452 392.1022,506.2452" fill="none" style="stroke:#42A5F5;stroke-width:0.5;"/><text fill="#FFFFFF" font-family="'Segoe UI, Roboto, Arial, sans-serif'" font-size="12" font-style="italic" lengthAdjust="spacing" textLength="42.4922" x="328.61" y="541.8468">&#171;Store&#187;</text><text fill="#FFFFFF" font-family="'Segoe UI, Roboto, Arial, sans-serif'" font-size="12" font-weight="bold" lengthAdjust="spacing" textLength="17.4316" x="327.9479" y="575.9796">D3</text><text fill="#FFFFFF" font-family="'Segoe UI, Roboto, Arial, sans-serif'" font-size="12" lengthAdjust="spacing" textLength="43.8164" x="327.9479" y="590.1124">Savings</text></g><!--entity D4--><g class="entity" data-entity="D4" data-source-line="74" data-uid="ent0015" id="entity_D4"><path d="M683.61,506.2452 C683.61,496.2452 725.8561,496.2452 725.8561,496.2452 C725.8561,496.2452 768.1022,496.2452 768.1022,506.2452 L768.1022,597.6437 C768.1022,607.6437 725.8561,607.6437 725.8561,607.6437 C725.8561,607.6437 683.61,607.6437 683.61,597.6437 L683.61,506.2452" fill="#42A5F5"/><path d="M683.61,506.2452 C683.61,516.2452 725.8561,516.2452 725.8561,516.2452 C725.8561,516.2452 768.1022,516.2452 768.1022,506.2452" fill="none" style="stroke:#42A5F5;stroke-width:0.5;"/><text fill="#FFFFFF" font-family="'Segoe UI, Roboto, Arial, sans-serif'" font-size="12" font-style="italic" lengthAdjust="spacing" textLength="42.4922" x="704.61" y="541.8468">&#171;Store&#187;</text><text fill="#FFFFFF" font-family="'Segoe UI, Roboto, Arial, sans-serif'" font-size="12" font-weight="bold" lengthAdjust="spacing" textLength="17.4316" x="708.8756" y="575.9796">D4</text><text fill="#FFFFFF" font-family="'Segoe UI, Roboto, Arial, sans-serif'" font-size="12" lengthAdjust="spacing" textLength="33.9609" x="708.8756" y="590.1124">Loans</text></g><!--entity D5--><g class="entity" data-entity="D5" data-source-line="75" data-uid="ent0016" id="entity_D5"><path d="M1020.12,506.2452 C1020.12,496.2452 1067.8554,496.2452 1067.8554,496.2452 C1067.8554,496.2452 1115.5907,496.2452 1115.5907,506.2452 L1115.5907,597.6437 C1115.5907,607.6437 1067.8554,607.6437 1067.8554,607.6437 C1067.8554,607.6437 1020.12,607.6437 1020.12,597.6437 L1020.12,506.2452" fill="#42A5F5"/><path d="M1020.12,506.2452 C1020.12,516.2452 1067.8554,516.2452 1067.8554,516.2452 C1067.8554,516.2452 1115.5907,516.2452 1115.5907,506.2452" fill="none" style="stroke:#42A5F5;stroke-width:0.5;"/><text fill="#FFFFFF" font-family="'Segoe UI, Roboto, Arial, sans-serif'" font-size="12" font-style="italic" lengthAdjust="spacing" textLength="42.4922" x="1046.6093" y="541.8468">&#171;Store&#187;</text><text fill="#FFFFFF" font-family="'Segoe UI, Roboto, Arial, sans-serif'" font-size="12" font-weight="bold" lengthAdjust="spacing" textLength="17.4316" x="1040.12" y="575.9796">D5</text><text fill="#FFFFFF" font-family="'Segoe UI, Roboto, Arial, sans-serif'" font-size="12" lengthAdjust="spacing" textLength="55.4707" x="1040.12" y="590.1124">Payments</text></g><!--entity D6--><g class="entity" data-entity="D6" data-source-line="76" data-uid="ent0017" id="entity_D6"><path d="M961.61,715.6152 C961.61,705.6152 1003.8561,705.6152 1003.8561,705.6152 C1003.8561,705.6152 1046.1022,705.6152 1046.1022,715.6152 L1046.1022,807.0137 C1046.1022,817.0137 1003.8561,817.0137 1003.8561,817.0137 C1003.8561,817.0137 961.61,817.0137 961.61,807.0137 L961.61,715.6152" fill="#42A5F5"/><path d="M961.61,715.6152 C961.61,725.6152 1003.8561,725.6152 1003.8561,725.6152 C1003.8561,725.6152 1046.1022,725.6152 1046.1022,715.6152" fill="none" style="stroke:#42A5F5;stroke-width:0.5;"/><text fill="#FFFFFF" font-family="'Segoe UI, Roboto, Arial, sans-serif'" font-size="12" font-style="italic" lengthAdjust="spacing" textLength="42.4922" x="982.61" y="751.2168">&#171;Store&#187;</text><text fill="#FFFFFF" font-family="'Segoe UI, Roboto, Arial, sans-serif'" font-size="12" font-weight="bold" lengthAdjust="spacing" textLength="17.4316" x="995.1403" y="785.3496">D6</text><text fill="#FFFFFF" font-family="'Segoe UI, Roboto, Arial, sans-serif'" font-size="12" lengthAdjust="spacing" textLength="15.0703" x="995.1403" y="799.4824">GL</text></g><!--entity EX1--><g class="entity" data-entity="EX1" data-source-line="89" data-uid="ent0018" id="entity_EX1"><rect fill="#ECEFF1" height="98.8652" rx="4" ry="4" style="stroke:#607D8B;stroke-width:0.5;stroke-dasharray:7,7;" width="73.7031" x="459" y="502.5052"/><text fill="#37474F" font-family="'Segoe UI, Roboto, Arial, sans-serif'" font-size="12" font-style="italic" lengthAdjust="spacing" textLength="30.9258" x="480.3887" y="534.1068">&#171;Ext&#187;</text><text fill="#37474F" font-family="'Segoe UI, Roboto, Arial, sans-serif'" font-size="12" font-weight="bold" lengthAdjust="spacing" textLength="33.7031" x="479" y="568.2396">Email</text><text fill="#37474F" font-family="'Segoe UI, Roboto, Arial, sans-serif'" font-size="9" lengthAdjust="spacing" textLength="23.2646" x="479" y="579.472">SMTP</text></g><!--entity EX2--><g class="entity" data-entity="EX2" data-source-line="90" data-uid="ent0019" id="entity_EX2"><rect fill="#ECEFF1" height="98.8652" rx="4" ry="4" style="stroke:#607D8B;stroke-width:0.5;stroke-dasharray:7,7;" width="73.0205" x="1118.34" y="711.8852"/><text fill="#37474F" font-family="'Segoe UI, Roboto, Arial, sans-serif'" font-size="12" font-style="italic" lengthAdjust="spacing" textLength="30.9258" x="1139.3874" y="743.4868">&#171;Ext&#187;</text><text fill="#37474F" font-family="'Segoe UI, Roboto, Arial, sans-serif'" font-size="12" font-weight="bold" lengthAdjust="spacing" textLength="28.5117" x="1138.34" y="777.6196">Files</text><text fill="#37474F" font-family="'Segoe UI, Roboto, Arial, sans-serif'" font-size="9" lengthAdjust="spacing" textLength="33.0205" x="1138.34" y="788.852">Storage</text></g><!--link E1 to E2--><!--link E2 to E3--><!--link E3 to E4--><!--link P1 to P2--><!--link P2 to P3--><!--link P3 to P4--><!--link P4 to P5--><!--link P5 to P6--><!--link P5 to P6--><g class="link" data-entity-1="P5" data-entity-2="P6" data-source-line="152" data-uid="lnk56" id="link_P5_P6"><path d="M1062.19,362.3052 C1032.28,376.9452 995.37,399.1352 970.85,428.2652 C954.97,447.1252 945.7363,466.0997 938.1063,488.3497" fill="none" id="P5-to-P6" style="stroke:#546E7A;stroke-width:1.5;"/><polygon fill="#546E7A" points="936.16,494.0252,942.8631,486.8094,937.7819,489.2956,935.2957,484.2144,936.16,494.0252" style="stroke:#546E7A;stroke-width:1.5;"/><text fill="#000000" font-family="'Segoe UI, Roboto, Arial, sans-serif'" font-size="12" lengthAdjust="spacing" textLength="40.9219" x="981.85" y="450.8668">journal</text></g><!--link D1 to D2--><!--link D2 to D3--><!--link D3 to D4--><!--link D4 to D5--><!--link D5 to D6--><!--link E1 to P1--><g class="link" data-entity-1="E1" data-entity-2="P1" data-source-line="119" data-uid="lnk33" id="link_E1_P1"><path d="M326.48,141.8052 C240.1,149.7852 67.28,171.1952 30.85,216.9052 C6,248.0952 35.1506,277.4415 72.8906,301.1715" fill="none" id="E1-to-P1" style="stroke:#546E7A;stroke-width:1.5;"/><polygon fill="#546E7A" points="77.97,304.3652,72.4802,296.1883,73.7372,301.7038,68.2218,302.9608,77.97,304.3652" style="stroke:#546E7A;stroke-width:1.5;"/><text fill="#000000" font-family="'Segoe UI, Roboto, Arial, sans-serif'" font-size="12" lengthAdjust="spacing" textLength="29.2383" x="41.85" y="239.5068">login</text></g><!--link E2 to P1--><g class="link" data-entity-1="E2" data-entity-2="P1" data-source-line="120" data-uid="lnk34" id="link_E2_P1"><path d="M465.1,177.0552 C458.57,180.9152 451.74,184.3452 444.85,186.9052 C378.32,211.6452 174.63,164.4152 126.85,216.9052 C110.85,234.4852 110.7151,253.8707 117.7751,276.8107" fill="none" id="E2-to-P1" style="stroke:#546E7A;stroke-width:1.5;"/><polygon fill="#546E7A" points="119.54,282.5452,120.7157,272.7668,118.0693,277.7664,113.0697,275.12,119.54,282.5452" style="stroke:#546E7A;stroke-width:1.5;"/><text fill="#000000" font-family="'Segoe UI, Roboto, Arial, sans-serif'" font-size="12" lengthAdjust="spacing" textLength="29.2383" x="137.85" y="239.5068">login</text></g><!--link E3 to P1--><g class="link" data-entity-1="E3" data-entity-2="P1" data-source-line="121" data-uid="lnk35" id="link_E3_P1"><path d="M601.86,176.6352 C595.81,180.6852 589.41,184.2752 582.85,186.9052 C442.53,243.3752 376.77,144.7252 243.85,216.9052 C216.52,231.7552 197.6717,253.0053 181.5717,277.4353" fill="none" id="E3-to-P1" style="stroke:#546E7A;stroke-width:1.5;"/><polygon fill="#546E7A" points="178.27,282.4452,186.5624,277.1315,181.0214,278.2703,179.8825,272.7293,178.27,282.4452" style="stroke:#546E7A;stroke-width:1.5;"/><text fill="#000000" font-family="'Segoe UI, Roboto, Arial, sans-serif'" font-size="12" lengthAdjust="spacing" textLength="29.2383" x="254.85" y="239.5068">login</text></g><!--link E4 to P1--><g class="link" data-entity-1="E4" data-entity-2="P1" data-source-line="122" data-uid="lnk36" id="link_E4_P1"><path d="M725.46,176.7452 C719.17,180.7152 712.55,184.2552 705.85,186.9052 C589.88,232.7752 539.35,163.0852 426.85,216.9052 C406.44,226.6752 410.7,242.0352 390.85,252.9052 C336.57,282.6552 312.95,261.5652 254.85,282.9052 C242.62,287.4052 235.4055,290.3798 223.3655,296.3498" fill="none" id="E4-to-P1" style="stroke:#546E7A;stroke-width:1.5;"/><polygon fill="#546E7A" points="217.99,299.0152,227.8301,298.6008,222.4696,296.7941,224.2763,291.4335,217.99,299.0152" style="stroke:#546E7A;stroke-width:1.5;"/><text fill="#000000" font-family="'Segoe UI, Roboto, Arial, sans-serif'" font-size="12" lengthAdjust="spacing" textLength="29.2383" x="437.85" y="239.5068">login</text></g><!--link P1 to D1--><g class="link" data-entity-1="P1" data-entity-2="D1" data-source-line="123" data-uid="lnk37" id="link_P1_D1"><path d="M110.81,398.7152 C106.02,408.2652 101.77,418.3152 98.85,428.2652 C92.51,449.8552 90.3423,468.4869 89.8323,489.9869" fill="none" id="P1-to-D1" style="stroke:#546E7A;stroke-width:1.5;"/><polygon fill="#546E7A" points="89.69,495.9852,93.9023,487.0826,89.8086,490.9866,85.9046,486.8929,89.69,495.9852" style="stroke:#546E7A;stroke-width:1.5;"/><text fill="#000000" font-family="'Segoe UI, Roboto, Arial, sans-serif'" font-size="12" lengthAdjust="spacing" textLength="45.1289" x="109.85" y="450.8668">validate</text></g><!--link E3 to P2--><g class="link" data-entity-1="E3" data-entity-2="P2" data-source-line="126" data-uid="lnk38" id="link_E3_P2"><path d="M601.8,176.4852 C595.76,180.5552 589.37,184.1952 582.85,186.9052 C528.35,209.6352 358.17,172.8652 318.85,216.9052 C303.24,234.4052 301.023,253.5788 304.653,276.5388" fill="none" id="E3-to-P2" style="stroke:#546E7A;stroke-width:1.5;"/><polygon fill="#546E7A" points="305.59,282.4652,308.1355,272.951,304.8092,277.5266,300.2336,274.2003,305.59,282.4652" style="stroke:#546E7A;stroke-width:1.5;"/><text fill="#000000" font-family="'Segoe UI, Roboto, Arial, sans-serif'" font-size="12" lengthAdjust="spacing" textLength="44.748" x="329.85" y="239.5068">register</text></g><!--link P2 to D2--><g class="link" data-entity-1="P2" data-entity-2="D2" data-source-line="127" data-uid="lnk39" id="link_P2_D2"><path d="M274.15,373.2252 C247.21,391.5552 217.99,413.7952 210.85,428.2652 C200.69,448.8652 199.8685,467.8728 203.4385,489.8628" fill="none" id="P2-to-D2" style="stroke:#546E7A;stroke-width:1.5;"/><polygon fill="#546E7A" points="204.4,495.7852,206.9061,486.2606,203.5988,490.8499,199.0095,487.5425,204.4,495.7852" style="stroke:#546E7A;stroke-width:1.5;"/><text fill="#000000" font-family="'Segoe UI, Roboto, Arial, sans-serif'" font-size="12" lengthAdjust="spacing" textLength="33.1934" x="221.85" y="450.8668">CRUD</text></g><!--link P2 to EX1--><g class="link" data-entity-1="P2" data-entity-2="EX1" data-source-line="128" data-uid="lnk40" id="link_P2_EX1"><path d="M352.88,398.7152 C365.08,420.2652 380.28,444.3552 396.85,464.2652 C415.12,486.2052 434.4742,503.6253 454.2842,519.5553" fill="none" id="P2-to-EX1" style="stroke:#546E7A;stroke-width:1.5;stroke-dasharray:7,7;"/><polygon fill="#546E7A" points="458.96,523.3152,454.453,514.5581,455.0635,520.1819,449.4397,520.7925,458.96,523.3152" style="stroke:#546E7A;stroke-width:1.5;"/><text fill="#000000" font-family="'Segoe UI, Roboto, Arial, sans-serif'" font-size="12" lengthAdjust="spacing" textLength="50.8066" x="407.85" y="450.8668">welcome</text></g><!--link E3 to P3--><g class="link" data-entity-1="E3" data-entity-2="P3" data-source-line="131" data-uid="lnk41" id="link_E3_P3"><path d="M638.22,187.2252 C634.94,216.0352 631.4587,246.5437 628.0387,276.5837" fill="none" id="E3-to-P3" style="stroke:#546E7A;stroke-width:1.5;"/><polygon fill="#546E7A" points="627.36,282.5452,632.3524,274.0555,627.9256,277.5773,624.4037,273.1505,627.36,282.5452" style="stroke:#546E7A;stroke-width:1.5;"/><text fill="#000000" font-family="'Segoe UI, Roboto, Arial, sans-serif'" font-size="12" lengthAdjust="spacing" textLength="43.2363" x="645.41" y="239.5068">deposit</text></g><!--link E4 to P3--><g class="link" data-entity-1="E4" data-entity-2="P3" data-source-line="132" data-uid="lnk42" id="link_E4_P3"><path d="M748.93,187.1852 C738.49,208.3252 724.97,232.7452 709.85,252.9052 C698.34,268.2752 688.3975,279.2588 674.6775,292.4988" fill="none" id="E4-to-P3" style="stroke:#546E7A;stroke-width:1.5;"/><polygon fill="#546E7A" points="670.36,296.6652,679.6139,293.2939,673.9579,293.1932,674.0586,287.5372,670.36,296.6652" style="stroke:#546E7A;stroke-width:1.5;"/><text fill="#000000" font-family="'Segoe UI, Roboto, Arial, sans-serif'" font-size="12" lengthAdjust="spacing" textLength="44.5547" x="744.14" y="239.5068">balance</text></g><!--link P3 to D3--><g class="link" data-entity-1="P3" data-entity-2="D3" data-source-line="133" data-uid="lnk43" id="link_P3_D3"><path d="M571.21,354.2752 C487.98,375.7752 328.54,418.0352 320.85,428.2652 C306.32,447.5952 307.6127,467.4712 316.1927,490.2212" fill="none" id="P3-to-D3" style="stroke:#546E7A;stroke-width:1.5;"/><polygon fill="#546E7A" points="318.31,495.8352,318.8767,486.0027,316.5456,491.1569,311.3914,488.8257,318.31,495.8352" style="stroke:#546E7A;stroke-width:1.5;"/><text fill="#000000" font-family="'Segoe UI, Roboto, Arial, sans-serif'" font-size="12" lengthAdjust="spacing" textLength="19.2949" x="331.85" y="450.8668">txn</text></g><!--link E3 to P4--><g class="link" data-entity-1="E3" data-entity-2="P4" data-source-line="136" data-uid="lnk44" id="link_E3_P4"><path d="M685.95,174.9852 C692.33,179.4552 699.07,183.6052 705.85,186.9052 C756.83,211.7352 794.79,172.3552 829.85,216.9052 C845.17,236.3852 841.3534,255.5369 827.8334,277.3269" fill="none" id="E3-to-P4" style="stroke:#546E7A;stroke-width:1.5;"/><polygon fill="#546E7A" points="824.67,282.4252,832.8139,276.8866,827.3061,278.1766,826.0161,272.6688,824.67,282.4252" style="stroke:#546E7A;stroke-width:1.5;"/><text fill="#000000" font-family="'Segoe UI, Roboto, Arial, sans-serif'" font-size="12" lengthAdjust="spacing" textLength="31.4707" x="849.53" y="239.5068">apply</text></g><!--link E1 to P4--><g class="link" data-entity-1="E1" data-entity-2="P4" data-source-line="137" data-uid="lnk45" id="link_E1_P4"><path d="M425.32,173.6452 C431.84,178.1852 438.47,182.7052 444.85,186.9052 C491.81,217.8852 500.65,231.9352 552.85,252.9052 C610.69,276.1452 632.62,258.2152 689.85,282.9052 C698.98,286.8452 703.0498,288.701 711.8098,294.091" fill="none" id="E1-to-P4" style="stroke:#546E7A;stroke-width:1.5;"/><polygon fill="#546E7A" points="716.92,297.2352,711.3509,289.1121,712.6615,294.615,707.1586,295.9256,716.92,297.2352" style="stroke:#546E7A;stroke-width:1.5;"/><text fill="#000000" font-family="'Segoe UI, Roboto, Arial, sans-serif'" font-size="12" lengthAdjust="spacing" textLength="46.9102" x="563.85" y="239.5068">approve</text></g><!--link E4 to P4--><g class="link" data-entity-1="E4" data-entity-2="P4" data-source-line="138" data-uid="lnk46" id="link_E4_P4"><path d="M816.19,142.0452 C862.62,148.9952 932.58,167.5352 965.85,216.9052 C974.79,230.1752 975.47,240.1252 965.85,252.9052 C936.93,291.3552 905.7,263.1252 861.85,282.9052 C850.83,287.8852 844.7151,290.952 834.0751,297.382" fill="none" id="E4-to-P4" style="stroke:#546E7A;stroke-width:1.5;"/><polygon fill="#546E7A" points="828.94,300.4852,838.7116,299.2537,833.2193,297.8992,834.5739,292.4069,828.94,300.4852" style="stroke:#546E7A;stroke-width:1.5;"/><text fill="#000000" font-family="'Segoe UI, Roboto, Arial, sans-serif'" font-size="12" lengthAdjust="spacing" textLength="35.2852" x="983.81" y="239.5068">status</text></g><!--link P4 to D4--><g class="link" data-entity-1="P4" data-entity-2="D4" data-source-line="139" data-uid="lnk47" id="link_P4_D4"><path d="M733.02,398.3652 C728.01,407.9652 723.66,418.1152 720.85,428.2652 C714.88,449.8352 714.1473,468.3663 715.9473,489.7763" fill="none" id="P4-to-D4" style="stroke:#546E7A;stroke-width:1.5;"/><polygon fill="#546E7A" points="716.45,495.7552,719.6819,486.4518,716.0311,490.7728,711.7101,487.122,716.45,495.7552" style="stroke:#546E7A;stroke-width:1.5;"/><text fill="#000000" font-family="'Segoe UI, Roboto, Arial, sans-serif'" font-size="12" lengthAdjust="spacing" textLength="33.1934" x="731.85" y="450.8668">CRUD</text></g><!--link P4 to EX1--><g class="link" data-entity-1="P4" data-entity-2="EX1" data-source-line="140" data-uid="lnk48" id="link_P4_EX1"><path d="M716.62,384.6152 C707.98,389.8352 698.91,394.6052 689.85,398.2652 C616.28,427.9852 569.31,371.5052 513.85,428.2652 C495.12,447.4352 490.3405,470.9752 490.3805,496.2552" fill="none" id="P4-to-EX1" style="stroke:#546E7A;stroke-width:1.5;stroke-dasharray:7,7;"/><polygon fill="#546E7A" points="490.39,502.2552,494.3758,493.2489,490.3821,497.2552,486.3758,493.2616,490.39,502.2552" style="stroke:#546E7A;stroke-width:1.5;"/><text fill="#000000" font-family="'Segoe UI, Roboto, Arial, sans-serif'" font-size="12" lengthAdjust="spacing" textLength="33.457" x="524.85" y="450.8668">notify</text></g><!--link E3 to P5--><g class="link" data-entity-1="E3" data-entity-2="P5" data-source-line="143" data-uid="lnk49" id="link_E3_P5"><path d="M685.88,176.1652 C692.23,180.3952 698.97,184.1652 705.85,186.9052 C775.08,214.5052 976.9,177.0252 1039.85,216.9052 C1063.74,232.0452 1078.1073,252.7554 1089.5173,277.0254" fill="none" id="E3-to-P5" style="stroke:#546E7A;stroke-width:1.5;"/><polygon fill="#546E7A" points="1092.07,282.4552,1091.8608,272.6086,1089.9427,277.9303,1084.621,276.0122,1092.07,282.4552" style="stroke:#546E7A;stroke-width:1.5;"/><text fill="#000000" font-family="'Segoe UI, Roboto, Arial, sans-serif'" font-size="12" lengthAdjust="spacing" textLength="40.793" x="1085.73" y="239.5068">receive</text></g><!--link E4 to P5--><g class="link" data-entity-1="E4" data-entity-2="P5" data-source-line="144" data-uid="lnk50" id="link_E4_P5"><path d="M816.02,139.7652 C911.7,144.8052 1129.77,162.1552 1174.85,216.9052 C1193.19,239.1852 1184.0152,262.946 1165.2352,286.866" fill="none" id="E4-to-P5" style="stroke:#546E7A;stroke-width:1.5;"/><polygon fill="#546E7A" points="1161.53,291.5852,1170.234,286.9764,1164.6177,287.6525,1163.9416,282.0362,1161.53,291.5852" style="stroke:#546E7A;stroke-width:1.5;"/><text fill="#000000" font-family="'Segoe UI, Roboto, Arial, sans-serif'" font-size="12" lengthAdjust="spacing" textLength="40.0723" x="1194.72" y="239.5068">history</text></g><!--link P5 to D5--><g class="link" data-entity-1="P5" data-entity-2="D5" data-source-line="145" data-uid="lnk51" id="link_P5_D5"><path d="M1102.5,398.5552 C1098.87,419.3052 1094.47,442.9052 1089.85,464.2652 C1087.62,474.5852 1086.4648,479.7118 1083.8548,490.2318" fill="none" id="P5-to-D5" style="stroke:#546E7A;stroke-width:1.5;"/><polygon fill="#546E7A" points="1082.41,496.0552,1088.4595,488.2833,1083.614,491.2024,1080.6949,486.3569,1082.41,496.0552" style="stroke:#546E7A;stroke-width:1.5;"/><text fill="#000000" font-family="'Segoe UI, Roboto, Arial, sans-serif'" font-size="12" lengthAdjust="spacing" textLength="37.5762" x="1107.64" y="450.8668">record</text></g><!--link P5 to EX2--><g class="link" data-entity-1="P5" data-entity-2="EX2" data-source-line="146" data-uid="lnk52" id="link_P5_EX2"><path d="M1153.46,398.7052 C1158.56,408.1852 1162.97,418.2052 1165.85,428.2652 C1193.73,525.7252 1179.2615,639.971 1166.7515,705.721" fill="none" id="P5-to-EX2" style="stroke:#546E7A;stroke-width:1.5;stroke-dasharray:7,7;"/><polygon fill="#546E7A" points="1165.63,711.6152,1171.2417,703.5215,1166.5646,706.7034,1163.3827,702.0262,1165.63,711.6152" style="stroke:#546E7A;stroke-width:1.5;"/><text fill="#000000" font-family="'Segoe UI, Roboto, Arial, sans-serif'" font-size="12" lengthAdjust="spacing" textLength="39.9375" x="1192.43" y="556.5368">receipt</text></g><!--link E2 to P6--><g class="link" data-entity-1="E2" data-entity-2="P6" data-source-line="149" data-uid="lnk53" id="link_E2_P6"><path d="M562.72,177.2752 C568.91,180.9952 575.36,184.3352 581.85,186.9052 C676.43,224.4652 723.65,161.2552 808.85,216.9052 C900.34,276.6752 918.9488,409.4997 921.9788,488.0697" fill="none" id="E2-to-P6" style="stroke:#546E7A;stroke-width:1.5;"/><polygon fill="#546E7A" points="922.21,494.0652,925.8602,484.9178,922.0173,489.0689,917.8661,485.2261,922.21,494.0652" style="stroke:#546E7A;stroke-width:1.5;"/><text fill="#000000" font-family="'Segoe UI, Roboto, Arial, sans-serif'" font-size="12" lengthAdjust="spacing" textLength="29.7891" x="921.99" y="345.1868">close</text></g><!--link P3 to P6--><g class="link" data-entity-1="P3" data-entity-2="P6" data-source-line="150" data-uid="lnk54" id="link_P3_P6"><path d="M618.42,398.5452 C620.45,421.7452 627.01,447.0852 643.85,464.2652 C689.61,510.9552 725.45,474.7752 787.85,494.2652 C813.05,502.1352 834.5059,510.6138 857.5859,520.7438" fill="none" id="P3-to-P6" style="stroke:#546E7A;stroke-width:1.5;"/><polygon fill="#546E7A" points="863.08,523.1552,856.4465,515.8754,858.5016,521.1457,853.2312,523.2009,863.08,523.1552" style="stroke:#546E7A;stroke-width:1.5;"/><text fill="#000000" font-family="'Segoe UI, Roboto, Arial, sans-serif'" font-size="12" lengthAdjust="spacing" textLength="40.9219" x="654.85" y="450.8668">journal</text></g><!--link P4 to P6--><g class="link" data-entity-1="P4" data-entity-2="P6" data-source-line="151" data-uid="lnk55" id="link_P4_P6"><path d="M788.63,398.5352 C796.28,420.2952 806.89,444.5852 820.85,464.2652 C832.49,480.6552 843.3154,492.0211 858.5654,505.0311" fill="none" id="P4-to-P6" style="stroke:#546E7A;stroke-width:1.5;"/><polygon fill="#546E7A" points="863.13,508.9252,858.8792,500.041,859.3262,505.6801,853.687,506.1271,863.13,508.9252" style="stroke:#546E7A;stroke-width:1.5;"/><text fill="#000000" font-family="'Segoe UI, Roboto, Arial, sans-serif'" font-size="12" lengthAdjust="spacing" textLength="40.9219" x="831.85" y="450.8668">journal</text></g><!--link P6 to D6--><g class="link" data-entity-1="P6" data-entity-2="D6" data-source-line="153" data-uid="lnk57" id="link_P6_D6"><path d="M936.53,609.9352 C942.58,630.8952 950.21,654.6352 958.85,675.6152 C962.91,685.4752 965.0274,690.3485 970.0074,700.1285" fill="none" id="P6-to-D6" style="stroke:#546E7A;stroke-width:1.5;"/><polygon fill="#546E7A" points="972.73,705.4752,972.2106,695.6401,970.4612,701.0196,965.0817,699.2702,972.73,705.4752" style="stroke:#546E7A;stroke-width:1.5;"/><text fill="#000000" font-family="'Segoe UI, Roboto, Arial, sans-serif'" font-size="12" lengthAdjust="spacing" textLength="39.8027" x="969.85" y="662.2168">entries</text></g><!--link P6 to EX2--><g class="link" data-entity-1="P6" data-entity-2="EX2" data-source-line="154" data-uid="lnk58" id="link_P6_EX2"><path d="M980.67,598.5352 C996.86,611.5152 1014.25,625.8752 1029.85,639.6152 C1060.41,666.5352 1089.2461,694.3939 1113.7061,718.7239" fill="none" id="P6-to-EX2" style="stroke:#546E7A;stroke-width:1.5;stroke-dasharray:7,7;"/><polygon fill="#546E7A" points="1117.96,722.9552,1114.4,713.7723,1114.4151,719.4291,1108.7582,719.4442,1117.96,722.9552" style="stroke:#546E7A;stroke-width:1.5;"/><text fill="#000000" font-family="'Segoe UI, Roboto, Arial, sans-serif'" font-size="12" lengthAdjust="spacing" textLength="42.0352" x="1079.61" y="662.2168">reports</text></g><g class="legend" data-source-line="159"><rect fill="none" height="252.9297" rx="7.5" ry="7.5" style="stroke:#000000;stroke-width:1;" width="257.5645" x="969.2278" y="845.0137"/><rect fill="#0D47A1" height="36.4883" style="stroke:none;stroke-width:1;" width="56.8594" x="984.2278" y="862.0137"/><text fill="#000000" font-family="'Segoe UI, Roboto, Arial, sans-serif'" font-size="14" lengthAdjust="spacing" textLength="22.1484" x="994.2278" y="885.5488">&#160;&#160;&#160;&#160;&#160;</text><text fill="#000000" font-family="'Segoe UI, Roboto, Arial, sans-serif'" font-size="14" lengthAdjust="spacing" textLength="141.8457" x="1055.5169" y="885.5488">External Entity (User)</text><rect fill="#1565C0" height="36.4883" style="stroke:none;stroke-width:1;" width="56.8594" x="984.2278" y="898.502"/><text fill="#000000" font-family="'Segoe UI, Roboto, Arial, sans-serif'" font-size="14" lengthAdjust="spacing" textLength="22.1484" x="994.2278" y="922.0371">&#160;&#160;&#160;&#160;&#160;</text><text fill="#000000" font-family="'Segoe UI, Roboto, Arial, sans-serif'" font-size="14" lengthAdjust="spacing" textLength="51.3105" x="1055.5169" y="922.0371">Process</text><rect fill="#42A5F5" height="36.4883" style="stroke:none;stroke-width:1;" width="56.8594" x="984.2278" y="934.9902"/><text fill="#000000" font-family="'Segoe UI, Roboto, Arial, sans-serif'" font-size="14" lengthAdjust="spacing" textLength="22.1484" x="994.2278" y="958.5254">&#160;&#160;&#160;&#160;&#160;</text><text fill="#000000" font-family="'Segoe UI, Roboto, Arial, sans-serif'" font-size="14" lengthAdjust="spacing" textLength="70.5195" x="1055.5169" y="958.5254">Data Store</text><rect fill="#ECEFF1" height="36.4883" style="stroke:none;stroke-width:1;" width="56.8594" x="984.2278" y="971.4785"/><text fill="#000000" font-family="'Segoe UI, Roboto, Arial, sans-serif'" font-size="14" lengthAdjust="spacing" textLength="22.1484" x="994.2278" y="995.0137">&#160;&#160;&#160;&#160;&#160;</text><text fill="#000000" font-family="'Segoe UI, Roboto, Arial, sans-serif'" font-size="14" lengthAdjust="spacing" textLength="107.9326" x="1055.5169" y="995.0137">External System</text><text fill="#000000" font-family="'Segoe UI, Roboto, Arial, sans-serif'" font-size="14" lengthAdjust="spacing" textLength="28" x="998.6575" y="1031.502">&#8212;&#8594;</text><text fill="#000000" font-family="'Segoe UI, Roboto, Arial, sans-serif'" font-size="14" lengthAdjust="spacing" textLength="66.5547" x="1055.5169" y="1031.502">Data Flow</text><text fill="#000000" font-family="'Segoe UI, Roboto, Arial, sans-serif'" font-size="14" lengthAdjust="spacing" textLength="24.418" x="998.6575" y="1067.9902">&#183;&#183;&#183;&gt;</text><text fill="#000000" font-family="'Segoe UI, Roboto, Arial, sans-serif'" font-size="14" lengthAdjust="spacing" textLength="82.9063" x="1055.5169" y="1067.9902">Output Flow</text><line style="stroke:#000000;stroke-width:1;" x1="984.2278" x2="1211.7923" y1="862.0137" y2="862.0137"/><line style="stroke:#000000;stroke-width:1;" x1="984.2278" x2="1211.7923" y1="898.502" y2="898.502"/><line style="stroke:#000000;stroke-width:1;" x1="984.2278" x2="1211.7923" y1="934.9902" y2="934.9902"/><line style="stroke:#000000;stroke-width:1;" x1="984.2278" x2="1211.7923" y1="971.4785" y2="971.4785"/><line style="stroke:#000000;stroke-width:1;" x1="984.2278" x2="1211.7923" y1="1007.9668" y2="1007.9668"/><line style="stroke:#000000;stroke-width:1;" x1="984.2278" x2="1211.7923" y1="1044.4551" y2="1044.4551"/><line style="stroke:#000000;stroke-width:1;" x1="984.2278" x2="1211.7923" y1="1080.9434" y2="1080.9434"/><line style="stroke:#000000;stroke-width:1;" x1="984.2278" x2="984.2278" y1="862.0137" y2="1080.9434"/><line style="stroke:#000000;stroke-width:1;" x1="1041.0872" x2="1041.0872" y1="862.0137" y2="1080.9434"/><line style="stroke:#000000;stroke-width:1;" x1="1211.7923" x2="1211.7923" y1="862.0137" y2="1080.9434"/></g><!--SRC=[hLXTRjj647xdAQRsGnmZjYMAb1D38K2BbE90bWXIWcEqHR4YLp9hYXIMb1srAT2d7g3eNVhUe-GadUMFn2MbDagh883npSotixFVpAxqukrX7-a563q31lI91j2y0cST9tG11dMZnJAA_SIFGlIvZJpAGkWgPqwo3YZQOtyUmXdSB9OiUg8U3CWwMYNIYqFNbxxnwCmFALZspQrktyDnmr0kzUO6TypkQ6YabgRQLhkDZKNlTitX68uLMLTxwZPWWhZZ8DxI6yhb1h_JxU7Di0_7lUlNtSQMfc_hoDrkN1glhmNmXy5D_ntocrsprzicTFVkPcmYI_hPe6FpmxW8o4rI_EY7IyB80gR4VPopQ1LwtIY8MCPHiYC9MGL9BmgJ8LbGE7BeFA8mkNa5TZIDakWLwCmdmIk8IHYVnPJviwFTyOx_4uMcN3B63yIBdlrm3ZCInBHaqHcBdhECZbMbRLxgLUFumNSVGnh7q3nNIqQBU1vdR3PAe4t2HuSkeLq6XoWT3YeDIKhy1CNJcM6Q46EUR-M6rfbg_wh0piLKwrpmCEsxi1JUR87Bit-R7vzsJK9mY0_t-DyXJvXX37si-nAbsePRueTWiSZ5_T0u9vHGtWTqoyGnRGTEp8y9DWG9m0nnKpwDNnv2iwqEesv2mdb0Evq9dggcmSyIuEUw8fYyEr8RF-KCtOek2ueOjcazmCvuM4WPLmQ7DkUdIhz8qYOBE3ezjHWsjqV3vFGKYythVDLiQFeoRNJMkU28TWIRX4aCPbEaSAZBQ4BOMgHmNKm4lPBT9B98CfhDV9SoWMAqf8maqPuiMYB1BLrCA_5cw04Fs1sl7AW5onxnIMEY7jg0zQLyJgw2_qCCkKhtwc4p5RzS4M98MHEoAcf2hccYUTuerL7Hz5NoW0hnNPArPrhDmlv6UtytXWkmh_LkgT3RBM6jhOfYvCe2sTdLY6qwz-E4bLUjKrTqrAfGvtEXnctGTDp4Utahyb8gl8E8r2k1RHEiiHPv- -pbLaHkjS9jaVM2RlgcN8-bOAaJgo9nktgGMKzYGMhS_G4_GomA-uUQj0zi6KCVw-2CHxRfV5sFU2GXKn9ZYpWu1-ZU1iaU1r_U7Ra_2hzOWPVBQF9gyH4HyxqNI-BEZQReA7F7JBKrLrbqRN7NN8LLrvRegd1NBgoQeo8wgjmnLqdDLnLzszotFwXw7NgKM4lJ7ke3SEwTiNdh_EUPXtVgtkFSliSgHthSkbGkbLxjF7b02SoUhHw97wXNct-lQ_FEN10_s3RA6ysv7Lkb9iXIvNV6XyeWw_au_uL8B36Pqzt1ye4r7-ZteyaODpUQMCvXeNRqp9zNgPObimbdtpxu7bxptpD__f2SyUlNbEjeIp9RTJIzAJcZVBLzK4bMdHM7iLLdnL5grLbn25fA7LKbIwsZxIA3rXKOg6v8fHnBHZq7x3-ZdWEscb7F0VlAgEU07MJKSp2-QlZr1gExWuuEVSNh5av84C2A7-JBz2JnTH-UQNYdmXK4qTmFqvFSWRPseiekrDho6Xnz8e6FKuJoTB8nXy_f48ND9ux0BACtI-zfojB3BsYueMjF30wUdskyTn1vfW6-z5FUV2OAR2rqyRARMSYKurCIaD2bgPQAHJYUV0mv7P-R0fU2Di8lPA5gESglPs45ZiS9ILPnAijY0MMp2wMqYp1A_DcQhveFOM5XDIs9I_tA4Xn_m495R9sAl5WZzyV9nU5i5RdWM2Qf93ONDvpar37CMBG0BWvy8eKnSRbQk4PAQcWZZHj4iL2r5FqnMl5lDENDYhYw1szl4-SuRfxvV1gqXSpJTyIXuyxicqFZa9Y0pYc-yV4hSuAbI1iLn_sdJlwhWiP7Ftm2yUlR6axuM7m9dpBVx7U6mZUVRuKn-xMXC6v7Js7FVYseBPH_hKsTuFElVtp-xVSYl1VW6CiCV_t9_sdursYLB5T9OSCzPJkJ_WO0]--></g></svg>