<svg xmlns="http://www.w3.org/2000/svg" xmlns:xlink="http://www.w3.org/1999/xlink" contentStyleType="text/css" data-diagram-type="DESCRIPTION" height="521px" preserveAspectRatio="none" style="width:3841px;height:521px;background:#FFFFFF;" version="1.1" viewBox="0 0 3841 521" width="3841px" zoomAndPan="magnify"><title>&lt;font size=20&gt;&lt;b&gt;Use Case Diagram&lt;/b&gt;&lt;/font&gt;
&lt;font size=12 color=#607D8B&gt;Ban Sai Yai Savings Group Financial System&lt;/font&gt;</title><defs/><g><g class="title" data-source-line="38"><text fill="#000000" font-family="'Segoe UI, Roboto, Arial, sans-serif'" font-size="20" font-weight="bold" lengthAdjust="spacing" textLength="187.5293" x="1819.9554" y="29.3359">Use Case Diagram</text><text fill="#607D8B" font-family="'Segoe UI, Roboto, Arial, sans-serif'" font-size="12" font-weight="bold" lengthAdjust="spacing" textLength="267.668" x="1779.886" y="45.1563">Ban Sai Yai Savings Group Financial System</text></g><!--cluster Ban Sai Yai Financial System--><g class="cluster" data-entity="Ban Sai Yai Financial System" data-source-line="51" data-uid="ent0006" id="cluster_Ban Sai Yai Financial System"><rect fill="#FAFAFA" height="194.79" rx="7.5" ry="7.5" style="stroke:#607D8B;stroke-width:1;" width="3696" x="30.39" y="210.0975"/><text fill="#000000" font-family="'Segoe UI, Roboto, Arial, sans-serif'" font-size="11" font-weight="bold" lengthAdjust="spacing" textLength="159.8169" x="1798.4816" y="222.7323">Ban Sai Yai Financial System</text></g><!--entity UC1--><g class="entity" data-entity="UC1" data-source-line="54" data-uid="ent0007" id="entity_UC1"><ellipse cx="1331.3907" cy="261.4481" fill="#E3F2FD" rx="23.8507" ry="12.1606" style="stroke:#1565C0;stroke-width:0.5;"/><text fill="#333333" font-family="'Segoe UI, Roboto, Arial, sans-serif'" font-size="11" lengthAdjust="spacing" textLength="29.4873" x="1316.647" y="264.4257">Login</text></g><!--entity UC2--><g class="entity" data-entity="UC2" data-source-line="55" data-uid="ent0008" id="entity_UC2"><ellipse cx="1742.3893" cy="261.4481" fill="#E3F2FD" rx="29.2893" ry="12.1606" style="stroke:#1565C0;stroke-width:0.5;"/><text fill="#333333" font-family="'Segoe UI, Roboto, Arial, sans-serif'" font-size="11" lengthAdjust="spacing" textLength="37.1787" x="1723.8" y="264.4257">Logout</text></g><!--entity UC3--><g class="entity" data-entity="UC3" data-source-line="56" data-uid="ent0009" id="entity_UC3"><ellipse cx="2814.3898" cy="261.4495" fill="#E3F2FD" rx="60.0098" ry="14.402" style="stroke:#1565C0;stroke-width:0.5;"/><text fill="#333333" font-family="'Segoe UI, Roboto, Arial, sans-serif'" font-size="11" lengthAdjust="spacing" textLength="93.833" x="2767.4733" y="264.427">Change Password</text></g><!--entity UC10--><g class="entity" data-entity="UC10" data-source-line="59" data-uid="ent0010" id="entity_UC10"><ellipse cx="1214.3874" cy="261.447" fill="#E3F2FD" rx="58.5974" ry="14.1195" style="stroke:#1565C0;stroke-width:0.5;"/><text fill="#333333" font-family="'Segoe UI, Roboto, Arial, sans-serif'" font-size="11" lengthAdjust="spacing" textLength="90.3794" x="1169.1977" y="264.4245">Register Member</text></g><!--entity UC11--><g class="entity" data-entity="UC11" data-source-line="60" data-uid="ent0011" id="entity_UC11"><ellipse cx="1456.3938" cy="261.4443" fill="#E3F2FD" rx="66.3838" ry="15.6768" style="stroke:#1565C0;stroke-width:0.5;"/><text fill="#333333" font-family="'Segoe UI, Roboto, Arial, sans-serif'" font-size="11" lengthAdjust="spacing" textLength="108.9688" x="1401.9095" y="264.4218">Update Member Info</text></g><!--entity UC12--><g class="entity" data-entity="UC12" data-source-line="61" data-uid="ent0012" id="entity_UC12"><ellipse cx="1618.3914" cy="261.4438" fill="#E3F2FD" rx="60.1314" ry="14.4263" style="stroke:#1565C0;stroke-width:0.5;"/><text fill="#333333" font-family="'Segoe UI, Roboto, Arial, sans-serif'" font-size="11" lengthAdjust="spacing" textLength="94.1284" x="1571.3272" y="264.4213">View Member List</text></g><!--entity UC13--><g class="entity" data-entity="UC13" data-source-line="62" data-uid="ent0013" id="entity_UC13"><ellipse cx="3652.3931" cy="261.4481" fill="#E3F2FD" rx="58.3031" ry="14.0606" style="stroke:#1565C0;stroke-width:0.5;"/><text fill="#333333" font-family="'Segoe UI, Roboto, Arial, sans-serif'" font-size="11" lengthAdjust="spacing" textLength="89.6543" x="3607.566" y="264.4257">View Own Profile</text></g><!--entity UC20--><g class="entity" data-entity="UC20" data-source-line="65" data-uid="ent0014" id="entity_UC20"><ellipse cx="1877.3939" cy="261.4503" fill="#E3F2FD" rx="70.7139" ry="16.5428" style="stroke:#1565C0;stroke-width:0.5;"/><text fill="#333333" font-family="'Segoe UI, Roboto, Arial, sans-serif'" font-size="11" lengthAdjust="spacing" textLength="118.9321" x="1817.9279" y="264.4278">Open Savings Account</text></g><!--entity UC21--><g class="entity" data-entity="UC21" data-source-line="66" data-uid="ent0015" id="entity_UC21"><ellipse cx="2037.391" cy="261.4517" fill="#E3F2FD" rx="54.221" ry="13.2442" style="stroke:#1565C0;stroke-width:0.5;"/><text fill="#333333" font-family="'Segoe UI, Roboto, Arial, sans-serif'" font-size="11" lengthAdjust="spacing" textLength="79.3633" x="1997.7094" y="264.4292">Deposit Money</text></g><!--entity UC22--><g class="entity" data-entity="UC22" data-source-line="67" data-uid="ent0016" id="entity_UC22"><ellipse cx="2184.3924" cy="261.448" fill="#E3F2FD" rx="57.6024" ry="13.9205" style="stroke:#1565C0;stroke-width:0.5;"/><text fill="#333333" font-family="'Segoe UI, Roboto, Arial, sans-serif'" font-size="11" lengthAdjust="spacing" textLength="87.9194" x="2140.4327" y="264.4255">Withdraw Money</text></g><!--entity UC23--><g class="entity" data-entity="UC23" data-source-line="68" data-uid="ent0017" id="entity_UC23"><ellipse cx="2977.3916" cy="261.4458" fill="#E3F2FD" rx="67.8416" ry="15.9683" style="stroke:#1565C0;stroke-width:0.5;"/><text fill="#333333" font-family="'Segoe UI, Roboto, Arial, sans-serif'" font-size="11" lengthAdjust="spacing" textLength="112.3472" x="2921.218" y="264.4234">View Savings Balance</text></g><!--entity UC24--><g class="entity" data-entity="UC24" data-source-line="69" data-uid="ent0018" id="entity_UC24"><ellipse cx="3157.3931" cy="261.4441" fill="#E3F2FD" rx="76.7331" ry="17.7466" style="stroke:#1565C0;stroke-width:0.5;"/><text fill="#333333" font-family="'Segoe UI, Roboto, Arial, sans-serif'" font-size="11" lengthAdjust="spacing" textLength="132.478" x="3091.1541" y="264.4217">View Transaction History</text></g><!--entity UC30--><g class="entity" data-entity="UC30" data-source-line="72" data-uid="ent0019" id="entity_UC30"><ellipse cx="2330.3923" cy="261.448" fill="#E3F2FD" rx="53.7523" ry="13.1505" style="stroke:#1565C0;stroke-width:0.5;"/><text fill="#333333" font-family="'Segoe UI, Roboto, Arial, sans-serif'" font-size="11" lengthAdjust="spacing" textLength="78.1494" x="2291.3176" y="264.4255">Apply for Loan</text></g><!--entity UC31--><g class="entity" data-entity="UC31" data-source-line="73" data-uid="ent0020" id="entity_UC31"><ellipse cx="3327.3927" cy="261.446" fill="#E3F2FD" rx="58.4927" ry="14.0985" style="stroke:#1565C0;stroke-width:0.5;"/><text fill="#333333" font-family="'Segoe UI, Roboto, Arial, sans-serif'" font-size="11" lengthAdjust="spacing" textLength="90.1216" x="3282.3319" y="264.4236">View Loan Status</text></g><!--entity UC32--><g class="entity" data-entity="UC32" data-source-line="74" data-uid="ent0021" id="entity_UC32"><ellipse cx="941.3923" cy="261.446" fill="#E3F2FD" rx="51.9923" ry="12.7985" style="stroke:#1565C0;stroke-width:0.5;"/><text fill="#333333" font-family="'Segoe UI, Roboto, Arial, sans-serif'" font-size="11" lengthAdjust="spacing" textLength="73.5195" x="904.6325" y="264.4235">Approve Loan</text></g><!--entity UC33--><g class="entity" data-entity="UC33" data-source-line="75" data-uid="ent0022" id="entity_UC33"><ellipse cx="1074.3934" cy="261.4481" fill="#E3F2FD" rx="46.3534" ry="12.1606" style="stroke:#1565C0;stroke-width:0.5;"/><text fill="#333333" font-family="'Segoe UI, Roboto, Arial, sans-serif'" font-size="11" lengthAdjust="spacing" textLength="61.311" x="1043.7379" y="264.4257">Reject Loan</text></g><!--entity UC34--><g class="entity" data-entity="UC34" data-source-line="76" data-uid="ent0023" id="entity_UC34"><ellipse cx="1599.3861" cy="372.3447" fill="#E3F2FD" rx="52.9361" ry="12.9872" style="stroke:#1565C0;stroke-width:0.5;"/><text fill="#333333" font-family="'Segoe UI, Roboto, Arial, sans-serif'" font-size="11" lengthAdjust="spacing" textLength="76.0171" x="1561.3775" y="375.3223">Disburse Loan</text></g><!--entity UC35--><g class="entity" data-entity="UC35" data-source-line="77" data-uid="ent0024" id="entity_UC35"><ellipse cx="640.3861" cy="261.4507" fill="#E3F2FD" rx="65.0661" ry="15.4132" style="stroke:#1565C0;stroke-width:0.5;"/><text fill="#333333" font-family="'Segoe UI, Roboto, Arial, sans-serif'" font-size="11" lengthAdjust="spacing" textLength="105.8911" x="587.4405" y="264.4282">View Pending Loans</text></g><!--entity UC40--><g class="entity" data-entity="UC40" data-source-line="80" data-uid="ent0025" id="entity_UC40"><ellipse cx="2477.3943" cy="261.4504" fill="#E3F2FD" rx="57.8643" ry="13.9729" style="stroke:#1565C0;stroke-width:0.5;"/><text fill="#333333" font-family="'Segoe UI, Roboto, Arial, sans-serif'" font-size="11" lengthAdjust="spacing" textLength="88.5693" x="2433.1097" y="264.4279">Receive Payment</text></g><!--entity UC41--><g class="entity" data-entity="UC41" data-source-line="81" data-uid="ent0026" id="entity_UC41"><ellipse cx="3490.3868" cy="261.4509" fill="#E3F2FD" rx="69.0668" ry="16.2134" style="stroke:#1565C0;stroke-width:0.5;"/><text fill="#333333" font-family="'Segoe UI, Roboto, Arial, sans-serif'" font-size="11" lengthAdjust="spacing" textLength="115.167" x="3432.8033" y="264.4284">View Payment History</text></g><!--entity UC42--><g class="entity" data-entity="UC42" data-source-line="82" data-uid="ent0027" id="entity_UC42"><ellipse cx="2367.394" cy="372.3483" fill="#E3F2FD" rx="58.604" ry="14.1208" style="stroke:#1565C0;stroke-width:0.5;"/><text fill="#333333" font-family="'Segoe UI, Roboto, Arial, sans-serif'" font-size="11" lengthAdjust="spacing" textLength="90.3955" x="2322.1962" y="375.3258">Generate Receipt</text></g><!--entity UC43--><g class="entity" data-entity="UC43" data-source-line="83" data-uid="ent0028" id="entity_UC43"><ellipse cx="2644.3894" cy="261.4514" fill="#E3F2FD" rx="74.5194" ry="17.3039" style="stroke:#1565C0;stroke-width:0.5;"/><text fill="#333333" font-family="'Segoe UI, Roboto, Arial, sans-serif'" font-size="11" lengthAdjust="spacing" textLength="127.5313" x="2580.6237" y="264.4289">View Overdue Payments</text></g><!--entity UC50--><g class="entity" data-entity="UC50" data-source-line="86" data-uid="ent0029" id="entity_UC50"><ellipse cx="114.3915" cy="261.4498" fill="#E3F2FD" rx="68.0115" ry="16.0023" style="stroke:#1565C0;stroke-width:0.5;"/><text fill="#333333" font-family="'Segoe UI, Roboto, Arial, sans-serif'" font-size="11" lengthAdjust="spacing" textLength="112.7393" x="58.0219" y="264.4273">Close Monthly Period</text></g><!--entity UC51--><g class="entity" data-entity="UC51" data-source-line="87" data-uid="ent0030" id="entity_UC51"><ellipse cx="117.391" cy="372.3517" fill="#E3F2FD" rx="70.721" ry="16.5442" style="stroke:#1565C0;stroke-width:0.5;"/><text fill="#333333" font-family="'Segoe UI, Roboto, Arial, sans-serif'" font-size="11" lengthAdjust="spacing" textLength="118.9482" x="57.9169" y="375.3292">Generate Trial Balance</text></g><!--entity UC52--><g class="entity" data-entity="UC52" data-source-line="88" data-uid="ent0031" id="entity_UC52"><ellipse cx="307.3854" cy="261.4506" fill="#E3F2FD" rx="89.7654" ry="20.3531" style="stroke:#1565C0;stroke-width:0.5;"/><text fill="#333333" font-family="'Segoe UI, Roboto, Arial, sans-serif'" font-size="11" lengthAdjust="spacing" textLength="160.9878" x="226.8915" y="264.4281">Generate Financial Statements</text></g><!--entity UC53--><g class="entity" data-entity="UC53" data-source-line="89" data-uid="ent0032" id="entity_UC53"><ellipse cx="797.3859" cy="261.4447" fill="#E3F2FD" rx="56.9859" ry="13.7972" style="stroke:#1565C0;stroke-width:0.5;"/><text fill="#333333" font-family="'Segoe UI, Roboto, Arial, sans-serif'" font-size="11" lengthAdjust="spacing" textLength="86.3833" x="754.1943" y="264.4222">View Dashboard</text></g><!--entity UC54--><g class="entity" data-entity="UC54" data-source-line="90" data-uid="ent0033" id="entity_UC54"><ellipse cx="486.3927" cy="261.45" fill="#E3F2FD" rx="54.2627" ry="13.2525" style="stroke:#1565C0;stroke-width:0.5;"/><text fill="#333333" font-family="'Segoe UI, Roboto, Arial, sans-serif'" font-size="11" lengthAdjust="spacing" textLength="79.4707" x="446.6573" y="264.4276">Export Reports</text></g><!--entity President--><g class="entity" data-entity="President" data-source-line="43" data-uid="ent0002" id="entity_President"><ellipse cx="941.3846" cy="72.6875" fill="#0D47A1" rx="8" ry="8" style="stroke:#0D47A1;stroke-width:0.5;"/><path d="M941.3846,80.6875 L941.3846,107.6875 M928.3846,88.6875 L954.3846,88.6875 M941.3846,107.6875 L928.3846,122.6875 M941.3846,107.6875 L954.3846,122.6875" fill="none" style="stroke:#0D47A1;stroke-width:0.5;"/><text fill="#333333" font-family="'Segoe UI, Roboto, Arial, sans-serif'" font-size="11" lengthAdjust="spacing" textLength="49.4893" x="916.64" y="134.8223">President</text><text fill="#333333" font-family="'Segoe UI, Roboto, Arial, sans-serif'" font-size="11" lengthAdjust="spacing" textLength="42.8183" x="916.64" y="147.7773">(&#3611;&#3619;&#3632;&#3608;&#3634;&#3609;)</text></g><!--entity Secretary--><g class="entity" data-entity="Secretary" data-source-line="44" data-uid="ent0003" id="entity_Secretary"><ellipse cx="486.3875" cy="72.6875" fill="#0D47A1" rx="8" ry="8" style="stroke:#0D47A1;stroke-width:0.5;"/><path d="M486.3875,80.6875 L486.3875,107.6875 M473.3875,88.6875 L499.3875,88.6875 M486.3875,107.6875 L473.3875,122.6875 M486.3875,107.6875 L499.3875,122.6875" fill="none" style="stroke:#0D47A1;stroke-width:0.5;"/><text fill="#333333" font-family="'Segoe UI, Roboto, Arial, sans-serif'" font-size="11" lengthAdjust="spacing" textLength="48.7534" x="459.82" y="134.8223">Secretary</text><text fill="#333333" font-family="'Segoe UI, Roboto, Arial, sans-serif'" font-size="11" lengthAdjust="spacing" textLength="53.1351" x="459.82" y="147.7773">(&#3648;&#3621;&#3586;&#3634;&#3609;&#3640;&#3585;&#3634;&#3619;)</text></g><!--entity Officer--><g class="entity" data-entity="Officer" data-source-line="45" data-uid="ent0004" id="entity_Officer"><ellipse cx="2037.3898" cy="72.6875" fill="#0D47A1" rx="8" ry="8" style="stroke:#0D47A1;stroke-width:0.5;"/><path d="M2037.3898,80.6875 L2037.3898,107.6875 M2024.3898,88.6875 L2050.3898,88.6875 M2037.3898,107.6875 L2024.3898,122.6875 M2037.3898,107.6875 L2050.3898,122.6875" fill="none" style="stroke:#0D47A1;stroke-width:0.5;"/><text fill="#333333" font-family="'Segoe UI, Roboto, Arial, sans-serif'" font-size="11" lengthAdjust="spacing" textLength="36.0776" x="2013.25" y="134.8223">Officer</text><text fill="#333333" font-family="'Segoe UI, Roboto, Arial, sans-serif'" font-size="11" lengthAdjust="spacing" textLength="48.2796" x="2013.25" y="147.7773">(&#3648;&#3592;&#3657;&#3634;&#3627;&#3609;&#3657;&#3634;&#3607;&#3637;&#3656;)</text></g><!--entity Member--><g class="entity" data-entity="Member" data-source-line="46" data-uid="ent0005" id="entity_Member"><ellipse cx="3060.3826" cy="72.6875" fill="#0D47A1" rx="8" ry="8" style="stroke:#0D47A1;stroke-width:0.5;"/><path d="M3060.3826,80.6875 L3060.3826,107.6875 M3047.3826,88.6875 L3073.3826,88.6875 M3060.3826,107.6875 L3047.3826,122.6875 M3060.3826,107.6875 L3073.3826,122.6875" fill="none" style="stroke:#0D47A1;stroke-width:0.5;"/><text fill="#333333" font-family="'Segoe UI, Roboto, Arial, sans-serif'" font-size="11" lengthAdjust="spacing" textLength="43.4253" x="3038.67" y="134.8223">Member</text><text fill="#333333" font-family="'Segoe UI, Roboto, Arial, sans-serif'" font-size="11" lengthAdjust="spacing" textLength="39.2648" x="3038.67" y="147.7773">(&#3626;&#3617;&#3634;&#3594;&#3636;&#3585;)</text></g><!--link President to UC1--><g class="link" data-entity-1="President" data-entity-2="UC1" data-source-line="96" data-uid="lnk34" id="link_President_UC1"><path d="M966.41,110.3575 C1038.01,117.1475 1241.86,139.6575 1293.39,180.0975 C1315.72,197.6175 1324.3235,225.6005 1328.1035,243.2505" fill="none" id="President-to-UC1" style="stroke:#546E7A;stroke-width:1;"/><polygon fill="#546E7A" points="1329.36,249.1175,1331.3866,239.4794,1328.3129,244.2284,1323.564,241.1547,1329.36,249.1175" style="stroke:#546E7A;stroke-width:1;"/></g><!--link President to UC2--><g class="link" data-entity-1="President" data-entity-2="UC2" data-source-line="97" data-uid="lnk35" id="link_President_UC2"><path d="M966.37,109.1175 C1090.45,114.1575 1637,138.5875 1699.39,180.0975 C1723.76,196.3075 1733.8889,225.2307 1738.4489,243.2607" fill="none" id="President-to-UC2" style="stroke:#546E7A;stroke-width:1;"/><polygon fill="#546E7A" points="1739.92,249.0775,1741.5912,239.3715,1738.694,244.2301,1733.8354,241.333,1739.92,249.0775" style="stroke:#546E7A;stroke-width:1;"/></g><!--link President to UC32--><g class="link" data-entity-1="President" data-entity-2="UC32" data-source-line="98" data-uid="lnk36" id="link_President_UC32"><path d="M939.76,150.5475 C939.39,164.4175 939.17,179.9175 939.39,194.0975 C939.67,212.9875 940.1848,228.9117 940.6848,242.2217" fill="none" id="President-to-UC32" style="stroke:#546E7A;stroke-width:1;"/><polygon fill="#546E7A" points="940.91,248.2175,944.5693,239.0737,940.7223,243.221,936.575,239.374,940.91,248.2175" style="stroke:#546E7A;stroke-width:1;"/><text fill="#000000" font-family="'Segoe UI, Roboto, Arial, sans-serif'" font-size="11" lengthAdjust="spacing" textLength="54.5273" x="940.39" y="191.7323">&#171;approve&#187;</text></g><!--link President to UC33--><g class="link" data-entity-1="President" data-entity-2="UC33" data-source-line="99" data-uid="lnk37" id="link_President_UC33"><path d="M966.4,136.7875 C996.05,170.7375 1040.0624,221.1491 1060.6024,244.6591" fill="none" id="President-to-UC33" style="stroke:#546E7A;stroke-width:1;"/><polygon fill="#546E7A" points="1064.55,249.1775,1061.6409,239.7681,1061.2603,245.4121,1055.6163,245.0316,1064.55,249.1775" style="stroke:#546E7A;stroke-width:1;"/><text fill="#000000" font-family="'Segoe UI, Roboto, Arial, sans-serif'" font-size="11" lengthAdjust="spacing" textLength="41.3789" x="1016.85" y="191.7323">&#171;reject&#187;</text></g><!--link President to UC35--><g class="link" data-entity-1="President" data-entity-2="UC35" data-source-line="100" data-uid="lnk38" id="link_President_UC35"><path d="M916.41,116.9775 C875.06,132.0375 790.29,164.6775 723.39,202.0975 C699.71,215.3275 679.2342,230.0973 662.8942,242.6773" fill="none" id="President-to-UC35" style="stroke:#546E7A;stroke-width:1;"/><polygon fill="#546E7A" points="658.14,246.3375,667.7115,244.0166,662.1019,243.2873,662.8312,237.6777,658.14,246.3375" style="stroke:#546E7A;stroke-width:1;"/></g><!--link President to UC53--><g class="link" data-entity-1="President" data-entity-2="UC53" data-source-line="101" data-uid="lnk39" id="link_President_UC53"><path d="M916.21,131.6275 C901.66,145.4475 883.16,163.4375 867.39,180.0975 C845.51,203.1975 825.2753,226.9217 811.8253,243.0317" fill="none" id="President-to-UC53" style="stroke:#546E7A;stroke-width:1;"/><polygon fill="#546E7A" points="807.98,247.6375,816.8185,243.2923,811.1844,243.7993,810.6774,238.1652,807.98,247.6375" style="stroke:#546E7A;stroke-width:1;"/><text fill="#000000" font-family="'Segoe UI, Roboto, Arial, sans-serif'" font-size="11" lengthAdjust="spacing" textLength="62.106" x="868.39" y="191.7323">&#171;executive&#187;</text></g><!--link President to UC54--><g class="link" data-entity-1="President" data-entity-2="UC54" data-source-line="102" data-uid="lnk40" id="link_President_UC54"><path d="M916.26,110.3875 C852.93,116.8675 682.91,139.2875 557.39,202.0975 C533.7,213.9475 515.0904,230.6829 501.9704,244.0029" fill="none" id="President-to-UC54" style="stroke:#546E7A;stroke-width:1;"/><polygon fill="#546E7A" points="497.76,248.2775,506.9254,244.6725,501.2687,244.7153,501.2259,239.0586,497.76,248.2775" style="stroke:#546E7A;stroke-width:1;"/></g><!--link Secretary to UC1--><g class="link" data-entity-1="Secretary" data-entity-2="UC1" data-source-line="107" data-uid="lnk41" id="link_Secretary_UC1"><path d="M513.44,110.9375 C579.41,117.7475 753.79,135.6975 899.39,150.0975 C1038.02,163.7975 1074.43,154.6375 1211.39,180.0975 C1247.22,186.7475 1260.62,181.0675 1290.39,202.0975 C1307.58,214.2375 1317.4022,230.5887 1323.8222,243.8287" fill="none" id="Secretary-to-UC1" style="stroke:#546E7A;stroke-width:1;"/><polygon fill="#546E7A" points="1326.44,249.2275,1326.1124,239.3841,1324.2585,244.7285,1318.914,242.8745,1326.44,249.2275" style="stroke:#546E7A;stroke-width:1;"/></g><!--link Secretary to UC2--><g class="link" data-entity-1="Secretary" data-entity-2="UC2" data-source-line="108" data-uid="lnk42" id="link_Secretary_UC2"><path d="M513.42,111.2275 C579.32,118.6775 753.59,137.9375 899.39,150.0975 C1076.26,164.8375 1539.3,119.4775 1696.39,202.0975 C1716.02,212.4175 1727.309,229.8651 1734.389,243.7151" fill="none" id="Secretary-to-UC2" style="stroke:#546E7A;stroke-width:1;"/><polygon fill="#546E7A" points="1737.12,249.0575,1736.5851,239.2232,1734.8442,244.6055,1729.4619,242.8645,1737.12,249.0575" style="stroke:#546E7A;stroke-width:1;"/></g><!--link Secretary to UC50--><g class="link" data-entity-1="Secretary" data-entity-2="UC50" data-source-line="109" data-uid="lnk43" id="link_Secretary_UC50"><path d="M459.4,114.3275 C407.5,126.7975 290.91,157.6075 200.39,202.0975 C175.61,214.2675 154.4927,229.0883 137.6827,241.9683" fill="none" id="Secretary-to-UC50" style="stroke:#546E7A;stroke-width:1;"/><polygon fill="#546E7A" points="132.92,245.6175,142.4968,243.3188,136.8889,242.5765,137.6312,236.9685,132.92,245.6175" style="stroke:#546E7A;stroke-width:1;"/></g><!--link Secretary to UC51--><g class="link" data-entity-1="Secretary" data-entity-2="UC51" data-source-line="110" data-uid="lnk44" id="link_Secretary_UC51"><path d="M459.46,109.3775 C369.76,114.1175 83.6,134.3975 28.39,202.0975 C6,229.5475 14.88,249.0475 28.39,281.7975 C41.67,314.0175 67.9248,337.2461 89.5948,352.8861" fill="none" id="Secretary-to-UC51" style="stroke:#546E7A;stroke-width:1;"/><polygon fill="#546E7A" points="94.46,356.3975,89.5031,347.887,90.4057,353.4713,84.8213,354.3739,94.46,356.3975" style="stroke:#546E7A;stroke-width:1;"/></g><!--link Secretary to UC52--><g class="link" data-entity-1="Secretary" data-entity-2="UC52" data-source-line="111" data-uid="lnk45" id="link_Secretary_UC52"><path d="M459.59,130.9375 C424.28,160.9775 367.3897,209.3893 334.3997,237.4593" fill="none" id="Secretary-to-UC52" style="stroke:#546E7A;stroke-width:1;"/><polygon fill="#546E7A" points="329.83,241.3475,339.2767,238.5617,333.6381,238.1073,334.0924,232.4688,329.83,241.3475" style="stroke:#546E7A;stroke-width:1;"/></g><!--link Secretary to UC53--><g class="link" data-entity-1="Secretary" data-entity-2="UC53" data-source-line="112" data-uid="lnk46" id="link_Secretary_UC53"><path d="M513.13,115.9275 C558.26,129.6875 651.67,160.7775 723.39,202.0975 C746.21,215.2375 765.1435,230.9101 779.3535,243.7201" fill="none" id="Secretary-to-UC53" style="stroke:#546E7A;stroke-width:1;"/><polygon fill="#546E7A" points="783.81,247.7375,779.8036,238.7404,780.0963,244.3896,774.447,244.6824,783.81,247.7375" style="stroke:#546E7A;stroke-width:1;"/><text fill="#000000" font-family="'Segoe UI, Roboto, Arial, sans-serif'" font-size="11" lengthAdjust="spacing" textLength="56.5469" x="706.31" y="191.7323">&#171;financial&#187;</text></g><!--link Secretary to UC54--><g class="link" data-entity-1="Secretary" data-entity-2="UC54" data-source-line="113" data-uid="lnk47" id="link_Secretary_UC54"><path d="M486.39,150.5675 C486.39,183.4875 486.39,220.9375 486.39,241.9775" fill="none" id="Secretary-to-UC54" style="stroke:#546E7A;stroke-width:1;"/><polygon fill="#546E7A" points="486.39,247.9775,490.39,238.9775,486.39,242.9775,482.39,238.9775,486.39,247.9775" style="stroke:#546E7A;stroke-width:1;"/></g><!--link Officer to UC1--><g class="link" data-entity-1="Officer" data-entity-2="UC1" data-source-line="118" data-uid="lnk48" id="link_Officer_UC1"><path d="M2012.97,109.0175 C1906.53,113.2475 1483.39,134.1375 1372.39,202.0975 C1354.22,213.2075 1344.4136,230.2521 1338.3236,243.8421" fill="none" id="Officer-to-UC1" style="stroke:#546E7A;stroke-width:1;"/><polygon fill="#546E7A" points="1335.87,249.3175,1343.2007,242.7402,1337.9147,244.7547,1335.9002,239.4687,1335.87,249.3175" style="stroke:#546E7A;stroke-width:1;"/></g><!--link Officer to UC2--><g class="link" data-entity-1="Officer" data-entity-2="UC2" data-source-line="119" data-uid="lnk49" id="link_Officer_UC2"><path d="M2012.79,112.9275 C1965.75,123.0175 1861.32,149.9275 1789.39,202.0975 C1771.49,215.0775 1759.7702,231.4348 1751.8102,244.3948" fill="none" id="Officer-to-UC2" style="stroke:#546E7A;stroke-width:1;"/><polygon fill="#546E7A" points="1748.67,249.5075,1756.7887,243.932,1751.2868,245.247,1749.9718,239.7451,1748.67,249.5075" style="stroke:#546E7A;stroke-width:1;"/></g><!--link Officer to UC3--><g class="link" data-entity-1="Officer" data-entity-2="UC3" data-source-line="120" data-uid="lnk50" id="link_Officer_UC3"><path d="M2061.83,109.7675 C2170.46,117.2675 2609.58,150.2675 2736.39,202.0975 C2761.9,212.5175 2782.1891,229.2065 2796.7291,242.9465" fill="none" id="Officer-to-UC3" style="stroke:#546E7A;stroke-width:1;"/><polygon fill="#546E7A" points="2801.09,247.0675,2797.2959,237.9788,2797.4559,243.6334,2791.8013,243.7933,2801.09,247.0675" style="stroke:#546E7A;stroke-width:1;"/></g><!--link Officer to UC10--><g class="link" data-entity-1="Officer" data-entity-2="UC10" data-source-line="121" data-uid="lnk51" id="link_Officer_UC10"><path d="M2012.8,109.6975 C1925.97,115.4375 1625.72,137.3375 1381.39,180.0975 C1340.4,187.2675 1327.93,184.1475 1290.39,202.0975 C1266.07,213.7175 1246.4932,229.9109 1232.1632,243.2409" fill="none" id="Officer-to-UC10" style="stroke:#546E7A;stroke-width:1;"/><polygon fill="#546E7A" points="1227.77,247.3275,1237.0841,244.1264,1231.431,243.922,1231.6353,238.2689,1227.77,247.3275" style="stroke:#546E7A;stroke-width:1;"/></g><!--link Officer to UC11--><g class="link" data-entity-1="Officer" data-entity-2="UC11" data-source-line="122" data-uid="lnk52" id="link_Officer_UC11"><path d="M2012.82,109.1675 C1938.63,113.0375 1711.46,130.3675 1540.39,202.0975 C1514.68,212.8675 1493.5106,228.526 1477.4206,241.996" fill="none" id="Officer-to-UC11" style="stroke:#546E7A;stroke-width:1;"/><polygon fill="#546E7A" points="1472.82,245.8475,1482.2886,243.1373,1476.6539,242.6379,1477.1533,237.0031,1472.82,245.8475" style="stroke:#546E7A;stroke-width:1;"/></g><!--link Officer to UC12--><g class="link" data-entity-1="Officer" data-entity-2="UC12" data-source-line="123" data-uid="lnk53" id="link_Officer_UC12"><path d="M2013.04,111.5675 C1955.38,120.3775 1806.93,147.0675 1695.39,202.0975 C1671.32,213.9675 1651.7189,229.7727 1637.0589,242.9727" fill="none" id="Officer-to-UC12" style="stroke:#546E7A;stroke-width:1;"/><polygon fill="#546E7A" points="1632.6,246.9875,1641.9648,243.9379,1636.3157,243.6418,1636.6118,237.9927,1632.6,246.9875" style="stroke:#546E7A;stroke-width:1;"/></g><!--link Officer to UC20--><g class="link" data-entity-1="Officer" data-entity-2="UC20" data-source-line="124" data-uid="lnk54" id="link_Officer_UC20"><path d="M2013.09,131.2675 C1980.04,162.7275 1926.1761,214.0109 1897.9661,240.8609" fill="none" id="Officer-to-UC20" style="stroke:#546E7A;stroke-width:1;"/><polygon fill="#546E7A" points="1893.62,244.9975,1902.8969,241.69,1897.2418,241.5503,1897.3814,235.8952,1893.62,244.9975" style="stroke:#546E7A;stroke-width:1;"/></g><!--link Officer to UC21--><g class="link" data-entity-1="Officer" data-entity-2="UC21" data-source-line="125" data-uid="lnk55" id="link_Officer_UC21"><path d="M2037.39,150.5675 C2037.39,183.4875 2037.39,220.9375 2037.39,241.9775" fill="none" id="Officer-to-UC21" style="stroke:#546E7A;stroke-width:1;"/><polygon fill="#546E7A" points="2037.39,247.9775,2041.39,238.9775,2037.39,242.9775,2033.39,238.9775,2037.39,247.9775" style="stroke:#546E7A;stroke-width:1;"/></g><!--link Officer to UC22--><g class="link" data-entity-1="Officer" data-entity-2="UC22" data-source-line="126" data-uid="lnk56" id="link_Officer_UC22"><path d="M2061.99,133.6275 C2093.7,166.4875 2143.4727,218.0608 2167.7427,243.2008" fill="none" id="Officer-to-UC22" style="stroke:#546E7A;stroke-width:1;"/><polygon fill="#546E7A" points="2171.91,247.5175,2168.5368,238.2643,2168.4373,243.9203,2162.7813,243.8207,2171.91,247.5175" style="stroke:#546E7A;stroke-width:1;"/></g><!--link Officer to UC30--><g class="link" data-entity-1="Officer" data-entity-2="UC30" data-source-line="127" data-uid="lnk57" id="link_Officer_UC30"><path d="M2061.81,115.8775 C2103.9,129.7875 2192.07,161.3575 2259.39,202.0975 C2281.77,215.6375 2300.25,231.6661 2313.77,244.3861" fill="none" id="Officer-to-UC30" style="stroke:#546E7A;stroke-width:1;"/><polygon fill="#546E7A" points="2318.14,248.4975,2314.326,239.4171,2314.4984,245.0713,2308.8441,245.2437,2318.14,248.4975" style="stroke:#546E7A;stroke-width:1;"/><text fill="#000000" font-family="'Segoe UI, Roboto, Arial, sans-serif'" font-size="11" lengthAdjust="spacing" textLength="48.4473" x="2243.51" y="191.7323">&#171;submit&#187;</text></g><!--link Officer to UC34--><g class="link" data-entity-1="Officer" data-entity-2="UC34" data-source-line="128" data-uid="lnk58" id="link_Officer_UC34"><path d="M2061.71,109.2575 C2267.75,118.7975 3713.37,186.2275 3728.39,202.0975 C3752.73,227.8275 3752.9,256.2275 3728.39,281.7975 C3691.3,320.4775 1982.5983,362.3667 1658.0783,369.9867" fill="none" id="Officer-to-UC34" style="stroke:#546E7A;stroke-width:1;"/><polygon fill="#546E7A" points="1652.08,370.1275,1661.1714,373.9151,1657.0786,370.0101,1660.9836,365.9173,1652.08,370.1275" style="stroke:#546E7A;stroke-width:1;"/></g><!--link Officer to UC40--><g class="link" data-entity-1="Officer" data-entity-2="UC40" data-source-line="129" data-uid="lnk59" id="link_Officer_UC40"><path d="M2061.97,111.0275 C2122.41,118.8475 2282.01,143.8775 2401.39,202.0975 C2425.61,213.9075 2445.2019,230.0671 2459.5619,243.3271" fill="none" id="Officer-to-UC40" style="stroke:#546E7A;stroke-width:1;"/><polygon fill="#546E7A" points="2463.97,247.3975,2460.0715,238.3531,2460.2966,244.0055,2454.6442,244.2306,2463.97,247.3975" style="stroke:#546E7A;stroke-width:1;"/></g><!--link Officer to UC42--><g class="link" data-entity-1="Officer" data-entity-2="UC42" data-source-line="130" data-uid="lnk60" id="link_Officer_UC42"><path d="M2061.73,109.2075 C2172.34,114.0675 2638.69,134.4575 3021.39,150.0975 C3064.05,151.8375 3759.79,149.3175 3789.39,180.0975 C3834.28,226.7675 3834.44,279.2775 3789.39,325.7975 C3741.27,375.4775 2694.6399,373.1188 2432.2299,371.7488" fill="none" id="Officer-to-UC42" style="stroke:#546E7A;stroke-width:1;"/><polygon fill="#546E7A" points="2426.23,371.7175,2435.209,375.7644,2431.2299,371.7436,2435.2508,367.7645,2426.23,371.7175" style="stroke:#546E7A;stroke-width:1;"/></g><!--link Officer to UC43--><g class="link" data-entity-1="Officer" data-entity-2="UC43" data-source-line="131" data-uid="lnk61" id="link_Officer_UC43"><path d="M2061.9,109.2875 C2137.52,113.5375 2372.95,131.9075 2552.39,202.0975 C2579.16,212.5675 2601.7694,227.5784 2619.6294,240.9684" fill="none" id="Officer-to-UC43" style="stroke:#546E7A;stroke-width:1;"/><polygon fill="#546E7A" points="2624.43,244.5675,2619.6285,235.9684,2620.4295,241.5682,2614.8296,242.3692,2624.43,244.5675" style="stroke:#546E7A;stroke-width:1;"/></g><!--link Officer to UC53--><g class="link" data-entity-1="Officer" data-entity-2="UC53" data-source-line="132" data-uid="lnk62" id="link_Officer_UC53"><path d="M2013.08,110.3075 C1865.1,123.4975 1090.82,192.5075 1066.39,194.0975 C1044.86,195.4875 892.64,194.6675 872.39,202.0975 C846.52,211.5675 826.6407,229.1944 813.0607,243.3044" fill="none" id="Officer-to-UC53" style="stroke:#546E7A;stroke-width:1;"/><polygon fill="#546E7A" points="808.9,247.6275,818.023,243.9167,812.3672,244.025,812.259,238.3691,808.9,247.6275" style="stroke:#546E7A;stroke-width:1;"/><text fill="#000000" font-family="'Segoe UI, Roboto, Arial, sans-serif'" font-size="11" lengthAdjust="spacing" textLength="72.0425" x="1219.57" y="191.7323">&#171;operational&#187;</text></g><!--link Member to UC1--><g class="link" data-entity-1="Member" data-entity-2="UC1" data-source-line="137" data-uid="lnk63" id="link_Member_UC1"><path d="M3038.38,109.2275 C2841.63,119.0175 1391.52,191.4675 1372.39,202.0975 C1353.77,212.4375 1344.0264,229.7039 1338.0864,243.5439" fill="none" id="Member-to-UC1" style="stroke:#546E7A;stroke-width:1;"/><polygon fill="#546E7A" points="1335.72,249.0575,1342.9454,242.3647,1337.692,244.4628,1335.5938,239.2095,1335.72,249.0575" style="stroke:#546E7A;stroke-width:1;"/></g><!--link Member to UC2--><g class="link" data-entity-1="Member" data-entity-2="UC2" data-source-line="138" data-uid="lnk64" id="link_Member_UC2"><path d="M3038.38,111.4175 C2947.66,124.7775 2593.57,175.2675 2300.39,194.0975 C2286.22,195.0075 1802.14,195.8675 1789.39,202.0975 C1769.05,212.0275 1757.3706,230.0649 1750.2306,244.0349" fill="none" id="Member-to-UC2" style="stroke:#546E7A;stroke-width:1;"/><polygon fill="#546E7A" points="1747.5,249.3775,1755.1577,243.1839,1749.7755,244.9253,1748.0341,239.5431,1747.5,249.3775" style="stroke:#546E7A;stroke-width:1;"/></g><!--link Member to UC3--><g class="link" data-entity-1="Member" data-entity-2="UC3" data-source-line="139" data-uid="lnk65" id="link_Member_UC3"><path d="M3038.42,124.0275 C3011.49,142.9075 2963.93,174.3175 2919.39,194.0975 C2907.95,199.1675 2903.57,196.4775 2892.39,202.0975 C2868.2,214.2275 2848.2857,230.0254 2833.3657,243.1454" fill="none" id="Member-to-UC3" style="stroke:#546E7A;stroke-width:1;"/><polygon fill="#546E7A" points="2828.86,247.1075,2838.26,244.1681,2832.6148,243.8057,2832.9772,238.1605,2828.86,247.1075" style="stroke:#546E7A;stroke-width:1;"/></g><!--link Member to UC13--><g class="link" data-entity-1="Member" data-entity-2="UC13" data-source-line="140" data-uid="lnk66" id="link_Member_UC13"><path d="M3082.4,108.4375 C3155.94,110.2075 3398.54,122.1175 3577.39,202.0975 C3601.94,213.0675 3621.3247,229.5485 3635.2947,243.1085" fill="none" id="Member-to-UC13" style="stroke:#546E7A;stroke-width:1;"/><polygon fill="#546E7A" points="3639.6,247.2875,3635.928,238.1488,3636.0122,243.805,3630.356,243.8892,3639.6,247.2875" style="stroke:#546E7A;stroke-width:1;"/></g><!--link Member to UC23--><g class="link" data-entity-1="Member" data-entity-2="UC23" data-source-line="141" data-uid="lnk67" id="link_Member_UC23"><path d="M3038.36,148.5575 C3021.07,180.2775 3000.8198,217.4383 2988.6198,239.8383" fill="none" id="Member-to-UC23" style="stroke:#546E7A;stroke-width:1;"/><polygon fill="#546E7A" points="2985.75,245.1075,2993.5675,239.117,2988.1415,240.7165,2986.5419,235.2905,2985.75,245.1075" style="stroke:#546E7A;stroke-width:1;"/></g><!--link Member to UC24--><g class="link" data-entity-1="Member" data-entity-2="UC24" data-source-line="142" data-uid="lnk68" id="link_Member_UC24"><path d="M3082.4,142.6975 C3102.41,174.1175 3127.877,214.1066 3143.327,238.3666" fill="none" id="Member-to-UC24" style="stroke:#546E7A;stroke-width:1;"/><polygon fill="#546E7A" points="3146.55,243.4275,3145.0894,233.6876,3143.8642,239.2101,3138.3416,237.9849,3146.55,243.4275" style="stroke:#546E7A;stroke-width:1;"/></g><!--link Member to UC31--><g class="link" data-entity-1="Member" data-entity-2="UC31" data-source-line="143" data-uid="lnk69" id="link_Member_UC31"><path d="M3082.32,117.2375 C3118.63,132.6575 3193,165.8175 3251.39,202.0975 C3273.71,215.9675 3292.8346,231.0797 3307.7246,243.5797" fill="none" id="Member-to-UC31" style="stroke:#546E7A;stroke-width:1;"/><polygon fill="#546E7A" points="3312.32,247.4375,3307.9988,238.5872,3308.4905,244.2227,3302.8551,244.7144,3312.32,247.4375" style="stroke:#546E7A;stroke-width:1;"/></g><!--link Member to UC41--><g class="link" data-entity-1="Member" data-entity-2="UC41" data-source-line="144" data-uid="lnk70" id="link_Member_UC41"><path d="M3082.51,111.6375 C3138.31,121.0075 3288.57,149.5675 3403.39,202.0975 C3428.86,213.7475 3450.4244,228.8261 3467.3444,241.9161" fill="none" id="Member-to-UC41" style="stroke:#546E7A;stroke-width:1;"/><polygon fill="#546E7A" points="3472.09,245.5875,3467.4192,236.9167,3468.1353,242.528,3462.524,243.2441,3472.09,245.5875" style="stroke:#546E7A;stroke-width:1;"/></g><!--link UC21 to UC42--><g class="link" data-entity-1="UC21" data-entity-2="UC42" data-source-line="149" data-uid="lnk71" id="link_UC21_UC42"><path d="M2065.05,273.2475 C2099.03,286.3575 2158.56,308.8175 2210.39,325.7975 C2250.84,339.0575 2292.0051,350.8255 2323.9451,359.6155" fill="none" id="UC21-to-UC42" style="stroke:#546E7A;stroke-width:1;stroke-dasharray:7,7;"/><polygon fill="#546E7A" points="2329.73,361.2075,2322.114,354.9628,2324.9092,359.8808,2319.9912,362.6761,2329.73,361.2075" style="stroke:#546E7A;stroke-width:1;"/><text fill="#000000" font-family="'Segoe UI, Roboto, Arial, sans-serif'" font-size="11" lengthAdjust="spacing" textLength="50.2251" x="2211.39" y="323.4323">&#171;include&#187;</text></g><!--link UC22 to UC42--><g class="link" data-entity-1="UC22" data-entity-2="UC42" data-source-line="150" data-uid="lnk72" id="link_UC22_UC42"><path d="M2205.02,274.7275 C2240.08,295.5875 2305.7243,334.6485 2341.1043,355.7085" fill="none" id="UC22-to-UC42" style="stroke:#546E7A;stroke-width:1;stroke-dasharray:7,7;"/><polygon fill="#546E7A" points="2346.26,358.7775,2340.5724,350.7369,2341.9636,356.22,2336.4804,357.6112,2346.26,358.7775" style="stroke:#546E7A;stroke-width:1;"/><text fill="#000000" font-family="'Segoe UI, Roboto, Arial, sans-serif'" font-size="11" lengthAdjust="spacing" textLength="50.2251" x="2287.84" y="323.4323">&#171;include&#187;</text></g><!--link UC40 to UC42--><g class="link" data-entity-1="UC40" data-entity-2="UC42" data-source-line="151" data-uid="lnk73" id="link_UC40_UC42"><path d="M2464.34,275.3675 C2443.17,296.3275 2405.8448,333.2771 2384.6848,354.2171" fill="none" id="UC40-to-UC42" style="stroke:#546E7A;stroke-width:1;stroke-dasharray:7,7;"/><polygon fill="#546E7A" points="2380.42,358.4375,2389.6307,354.95,2383.974,354.9205,2384.0035,349.2637,2380.42,358.4375" style="stroke:#546E7A;stroke-width:1;"/><text fill="#000000" font-family="'Segoe UI, Roboto, Arial, sans-serif'" font-size="11" lengthAdjust="spacing" textLength="50.2251" x="2426.69" y="323.4323">&#171;include&#187;</text></g><!--link UC32 to UC34--><g class="link" data-entity-1="UC32" data-entity-2="UC34" data-source-line="152" data-uid="lnk74" id="link_UC32_UC34"><path d="M972.44,272.0275 C984.24,275.4375 997.86,279.0975 1010.39,281.7975 C1209.83,324.7575 1445.6487,353.9969 1546.1187,365.4669" fill="none" id="UC32-to-UC34" style="stroke:#546E7A;stroke-width:1;stroke-dasharray:7,7;"/><polygon fill="#546E7A" points="1552.08,366.1475,1543.5918,361.1525,1547.1123,365.5804,1542.6844,369.1008,1552.08,366.1475" style="stroke:#546E7A;stroke-width:1;"/><text fill="#000000" font-family="'Segoe UI, Roboto, Arial, sans-serif'" font-size="11" lengthAdjust="spacing" textLength="50.2251" x="1252.76" y="323.4323">&#171;include&#187;</text></g><!--link UC50 to UC51--><g class="link" data-entity-1="UC50" data-entity-2="UC51" data-source-line="153" data-uid="lnk75" id="link_UC50_UC51"><path d="M114.8,277.5875 C115.37,298.1575 116.2162,328.7597 116.7862,349.6297" fill="none" id="UC50-to-UC51" style="stroke:#546E7A;stroke-width:1;stroke-dasharray:7,7;"/><polygon fill="#546E7A" points="116.95,355.6275,120.7028,346.5216,116.8135,350.6294,112.7058,346.7401,116.95,355.6275" style="stroke:#546E7A;stroke-width:1;"/><text fill="#000000" font-family="'Segoe UI, Roboto, Arial, sans-serif'" font-size="11" lengthAdjust="spacing" textLength="50.2251" x="117.07" y="323.4323">&#171;include&#187;</text></g><g class="legend" data-source-line="158"><rect fill="none" height="79.9531" rx="7.5" ry="7.5" style="stroke:#000000;stroke-width:1;" width="211.4346" x="3604.0054" y="421.8875"/><rect fill="#0D47A1" height="16.4883" style="stroke:none;stroke-width:1;" width="50.8594" x="3609.0054" y="428.8875"/><text fill="#000000" font-family="'Segoe UI, Roboto, Arial, sans-serif'" font-size="14" lengthAdjust="spacing" textLength="8.8594" x="3609.0054" y="442.4227">&#160;&#160;</text><text fill="#000000" font-family="'Segoe UI, Roboto, Arial, sans-serif'" font-size="14" lengthAdjust="spacing" textLength="36.3945" x="3664.2945" y="442.4227">Actor</text><rect fill="#E3F2FD" height="16.4883" style="stroke:none;stroke-width:1;" width="50.8594" x="3609.0054" y="445.3758"/><text fill="#000000" font-family="'Segoe UI, Roboto, Arial, sans-serif'" font-size="14" lengthAdjust="spacing" textLength="8.8594" x="3609.0054" y="458.9109">&#160;&#160;</text><text fill="#000000" font-family="'Segoe UI, Roboto, Arial, sans-serif'" font-size="14" lengthAdjust="spacing" textLength="61.4209" x="3664.2945" y="458.9109">Use Case</text><text fill="#000000" font-family="'Segoe UI, Roboto, Arial, sans-serif'" font-size="14" lengthAdjust="spacing" textLength="42" x="3613.4351" y="475.3992">&#8212;&#8212;&#8594;</text><text fill="#000000" font-family="'Segoe UI, Roboto, Arial, sans-serif'" font-size="14" lengthAdjust="spacing" textLength="78.0527" x="3664.2945" y="475.3992">Association</text><text fill="#000000" font-family="'Segoe UI, Roboto, Arial, sans-serif'" font-size="14" lengthAdjust="spacing" textLength="24.418" x="3613.4351" y="491.8875">&#183;&#183;&#183;&gt;</text><text fill="#000000" font-family="'Segoe UI, Roboto, Arial, sans-serif'" font-size="14" lengthAdjust="spacing" textLength="141.7158" x="3664.2945" y="491.8875">&#171;include&#187; / &#171;extend&#187;</text><line style="stroke:#000000;stroke-width:1;" x1="3609.0054" x2="3810.44" y1="428.8875" y2="428.8875"/><line style="stroke:#000000;stroke-width:1;" x1="3609.0054" x2="3810.44" y1="445.3758" y2="445.3758"/><line style="stroke:#000000;stroke-width:1;" x1="3609.0054" x2="3810.44" y1="461.8641" y2="461.8641"/><line style="stroke:#000000;stroke-width:1;" x1="3609.0054" x2="3810.44" y1="478.3523" y2="478.3523"/><line style="stroke:#000000;stroke-width:1;" x1="3609.0054" x2="3810.44" y1="494.8406" y2="494.8406"/><line style="stroke:#000000;stroke-width:1;" x1="3609.0054" x2="3609.0054" y1="428.8875" y2="494.8406"/><line style="stroke:#000000;stroke-width:1;" x1="3659.8648" x2="3659.8648" y1="428.8875" y2="494.8406"/><line style="stroke:#000000;stroke-width:1;" x1="3810.44" x2="3810.44" y1="428.8875" y2="494.8406"/></g><!--SRC=[fLTFR-D45B_dKmofH1UftIQEtQvG6idDdpPIcrHnmb9fBnDdaWoRUg8Pfzr2aHOEQE68a01nGYikS448X7lbarXy4jxO7ZSPkokiEctYUU_tVc_Udvcnjm-BNQLjD184DJ5yjIYUSNm9eYFi8GTJT07_3hwYtaoWOyvMI-JS29y0fAYRqdiJCgKUGUU3xfazk41RbPPvO5TJkTDkzdkjI5Erzgrc9TNOpMQxDqHRfc5R7UlUO0Honm5vpQwO1wdykJteTNl7QAjpzAnPkQSv7jZ0lLyvQ3qxkWUVT8TjW4PNgIHUKc-98GTeZDsNCuZOcpJPWl4OkAO7UxnQ-1tc-JryIL3P8JD6qAYxWmPip7osWsnEyM872Uo9NK4udPRpxHtwAK7LwffIpF64NKFMqHGl15dJs9opwtX6MvQvtpwmroUDNHyKdvKGN4TQ04dUOntZ4yApSZcRXBmMNQNFr-bNWhYoJ_8TRBLh7QFJoZX82_j_N73Y-jYRBHvqqh7b9-D45ZSI3c8izmX7LKkI-zG7kleK72C1gJuqAetwkA5tVNrltAZlILJZXRU6hXh8bIuEazPfFBmsEjJ3dWj5JrP9GbU21LLWEThDON_W5B69oru-vqJG2V7y5zwJCFWf3Dw6mUzXy4CO_146FtvGHbYW5AEC7E9oucD-8utkNeV1Bs7mPMmH1a4OV17TlusjKx2oxa-dr2LSsRu9xxwEyBz9y-J- -p3uAxnx4pCa1ih-Z5oEO_FWrp3uES9_4mP_WjyO7mCAPj2vS8RjCtJK7yLzLy3ull_AwtNMArjEsZFwsaQxkxl8Nlbpo2jriK-P9qMHKgsPyYcRKI-AQTIiPbHivISwOrFNdCDqODV4Gbn3loUWckuzpXCwmnwUaKkOHtO20pAZC7UUODLKAfkeqNA2VQBukjwKAQ0swOyekLQmKo1MC2C7rh_seFFOb2w8WcKYK4lfNI7qbyHBWRRhmbfFqwR5qI9B9gYFpfX7RXH62-4vzUSJZgytGNa1A9z7U05ze88mQZdG8OVz7jfRDi49v8NnbDdKOpvbq6Fl2jXUBXStQ0fBHK9LyIivRYCgnyV-IYXODSF5sHNPO3Bq5la4-dy3eONOecAyucAJnSoPppdn9l80axXqHfQUW7Dy4mKEpU4I8QH1Jj-wX5uHXKsupBmaABhDl9jQ8eu970wooIFcPSgOsxbNX4zMgNCLYPbftwGRPGJl0_6ISLzaOsak6Fn0k_bpgEivF1GmjQIjoWEp7Ch72Atph8T2Mjkee1V8-fojlFXQMCp73ASRYwNLk_rAHg82KY1Jdgk5jkH1-zGUTlizvwHxxg3TjNEe04rg18bjHDkeBZ4oafg1FaJrEewRlz780ceHW4UjdwUtCY8hDY6lYBloQIuhfEXn2Re_QWlGf4PfWdI9aP50tsL4MJihnp3EmbHr76GX0tbi5jJZGW6In2JDmEROqCOr7L_H1Jf3LQSmT1CZupJZjHAbJgp6brJsdAOrDO6fUp1rGbEF8oaEMyfj0OwYg3oFgqNoA5Q08tawK9NO61gRmve6riQ6FZOrSuqTjlnYmNPxpTDHgxtN_dZOxhKsOo_29AkFdZwDYnILW7hkOZMHUuHiX8TrPkLXNKtPrSoCpb9sLbNJ5Sl0QViO8YzYio0pEEGHlEpw3DxSw6pkm-5nMq_Ux1jm3yUYVCw_ZUNn2s8aJz- -8XNwz_Ltyk-hRwM940psa-W1AjR-yxVyDE1kBJoq5st1Fam11hSb-8qdLFeF]--></g></svg>