<svg xmlns="http://www.w3.org/2000/svg" xmlns:xlink="http://www.w3.org/1999/xlink" contentStyleType="text/css" data-diagram-type="SEQUENCE" height="838px" preserveAspectRatio="none" style="width:819px;height:838px;background:#FFFFFF;" version="1.1" viewBox="0 0 819 838" width="819px" zoomAndPan="magnify"><title>&lt;size:18&gt;&lt;b&gt;Loan Submission&lt;/b&gt;&lt;/size&gt;
&lt;size:10&gt;[Sequence Diagram] Ban Sai Yai Savings Cooperative&lt;/size&gt;</title><defs/><g><text fill="#000000" font-family="'Segoe UI, Arial'" font-size="18" font-weight="bold" lengthAdjust="spacing" textLength="157.166" x="326.9211" y="32.4023">Loan Submission</text><text fill="#000000" font-family="'Segoe UI, Arial'" font-size="10" font-weight="bold" lengthAdjust="spacing" textLength="270.4248" x="270.2917" y="45.8672">[Sequence Diagram] Ban Sai Yai Savings Cooperative</text><g><title>Web App</title><rect fill="#438DD5" height="432.9258" style="stroke:#181818;stroke-width:1;" width="10" x="196.8674" y="171.4863"/></g><g><title>Loan Service</title><rect fill="#438DD5" height="405.9707" style="stroke:#181818;stroke-width:1;" width="10" x="359.0115" y="198.4414"/></g><g><title>Validator</title><rect fill="#85BBF0" height="80.8652" style="stroke:#181818;stroke-width:1;" width="10" x="539.53" y="225.3965"/></g><g><title>Calculator</title><rect fill="#85BBF0" height="26.9551" style="stroke:#181818;stroke-width:1;" width="10" x="615.731" y="355.1719"/></g><rect fill="#D4EDDA" height="276.1504" style="stroke:#000000;stroke-width:1.5;" width="792.0083" x="10" y="321.2617"/><rect fill="#F8D7DA" height="68.8652" style="stroke:none;stroke-width:1;" width="792.0083" x="10" y="528.5469"/><g><title>Member</title><rect fill="#000000" fill-opacity="0.00000" height="471.8809" width="8" x="40.7126" y="142.5313"/><line style="stroke:#707070;stroke-width:0.5;stroke-dasharray:5,5;" x1="44" x2="44" y1="142.5313" y2="614.4121"/></g><g><title>Web App</title><rect fill="#000000" fill-opacity="0.00000" height="471.8809" width="8" x="197.8674" y="142.5313"/><line style="stroke:#707070;stroke-width:0.5;stroke-dasharray:5,5;" x1="201.1782" x2="201.1782" y1="142.5313" y2="614.4121"/></g><g><title>Loan Service</title><rect fill="#000000" fill-opacity="0.00000" height="471.8809" width="8" x="360.0115" y="142.5313"/><line style="stroke:#707070;stroke-width:0.5;stroke-dasharray:5,5;" x1="363.9148" x2="363.9148" y1="142.5313" y2="614.4121"/></g><g><title>Validator</title><rect fill="#000000" fill-opacity="0.00000" height="471.8809" width="8" x="540.53" y="142.5313"/><line style="stroke:#707070;stroke-width:0.5;stroke-dasharray:5,5;" x1="544.3054" x2="544.3054" y1="142.5313" y2="614.4121"/></g><g><title>Calculator</title><rect fill="#000000" fill-opacity="0.00000" height="471.8809" width="8" x="616.731" y="142.5313"/><line style="stroke:#707070;stroke-width:0.5;stroke-dasharray:5,5;" x1="619.7546" x2="619.7546" y1="142.5313" y2="614.4121"/></g><g><title>Database</title><rect fill="#000000" fill-opacity="0.00000" height="471.8809" width="8" x="688.3257" y="142.5313"/><line style="stroke:#707070;stroke-width:0.5;stroke-dasharray:5,5;" x1="691.7073" x2="691.7073" y1="142.5313" y2="614.4121"/></g><g class="participant participant-head" data-participant="Member"><text fill="#FFFFFF" font-family="'Segoe UI, Arial'" font-size="11" lengthAdjust="spacing" textLength="43.4253" x="20" y="129.6113">Member</text><text fill="#FFFFFF" font-family="'Segoe UI, Arial'" font-size="9" lengthAdjust="spacing" textLength="26.2722" x="28.5765" y="140.6328">&#3626;&#3617;&#3634;&#3594;&#3636;&#3585;</text><ellipse cx="44.7126" cy="67.4766" fill="#08427B" rx="8" ry="8" style="stroke:#073B6F;stroke-width:0.5;"/><path d="M44.7126,75.4766 L44.7126,102.4766 M31.7126,83.4766 L57.7126,83.4766 M44.7126,102.4766 L31.7126,117.4766 M44.7126,102.4766 L57.7126,117.4766" fill="none" style="stroke:#073B6F;stroke-width:0.5;"/></g><g class="participant participant-tail" data-participant="Member"><text fill="#FFFFFF" font-family="'Segoe UI, Arial'" font-size="11" lengthAdjust="spacing" textLength="43.4253" x="20" y="624.0469">Member</text><text fill="#FFFFFF" font-family="'Segoe UI, Arial'" font-size="9" lengthAdjust="spacing" textLength="26.2722" x="28.5765" y="635.0684">&#3626;&#3617;&#3634;&#3594;&#3636;&#3585;</text><ellipse cx="44.7126" cy="645.4668" fill="#08427B" rx="8" ry="8" style="stroke:#073B6F;stroke-width:0.5;"/><path d="M44.7126,653.4668 L44.7126,680.4668 M31.7126,661.4668 L57.7126,661.4668 M44.7126,680.4668 L31.7126,695.4668 M44.7126,680.4668 L57.7126,695.4668" fill="none" style="stroke:#073B6F;stroke-width:0.5;"/></g><g class="participant participant-head" data-participant="Frontend"><rect fill="#438DD5" height="36.9551" rx="2.5" ry="2.5" style="stroke:#3C7FC0;stroke-width:0.5;" width="61.3784" x="171.1782" y="104.5762"/><text fill="#FFFFFF" font-family="'Segoe UI, Arial'" font-size="11" lengthAdjust="spacing" textLength="47.3784" x="178.1782" y="122.2109">Web App</text><text fill="#FFFFFF" font-family="'Segoe UI, Arial'" font-size="8" lengthAdjust="spacing" textLength="40.0938" x="181.8206" y="132.2656">[Frontend]</text></g><g class="participant participant-tail" data-participant="Frontend"><rect fill="#438DD5" height="36.9551" rx="2.5" ry="2.5" style="stroke:#3C7FC0;stroke-width:0.5;" width="61.3784" x="171.1782" y="613.4121"/><text fill="#FFFFFF" font-family="'Segoe UI, Arial'" font-size="11" lengthAdjust="spacing" textLength="47.3784" x="178.1782" y="631.0469">Web App</text><text fill="#FFFFFF" font-family="'Segoe UI, Arial'" font-size="8" lengthAdjust="spacing" textLength="40.0938" x="181.8206" y="641.1016">[Frontend]</text></g><g class="participant participant-head" data-participant="LoanService"><rect fill="#438DD5" height="36.9551" rx="2.5" ry="2.5" style="stroke:#3C7FC0;stroke-width:0.5;" width="80.1934" x="323.9148" y="104.5762"/><text fill="#FFFFFF" font-family="'Segoe UI, Arial'" font-size="11" lengthAdjust="spacing" textLength="66.1934" x="330.9148" y="122.2109">Loan Service</text><text fill="#FFFFFF" font-family="'Segoe UI, Arial'" font-size="8" lengthAdjust="spacing" textLength="37.4531" x="345.2849" y="132.2656">[Backend]</text></g><g class="participant participant-tail" data-participant="LoanService"><rect fill="#438DD5" height="36.9551" rx="2.5" ry="2.5" style="stroke:#3C7FC0;stroke-width:0.5;" width="80.1934" x="323.9148" y="613.4121"/><text fill="#FFFFFF" font-family="'Segoe UI, Arial'" font-size="11" lengthAdjust="spacing" textLength="66.1934" x="330.9148" y="631.0469">Loan Service</text><text fill="#FFFFFF" font-family="'Segoe UI, Arial'" font-size="8" lengthAdjust="spacing" textLength="37.4531" x="345.2849" y="641.1016">[Backend]</text></g><g class="participant participant-head" data-participant="Validator"><rect fill="#85BBF0" height="36.9551" rx="2.5" ry="2.5" style="stroke:#3C7FC0;stroke-width:0.5;" width="64.4492" x="512.3054" y="104.5762"/><text fill="#FFFFFF" font-family="'Segoe UI, Arial'" font-size="11" lengthAdjust="spacing" textLength="47.9961" x="520.532" y="122.2109">Validator</text><text fill="#FFFFFF" font-family="'Segoe UI, Arial'" font-size="8" lengthAdjust="spacing" textLength="50.4492" x="519.3054" y="132.2656">[Component]</text></g><g class="participant participant-tail" data-participant="Validator"><rect fill="#85BBF0" height="36.9551" rx="2.5" ry="2.5" style="stroke:#3C7FC0;stroke-width:0.5;" width="64.4492" x="512.3054" y="613.4121"/><text fill="#FFFFFF" font-family="'Segoe UI, Arial'" font-size="11" lengthAdjust="spacing" textLength="47.9961" x="520.532" y="631.0469">Validator</text><text fill="#FFFFFF" font-family="'Segoe UI, Arial'" font-size="8" lengthAdjust="spacing" textLength="50.4492" x="519.3054" y="641.1016">[Component]</text></g><g class="participant participant-head" data-participant="Calculator"><rect fill="#85BBF0" height="36.9551" rx="2.5" ry="2.5" style="stroke:#3C7FC0;stroke-width:0.5;" width="67.9526" x="586.7546" y="104.5762"/><text fill="#FFFFFF" font-family="'Segoe UI, Arial'" font-size="11" lengthAdjust="spacing" textLength="53.9526" x="593.7546" y="122.2109">Calculator</text><text fill="#FFFFFF" font-family="'Segoe UI, Arial'" font-size="8" lengthAdjust="spacing" textLength="50.4492" x="595.5063" y="132.2656">[Component]</text></g><g class="participant participant-tail" data-participant="Calculator"><rect fill="#85BBF0" height="36.9551" rx="2.5" ry="2.5" style="stroke:#3C7FC0;stroke-width:0.5;" width="67.9526" x="586.7546" y="613.4121"/><text fill="#FFFFFF" font-family="'Segoe UI, Arial'" font-size="11" lengthAdjust="spacing" textLength="53.9526" x="593.7546" y="631.0469">Calculator</text><text fill="#FFFFFF" font-family="'Segoe UI, Arial'" font-size="8" lengthAdjust="spacing" textLength="50.4492" x="595.5063" y="641.1016">[Component]</text></g><g class="participant participant-head" data-participant="DB"><text fill="#FFFFFF" font-family="'Segoe UI, Arial'" font-size="11" lengthAdjust="spacing" textLength="49.2368" x="664.7073" y="130.2109">Database</text><text fill="#FFFFFF" font-family="'Segoe UI, Arial'" font-size="8" lengthAdjust="spacing" textLength="49.1172" x="664.7671" y="140.2656">[PostgreSQL]</text><path d="M674.3257,83.5762 C674.3257,73.5762 692.3257,73.5762 692.3257,73.5762 C692.3257,73.5762 710.3257,73.5762 710.3257,83.5762 L710.3257,109.5762 C710.3257,119.5762 692.3257,119.5762 692.3257,119.5762 C692.3257,119.5762 674.3257,119.5762 674.3257,109.5762 L674.3257,83.5762" fill="#438DD5" style="stroke:#3C7FC0;stroke-width:0.5;"/><path d="M674.3257,83.5762 C674.3257,93.5762 692.3257,93.5762 692.3257,93.5762 C692.3257,93.5762 710.3257,93.5762 710.3257,83.5762" fill="none" style="stroke:#3C7FC0;stroke-width:0.5;"/></g><g class="participant participant-tail" data-participant="DB"><text fill="#FFFFFF" font-family="'Segoe UI, Arial'" font-size="11" lengthAdjust="spacing" textLength="49.2368" x="664.7073" y="624.0469">Database</text><text fill="#FFFFFF" font-family="'Segoe UI, Arial'" font-size="8" lengthAdjust="spacing" textLength="49.1172" x="664.7671" y="634.1016">[PostgreSQL]</text><path d="M674.3257,646.3672 C674.3257,636.3672 692.3257,636.3672 692.3257,636.3672 C692.3257,636.3672 710.3257,636.3672 710.3257,646.3672 L710.3257,672.3672 C710.3257,682.3672 692.3257,682.3672 692.3257,682.3672 C692.3257,682.3672 674.3257,682.3672 674.3257,672.3672 L674.3257,646.3672" fill="#438DD5" style="stroke:#3C7FC0;stroke-width:0.5;"/><path d="M674.3257,646.3672 C674.3257,656.3672 692.3257,656.3672 692.3257,656.3672 C692.3257,656.3672 710.3257,656.3672 710.3257,646.3672" fill="none" style="stroke:#3C7FC0;stroke-width:0.5;"/></g><g><title>Web App</title><rect fill="#438DD5" height="432.9258" style="stroke:#181818;stroke-width:1;" width="10" x="196.8674" y="171.4863"/></g><g><title>Loan Service</title><rect fill="#438DD5" height="405.9707" style="stroke:#181818;stroke-width:1;" width="10" x="359.0115" y="198.4414"/></g><g><title>Validator</title><rect fill="#85BBF0" height="80.8652" style="stroke:#181818;stroke-width:1;" width="10" x="539.53" y="225.3965"/></g><g><title>Calculator</title><rect fill="#85BBF0" height="26.9551" style="stroke:#181818;stroke-width:1;" width="10" x="615.731" y="355.1719"/></g><g class="message" data-participant-1="Member" data-participant-2="Frontend"><polygon fill="#707070" points="184.8674,167.4863,194.8674,171.4863,184.8674,175.4863,188.8674,171.4863" style="stroke:#707070;stroke-width:1;"/><line style="stroke:#707070;stroke-width:1;" x1="44.7126" x2="190.8674" y1="171.4863" y2="171.4863"/><text fill="#000000" font-family="'Segoe UI, Arial'" font-size="11" lengthAdjust="spacing" textLength="133.1548" x="51.7126" y="167.166">Fill loan application form</text></g><g class="message" data-participant-1="Frontend" data-participant-2="LoanService"><polygon fill="#707070" points="347.0115,194.4414,357.0115,198.4414,347.0115,202.4414,351.0115,198.4414" style="stroke:#707070;stroke-width:1;"/><line style="stroke:#707070;stroke-width:1;" x1="206.8674" x2="353.0115" y1="198.4414" y2="198.4414"/><text fill="#000000" font-family="'Segoe UI, Arial'" font-size="11" lengthAdjust="spacing" textLength="133.144" x="213.8674" y="194.1211">POST /api/loans/request</text></g><g class="message" data-participant-1="LoanService" data-participant-2="Validator"><polygon fill="#707070" points="527.53,221.3965,537.53,225.3965,527.53,229.3965,531.53,225.3965" style="stroke:#707070;stroke-width:1;"/><line style="stroke:#707070;stroke-width:1;" x1="369.0115" x2="533.53" y1="225.3965" y2="225.3965"/><text fill="#000000" font-family="'Segoe UI, Arial'" font-size="11" lengthAdjust="spacing" textLength="151.5186" x="376.0115" y="221.0762">validateEligibility(memberId)</text></g><g class="message" data-participant-1="Validator" data-participant-2="DB"><polygon fill="#707070" points="680.3257,248.3516,690.3257,252.3516,680.3257,256.3516,684.3257,252.3516" style="stroke:#707070;stroke-width:1;"/><line style="stroke:#707070;stroke-width:1;" x1="549.53" x2="686.3257" y1="252.3516" y2="252.3516"/><text fill="#000000" font-family="'Segoe UI, Arial'" font-size="11" lengthAdjust="spacing" textLength="116.1553" x="556.53" y="248.0313">Check member status</text></g><g class="message" data-participant-1="DB" data-participant-2="Validator"><polygon fill="#707070" points="560.53,275.3066,550.53,279.3066,560.53,283.3066,556.53,279.3066" style="stroke:#707070;stroke-width:1;"/><line style="stroke:#707070;stroke-width:1;stroke-dasharray:2,2;" x1="554.53" x2="691.3257" y1="279.3066" y2="279.3066"/><text fill="#000000" font-family="'Segoe UI, Arial'" font-size="11" lengthAdjust="spacing" textLength="70.0928" x="566.53" y="274.9863">Member data</text></g><g class="message" data-participant-1="Validator" data-participant-2="LoanService"><polygon fill="#707070" points="380.0115,302.2617,370.0115,306.2617,380.0115,310.2617,376.0115,306.2617" style="stroke:#707070;stroke-width:1;"/><line style="stroke:#707070;stroke-width:1;stroke-dasharray:2,2;" x1="374.0115" x2="543.53" y1="306.2617" y2="306.2617"/><text fill="#000000" font-family="'Segoe UI, Arial'" font-size="11" lengthAdjust="spacing" textLength="82.5215" x="386.0115" y="301.9414">Eligibility result</text></g><path d="M10,321.2617 L69.502,321.2617 L69.502,326.2168 L59.502,336.2168 L10,336.2168 L10,321.2617" fill="#EEEEEE" style="stroke:#000000;stroke-width:1.5;"/><rect fill="none" height="276.1504" style="stroke:#000000;stroke-width:1.5;" width="792.0083" x="10" y="321.2617"/><text fill="#000000" font-family="'Segoe UI, Arial'" font-size="11" font-weight="bold" lengthAdjust="spacing" textLength="14.502" x="25" y="332.8965">alt</text><text fill="#000000" font-family="'Segoe UI, Arial'" font-size="11" font-weight="bold" lengthAdjust="spacing" textLength="50.0586" x="84.502" y="333.8965">[Eligible]</text><g class="message" data-participant-1="LoanService" data-participant-2="Calculator"><polygon fill="#707070" points="603.731,351.1719,613.731,355.1719,603.731,359.1719,607.731,355.1719" style="stroke:#707070;stroke-width:1;"/><line style="stroke:#707070;stroke-width:1;" x1="369.0115" x2="609.731" y1="355.1719" y2="355.1719"/><text fill="#000000" font-family="'Segoe UI, Arial'" font-size="11" lengthAdjust="spacing" textLength="167.4331" x="376.0115" y="350.8516">calculateInterest(amount, term)</text></g><g class="message" data-participant-1="Calculator" data-participant-2="LoanService"><polygon fill="#707070" points="380.0115,378.127,370.0115,382.127,380.0115,386.127,376.0115,382.127" style="stroke:#707070;stroke-width:1;"/><line style="stroke:#707070;stroke-width:1;stroke-dasharray:2,2;" x1="374.0115" x2="619.731" y1="382.127" y2="382.127"/><text fill="#000000" font-family="'Segoe UI, Arial'" font-size="11" lengthAdjust="spacing" textLength="126.7739" x="386.0115" y="377.8066">Interest rate &amp; schedule</text></g><g class="message" data-participant-1="LoanService" data-participant-2="DB"><polygon fill="#707070" points="680.3257,405.082,690.3257,409.082,680.3257,413.082,684.3257,409.082" style="stroke:#707070;stroke-width:1;"/><line style="stroke:#707070;stroke-width:1;" x1="369.0115" x2="686.3257" y1="409.082" y2="409.082"/><text fill="#000000" font-family="'Segoe UI, Arial'" font-size="11" lengthAdjust="spacing" textLength="147.7319" x="376.0115" y="404.7617">Save loan (status: PENDING)</text></g><g class="message" data-participant-1="DB" data-participant-2="LoanService"><polygon fill="#707070" points="380.0115,432.0371,370.0115,436.0371,380.0115,440.0371,376.0115,436.0371" style="stroke:#707070;stroke-width:1;"/><line style="stroke:#707070;stroke-width:1;stroke-dasharray:2,2;" x1="374.0115" x2="691.3257" y1="436.0371" y2="436.0371"/><text fill="#000000" font-family="'Segoe UI, Arial'" font-size="11" lengthAdjust="spacing" textLength="40.4121" x="386.0115" y="431.7168">Loan ID</text></g><g class="message" data-participant-1="LoanService" data-participant-2="Frontend"><polygon fill="#707070" points="217.8674,458.9922,207.8674,462.9922,217.8674,466.9922,213.8674,462.9922" style="stroke:#707070;stroke-width:1;"/><line style="stroke:#707070;stroke-width:1;stroke-dasharray:2,2;" x1="211.8674" x2="358.0115" y1="462.9922" y2="462.9922"/><text fill="#000000" font-family="'Segoe UI, Arial'" font-size="11" lengthAdjust="spacing" textLength="65.8281" x="223.8674" y="458.6719">201 Created</text></g><g class="message" data-participant-1="Frontend" data-participant-2="Member"><polygon fill="#707070" points="55.7126,485.9473,45.7126,489.9473,55.7126,493.9473,51.7126,489.9473" style="stroke:#707070;stroke-width:1;"/><line style="stroke:#707070;stroke-width:1;stroke-dasharray:2,2;" x1="49.7126" x2="195.8674" y1="489.9473" y2="489.9473"/><text fill="#000000" font-family="'Segoe UI, Arial'" font-size="11" lengthAdjust="spacing" textLength="99.6284" x="61.7126" y="485.627">Show confirmation</text></g><path d="M697,502.9473 L697,522.9473 L792,522.9473 L792,512.9473 L782,502.9473 L697,502.9473" fill="#D4EDDA" style="stroke:#F59E0B;stroke-width:0.5;"/><path d="M782,502.9473 L782,512.9473 L792,512.9473 L782,502.9473" fill="#D4EDDA" style="stroke:#F59E0B;stroke-width:0.5;"/><text fill="#000000" font-family="'Segoe UI, Arial'" font-size="9" lengthAdjust="spacing" textLength="29.5708" x="703" y="516.6484">Status:</text><text fill="#000000" font-family="'Segoe UI, Arial'" font-size="9" font-weight="bold" lengthAdjust="spacing" textLength="41.5898" x="735.4185" y="516.6484">PENDING</text><line style="stroke:#000000;stroke-width:1;stroke-dasharray:2,2;" x1="10" x2="802.0083" y1="529.5469" y2="529.5469"/><text fill="#000000" font-family="'Segoe UI, Arial'" font-size="11" font-weight="bold" lengthAdjust="spacing" textLength="73.6216" x="15" y="540.1816">[Not Eligible]</text><g class="message" data-participant-1="LoanService" data-participant-2="Frontend"><polygon fill="#707070" points="217.8674,558.457,207.8674,562.457,217.8674,566.457,213.8674,562.457" style="stroke:#707070;stroke-width:1;"/><line style="stroke:#707070;stroke-width:1;stroke-dasharray:2,2;" x1="211.8674" x2="358.0115" y1="562.457" y2="562.457"/><text fill="#000000" font-family="'Segoe UI, Arial'" font-size="11" lengthAdjust="spacing" textLength="89.8369" x="223.8674" y="558.1367">400 Bad Request</text></g><g class="message" data-participant-1="Frontend" data-participant-2="Member"><polygon fill="#707070" points="55.7126,585.4121,45.7126,589.4121,55.7126,593.4121,51.7126,589.4121" style="stroke:#707070;stroke-width:1;"/><line style="stroke:#707070;stroke-width:1;stroke-dasharray:2,2;" x1="49.7126" x2="195.8674" y1="589.4121" y2="589.4121"/><text fill="#000000" font-family="'Segoe UI, Arial'" font-size="11" lengthAdjust="spacing" textLength="117.4551" x="61.7126" y="585.0918">Show rejection reason</text></g><text fill="#888888" font-family="'Segoe UI, Arial'" font-size="9" lengthAdjust="spacing" textLength="199.626" x="305.6912" y="828.1094">C4 Model - Sequence View | Loan Submission</text><rect fill="none" height="96.4414" rx="7.5" ry="7.5" style="stroke:#000000;stroke-width:1;" width="98.04" x="700.9683" y="709.9668"/><rect fill="#08427B" height="16.4883" style="stroke:none;stroke-width:1;" width="88.04" x="705.9683" y="716.9668"/><text fill="#000000" font-family="'Segoe UI, Arial'" font-size="14" lengthAdjust="spacing" textLength="36.3945" x="710.3979" y="730.502">Actor</text><rect fill="#438DD5" height="16.4883" style="stroke:none;stroke-width:1;" width="88.04" x="705.9683" y="733.4551"/><text fill="#000000" font-family="'Segoe UI, Arial'" font-size="14" lengthAdjust="spacing" textLength="47.332" x="710.3979" y="746.9902">Service</text><rect fill="#85BBF0" height="16.4883" style="stroke:none;stroke-width:1;" width="88.04" x="705.9683" y="749.9434"/><text fill="#000000" font-family="'Segoe UI, Arial'" font-size="14" lengthAdjust="spacing" textLength="79.1807" x="710.3979" y="763.4785">Component</text><rect fill="#D4EDDA" height="16.4883" style="stroke:none;stroke-width:1;" width="88.04" x="705.9683" y="766.4316"/><text fill="#000000" font-family="'Segoe UI, Arial'" font-size="14" lengthAdjust="spacing" textLength="52.6436" x="710.3979" y="779.9668">Success</text><rect fill="#F8D7DA" height="16.4883" style="stroke:none;stroke-width:1;" width="88.04" x="705.9683" y="782.9199"/><text fill="#000000" font-family="'Segoe UI, Arial'" font-size="14" lengthAdjust="spacing" textLength="45.5479" x="710.3979" y="796.4551">Failure</text><line style="stroke:#000000;stroke-width:1;" x1="705.9683" x2="794.0083" y1="716.9668" y2="716.9668"/><line style="stroke:#000000;stroke-width:1;" x1="705.9683" x2="794.0083" y1="733.4551" y2="733.4551"/><line style="stroke:#000000;stroke-width:1;" x1="705.9683" x2="794.0083" y1="749.9434" y2="749.9434"/><line style="stroke:#000000;stroke-width:1;" x1="705.9683" x2="794.0083" y1="766.4316" y2="766.4316"/><line style="stroke:#000000;stroke-width:1;" x1="705.9683" x2="794.0083" y1="782.9199" y2="782.9199"/><line style="stroke:#000000;stroke-width:1;" x1="705.9683" x2="794.0083" y1="799.4082" y2="799.4082"/><line style="stroke:#000000;stroke-width:1;" x1="705.9683" x2="705.9683" y1="716.9668" y2="799.4082"/><line style="stroke:#000000;stroke-width:1;" x1="794.0083" x2="794.0083" y1="716.9668" y2="799.4082"/><!--SRC=[hLRDRjj64BxpAGOoK3j63D6nNCc2Ia0YnK20eZYXaw18SrYHAsbhagikLpBIE8TU-nQzzbZqeCVHetIMorz9RYgW56n8ixFVV3FppIvFVpZkCKx1ex-iQEnJS1YP2nB11OmvYS5RJIEM98p7w6Itu1KFQ0YU_1nIT1ae3yBWH_ppo9h5ymHipfTK4CdMr3WzbeYHtBDuIHI1AV7lvuAlui3c8HTmugPFnIEWCx8AfSjZEI4HXOP7vvp2kz5pw0j6miPXNu_zIk7oihAOB4Z07v0zp4YOq2eB_2-PpvOabl3507m6kxnQLnt7kTPhN0HKPFOhk-tQPcfNOUjPvDQSpDTgKE9BT7qYdDbflMWFziEPxQl1z-uJuMhm0P5aIXBwloPKYv3aQj8H-aBmXyozRQfFQRvRCFy-faa2bwbnp6Pqp69QYrpPLAploUDQVUeyOYwVpD8TkfZGVfRkzStG7DGRTADW9PCe-bw2Xkvbn-fDhPq9wJMdLg-frgsVuipFj3xkZjQdRurDXc7Wn1qnmRVzjtSZUtJRdznvn-pKOckyej6KYfptZRNT_BdT_B7T_BNT_BxT_BtT_9RHQW19G7iNOgnEIUC3dK9_kSoXEjP7Ls0XQHnygaBana9lDH1TMYhMpASL9DN5NI3bcdaUndfFGeQQvw82PFDeoMCQonfKuGaddUl1m3NhG3O9_LNudv1ArmAg6Bk6atsheDpoHCu5zTwCQp3Ee4ZfE3LumpVlXXDx2ExuzOTZjXfPQo-iiaDTS5aOGgXwGfRBaFceKnx3Z8j8wOUj2SxPNaEDme9WrIvruVQrTmTDicHD1PeqXPgHH9PWXvfgL8q8MNQh2slzdGv3DcTJ5ZBv-InACna5pqhO_GQN5aJ4SdV1Nb3_7lHcI2IHgyJ0XOkTY5cTL5Uh87kfLXY1e0bUGaP0zmaP1Wabd3YjeUFqiqqXrKTUFUsAjBhWPp_e22kDyFACH7Z8oUU0FwDdwVuYs05HglMAUPz-ZWj28Nm7YR-WmIfZLaca14bN3X5Fguld7TLAEjErHJ4C9yveybAJpIfT9v6U1YFd2UIwL5-Obs0BYfm2VOWN8aI_h6b8Oy4VmEVnZ8ae5NE9dLuQWiqN4lWidK3Tb7HHFLx6-_myOtv-dgwf86gpXgBu9e6tISTfOpydNFvBJ-i9j4mJRuW0tcOpyOqa1FsP-kauOj899e9kHbLYbL1LSmvvvC4o7hx4f8_P4zAvOZxbKl985nPpUknbbuS5_VG6UjH6FUjMVlRdPYrN57z-skOBkZVel_9zzHQHcNNTiQw4XIkXO923Pc8OCuvT4f1VTSLhxKNv6loUqGTuXBqRNj_C_m00]--></g></svg>