<svg xmlns="http://www.w3.org/2000/svg" xmlns:xlink="http://www.w3.org/1999/xlink" contentStyleType="text/css" data-diagram-type="SEQUENCE" height="1111px" preserveAspectRatio="none" style="width:855px;height:1111px;background:#FFFFFF;" version="1.1" viewBox="0 0 855 1111" width="855px" zoomAndPan="magnify"><title>&lt;size:18&gt;&lt;b&gt;Loan Approval&lt;/b&gt;&lt;/size&gt;
&lt;size:10&gt;[Sequence Diagram] Ban Sai Yai Savings Cooperative&lt;/size&gt;</title><defs/><g><text fill="#000000" font-family="'Segoe UI, Arial'" font-size="18" font-weight="bold" lengthAdjust="spacing" textLength="134.2002" x="356.6667" y="32.4023">Loan Approval</text><text fill="#000000" font-family="'Segoe UI, Arial'" font-size="10" font-weight="bold" lengthAdjust="spacing" textLength="270.4248" x="288.5544" y="45.8672">[Sequence Diagram] Ban Sai Yai Savings Cooperative</text><g><title>Web App</title><rect fill="#438DD5" height="706.1211" style="stroke:#181818;stroke-width:1;" width="10" x="211.0117" y="171.4863"/></g><g><title>Loan Service</title><rect fill="#438DD5" height="80.8652" style="stroke:#181818;stroke-width:1;" width="10" x="419.1001" y="198.4414"/></g><g><title>Loan Service</title><rect fill="#438DD5" height="480.4805" style="stroke:#181818;stroke-width:1;" width="10" x="419.1001" y="382.127"/></g><g><title>Notification</title><rect fill="#85BBF0" height="26.9551" style="stroke:#181818;stroke-width:1;" width="10" x="639.8965" y="462.9922"/></g><g><title>Notification</title><rect fill="#85BBF0" height="26.9551" style="stroke:#181818;stroke-width:1;" width="10" x="639.8965" y="724.1875"/></g><rect fill="#D4EDDA" height="522.3906" style="stroke:#000000;stroke-width:1.5;" width="828.5337" x="10" y="348.2168"/><rect fill="#F8D7DA" height="261.1953" style="stroke:none;stroke-width:1;" width="828.5337" x="10" y="609.4121"/><g><title>President</title><rect fill="#000000" fill-opacity="0.00000" height="745.0762" width="8" x="43.7446" y="142.5313"/><line style="stroke:#707070;stroke-width:0.5;stroke-dasharray:5,5;" x1="47" x2="47" y1="142.5313" y2="887.6074"/></g><g><title>Web App</title><rect fill="#000000" fill-opacity="0.00000" height="745.0762" width="8" x="212.0117" y="142.5313"/><line style="stroke:#707070;stroke-width:0.5;stroke-dasharray:5,5;" x1="215.3225" x2="215.3225" y1="142.5313" y2="887.6074"/></g><g><title>Loan Service</title><rect fill="#000000" fill-opacity="0.00000" height="745.0762" width="8" x="420.1001" y="142.5313"/><line style="stroke:#707070;stroke-width:0.5;stroke-dasharray:5,5;" x1="424.0034" x2="424.0034" y1="142.5313" y2="887.6074"/></g><g><title>Notification</title><rect fill="#000000" fill-opacity="0.00000" height="745.0762" width="8" x="640.8965" y="142.5313"/><line style="stroke:#707070;stroke-width:0.5;stroke-dasharray:5,5;" x1="643.9026" x2="643.9026" y1="142.5313" y2="887.6074"/></g><g><title>Database</title><rect fill="#000000" fill-opacity="0.00000" height="745.0762" width="8" x="716.5088" y="142.5313"/><line style="stroke:#707070;stroke-width:0.5;stroke-dasharray:5,5;" x1="719.8904" x2="719.8904" y1="142.5313" y2="887.6074"/></g><g><title>Member</title><rect fill="#000000" fill-opacity="0.00000" height="745.0762" width="8" x="778.8398" y="142.5313"/><line style="stroke:#707070;stroke-width:0.5;stroke-dasharray:5,5;" x1="782.1272" x2="782.1272" y1="142.5313" y2="887.6074"/></g><g class="participant participant-head" data-participant="President"><text fill="#FFFFFF" font-family="'Segoe UI, Arial'" font-size="11" lengthAdjust="spacing" textLength="49.4893" x="20" y="129.6113">President</text><text fill="#FFFFFF" font-family="'Segoe UI, Arial'" font-size="9" lengthAdjust="spacing" textLength="29.1796" x="30.1548" y="140.6328">&#3611;&#3619;&#3632;&#3608;&#3634;&#3609;</text><ellipse cx="47.7446" cy="67.4766" fill="#08427B" rx="8" ry="8" style="stroke:#073B6F;stroke-width:0.5;"/><path d="M47.7446,75.4766 L47.7446,102.4766 M34.7446,83.4766 L60.7446,83.4766 M47.7446,102.4766 L34.7446,117.4766 M47.7446,102.4766 L60.7446,117.4766" fill="none" style="stroke:#073B6F;stroke-width:0.5;"/></g><g class="participant participant-tail" data-participant="President"><text fill="#FFFFFF" font-family="'Segoe UI, Arial'" font-size="11" lengthAdjust="spacing" textLength="49.4893" x="20" y="897.2422">President</text><text fill="#FFFFFF" font-family="'Segoe UI, Arial'" font-size="9" lengthAdjust="spacing" textLength="29.1796" x="30.1548" y="908.2637">&#3611;&#3619;&#3632;&#3608;&#3634;&#3609;</text><ellipse cx="47.7446" cy="918.6621" fill="#08427B" rx="8" ry="8" style="stroke:#073B6F;stroke-width:0.5;"/><path d="M47.7446,926.6621 L47.7446,953.6621 M34.7446,934.6621 L60.7446,934.6621 M47.7446,953.6621 L34.7446,968.6621 M47.7446,953.6621 L60.7446,968.6621" fill="none" style="stroke:#073B6F;stroke-width:0.5;"/></g><g class="participant participant-head" data-participant="Frontend"><rect fill="#438DD5" height="36.9551" rx="2.5" ry="2.5" style="stroke:#3C7FC0;stroke-width:0.5;" width="61.3784" x="185.3225" y="104.5762"/><text fill="#FFFFFF" font-family="'Segoe UI, Arial'" font-size="11" lengthAdjust="spacing" textLength="47.3784" x="192.3225" y="122.2109">Web App</text><text fill="#FFFFFF" font-family="'Segoe UI, Arial'" font-size="8" lengthAdjust="spacing" textLength="40.0938" x="195.9648" y="132.2656">[Frontend]</text></g><g class="participant participant-tail" data-participant="Frontend"><rect fill="#438DD5" height="36.9551" rx="2.5" ry="2.5" style="stroke:#3C7FC0;stroke-width:0.5;" width="61.3784" x="185.3225" y="886.6074"/><text fill="#FFFFFF" font-family="'Segoe UI, Arial'" font-size="11" lengthAdjust="spacing" textLength="47.3784" x="192.3225" y="904.2422">Web App</text><text fill="#FFFFFF" font-family="'Segoe UI, Arial'" font-size="8" lengthAdjust="spacing" textLength="40.0938" x="195.9648" y="914.2969">[Frontend]</text></g><g class="participant participant-head" data-participant="LoanService"><rect fill="#438DD5" height="36.9551" rx="2.5" ry="2.5" style="stroke:#3C7FC0;stroke-width:0.5;" width="80.1934" x="384.0034" y="104.5762"/><text fill="#FFFFFF" font-family="'Segoe UI, Arial'" font-size="11" lengthAdjust="spacing" textLength="66.1934" x="391.0034" y="122.2109">Loan Service</text><text fill="#FFFFFF" font-family="'Segoe UI, Arial'" font-size="8" lengthAdjust="spacing" textLength="37.4531" x="405.3735" y="132.2656">[Backend]</text></g><g class="participant participant-tail" data-participant="LoanService"><rect fill="#438DD5" height="36.9551" rx="2.5" ry="2.5" style="stroke:#3C7FC0;stroke-width:0.5;" width="80.1934" x="384.0034" y="886.6074"/><text fill="#FFFFFF" font-family="'Segoe UI, Arial'" font-size="11" lengthAdjust="spacing" textLength="66.1934" x="391.0034" y="904.2422">Loan Service</text><text fill="#FFFFFF" font-family="'Segoe UI, Arial'" font-size="8" lengthAdjust="spacing" textLength="37.4531" x="405.3735" y="914.2969">[Backend]</text></g><g class="participant participant-head" data-participant="Notifier"><rect fill="#85BBF0" height="36.9551" rx="2.5" ry="2.5" style="stroke:#3C7FC0;stroke-width:0.5;" width="75.9878" x="606.9026" y="104.5762"/><text fill="#FFFFFF" font-family="'Segoe UI, Arial'" font-size="11" lengthAdjust="spacing" textLength="61.9878" x="613.9026" y="122.2109">Notification</text><text fill="#FFFFFF" font-family="'Segoe UI, Arial'" font-size="8" lengthAdjust="spacing" textLength="50.4492" x="619.6719" y="132.2656">[Component]</text></g><g class="participant participant-tail" data-participant="Notifier"><rect fill="#85BBF0" height="36.9551" rx="2.5" ry="2.5" style="stroke:#3C7FC0;stroke-width:0.5;" width="75.9878" x="606.9026" y="886.6074"/><text fill="#FFFFFF" font-family="'Segoe UI, Arial'" font-size="11" lengthAdjust="spacing" textLength="61.9878" x="613.9026" y="904.2422">Notification</text><text fill="#FFFFFF" font-family="'Segoe UI, Arial'" font-size="8" lengthAdjust="spacing" textLength="50.4492" x="619.6719" y="914.2969">[Component]</text></g><g class="participant participant-head" data-participant="DB"><text fill="#FFFFFF" font-family="'Segoe UI, Arial'" font-size="11" lengthAdjust="spacing" textLength="49.2368" x="692.8904" y="130.2109">Database</text><text fill="#FFFFFF" font-family="'Segoe UI, Arial'" font-size="8" lengthAdjust="spacing" textLength="49.1172" x="692.9502" y="140.2656">[PostgreSQL]</text><path d="M702.5088,83.5762 C702.5088,73.5762 720.5088,73.5762 720.5088,73.5762 C720.5088,73.5762 738.5088,73.5762 738.5088,83.5762 L738.5088,109.5762 C738.5088,119.5762 720.5088,119.5762 720.5088,119.5762 C720.5088,119.5762 702.5088,119.5762 702.5088,109.5762 L702.5088,83.5762" fill="#438DD5" style="stroke:#3C7FC0;stroke-width:0.5;"/><path d="M702.5088,83.5762 C702.5088,93.5762 720.5088,93.5762 720.5088,93.5762 C720.5088,93.5762 738.5088,93.5762 738.5088,83.5762" fill="none" style="stroke:#3C7FC0;stroke-width:0.5;"/></g><g class="participant participant-tail" data-participant="DB"><text fill="#FFFFFF" font-family="'Segoe UI, Arial'" font-size="11" lengthAdjust="spacing" textLength="49.2368" x="692.8904" y="897.2422">Database</text><text fill="#FFFFFF" font-family="'Segoe UI, Arial'" font-size="8" lengthAdjust="spacing" textLength="49.1172" x="692.9502" y="907.2969">[PostgreSQL]</text><path d="M702.5088,919.5625 C702.5088,909.5625 720.5088,909.5625 720.5088,909.5625 C720.5088,909.5625 738.5088,909.5625 738.5088,919.5625 L738.5088,945.5625 C738.5088,955.5625 720.5088,955.5625 720.5088,955.5625 C720.5088,955.5625 702.5088,955.5625 702.5088,945.5625 L702.5088,919.5625" fill="#438DD5" style="stroke:#3C7FC0;stroke-width:0.5;"/><path d="M702.5088,919.5625 C702.5088,929.5625 720.5088,929.5625 720.5088,929.5625 C720.5088,929.5625 738.5088,929.5625 738.5088,919.5625" fill="none" style="stroke:#3C7FC0;stroke-width:0.5;"/></g><g class="participant participant-head" data-participant="Member"><text fill="#FFFFFF" font-family="'Segoe UI, Arial'" font-size="11" lengthAdjust="spacing" textLength="43.4253" x="758.1272" y="129.6113">Member</text><text fill="#FFFFFF" font-family="'Segoe UI, Arial'" font-size="9" lengthAdjust="spacing" textLength="26.2722" x="766.7037" y="140.6328">&#3626;&#3617;&#3634;&#3594;&#3636;&#3585;</text><ellipse cx="782.8398" cy="67.4766" fill="#08427B" rx="8" ry="8" style="stroke:#073B6F;stroke-width:0.5;"/><path d="M782.8398,75.4766 L782.8398,102.4766 M769.8398,83.4766 L795.8398,83.4766 M782.8398,102.4766 L769.8398,117.4766 M782.8398,102.4766 L795.8398,117.4766" fill="none" style="stroke:#073B6F;stroke-width:0.5;"/></g><g class="participant participant-tail" data-participant="Member"><text fill="#FFFFFF" font-family="'Segoe UI, Arial'" font-size="11" lengthAdjust="spacing" textLength="43.4253" x="758.1272" y="897.2422">Member</text><text fill="#FFFFFF" font-family="'Segoe UI, Arial'" font-size="9" lengthAdjust="spacing" textLength="26.2722" x="766.7037" y="908.2637">&#3626;&#3617;&#3634;&#3594;&#3636;&#3585;</text><ellipse cx="782.8398" cy="918.6621" fill="#08427B" rx="8" ry="8" style="stroke:#073B6F;stroke-width:0.5;"/><path d="M782.8398,926.6621 L782.8398,953.6621 M769.8398,934.6621 L795.8398,934.6621 M782.8398,953.6621 L769.8398,968.6621 M782.8398,953.6621 L795.8398,968.6621" fill="none" style="stroke:#073B6F;stroke-width:0.5;"/></g><g><title>Web App</title><rect fill="#438DD5" height="706.1211" style="stroke:#181818;stroke-width:1;" width="10" x="211.0117" y="171.4863"/></g><g><title>Loan Service</title><rect fill="#438DD5" height="80.8652" style="stroke:#181818;stroke-width:1;" width="10" x="419.1001" y="198.4414"/></g><g><title>Loan Service</title><rect fill="#438DD5" height="480.4805" style="stroke:#181818;stroke-width:1;" width="10" x="419.1001" y="382.127"/></g><g><title>Notification</title><rect fill="#85BBF0" height="26.9551" style="stroke:#181818;stroke-width:1;" width="10" x="639.8965" y="462.9922"/></g><g><title>Notification</title><rect fill="#85BBF0" height="26.9551" style="stroke:#181818;stroke-width:1;" width="10" x="639.8965" y="724.1875"/></g><g class="message" data-participant-1="President" data-participant-2="Frontend"><polygon fill="#707070" points="199.0117,167.4863,209.0117,171.4863,199.0117,175.4863,203.0117,171.4863" style="stroke:#707070;stroke-width:1;"/><line style="stroke:#707070;stroke-width:1;" x1="47.7446" x2="205.0117" y1="171.4863" y2="171.4863"/><text fill="#000000" font-family="'Segoe UI, Arial'" font-size="11" lengthAdjust="spacing" textLength="107.54" x="54.7446" y="167.166">View reviewed loans</text></g><g class="message" data-participant-1="Frontend" data-participant-2="LoanService"><polygon fill="#707070" points="407.1001,194.4414,417.1001,198.4414,407.1001,202.4414,411.1001,198.4414" style="stroke:#707070;stroke-width:1;"/><line style="stroke:#707070;stroke-width:1;" x1="221.0117" x2="413.1001" y1="198.4414" y2="198.4414"/><text fill="#000000" font-family="'Segoe UI, Arial'" font-size="11" lengthAdjust="spacing" textLength="179.0884" x="228.0117" y="194.1211">GET /api/loans?status=REVIEWED</text></g><g class="message" data-participant-1="LoanService" data-participant-2="DB"><polygon fill="#707070" points="708.5088,221.3965,718.5088,225.3965,708.5088,229.3965,712.5088,225.3965" style="stroke:#707070;stroke-width:1;"/><line style="stroke:#707070;stroke-width:1;" x1="429.1001" x2="714.5088" y1="225.3965" y2="225.3965"/><text fill="#000000" font-family="'Segoe UI, Arial'" font-size="11" lengthAdjust="spacing" textLength="111.1655" x="436.1001" y="221.0762">Fetch reviewed loans</text></g><g class="message" data-participant-1="DB" data-participant-2="LoanService"><polygon fill="#707070" points="440.1001,248.3516,430.1001,252.3516,440.1001,256.3516,436.1001,252.3516" style="stroke:#707070;stroke-width:1;"/><line style="stroke:#707070;stroke-width:1;stroke-dasharray:2,2;" x1="434.1001" x2="719.5088" y1="252.3516" y2="252.3516"/><text fill="#000000" font-family="'Segoe UI, Arial'" font-size="11" lengthAdjust="spacing" textLength="45.085" x="446.1001" y="248.0313">Loan list</text></g><g class="message" data-participant-1="LoanService" data-participant-2="Frontend"><polygon fill="#707070" points="232.0117,275.3066,222.0117,279.3066,232.0117,283.3066,228.0117,279.3066" style="stroke:#707070;stroke-width:1;"/><line style="stroke:#707070;stroke-width:1;stroke-dasharray:2,2;" x1="226.0117" x2="423.1001" y1="279.3066" y2="279.3066"/><text fill="#000000" font-family="'Segoe UI, Arial'" font-size="11" lengthAdjust="spacing" textLength="81.5386" x="238.0117" y="274.9863">Reviewed loans</text></g><g class="message" data-participant-1="Frontend" data-participant-2="President"><polygon fill="#707070" points="58.7446,302.2617,48.7446,306.2617,58.7446,310.2617,54.7446,306.2617" style="stroke:#707070;stroke-width:1;"/><line style="stroke:#707070;stroke-width:1;stroke-dasharray:2,2;" x1="52.7446" x2="210.0117" y1="306.2617" y2="306.2617"/><text fill="#000000" font-family="'Segoe UI, Arial'" font-size="11" lengthAdjust="spacing" textLength="139.2671" x="64.7446" y="301.9414">Display loans for approval</text></g><g class="message" data-participant-1="President" data-participant-2="Frontend"><polygon fill="#707070" points="199.0117,329.2168,209.0117,333.2168,199.0117,337.2168,203.0117,333.2168" style="stroke:#707070;stroke-width:1;"/><line style="stroke:#707070;stroke-width:1;" x1="47.7446" x2="205.0117" y1="333.2168" y2="333.2168"/><text fill="#000000" font-family="'Segoe UI, Arial'" font-size="11" lengthAdjust="spacing" textLength="106.9761" x="54.7446" y="328.8965">Select loan &amp; decide</text></g><path d="M10,348.2168 L69.502,348.2168 L69.502,353.1719 L59.502,363.1719 L10,363.1719 L10,348.2168" fill="#EEEEEE" style="stroke:#000000;stroke-width:1.5;"/><rect fill="none" height="522.3906" style="stroke:#000000;stroke-width:1.5;" width="828.5337" x="10" y="348.2168"/><text fill="#000000" font-family="'Segoe UI, Arial'" font-size="11" font-weight="bold" lengthAdjust="spacing" textLength="14.502" x="25" y="359.8516">alt</text><text fill="#000000" font-family="'Segoe UI, Arial'" font-size="11" font-weight="bold" lengthAdjust="spacing" textLength="55.8271" x="84.502" y="360.8516">[Approve]</text><g class="message" data-participant-1="Frontend" data-participant-2="LoanService"><polygon fill="#707070" points="407.1001,378.127,417.1001,382.127,407.1001,386.127,411.1001,382.127" style="stroke:#707070;stroke-width:1;"/><line style="stroke:#707070;stroke-width:1;" x1="221.0117" x2="413.1001" y1="382.127" y2="382.127"/><text fill="#000000" font-family="'Segoe UI, Arial'" font-size="11" lengthAdjust="spacing" textLength="152.0933" x="228.0117" y="377.8066">PUT /api/loans/{id}/approve</text></g><g class="message" data-participant-1="LoanService" data-participant-2="DB"><polygon fill="#707070" points="708.5088,405.082,718.5088,409.082,708.5088,413.082,712.5088,409.082" style="stroke:#707070;stroke-width:1;"/><line style="stroke:#707070;stroke-width:1;" x1="429.1001" x2="714.5088" y1="409.082" y2="409.082"/><text fill="#000000" font-family="'Segoe UI, Arial'" font-size="11" lengthAdjust="spacing" textLength="140.8892" x="436.1001" y="404.7617">Update status (APPROVED)</text></g><g class="message" data-participant-1="DB" data-participant-2="LoanService"><polygon fill="#707070" points="440.1001,432.0371,430.1001,436.0371,440.1001,440.0371,436.1001,436.0371" style="stroke:#707070;stroke-width:1;"/><line style="stroke:#707070;stroke-width:1;stroke-dasharray:2,2;" x1="434.1001" x2="719.5088" y1="436.0371" y2="436.0371"/><text fill="#000000" font-family="'Segoe UI, Arial'" font-size="11" lengthAdjust="spacing" textLength="41.3628" x="446.1001" y="431.7168">Success</text></g><g class="message" data-participant-1="LoanService" data-participant-2="Notifier"><polygon fill="#707070" points="627.8965,458.9922,637.8965,462.9922,627.8965,466.9922,631.8965,462.9922" style="stroke:#707070;stroke-width:1;"/><line style="stroke:#707070;stroke-width:1;" x1="429.1001" x2="633.8965" y1="462.9922" y2="462.9922"/><text fill="#000000" font-family="'Segoe UI, Arial'" font-size="11" lengthAdjust="spacing" textLength="148.9404" x="436.1001" y="458.6719">sendNotification(memberId)</text></g><g class="message" data-participant-1="Notifier" data-participant-2="LoanService"><polygon fill="#707070" points="440.1001,485.9473,430.1001,489.9473,440.1001,493.9473,436.1001,489.9473" style="stroke:#707070;stroke-width:1;"/><line style="stroke:#707070;stroke-width:1;stroke-dasharray:2,2;" x1="434.1001" x2="643.8965" y1="489.9473" y2="489.9473"/><text fill="#000000" font-family="'Segoe UI, Arial'" font-size="11" lengthAdjust="spacing" textLength="22.9937" x="446.1001" y="485.627">Sent</text></g><g class="message" data-participant-1="LoanService" data-participant-2="Frontend"><polygon fill="#707070" points="232.0117,512.9023,222.0117,516.9023,232.0117,520.9023,228.0117,516.9023" style="stroke:#707070;stroke-width:1;"/><line style="stroke:#707070;stroke-width:1;stroke-dasharray:2,2;" x1="226.0117" x2="418.1001" y1="516.9023" y2="516.9023"/><text fill="#000000" font-family="'Segoe UI, Arial'" font-size="11" lengthAdjust="spacing" textLength="107.3521" x="238.0117" y="512.582">200 OK (APPROVED)</text></g><g class="message" data-participant-1="Frontend" data-participant-2="President"><polygon fill="#707070" points="58.7446,539.8574,48.7446,543.8574,58.7446,547.8574,54.7446,543.8574" style="stroke:#707070;stroke-width:1;"/><line style="stroke:#707070;stroke-width:1;stroke-dasharray:2,2;" x1="52.7446" x2="210.0117" y1="543.8574" y2="543.8574"/><text fill="#000000" font-family="'Segoe UI, Arial'" font-size="11" lengthAdjust="spacing" textLength="78.9282" x="64.7446" y="539.5371">Loan approved</text></g><path d="M725,556.8574 L725,576.8574 L828,576.8574 L828,566.8574 L818,556.8574 L725,556.8574" fill="#D4EDDA" style="stroke:#F59E0B;stroke-width:0.5;"/><path d="M818,556.8574 L818,566.8574 L828,566.8574 L818,556.8574" fill="#D4EDDA" style="stroke:#F59E0B;stroke-width:0.5;"/><text fill="#000000" font-family="'Segoe UI, Arial'" font-size="9" lengthAdjust="spacing" textLength="29.5708" x="731" y="570.5586">Status:</text><text fill="#000000" font-family="'Segoe UI, Arial'" font-size="9" font-weight="bold" lengthAdjust="spacing" textLength="50.1152" x="763.4185" y="570.5586">APPROVED</text><g class="message" data-participant-1="Notifier" data-participant-2="Member"><polygon fill="#707070" points="770.8398,597.4121,780.8398,601.4121,770.8398,605.4121,774.8398,601.4121" style="stroke:#707070;stroke-width:1;"/><line style="stroke:#707070;stroke-width:1;" x1="644.8965" x2="776.8398" y1="601.4121" y2="601.4121"/><text fill="#000000" font-family="'Segoe UI, Arial'" font-size="11" lengthAdjust="spacing" textLength="92.834" x="651.8965" y="597.0918">Email notification</text></g><line style="stroke:#000000;stroke-width:1;stroke-dasharray:2,2;" x1="10" x2="838.5337" y1="610.4121" y2="610.4121"/><text fill="#000000" font-family="'Segoe UI, Arial'" font-size="11" font-weight="bold" lengthAdjust="spacing" textLength="42.6089" x="15" y="621.0469">[Reject]</text><g class="message" data-participant-1="Frontend" data-participant-2="LoanService"><polygon fill="#707070" points="407.1001,639.3223,417.1001,643.3223,407.1001,647.3223,411.1001,643.3223" style="stroke:#707070;stroke-width:1;"/><line style="stroke:#707070;stroke-width:1;" x1="221.0117" x2="413.1001" y1="643.3223" y2="643.3223"/><text fill="#000000" font-family="'Segoe UI, Arial'" font-size="11" lengthAdjust="spacing" textLength="138.9448" x="228.0117" y="639.002">PUT /api/loans/{id}/reject</text></g><g class="message" data-participant-1="LoanService" data-participant-2="DB"><polygon fill="#707070" points="708.5088,666.2773,718.5088,670.2773,708.5088,674.2773,712.5088,670.2773" style="stroke:#707070;stroke-width:1;"/><line style="stroke:#707070;stroke-width:1;" x1="429.1001" x2="714.5088" y1="670.2773" y2="670.2773"/><text fill="#000000" font-family="'Segoe UI, Arial'" font-size="11" lengthAdjust="spacing" textLength="135.314" x="436.1001" y="665.957">Update status (REJECTED)</text></g><g class="message" data-participant-1="DB" data-participant-2="LoanService"><polygon fill="#707070" points="440.1001,693.2324,430.1001,697.2324,440.1001,701.2324,436.1001,697.2324" style="stroke:#707070;stroke-width:1;"/><line style="stroke:#707070;stroke-width:1;stroke-dasharray:2,2;" x1="434.1001" x2="719.5088" y1="697.2324" y2="697.2324"/><text fill="#000000" font-family="'Segoe UI, Arial'" font-size="11" lengthAdjust="spacing" textLength="41.3628" x="446.1001" y="692.9121">Success</text></g><g class="message" data-participant-1="LoanService" data-participant-2="Notifier"><polygon fill="#707070" points="627.8965,720.1875,637.8965,724.1875,627.8965,728.1875,631.8965,724.1875" style="stroke:#707070;stroke-width:1;"/><line style="stroke:#707070;stroke-width:1;" x1="429.1001" x2="633.8965" y1="724.1875" y2="724.1875"/><text fill="#000000" font-family="'Segoe UI, Arial'" font-size="11" lengthAdjust="spacing" textLength="191.7964" x="436.1001" y="719.8672">sendNotification(memberId, reason)</text></g><g class="message" data-participant-1="Notifier" data-participant-2="LoanService"><polygon fill="#707070" points="440.1001,747.1426,430.1001,751.1426,440.1001,755.1426,436.1001,751.1426" style="stroke:#707070;stroke-width:1;"/><line style="stroke:#707070;stroke-width:1;stroke-dasharray:2,2;" x1="434.1001" x2="643.8965" y1="751.1426" y2="751.1426"/><text fill="#000000" font-family="'Segoe UI, Arial'" font-size="11" lengthAdjust="spacing" textLength="22.9937" x="446.1001" y="746.8223">Sent</text></g><g class="message" data-participant-1="LoanService" data-participant-2="Frontend"><polygon fill="#707070" points="232.0117,774.0977,222.0117,778.0977,232.0117,782.0977,228.0117,778.0977" style="stroke:#707070;stroke-width:1;"/><line style="stroke:#707070;stroke-width:1;stroke-dasharray:2,2;" x1="226.0117" x2="418.1001" y1="778.0977" y2="778.0977"/><text fill="#000000" font-family="'Segoe UI, Arial'" font-size="11" lengthAdjust="spacing" textLength="101.7769" x="238.0117" y="773.7773">200 OK (REJECTED)</text></g><g class="message" data-participant-1="Frontend" data-participant-2="President"><polygon fill="#707070" points="58.7446,801.0527,48.7446,805.0527,58.7446,809.0527,54.7446,805.0527" style="stroke:#707070;stroke-width:1;"/><line style="stroke:#707070;stroke-width:1;stroke-dasharray:2,2;" x1="52.7446" x2="210.0117" y1="805.0527" y2="805.0527"/><text fill="#000000" font-family="'Segoe UI, Arial'" font-size="11" lengthAdjust="spacing" textLength="71.9082" x="64.7446" y="800.7324">Loan rejected</text></g><path d="M725,818.0527 L725,838.0527 L824,838.0527 L824,828.0527 L814,818.0527 L725,818.0527" fill="#F8D7DA" style="stroke:#F59E0B;stroke-width:0.5;"/><path d="M814,818.0527 L814,828.0527 L824,828.0527 L814,818.0527" fill="#F8D7DA" style="stroke:#F59E0B;stroke-width:0.5;"/><text fill="#000000" font-family="'Segoe UI, Arial'" font-size="9" lengthAdjust="spacing" textLength="29.5708" x="731" y="831.7539">Status:</text><text fill="#000000" font-family="'Segoe UI, Arial'" font-size="9" font-weight="bold" lengthAdjust="spacing" textLength="45.9492" x="763.4185" y="831.7539">REJECTED</text><g class="message" data-participant-1="Notifier" data-participant-2="Member"><polygon fill="#707070" points="770.8398,858.6074,780.8398,862.6074,770.8398,866.6074,774.8398,862.6074" style="stroke:#707070;stroke-width:1;"/><line style="stroke:#707070;stroke-width:1;" x1="644.8965" x2="776.8398" y1="862.6074" y2="862.6074"/><text fill="#000000" font-family="'Segoe UI, Arial'" font-size="11" lengthAdjust="spacing" textLength="92.834" x="651.8965" y="858.2871">Email notification</text></g><text fill="#888888" font-family="'Segoe UI, Arial'" font-size="9" lengthAdjust="spacing" textLength="188.6133" x="329.4602" y="1101.3047">C4 Model - Sequence View | Loan Approval</text><rect fill="none" height="96.4414" rx="7.5" ry="7.5" style="stroke:#000000;stroke-width:1;" width="98.04" x="737.4937" y="983.1621"/><rect fill="#08427B" height="16.4883" style="stroke:none;stroke-width:1;" width="88.04" x="742.4937" y="990.1621"/><text fill="#000000" font-family="'Segoe UI, Arial'" font-size="14" lengthAdjust="spacing" textLength="36.3945" x="746.9233" y="1003.6973">Actor</text><rect fill="#438DD5" height="16.4883" style="stroke:none;stroke-width:1;" width="88.04" x="742.4937" y="1006.6504"/><text fill="#000000" font-family="'Segoe UI, Arial'" font-size="14" lengthAdjust="spacing" textLength="47.332" x="746.9233" y="1020.1855">Service</text><rect fill="#85BBF0" height="16.4883" style="stroke:none;stroke-width:1;" width="88.04" x="742.4937" y="1023.1387"/><text fill="#000000" font-family="'Segoe UI, Arial'" font-size="14" lengthAdjust="spacing" textLength="79.1807" x="746.9233" y="1036.6738">Component</text><rect fill="#D4EDDA" height="16.4883" style="stroke:none;stroke-width:1;" width="88.04" x="742.4937" y="1039.627"/><text fill="#000000" font-family="'Segoe UI, Arial'" font-size="14" lengthAdjust="spacing" textLength="65.4678" x="746.9233" y="1053.1621">Approved</text><rect fill="#F8D7DA" height="16.4883" style="stroke:none;stroke-width:1;" width="88.04" x="742.4937" y="1056.1152"/><text fill="#000000" font-family="'Segoe UI, Arial'" font-size="14" lengthAdjust="spacing" textLength="57.7295" x="746.9233" y="1069.6504">Rejected</text><line style="stroke:#000000;stroke-width:1;" x1="742.4937" x2="830.5337" y1="990.1621" y2="990.1621"/><line style="stroke:#000000;stroke-width:1;" x1="742.4937" x2="830.5337" y1="1006.6504" y2="1006.6504"/><line style="stroke:#000000;stroke-width:1;" x1="742.4937" x2="830.5337" y1="1023.1387" y2="1023.1387"/><line style="stroke:#000000;stroke-width:1;" x1="742.4937" x2="830.5337" y1="1039.627" y2="1039.627"/><line style="stroke:#000000;stroke-width:1;" x1="742.4937" x2="830.5337" y1="1056.1152" y2="1056.1152"/><line style="stroke:#000000;stroke-width:1;" x1="742.4937" x2="830.5337" y1="1072.6035" y2="1072.6035"/><line style="stroke:#000000;stroke-width:1;" x1="742.4937" x2="742.4937" y1="990.1621" y2="1072.6035"/><line style="stroke:#000000;stroke-width:1;" x1="830.5337" x2="830.5337" y1="990.1621" y2="1072.6035"/><!--SRC=[pLVDRjj64BxpAHOgK2T61CcnNSc2ma8IoK2j8YkYRAD8SrYH8tbhYgkIAnbfd4ElVO8MFHMzzLGKFUXnz2YTvV9NFsvLf40f-0UpCz_CV3EpGnszEEpHZeWDtox0Tu0OZ4u3EYDbqkFK9wtvFE1Bwg5AvuoyuYvun1RlF425DfxRb96lyCUcI-PFGzBXV0u15Mm9sj6XOMZX7VFdLBeVK-Tk6l25xtQunmFoYHKzEGqN9dJX2OlxeazdG4esJ3cGg-upqWeOzKgxTMts7P2JaznXU4jTVe_HamdrGj0mrNAvBDDLhWVK0o502dDM-5imXysfByXxZU3JtWpvxBHk6EVgZ0Sk1B7yj5EpEjL8BYCg9fX8apW_v5cXZa3LFUwgzRFdjVQskshjjFsPjSTT0TwbWevf21yreOA7C6apvQ4L1Fm-LgzLvISJZswPS-T369AJIDXZ4-Wn7mgUSqRf-LRddCjFCGwVYxrPMgQ52MrdQPrVcDLsiK0N4bOmWVFG357GEAdhpR5U69rcPQmtA_9K_zgFjQhwcys9U_jtynHZoFuyOB07hU6es-aEMlsHVOYbQhNI882GkU2B9FGBVRtwURtwTRtwVRtwSRtwOxtwAOwiH6X8KeEq8VEJKhg1iIGcGQlhRwm0oGJVVPj7IOHfpnL08dfj29RCWHoIhEGca5IDDNTZzRbW4-OWmzpFONNuRCvzJAE0ffG1cw5-tcvRLIsTc98H_vV36F1GJ0EmN_SA84OxZIGc-HNCnX3a6VvjlVebulQ7zUhFzUhxlBtIJkazh1riy_MLsU-OnEfTtXnYgcM5BUjPVHhaci4z2M29Vy0b7l8TohpOakA8RTLHIoM8aYzEWxmqHwH2vwmIONmU2YeMuOkXUTqrRqmZmznLqhmCWP7Y1h50EBURaU59USjpr4yU2qKHfvZdi0Zamgw0ylcXUSPP0ySyd7lqdJ8d4wmxJNRhNcvjyC0HaGdv5BUOWqgQHZqSBkFCD8nMVCc0kfNsKZkuobDRUS_S3nMQitoKMwcWRjWT95_DNMcdYaMUj0Q3uUMrQJoD37QIRIyS1s_rlR3fZ3LmM_XkVZwVpABMxxfFYr5lZQKyJOKxGa2c8vrS4HFrFN4Lw_AyMYMNNswckxVqKN_5VBkPWsW91MnwAmYVHDU2AcfqA1yxOhL1ZeyJHyV7qQ5q8gqph2nRFRaW6iISKUP9nPH1PG3uceFxh6xKi8E6y0tssBzee20p_AVjCJI_C3kZ_xmzdk7Kqv3x_vSsAQRzU9ieLXzl4rMv7MsIEFeeRRBdXaDGBN_x9UaSk8XwvakpRnnYuy5K9ZJcGl2P8WJZV6Z6Yr0dhMYRFYYXkhpqv3KX4QlAwoJTxyc16ZqzkL3THAwurkCnYUGOXOf5qoOSwGr8ihZJhqZbx0jLj1yVoCOheNgL-mi0]--></g></svg>