<svg xmlns="http://www.w3.org/2000/svg" xmlns:xlink="http://www.w3.org/1999/xlink" width="819" height="838" contentStyleType="text/css" data-diagram-type="SEQUENCE" style="width:819px;height:838px;background:#fff" preserveAspectRatio="none" version="1.1" viewBox="0 0 819 838" zoomAndPan="magnify"><title>&lt;size:18&gt;&lt;b&gt;Loan Submission&lt;/b&gt;&lt;/size&gt; &lt;size:10&gt;[Sequence Diagram] Ban Sai Yai Savings Cooperative&lt;/size&gt;</title><g><text x="326.921" y="32.402" fill="#000" font-family="'Segoe UI, Arial'" font-size="18" font-weight="bold" lengthAdjust="spacing" textLength="157.166">Loan Submission</text><text x="270.292" y="45.867" fill="#000" font-family="'Segoe UI, Arial'" font-size="10" font-weight="bold" lengthAdjust="spacing" textLength="270.425">[Sequence Diagram] Ban Sai Yai Savings Cooperative</text><g><title>Web App</title><rect style="stroke:#181818;stroke-width:1" width="10" height="432.926" x="196.867" y="171.486" fill="#438DD5"/></g><g><title>Loan Service</title><rect style="stroke:#181818;stroke-width:1" width="10" height="405.971" x="359.012" y="198.441" fill="#438DD5"/></g><g><title>Validator</title><rect style="stroke:#181818;stroke-width:1" width="10" height="80.865" x="539.53" y="225.397" fill="#85BBF0"/></g><g><title>Calculator</title><rect style="stroke:#181818;stroke-width:1" width="10" height="26.955" x="615.731" y="355.172" fill="#85BBF0"/></g><rect style="stroke:#000;stroke-width:1.5" width="792.008" height="276.15" x="10" y="321.262" fill="#D4EDDA"/><rect style="stroke:none;stroke-width:1" width="792.008" height="68.865" x="10" y="528.547" fill="#F8D7DA"/><g><title>Member</title><rect width="8" height="471.881" x="40.713" y="142.531" fill="#000" fill-opacity="0"/><line style="stroke:#707070;stroke-width:.5;stroke-dasharray:5,5" x1="44" x2="44" y1="142.531" y2="614.412"/></g><g><title>Web App</title><rect width="8" height="471.881" x="197.867" y="142.531" fill="#000" fill-opacity="0"/><line style="stroke:#707070;stroke-width:.5;stroke-dasharray:5,5" x1="201.178" x2="201.178" y1="142.531" y2="614.412"/></g><g><title>Loan Service</title><rect width="8" height="471.881" x="360.012" y="142.531" fill="#000" fill-opacity="0"/><line style="stroke:#707070;stroke-width:.5;stroke-dasharray:5,5" x1="363.915" x2="363.915" y1="142.531" y2="614.412"/></g><g><title>Validator</title><rect width="8" height="471.881" x="540.53" y="142.531" fill="#000" fill-opacity="0"/><line style="stroke:#707070;stroke-width:.5;stroke-dasharray:5,5" x1="544.305" x2="544.305" y1="142.531" y2="614.412"/></g><g><title>Calculator</title><rect width="8" height="471.881" x="616.731" y="142.531" fill="#000" fill-opacity="0"/><line style="stroke:#707070;stroke-width:.5;stroke-dasharray:5,5" x1="619.755" x2="619.755" y1="142.531" y2="614.412"/></g><g><title>Database</title><rect width="8" height="471.881" x="688.326" y="142.531" fill="#000" fill-opacity="0"/><line style="stroke:#707070;stroke-width:.5;stroke-dasharray:5,5" x1="691.707" x2="691.707" y1="142.531" y2="614.412"/></g><g class="participant participant-head" data-participant="Member"><text x="20" y="129.611" fill="#FFF" font-family="'Segoe UI, Arial'" font-size="11" lengthAdjust="spacing" textLength="43.425">Member</text><text x="28.576" y="140.633" fill="#FFF" font-family="'Segoe UI, Arial'" font-size="9" lengthAdjust="spacing" textLength="26.272">สมาชิก</text><ellipse cx="44.713" cy="67.477" fill="#08427B" rx="8" ry="8" style="stroke:#073b6f;stroke-width:.5"/><path fill="none" d="M44.7126,75.4766 L44.7126,102.4766 M31.7126,83.4766 L57.7126,83.4766 M44.7126,102.4766 L31.7126,117.4766 M44.7126,102.4766 L57.7126,117.4766" style="stroke:#073b6f;stroke-width:.5"/></g><g class="participant participant-tail" data-participant="Member"><text x="20" y="624.047" fill="#FFF" font-family="'Segoe UI, Arial'" font-size="11" lengthAdjust="spacing" textLength="43.425">Member</text><text x="28.576" y="635.068" fill="#FFF" font-family="'Segoe UI, Arial'" font-size="9" lengthAdjust="spacing" textLength="26.272">สมาชิก</text><ellipse cx="44.713" cy="645.467" fill="#08427B" rx="8" ry="8" style="stroke:#073b6f;stroke-width:.5"/><path fill="none" d="M44.7126,653.4668 L44.7126,680.4668 M31.7126,661.4668 L57.7126,661.4668 M44.7126,680.4668 L31.7126,695.4668 M44.7126,680.4668 L57.7126,695.4668" style="stroke:#073b6f;stroke-width:.5"/></g><g class="participant participant-head" data-participant="Frontend"><rect style="stroke:#3c7fc0;stroke-width:.5" width="61.378" height="36.955" x="171.178" y="104.576" fill="#438DD5" rx="2.5" ry="2.5"/><text x="178.178" y="122.211" fill="#FFF" font-family="'Segoe UI, Arial'" font-size="11" lengthAdjust="spacing" textLength="47.378">Web App</text><text x="181.821" y="132.266" fill="#FFF" font-family="'Segoe UI, Arial'" font-size="8" lengthAdjust="spacing" textLength="40.094">[Frontend]</text></g><g class="participant participant-tail" data-participant="Frontend"><rect style="stroke:#3c7fc0;stroke-width:.5" width="61.378" height="36.955" x="171.178" y="613.412" fill="#438DD5" rx="2.5" ry="2.5"/><text x="178.178" y="631.047" fill="#FFF" font-family="'Segoe UI, Arial'" font-size="11" lengthAdjust="spacing" textLength="47.378">Web App</text><text x="181.821" y="641.102" fill="#FFF" font-family="'Segoe UI, Arial'" font-size="8" lengthAdjust="spacing" textLength="40.094">[Frontend]</text></g><g class="participant participant-head" data-participant="LoanService"><rect style="stroke:#3c7fc0;stroke-width:.5" width="80.193" height="36.955" x="323.915" y="104.576" fill="#438DD5" rx="2.5" ry="2.5"/><text x="330.915" y="122.211" fill="#FFF" font-family="'Segoe UI, Arial'" font-size="11" lengthAdjust="spacing" textLength="66.193">Loan Service</text><text x="345.285" y="132.266" fill="#FFF" font-family="'Segoe UI, Arial'" font-size="8" lengthAdjust="spacing" textLength="37.453">[Backend]</text></g><g class="participant participant-tail" data-participant="LoanService"><rect style="stroke:#3c7fc0;stroke-width:.5" width="80.193" height="36.955" x="323.915" y="613.412" fill="#438DD5" rx="2.5" ry="2.5"/><text x="330.915" y="631.047" fill="#FFF" font-family="'Segoe UI, Arial'" font-size="11" lengthAdjust="spacing" textLength="66.193">Loan Service</text><text x="345.285" y="641.102" fill="#FFF" font-family="'Segoe UI, Arial'" font-size="8" lengthAdjust="spacing" textLength="37.453">[Backend]</text></g><g class="participant participant-head" data-participant="Validator"><rect style="stroke:#3c7fc0;stroke-width:.5" width="64.449" height="36.955" x="512.305" y="104.576" fill="#85BBF0" rx="2.5" ry="2.5"/><text x="520.532" y="122.211" fill="#FFF" font-family="'Segoe UI, Arial'" font-size="11" lengthAdjust="spacing" textLength="47.996">Validator</text><text x="519.305" y="132.266" fill="#FFF" font-family="'Segoe UI, Arial'" font-size="8" lengthAdjust="spacing" textLength="50.449">[Component]</text></g><g class="participant participant-tail" data-participant="Validator"><rect style="stroke:#3c7fc0;stroke-width:.5" width="64.449" height="36.955" x="512.305" y="613.412" fill="#85BBF0" rx="2.5" ry="2.5"/><text x="520.532" y="631.047" fill="#FFF" font-family="'Segoe UI, Arial'" font-size="11" lengthAdjust="spacing" textLength="47.996">Validator</text><text x="519.305" y="641.102" fill="#FFF" font-family="'Segoe UI, Arial'" font-size="8" lengthAdjust="spacing" textLength="50.449">[Component]</text></g><g class="participant participant-head" data-participant="Calculator"><rect style="stroke:#3c7fc0;stroke-width:.5" width="67.953" height="36.955" x="586.755" y="104.576" fill="#85BBF0" rx="2.5" ry="2.5"/><text x="593.755" y="122.211" fill="#FFF" font-family="'Segoe UI, Arial'" font-size="11" lengthAdjust="spacing" textLength="53.953">Calculator</text><text x="595.506" y="132.266" fill="#FFF" font-family="'Segoe UI, Arial'" font-size="8" lengthAdjust="spacing" textLength="50.449">[Component]</text></g><g class="participant participant-tail" data-participant="Calculator"><rect style="stroke:#3c7fc0;stroke-width:.5" width="67.953" height="36.955" x="586.755" y="613.412" fill="#85BBF0" rx="2.5" ry="2.5"/><text x="593.755" y="631.047" fill="#FFF" font-family="'Segoe UI, Arial'" font-size="11" lengthAdjust="spacing" textLength="53.953">Calculator</text><text x="595.506" y="641.102" fill="#FFF" font-family="'Segoe UI, Arial'" font-size="8" lengthAdjust="spacing" textLength="50.449">[Component]</text></g><g class="participant participant-head" data-participant="DB"><text x="664.707" y="130.211" fill="#FFF" font-family="'Segoe UI, Arial'" font-size="11" lengthAdjust="spacing" textLength="49.237">Database</text><text x="664.767" y="140.266" fill="#FFF" font-family="'Segoe UI, Arial'" font-size="8" lengthAdjust="spacing" textLength="49.117">[PostgreSQL]</text><path fill="#438DD5" d="M674.3257,83.5762 C674.3257,73.5762 692.3257,73.5762 692.3257,73.5762 C692.3257,73.5762 710.3257,73.5762 710.3257,83.5762 L710.3257,109.5762 C710.3257,119.5762 692.3257,119.5762 692.3257,119.5762 C692.3257,119.5762 674.3257,119.5762 674.3257,109.5762 L674.3257,83.5762" style="stroke:#3c7fc0;stroke-width:.5"/><path fill="none" d="M674.3257,83.5762 C674.3257,93.5762 692.3257,93.5762 692.3257,93.5762 C692.3257,93.5762 710.3257,93.5762 710.3257,83.5762" style="stroke:#3c7fc0;stroke-width:.5"/></g><g class="participant participant-tail" data-participant="DB"><text x="664.707" y="624.047" fill="#FFF" font-family="'Segoe UI, Arial'" font-size="11" lengthAdjust="spacing" textLength="49.237">Database</text><text x="664.767" y="634.102" fill="#FFF" font-family="'Segoe UI, Arial'" font-size="8" lengthAdjust="spacing" textLength="49.117">[PostgreSQL]</text><path fill="#438DD5" d="M674.3257,646.3672 C674.3257,636.3672 692.3257,636.3672 692.3257,636.3672 C692.3257,636.3672 710.3257,636.3672 710.3257,646.3672 L710.3257,672.3672 C710.3257,682.3672 692.3257,682.3672 692.3257,682.3672 C692.3257,682.3672 674.3257,682.3672 674.3257,672.3672 L674.3257,646.3672" style="stroke:#3c7fc0;stroke-width:.5"/><path fill="none" d="M674.3257,646.3672 C674.3257,656.3672 692.3257,656.3672 692.3257,656.3672 C692.3257,656.3672 710.3257,656.3672 710.3257,646.3672" style="stroke:#3c7fc0;stroke-width:.5"/></g><g><title>Web App</title><rect style="stroke:#181818;stroke-width:1" width="10" height="432.926" x="196.867" y="171.486" fill="#438DD5"/></g><g><title>Loan Service</title><rect style="stroke:#181818;stroke-width:1" width="10" height="405.971" x="359.012" y="198.441" fill="#438DD5"/></g><g><title>Validator</title><rect style="stroke:#181818;stroke-width:1" width="10" height="80.865" x="539.53" y="225.397" fill="#85BBF0"/></g><g><title>Calculator</title><rect style="stroke:#181818;stroke-width:1" width="10" height="26.955" x="615.731" y="355.172" fill="#85BBF0"/></g><g class="message" data-participant-1="Member" data-participant-2="Frontend"><polygon fill="#707070" points="184.867 167.486 194.867 171.486 184.867 175.486 188.867 171.486" style="stroke:#707070;stroke-width:1"/><line style="stroke:#707070;stroke-width:1" x1="44.713" x2="190.867" y1="171.486" y2="171.486"/><text x="51.713" y="167.166" fill="#000" font-family="'Segoe UI, Arial'" font-size="11" lengthAdjust="spacing" textLength="133.155">Fill loan application form</text></g><g class="message" data-participant-1="Frontend" data-participant-2="LoanService"><polygon fill="#707070" points="347.012 194.441 357.012 198.441 347.012 202.441 351.012 198.441" style="stroke:#707070;stroke-width:1"/><line style="stroke:#707070;stroke-width:1" x1="206.867" x2="353.012" y1="198.441" y2="198.441"/><text x="213.867" y="194.121" fill="#000" font-family="'Segoe UI, Arial'" font-size="11" lengthAdjust="spacing" textLength="133.144">POST /api/loans/request</text></g><g class="message" data-participant-1="LoanService" data-participant-2="Validator"><polygon fill="#707070" points="527.53 221.397 537.53 225.397 527.53 229.397 531.53 225.397" style="stroke:#707070;stroke-width:1"/><line style="stroke:#707070;stroke-width:1" x1="369.012" x2="533.53" y1="225.397" y2="225.397"/><text x="376.012" y="221.076" fill="#000" font-family="'Segoe UI, Arial'" font-size="11" lengthAdjust="spacing" textLength="151.519">validateEligibility(memberId)</text></g><g class="message" data-participant-1="Validator" data-participant-2="DB"><polygon fill="#707070" points="680.326 248.352 690.326 252.352 680.326 256.352 684.326 252.352" style="stroke:#707070;stroke-width:1"/><line style="stroke:#707070;stroke-width:1" x1="549.53" x2="686.326" y1="252.352" y2="252.352"/><text x="556.53" y="248.031" fill="#000" font-family="'Segoe UI, Arial'" font-size="11" lengthAdjust="spacing" textLength="116.155">Check member status</text></g><g class="message" data-participant-1="DB" data-participant-2="Validator"><polygon fill="#707070" points="560.53 275.307 550.53 279.307 560.53 283.307 556.53 279.307" style="stroke:#707070;stroke-width:1"/><line style="stroke:#707070;stroke-width:1;stroke-dasharray:2,2" x1="554.53" x2="691.326" y1="279.307" y2="279.307"/><text x="566.53" y="274.986" fill="#000" font-family="'Segoe UI, Arial'" font-size="11" lengthAdjust="spacing" textLength="70.093">Member data</text></g><g class="message" data-participant-1="Validator" data-participant-2="LoanService"><polygon fill="#707070" points="380.012 302.262 370.012 306.262 380.012 310.262 376.012 306.262" style="stroke:#707070;stroke-width:1"/><line style="stroke:#707070;stroke-width:1;stroke-dasharray:2,2" x1="374.012" x2="543.53" y1="306.262" y2="306.262"/><text x="386.012" y="301.941" fill="#000" font-family="'Segoe UI, Arial'" font-size="11" lengthAdjust="spacing" textLength="82.522">Eligibility result</text></g><path fill="#EEE" d="M10,321.2617 L69.502,321.2617 L69.502,326.2168 L59.502,336.2168 L10,336.2168 L10,321.2617" style="stroke:#000;stroke-width:1.5"/><rect style="stroke:#000;stroke-width:1.5" width="792.008" height="276.15" x="10" y="321.262" fill="none"/><text x="25" y="332.897" fill="#000" font-family="'Segoe UI, Arial'" font-size="11" font-weight="bold" lengthAdjust="spacing" textLength="14.502">alt</text><text x="84.502" y="333.897" fill="#000" font-family="'Segoe UI, Arial'" font-size="11" font-weight="bold" lengthAdjust="spacing" textLength="50.059">[Eligible]</text><g class="message" data-participant-1="LoanService" data-participant-2="Calculator"><polygon fill="#707070" points="603.731 351.172 613.731 355.172 603.731 359.172 607.731 355.172" style="stroke:#707070;stroke-width:1"/><line style="stroke:#707070;stroke-width:1" x1="369.012" x2="609.731" y1="355.172" y2="355.172"/><text x="376.012" y="350.852" fill="#000" font-family="'Segoe UI, Arial'" font-size="11" lengthAdjust="spacing" textLength="167.433">calculateInterest(amount, term)</text></g><g class="message" data-participant-1="Calculator" data-participant-2="LoanService"><polygon fill="#707070" points="380.012 378.127 370.012 382.127 380.012 386.127 376.012 382.127" style="stroke:#707070;stroke-width:1"/><line style="stroke:#707070;stroke-width:1;stroke-dasharray:2,2" x1="374.012" x2="619.731" y1="382.127" y2="382.127"/><text x="386.012" y="377.807" fill="#000" font-family="'Segoe UI, Arial'" font-size="11" lengthAdjust="spacing" textLength="126.774">Interest rate &amp; schedule</text></g><g class="message" data-participant-1="LoanService" data-participant-2="DB"><polygon fill="#707070" points="680.326 405.082 690.326 409.082 680.326 413.082 684.326 409.082" style="stroke:#707070;stroke-width:1"/><line style="stroke:#707070;stroke-width:1" x1="369.012" x2="686.326" y1="409.082" y2="409.082"/><text x="376.012" y="404.762" fill="#000" font-family="'Segoe UI, Arial'" font-size="11" lengthAdjust="spacing" textLength="147.732">Save loan (status: PENDING)</text></g><g class="message" data-participant-1="DB" data-participant-2="LoanService"><polygon fill="#707070" points="380.012 432.037 370.012 436.037 380.012 440.037 376.012 436.037" style="stroke:#707070;stroke-width:1"/><line style="stroke:#707070;stroke-width:1;stroke-dasharray:2,2" x1="374.012" x2="691.326" y1="436.037" y2="436.037"/><text x="386.012" y="431.717" fill="#000" font-family="'Segoe UI, Arial'" font-size="11" lengthAdjust="spacing" textLength="40.412">Loan ID</text></g><g class="message" data-participant-1="LoanService" data-participant-2="Frontend"><polygon fill="#707070" points="217.867 458.992 207.867 462.992 217.867 466.992 213.867 462.992" style="stroke:#707070;stroke-width:1"/><line style="stroke:#707070;stroke-width:1;stroke-dasharray:2,2" x1="211.867" x2="358.012" y1="462.992" y2="462.992"/><text x="223.867" y="458.672" fill="#000" font-family="'Segoe UI, Arial'" font-size="11" lengthAdjust="spacing" textLength="65.828">201 Created</text></g><g class="message" data-participant-1="Frontend" data-participant-2="Member"><polygon fill="#707070" points="55.713 485.947 45.713 489.947 55.713 493.947 51.713 489.947" style="stroke:#707070;stroke-width:1"/><line style="stroke:#707070;stroke-width:1;stroke-dasharray:2,2" x1="49.713" x2="195.867" y1="489.947" y2="489.947"/><text x="61.713" y="485.627" fill="#000" font-family="'Segoe UI, Arial'" font-size="11" lengthAdjust="spacing" textLength="99.628">Show confirmation</text></g><path fill="#D4EDDA" d="M697,502.9473 L697,522.9473 L792,522.9473 L792,512.9473 L782,502.9473 L697,502.9473" style="stroke:#f59e0b;stroke-width:.5"/><path fill="#D4EDDA" d="M782,502.9473 L782,512.9473 L792,512.9473 L782,502.9473" style="stroke:#f59e0b;stroke-width:.5"/><text x="703" y="516.648" fill="#000" font-family="'Segoe UI, Arial'" font-size="9" lengthAdjust="spacing" textLength="29.571">Status:</text><text x="735.418" y="516.648" fill="#000" font-family="'Segoe UI, Arial'" font-size="9" font-weight="bold" lengthAdjust="spacing" textLength="41.59">PENDING</text><line style="stroke:#000;stroke-width:1;stroke-dasharray:2,2" x1="10" x2="802.008" y1="529.547" y2="529.547"/><text x="15" y="540.182" fill="#000" font-family="'Segoe UI, Arial'" font-size="11" font-weight="bold" lengthAdjust="spacing" textLength="73.622">[Not Eligible]</text><g class="message" data-participant-1="LoanService" data-participant-2="Frontend"><polygon fill="#707070" points="217.867 558.457 207.867 562.457 217.867 566.457 213.867 562.457" style="stroke:#707070;stroke-width:1"/><line style="stroke:#707070;stroke-width:1;stroke-dasharray:2,2" x1="211.867" x2="358.012" y1="562.457" y2="562.457"/><text x="223.867" y="558.137" fill="#000" font-family="'Segoe UI, Arial'" font-size="11" lengthAdjust="spacing" textLength="89.837">400 Bad Request</text></g><g class="message" data-participant-1="Frontend" data-participant-2="Member"><polygon fill="#707070" points="55.713 585.412 45.713 589.412 55.713 593.412 51.713 589.412" style="stroke:#707070;stroke-width:1"/><line style="stroke:#707070;stroke-width:1;stroke-dasharray:2,2" x1="49.713" x2="195.867" y1="589.412" y2="589.412"/><text x="61.713" y="585.092" fill="#000" font-family="'Segoe UI, Arial'" font-size="11" lengthAdjust="spacing" textLength="117.455">Show rejection reason</text></g><text x="305.691" y="828.109" fill="#888" font-family="'Segoe UI, Arial'" font-size="9" lengthAdjust="spacing" textLength="199.626">C4 Model - Sequence View | Loan Submission</text><rect style="stroke:#000;stroke-width:1" width="98.04" height="96.441" x="700.968" y="709.967" fill="none" rx="7.5" ry="7.5"/><rect style="stroke:none;stroke-width:1" width="88.04" height="16.488" x="705.968" y="716.967" fill="#08427B"/><text x="710.398" y="730.502" fill="#000" font-family="'Segoe UI, Arial'" font-size="14" lengthAdjust="spacing" textLength="36.395">Actor</text><rect style="stroke:none;stroke-width:1" width="88.04" height="16.488" x="705.968" y="733.455" fill="#438DD5"/><text x="710.398" y="746.99" fill="#000" font-family="'Segoe UI, Arial'" font-size="14" lengthAdjust="spacing" textLength="47.332">Service</text><rect style="stroke:none;stroke-width:1" width="88.04" height="16.488" x="705.968" y="749.943" fill="#85BBF0"/><text x="710.398" y="763.479" fill="#000" font-family="'Segoe UI, Arial'" font-size="14" lengthAdjust="spacing" textLength="79.181">Component</text><rect style="stroke:none;stroke-width:1" width="88.04" height="16.488" x="705.968" y="766.432" fill="#D4EDDA"/><text x="710.398" y="779.967" fill="#000" font-family="'Segoe UI, Arial'" font-size="14" lengthAdjust="spacing" textLength="52.644">Success</text><rect style="stroke:none;stroke-width:1" width="88.04" height="16.488" x="705.968" y="782.92" fill="#F8D7DA"/><text x="710.398" y="796.455" fill="#000" font-family="'Segoe UI, Arial'" font-size="14" lengthAdjust="spacing" textLength="45.548">Failure</text><line style="stroke:#000;stroke-width:1" x1="705.968" x2="794.008" y1="716.967" y2="716.967"/><line style="stroke:#000;stroke-width:1" x1="705.968" x2="794.008" y1="733.455" y2="733.455"/><line style="stroke:#000;stroke-width:1" x1="705.968" x2="794.008" y1="749.943" y2="749.943"/><line style="stroke:#000;stroke-width:1" x1="705.968" x2="794.008" y1="766.432" y2="766.432"/><line style="stroke:#000;stroke-width:1" x1="705.968" x2="794.008" y1="782.92" y2="782.92"/><line style="stroke:#000;stroke-width:1" x1="705.968" x2="794.008" y1="799.408" y2="799.408"/><line style="stroke:#000;stroke-width:1" x1="705.968" x2="705.968" y1="716.967" y2="799.408"/><line style="stroke:#000;stroke-width:1" x1="794.008" x2="794.008" y1="716.967" y2="799.408"/></g></svg>