<svg xmlns="http://www.w3.org/2000/svg" xmlns:xlink="http://www.w3.org/1999/xlink" width="1150" height="1089" contentStyleType="text/css" data-diagram-type="ACTIVITY" style="width:1150px;height:1089px;background:#fff" preserveAspectRatio="none" version="1.1" viewBox="0 0 1150 1089" zoomAndPan="magnify"><title>&lt;size:18&gt;&lt;b&gt;PSPEC 1.0: Loan Submission&lt;/b&gt;&lt;/size&gt; &lt;size:10&gt;Process Specification - ยื่นคำขอสินเชื่อ&lt;/size&gt;</title><g><g class="title" data-source-line="25"><text x="445.147" y="37.402" fill="#000" font-family="'Segoe UI, Arial'" font-size="18" font-weight="bold" lengthAdjust="spacing" textLength="257.669">PSPEC 1.0: Loan Submission</text><text x="482.073" y="50.867" fill="#000" font-family="'Segoe UI, Arial'" font-size="10" font-weight="bold" lengthAdjust="spacing" textLength="183.815">Process Specification - ยื่นคำขอสินเชื่อ</text></g><rect style="stroke:none;stroke-width:1" width="1117.962" height="12.955" x="15" y="64.977" fill="none"/><rect style="stroke:#e0e7ff;stroke-width:1" width="544.034" height="817.057" x="15" y="64.977" fill="#E0E7FF"/><path fill="#FEFFDD" d="M388.1163,112.9316 L388.1163,146.3193 L368.1163,150.3193 L388.1163,154.3193 L388.1163,187.707 A0,0 0 0 0 388.1163,187.707 L552.3591,187.707 A0,0 0 0 0 552.3591,187.707 L552.3591,122.9316 L542.3591,112.9316 L388.1163,112.9316 A0,0 0 0 0 388.1163,112.9316" style="stroke:#181818;stroke-width:.5"/><path fill="#FEFFDD" d="M542.3591,112.9316 L542.3591,122.9316 L552.3591,122.9316 L542.3591,112.9316" style="stroke:#181818;stroke-width:.5"/><text x="394.116" y="128.566" fill="#000" font-family="'Segoe UI, Arial'" font-size="11" font-weight="bold" lengthAdjust="spacing" textLength="32.56">Input:</text><text x="394.116" y="141.522" fill="#000" font-family="'Segoe UI, Arial'" font-size="11" lengthAdjust="spacing" textLength="143.243">- Loan amount (จำนวนเงินกู้)</text><text x="394.116" y="154.477" fill="#000" font-family="'Segoe UI, Arial'" font-size="11" lengthAdjust="spacing" textLength="117.139">- Loan term (ระยะเวลา)</text><text x="394.116" y="167.432" fill="#000" font-family="'Segoe UI, Arial'" font-size="11" lengthAdjust="spacing" textLength="136.988">- Loan type (ประเภทสินเชื่อ)</text><text x="394.116" y="180.387" fill="#000" font-family="'Segoe UI, Arial'" font-size="11" lengthAdjust="spacing" textLength="118.51">- Purpose (วัตถุประสงค์)</text><rect style="stroke:#3c7fc0;stroke-width:.5" width="159.208" height="32.955" x="208.908" y="133.842" fill="#438DD5" rx="12.5" ry="12.5"/><text x="218.908" y="154.477" fill="#FFF" font-family="'Segoe UI, Arial'" font-size="11" lengthAdjust="spacing" textLength="139.208">Fill Loan Application Form</text><rect style="stroke:#3c7fc0;stroke-width:.5" width="121.1" height="32.955" x="227.962" y="207.707" fill="#438DD5" rx="12.5" ry="12.5"/><text x="237.962" y="228.342" fill="#FFF" font-family="'Segoe UI, Arial'" font-size="11" lengthAdjust="spacing" textLength="101.1">Submit Application</text><path fill="#FEFFDD" d="M177.7327,678.3027 L177.7327,711.6904 L157.7327,715.6904 L177.7327,719.6904 L177.7327,753.0781 A0,0 0 0 0 177.7327,753.0781 L301.0681,753.0781 A0,0 0 0 0 301.0681,753.0781 L301.0681,688.3027 L291.0681,678.3027 L177.7327,678.3027 A0,0 0 0 0 177.7327,678.3027" style="stroke:#181818;stroke-width:.5"/><path fill="#FEFFDD" d="M291.0681,678.3027 L291.0681,688.3027 L301.0681,688.3027 L291.0681,678.3027" style="stroke:#181818;stroke-width:.5"/><text x="183.733" y="693.938" fill="#000" font-family="'Segoe UI, Arial'" font-size="11" font-weight="bold" lengthAdjust="spacing" textLength="44.983">Display:</text><text x="183.733" y="706.893" fill="#000" font-family="'Segoe UI, Arial'" font-size="11" lengthAdjust="spacing" textLength="50.257">- Loan ID</text><text x="183.733" y="719.848" fill="#000" font-family="'Segoe UI, Arial'" font-size="11" lengthAdjust="spacing" textLength="52.228">- Amount</text><text x="183.733" y="732.803" fill="#000" font-family="'Segoe UI, Arial'" font-size="11" lengthAdjust="spacing" textLength="74.733">- Interest rate</text><text x="183.733" y="745.758" fill="#000" font-family="'Segoe UI, Arial'" font-size="11" lengthAdjust="spacing" textLength="102.335">- Monthly payment</text><rect style="stroke:#3c7fc0;stroke-width:.5" width="133.47" height="32.955" x="24.263" y="699.213" fill="#438DD5" rx="12.5" ry="12.5"/><text x="34.263" y="719.848" fill="#FFF" font-family="'Segoe UI, Arial'" font-size="11" lengthAdjust="spacing" textLength="113.47">Receive Confirmation</text><rect style="stroke:#3c7fc0;stroke-width:.5" width="139.996" height="32.955" x="21" y="773.078" fill="#D4EDDA" rx="12.5" ry="12.5"/><text x="31" y="793.713" fill="#FFF" font-family="'Segoe UI, Arial'" font-size="11" lengthAdjust="spacing" textLength="119.996">Submission Successful</text><rect style="stroke:#3c7fc0;stroke-width:.5" width="138.014" height="32.955" x="417.02" y="497.393" fill="#438DD5" rx="12.5" ry="12.5"/><text x="427.02" y="518.027" fill="#FFF" font-family="'Segoe UI, Arial'" font-size="11" lengthAdjust="spacing" textLength="118.014">Display Error Message</text><rect style="stroke:#3c7fc0;stroke-width:.5" width="115.965" height="32.955" x="428.044" y="563.527" fill="#F8D7DA" rx="12.5" ry="12.5"/><text x="438.044" y="584.162" fill="#FFF" font-family="'Segoe UI, Arial'" font-size="11" lengthAdjust="spacing" textLength="95.965">Submission Failed</text><ellipse cx="288.512" cy="871.033" fill="none" rx="11" ry="11" style="stroke:#222;stroke-width:1"/><ellipse cx="288.512" cy="871.033" fill="#222" rx="6" ry="6" style="stroke:#222;stroke-width:1"/><line style="stroke:#000;stroke-width:1.5" x1="15" x2="15" y1="64.977" y2="882.033"/><rect style="stroke:#ddd6fe;stroke-width:1" width="573.188" height="817.057" x="559.034" y="64.977" fill="#DDD6FE"/><ellipse cx="846.361" cy="92.932" fill="#222" rx="10" ry="10" style="stroke:#222;stroke-width:1"/><rect style="stroke:#3c7fc0;stroke-width:.5" width="135.017" height="32.955" x="778.852" y="260.662" fill="#438DD5" rx="12.5" ry="12.5"/><text x="788.852" y="281.297" fill="#FFF" font-family="'Segoe UI, Arial'" font-size="11" lengthAdjust="spacing" textLength="115.017">Receive Loan Request</text><path fill="#FEFFDD" d="M947.3287,303.6172 L947.3287,330.5273 L927.3287,334.5273 L947.3287,338.5273 L947.3287,365.4375 A0,0 0 0 0 947.3287,365.4375 L1127.2218,365.4375 A0,0 0 0 0 1127.2218,365.4375 L1127.2218,313.6172 L1117.2218,303.6172 L947.3287,303.6172 A0,0 0 0 0 947.3287,303.6172" style="stroke:#181818;stroke-width:.5"/><path fill="#FEFFDD" d="M1117.2218,303.6172 L1117.2218,313.6172 L1127.2218,313.6172 L1117.2218,303.6172" style="stroke:#181818;stroke-width:.5"/><text x="953.329" y="319.252" fill="#000" font-family="'Segoe UI, Arial'" font-size="11" font-weight="bold" lengthAdjust="spacing" textLength="37.039">Check:</text><text x="953.329" y="332.207" fill="#000" font-family="'Segoe UI, Arial'" font-size="11" lengthAdjust="spacing" textLength="143.279">- Member status = ACTIVE</text><text x="953.329" y="345.162" fill="#000" font-family="'Segoe UI, Arial'" font-size="11" lengthAdjust="spacing" textLength="103.093">- No overdue loans</text><text x="953.329" y="358.117" fill="#000" font-family="'Segoe UI, Arial'" font-size="11" lengthAdjust="spacing" textLength="158.893">- Share balance &gt;= minimum</text><rect style="stroke:#3c7fc0;stroke-width:.5" width="161.936" height="32.955" x="765.392" y="318.05" fill="#438DD5" rx="12.5" ry="12.5"/><text x="775.392" y="338.685" fill="#FFF" font-family="'Segoe UI, Arial'" font-size="11" lengthAdjust="spacing" textLength="141.936">Validate Member Eligibility</text><polygon fill="#FEF3C7" points="824.745 385.438 867.976 385.438 879.976 397.438 867.976 409.438 824.745 409.438 812.745 397.438 824.745 385.438" style="stroke:#f59e0b;stroke-width:.5"/><text x="824.745" y="401.595" fill="#1F2937" font-family="'Segoe UI, Arial'" font-size="11" lengthAdjust="spacing" textLength="43.232">Eligible?</text><text x="794.155" y="395.117" fill="#000" font-family="'Segoe UI, Arial'" font-size="11" lengthAdjust="spacing" textLength="18.589">Yes</text><text x="879.976" y="395.117" fill="#000" font-family="'Segoe UI, Arial'" font-size="11" lengthAdjust="spacing" textLength="14.883">No</text><path fill="#FEFFDD" d="M738.6692,429.4375 L738.6692,469.3027 L718.6692,473.3027 L738.6692,477.3027 L738.6692,517.168 A0,0 0 0 0 738.6692,517.168 L942.759,517.168 A0,0 0 0 0 942.759,517.168 L942.759,439.4375 L932.759,429.4375 L738.6692,429.4375 A0,0 0 0 0 738.6692,429.4375" style="stroke:#181818;stroke-width:.5"/><path fill="#FEFFDD" d="M932.759,429.4375 L932.759,439.4375 L942.759,439.4375 L932.759,429.4375" style="stroke:#181818;stroke-width:.5"/><text x="744.669" y="445.072" fill="#000" font-family="'Segoe UI, Arial'" font-size="11" font-weight="bold" lengthAdjust="spacing" textLength="48.995">Formula:</text><text x="744.669" y="458.027" fill="#000" font-family="'Segoe UI, Arial'" font-size="11" lengthAdjust="spacing" textLength="183.09">Interest = Principal × Rate × Time</text><text x="744.669" y="470.982" fill="#000" font-family="'Segoe UI, Arial'" font-size="11" lengthAdjust="spacing" textLength="131.667">Rate based on loan type:</text><text x="744.669" y="483.938" fill="#000" font-family="'Segoe UI, Arial'" font-size="11" lengthAdjust="spacing" textLength="133.214">- Emergency: 1% /month</text><text x="744.669" y="496.893" fill="#000" font-family="'Segoe UI, Arial'" font-size="11" lengthAdjust="spacing" textLength="141.04">- Common: 0.75% /month</text><text x="744.669" y="509.848" fill="#000" font-family="'Segoe UI, Arial'" font-size="11" lengthAdjust="spacing" textLength="144.472">- Investment: 0.5% /month</text><rect style="stroke:#3c7fc0;stroke-width:.5" width="139.647" height="32.955" x="579.023" y="456.825" fill="#438DD5" rx="12.5" ry="12.5"/><text x="589.023" y="477.46" fill="#FFF" font-family="'Segoe UI, Arial'" font-size="11" lengthAdjust="spacing" textLength="119.647">Calculate Interest Rate</text><rect style="stroke:#3c7fc0;stroke-width:.5" width="167.625" height="32.955" x="565.034" y="550.348" fill="#438DD5" rx="12.5" ry="12.5"/><text x="575.034" y="570.982" fill="#FFF" font-family="'Segoe UI, Arial'" font-size="11" lengthAdjust="spacing" textLength="147.625">Generate Payment Schedule</text><path fill="#FEFFDD" d="M728.3406,606.4824 L728.3406,633.3926 L708.3406,637.3926 L728.3406,641.3926 L728.3406,668.3027 A0,0 0 0 0 728.3406,668.3027 L860.8284,668.3027 A0,0 0 0 0 860.8284,668.3027 L860.8284,616.4824 L850.8284,606.4824 L728.3406,606.4824 A0,0 0 0 0 728.3406,606.4824" style="stroke:#181818;stroke-width:.5"/><path fill="#FEFFDD" d="M850.8284,606.4824 L850.8284,616.4824 L860.8284,616.4824 L850.8284,606.4824" style="stroke:#181818;stroke-width:.5"/><text x="734.341" y="622.117" fill="#000" font-family="'Segoe UI, Arial'" font-size="11" font-weight="bold" lengthAdjust="spacing" textLength="42.426">Output:</text><text x="734.341" y="635.072" fill="#000" font-family="'Segoe UI, Arial'" font-size="11" lengthAdjust="spacing" textLength="50.257">- Loan ID</text><text x="734.341" y="648.027" fill="#000" font-family="'Segoe UI, Arial'" font-size="11" lengthAdjust="spacing" textLength="97.12">- Status: PENDING</text><text x="734.341" y="660.982" fill="#000" font-family="'Segoe UI, Arial'" font-size="11" lengthAdjust="spacing" textLength="111.488">- Created timestamp</text><rect style="stroke:#3c7fc0;stroke-width:.5" width="118.989" height="32.955" x="589.351" y="620.915" fill="#438DD5" rx="12.5" ry="12.5"/><text x="599.351" y="641.55" fill="#FFF" font-family="'Segoe UI, Arial'" font-size="11" lengthAdjust="spacing" textLength="98.989">Save Loan Request</text><rect style="stroke:#3c7fc0;stroke-width:.5" width="162.232" height="32.955" x="962.759" y="429.438" fill="#438DD5" rx="12.5" ry="12.5"/><text x="972.759" y="450.072" fill="#FFF" font-family="'Segoe UI, Arial'" font-size="11" lengthAdjust="spacing" textLength="142.232">Generate Rejection Reason</text><polygon fill="#FEF3C7" points="846.361 816.033 858.361 828.033 846.361 840.033 834.361 828.033 846.361 816.033" style="stroke:#f59e0b;stroke-width:.5"/><line style="stroke:#000;stroke-width:1.5" x1="559.034" x2="559.034" y1="64.977" y2="882.033"/><line style="stroke:#000;stroke-width:1.5" x1="1132.222" x2="1132.222" y1="64.977" y2="882.033"/><line style="stroke:#181818;stroke-width:1" x1="288.512" x2="288.512" y1="166.797" y2="207.707"/><polygon fill="#181818" points="284.512 197.707 288.512 207.707 292.512 197.707 288.512 201.707" style="stroke:#181818;stroke-width:1"/><line style="stroke:#181818;stroke-width:1" x1="90.998" x2="90.998" y1="732.168" y2="773.078"/><polygon fill="#181818" points="86.998 763.078 90.998 773.078 94.998 763.078 90.998 767.078" style="stroke:#181818;stroke-width:1"/><line style="stroke:#181818;stroke-width:1" x1="486.027" x2="486.027" y1="530.348" y2="563.527"/><polygon fill="#181818" points="482.027 553.527 486.027 563.527 490.027 553.527 486.027 557.527" style="stroke:#181818;stroke-width:1"/><line style="stroke:#181818;stroke-width:1" x1="846.361" x2="846.361" y1="293.617" y2="318.05"/><polygon fill="#181818" points="842.361 308.05 846.361 318.05 850.361 308.05 846.361 312.05" style="stroke:#181818;stroke-width:1"/><line style="stroke:#181818;stroke-width:1" x1="648.846" x2="648.846" y1="489.78" y2="550.348"/><polygon fill="#181818" points="644.846 540.348 648.846 550.348 652.846 540.348 648.846 544.348" style="stroke:#181818;stroke-width:1"/><line style="stroke:#181818;stroke-width:1" x1="648.846" x2="648.846" y1="583.303" y2="620.915"/><polygon fill="#181818" points="644.846 610.915 648.846 620.915 652.846 610.915 648.846 614.915" style="stroke:#181818;stroke-width:1"/><line style="stroke:#181818;stroke-width:1" x1="812.745" x2="648.846" y1="397.438" y2="397.438"/><line style="stroke:#181818;stroke-width:1" x1="648.846" x2="648.846" y1="397.438" y2="456.825"/><polygon fill="#181818" points="644.846 446.825 648.846 456.825 652.846 446.825 648.846 450.825" style="stroke:#181818;stroke-width:1"/><line style="stroke:#181818;stroke-width:1" x1="879.976" x2="1043.875" y1="397.438" y2="397.438"/><line style="stroke:#181818;stroke-width:1" x1="1043.875" x2="1043.875" y1="397.438" y2="429.438"/><polygon fill="#181818" points="1039.875 419.438 1043.875 429.438 1047.875 419.438 1043.875 423.438" style="stroke:#181818;stroke-width:1"/><line style="stroke:#181818;stroke-width:1" x1="846.361" x2="846.361" y1="351.005" y2="385.438"/><polygon fill="#181818" points="842.361 375.438 846.361 385.438 850.361 375.438 846.361 379.438" style="stroke:#181818;stroke-width:1"/><line style="stroke:#181818;stroke-width:1" x1="846.361" x2="846.361" y1="102.932" y2="107.932"/><line style="stroke:#181818;stroke-width:1" x1="846.361" x2="288.512" y1="107.932" y2="107.932"/><line style="stroke:#181818;stroke-width:1" x1="288.512" x2="288.512" y1="107.932" y2="133.842"/><polygon fill="#181818" points="284.512 123.842 288.512 133.842 292.512 123.842 288.512 127.842" style="stroke:#181818;stroke-width:1"/><line style="stroke:#181818;stroke-width:1" x1="288.512" x2="288.512" y1="240.662" y2="245.662"/><line style="stroke:#181818;stroke-width:1" x1="288.512" x2="846.361" y1="245.662" y2="245.662"/><line style="stroke:#181818;stroke-width:1" x1="846.361" x2="846.361" y1="245.662" y2="260.662"/><polygon fill="#181818" points="842.361 250.662 846.361 260.662 850.361 250.662 846.361 254.662" style="stroke:#181818;stroke-width:1"/><line style="stroke:#181818;stroke-width:1" x1="648.846" x2="648.846" y1="653.87" y2="673.303"/><line style="stroke:#181818;stroke-width:1" x1="648.846" x2="90.998" y1="673.303" y2="673.303"/><line style="stroke:#181818;stroke-width:1" x1="90.998" x2="90.998" y1="673.303" y2="699.213"/><polygon fill="#181818" points="86.998 689.213 90.998 699.213 94.998 689.213 90.998 693.213" style="stroke:#181818;stroke-width:1"/><line style="stroke:#181818;stroke-width:1" x1="1043.875" x2="1043.875" y1="462.393" y2="479.893"/><line style="stroke:#181818;stroke-width:1" x1="1043.875" x2="486.027" y1="479.893" y2="479.893"/><line style="stroke:#181818;stroke-width:1" x1="486.027" x2="486.027" y1="479.893" y2="497.393"/><polygon fill="#181818" points="482.027 487.393 486.027 497.393 490.027 487.393 486.027 491.393" style="stroke:#181818;stroke-width:1"/><line style="stroke:#181818;stroke-width:1" x1="90.998" x2="90.998" y1="806.033" y2="828.033"/><line style="stroke:#181818;stroke-width:1" x1="90.998" x2="834.361" y1="828.033" y2="828.033"/><polygon fill="#181818" points="824.361 824.033 834.361 828.033 824.361 832.033 828.361 828.033" style="stroke:#181818;stroke-width:1"/><line style="stroke:#181818;stroke-width:1" x1="486.027" x2="486.027" y1="596.482" y2="810.033"/><line style="stroke:#181818;stroke-width:1" x1="486.027" x2="876.361" y1="810.033" y2="810.033"/><line style="stroke:#181818;stroke-width:1" x1="876.361" x2="876.361" y1="810.033" y2="828.033"/><line style="stroke:#181818;stroke-width:1" x1="876.361" x2="858.361" y1="828.033" y2="828.033"/><polygon fill="#181818" points="868.361 824.033 858.361 828.033 868.361 832.033 864.361 828.033" style="stroke:#181818;stroke-width:1"/><line style="stroke:#181818;stroke-width:1" x1="846.361" x2="846.361" y1="840.033" y2="845.033"/><line style="stroke:#181818;stroke-width:1" x1="846.361" x2="288.512" y1="845.033" y2="845.033"/><line style="stroke:#181818;stroke-width:1" x1="288.512" x2="288.512" y1="845.033" y2="860.033"/><polygon fill="#181818" points="284.512 850.033 288.512 860.033 292.512 850.033 288.512 854.033" style="stroke:#181818;stroke-width:1"/><text x="265.304" y="75.611" fill="#000" font-family="'Segoe UI, Arial'" font-size="11" lengthAdjust="spacing" textLength="43.425">Member</text><text x="826.732" y="75.611" fill="#000" font-family="'Segoe UI, Arial'" font-size="11" lengthAdjust="spacing" textLength="37.791">System</text><g class="legend" data-source-line="100"><rect style="stroke:#000;stroke-width:1" width="362.546" height="158.394" x="392.708" y="894.033" fill="none" rx="7.5" ry="7.5"/><text x="397.708" y="912.568" fill="#000" font-family="'Segoe UI, Arial'" font-size="14" font-weight="bold" lengthAdjust="spacing" textLength="200.409">PSPEC 1.0: Loan Submission</text><text x="397.708" y="929.057" fill="#000" font-family="'Segoe UI, Arial'" font-size="14" lengthAdjust="spacing" textLength="16.201">--</text><text x="397.708" y="945.545" fill="#000" font-family="'Segoe UI, Arial'" font-size="14" font-weight="bold" lengthAdjust="spacing" textLength="79.194">Process ID:</text><text x="481.332" y="945.545" fill="#000" font-family="'Segoe UI, Arial'" font-size="14" lengthAdjust="spacing" textLength="70.526">PSPEC-1.0</text><text x="397.708" y="962.033" fill="#000" font-family="'Segoe UI, Arial'" font-size="14" font-weight="bold" lengthAdjust="spacing" textLength="104.221">Process Name:</text><text x="506.359" y="962.033" fill="#000" font-family="'Segoe UI, Arial'" font-size="14" lengthAdjust="spacing" textLength="243.895">Submit Loan Request (ยื่นคำขอสินเชื่อ)</text><text x="397.708" y="978.521" fill="#000" font-family="'Segoe UI, Arial'" font-size="14" font-weight="bold" lengthAdjust="spacing" textLength="57.073">Trigger:</text><text x="459.211" y="978.521" fill="#000" font-family="'Segoe UI, Arial'" font-size="14" lengthAdjust="spacing" textLength="226.673">Member submits loan application</text><text x="397.708" y="995.01" fill="#000" font-family="'Segoe UI, Arial'" font-size="14" font-weight="bold" lengthAdjust="spacing" textLength="41.44">Input:</text><text x="443.577" y="995.01" fill="#000" font-family="'Segoe UI, Arial'" font-size="14" lengthAdjust="spacing" textLength="145.776">Loan application data</text><text x="397.708" y="1011.498" fill="#000" font-family="'Segoe UI, Arial'" font-size="14" font-weight="bold" lengthAdjust="spacing" textLength="53.997">Output:</text><text x="456.135" y="1011.498" fill="#000" font-family="'Segoe UI, Arial'" font-size="14" lengthAdjust="spacing" textLength="195.296">Loan ID with PENDING status</text><text x="397.708" y="1027.986" fill="#000" font-family="'Segoe UI, Arial'" font-size="14" font-weight="bold" lengthAdjust="spacing" textLength="103.332">Pre-condition:</text><text x="505.47" y="1027.986" fill="#000" font-family="'Segoe UI, Arial'" font-size="14" lengthAdjust="spacing" textLength="212.516">Member is logged in and active</text><text x="397.708" y="1044.475" fill="#000" font-family="'Segoe UI, Arial'" font-size="14" font-weight="bold" lengthAdjust="spacing" textLength="111.296">Post-condition:</text><text x="513.434" y="1044.475" fill="#000" font-family="'Segoe UI, Arial'" font-size="14" lengthAdjust="spacing" textLength="218.046">Loan record created in database</text></g><g class="footer" data-source-line="112"><text x="454.962" y="1074.129" fill="#888" font-family="'Segoe UI, Arial'" font-size="9" lengthAdjust="spacing" textLength="238.039">Process Specification | Ban Sai Yai Savings Cooperative</text></g></g></svg>