<svg xmlns="http://www.w3.org/2000/svg" xmlns:xlink="http://www.w3.org/1999/xlink" contentStyleType="text/css" data-diagram-type="ACTIVITY" height="1172px" preserveAspectRatio="none" style="width:1342px;height:1172px;background:#FFFFFF;" version="1.1" viewBox="0 0 1342 1172" width="1342px" zoomAndPan="magnify"><title>&lt;size:18&gt;&lt;b&gt;PSPEC 3.0: Loan Approval&lt;/b&gt;&lt;/size&gt;
&lt;size:10&gt;Process Specification - &#3629;&#3609;&#3640;&#3617;&#3633;&#3605;&#3636;&#3626;&#3636;&#3609;&#3648;&#3594;&#3639;&#3656;&#3629;&lt;/size&gt;</title><defs/><g><g class="title" data-source-line="25"><text fill="#000000" font-family="'Segoe UI, Arial'" font-size="18" font-weight="bold" lengthAdjust="spacing" textLength="234.7031" x="552.2227" y="37.4023">PSPEC 3.0: Loan Approval</text><text fill="#000000" font-family="'Segoe UI, Arial'" font-size="10" font-weight="bold" lengthAdjust="spacing" textLength="173.0029" x="583.0728" y="50.8672">Process Specification - &#3629;&#3609;&#3640;&#3617;&#3633;&#3605;&#3636;&#3626;&#3636;&#3609;&#3648;&#3594;&#3639;&#3656;&#3629;</text></g><rect fill="none" height="12.9551" style="stroke:none;stroke-width:1;" width="1309.1484" x="15" y="64.9766"/><rect fill="#D1FAE5" height="900.6973" style="stroke:#D1FAE5;stroke-width:1;" width="625.5552" x="15" y="64.9766"/><rect fill="#438DD5" height="32.9551" rx="12.5" ry="12.5" style="stroke:#3C7FC0;stroke-width:0.5;" width="105.1104" x="175.6497" y="122.9316"/><text fill="#FFFFFF" font-family="'Segoe UI, Arial'" font-size="11" lengthAdjust="spacing" textLength="85.1104" x="185.6497" y="143.5664">Login to System</text><rect fill="#438DD5" height="32.9551" rx="12.5" ry="12.5" style="stroke:#3C7FC0;stroke-width:0.5;" width="147.9287" x="154.2405" y="236.7969"/><text fill="#FFFFFF" font-family="'Segoe UI, Arial'" font-size="11" lengthAdjust="spacing" textLength="127.9287" x="164.2405" y="257.4316">Select Loan for Decision</text><rect fill="#438DD5" height="32.9551" rx="12.5" ry="12.5" style="stroke:#3C7FC0;stroke-width:0.5;" width="165.7876" x="145.311" y="387.4824"/><text fill="#FFFFFF" font-family="'Segoe UI, Arial'" font-size="11" lengthAdjust="spacing" textLength="145.7876" x="155.311" y="408.1172">Review Application &amp; Notes</text><rect fill="#438DD5" height="32.9551" rx="12.5" ry="12.5" style="stroke:#3C7FC0;stroke-width:0.5;" width="97.1396" x="179.635" y="440.4375"/><text fill="#FFFFFF" font-family="'Segoe UI, Arial'" font-size="11" lengthAdjust="spacing" textLength="77.1396" x="189.635" y="461.0723">Make Decision</text><polygon fill="#FEF3C7" points="203.6267,493.3926,252.783,493.3926,264.783,505.3926,252.783,517.3926,203.6267,517.3926,191.6267,505.3926,203.6267,493.3926" style="stroke:#F59E0B;stroke-width:0.5;"/><text fill="#1F2937" font-family="'Segoe UI, Arial'" font-size="11" lengthAdjust="spacing" textLength="49.1563" x="203.6267" y="509.5498">Approve?</text><text fill="#000000" font-family="'Segoe UI, Arial'" font-size="11" lengthAdjust="spacing" textLength="18.5894" x="173.0374" y="503.0723">Yes</text><text fill="#000000" font-family="'Segoe UI, Arial'" font-size="11" lengthAdjust="spacing" textLength="14.8833" x="264.783" y="503.0723">No</text><rect fill="#438DD5" height="32.9551" rx="12.5" ry="12.5" style="stroke:#3C7FC0;stroke-width:0.5;" width="114.311" x="21" y="537.3926"/><text fill="#FFFFFF" font-family="'Segoe UI, Arial'" font-size="11" lengthAdjust="spacing" textLength="94.311" x="31" y="558.0273">Confirm Approval</text><path d="M483.0117,537.3926 L483.0117,570.7803 L463.0117,574.7803 L483.0117,578.7803 L483.0117,612.168 A0,0 0 0 0 483.0117,612.168 L635.5552,612.168 A0,0 0 0 0 635.5552,612.168 L635.5552,547.3926 L625.5552,537.3926 L483.0117,537.3926 A0,0 0 0 0 483.0117,537.3926" fill="#FEFFDD" style="stroke:#181818;stroke-width:0.5;"/><path d="M625.5552,537.3926 L625.5552,547.3926 L635.5552,547.3926 L625.5552,537.3926" fill="#FEFFDD" style="stroke:#181818;stroke-width:0.5;"/><text fill="#000000" font-family="'Segoe UI, Arial'" font-size="11" font-weight="bold" lengthAdjust="spacing" textLength="103.979" x="489.0117" y="553.0273">Common Reasons:</text><text fill="#000000" font-family="'Segoe UI, Arial'" font-size="11" lengthAdjust="spacing" textLength="121.7305" x="489.0117" y="565.9824">- Insufficient collateral</text><text fill="#000000" font-family="'Segoe UI, Arial'" font-size="11" lengthAdjust="spacing" textLength="90.4707" x="489.0117" y="578.9375">- High debt ratio</text><text fill="#000000" font-family="'Segoe UI, Arial'" font-size="11" lengthAdjust="spacing" textLength="108.1147" x="489.0117" y="591.8926">- Poor credit history</text><text fill="#000000" font-family="'Segoe UI, Arial'" font-size="11" lengthAdjust="spacing" textLength="131.5435" x="489.0117" y="604.8477">- Incomplete documents</text><rect fill="#438DD5" height="32.9551" rx="12.5" ry="12.5" style="stroke:#3C7FC0;stroke-width:0.5;" width="141.9131" x="321.0986" y="558.3027"/><text fill="#FFFFFF" font-family="'Segoe UI, Arial'" font-size="11" lengthAdjust="spacing" textLength="121.9131" x="331.0986" y="578.9375">Enter Rejection Reason</text><rect fill="#438DD5" height="32.9551" rx="12.5" ry="12.5" style="stroke:#3C7FC0;stroke-width:0.5;" width="115.7397" x="334.1853" y="647.168"/><text fill="#FFFFFF" font-family="'Segoe UI, Arial'" font-size="11" lengthAdjust="spacing" textLength="95.7397" x="344.1853" y="667.8027">Confirm Rejection</text><polygon fill="#FEF3C7" points="228.2048,899.6738,240.2048,911.6738,228.2048,923.6738,216.2048,911.6738,228.2048,899.6738" style="stroke:#F59E0B;stroke-width:0.5;"/><line style="stroke:#000000;stroke-width:1.5;" x1="15" x2="15" y1="64.9766" y2="965.6738"/><rect fill="#E0E7FF" height="900.6973" style="stroke:#E0E7FF;stroke-width:1;" width="682.853" x="640.5552" y="64.9766"/><ellipse cx="904.3713" cy="92.9316" fill="#222222" rx="10" ry="10" style="stroke:#222222;stroke-width:1;"/><path d="M997.6992,167.9316 L997.6992,188.3643 L977.6992,192.3643 L997.6992,196.3643 L997.6992,216.7969 A0,0 0 0 0 997.6992,216.7969 L1154.9531,216.7969 A0,0 0 0 0 1154.9531,216.7969 L1154.9531,177.9316 L1144.9531,167.9316 L997.6992,167.9316 A0,0 0 0 0 997.6992,167.9316" fill="#FEFFDD" style="stroke:#181818;stroke-width:0.5;"/><path d="M1144.9531,167.9316 L1144.9531,177.9316 L1154.9531,177.9316 L1144.9531,167.9316" fill="#FEFFDD" style="stroke:#181818;stroke-width:0.5;"/><text fill="#000000" font-family="'Segoe UI, Arial'" font-size="11" font-weight="bold" lengthAdjust="spacing" textLength="32.0923" x="1003.6992" y="183.5664">Filter:</text><text fill="#000000" font-family="'Segoe UI, Arial'" font-size="11" lengthAdjust="spacing" textLength="101.2183" x="1003.6992" y="196.5215">Status = REVIEWED</text><text fill="#000000" font-family="'Segoe UI, Arial'" font-size="11" lengthAdjust="spacing" textLength="136.2539" x="1003.6992" y="209.4766">Show officer review notes</text><rect fill="#438DD5" height="32.9551" rx="12.5" ry="12.5" style="stroke:#3C7FC0;stroke-width:0.5;" width="146.6558" x="831.0435" y="175.8867"/><text fill="#FFFFFF" font-family="'Segoe UI, Arial'" font-size="11" lengthAdjust="spacing" textLength="126.6558" x="841.0435" y="196.5215">Display Reviewed Loans</text><path d="M1014.3201,279.752 L1014.3201,319.6172 L994.3201,323.6172 L1014.3201,327.6172 L1014.3201,367.4824 A0,0 0 0 0 1014.3201,367.4824 L1162.8943,367.4824 A0,0 0 0 0 1162.8943,367.4824 L1162.8943,289.752 L1152.8943,279.752 L1014.3201,279.752 A0,0 0 0 0 1014.3201,279.752" fill="#FEFFDD" style="stroke:#181818;stroke-width:0.5;"/><path d="M1152.8943,279.752 L1152.8943,289.752 L1162.8943,289.752 L1152.8943,279.752" fill="#FEFFDD" style="stroke:#181818;stroke-width:0.5;"/><text fill="#000000" font-family="'Segoe UI, Arial'" font-size="11" font-weight="bold" lengthAdjust="spacing" textLength="69.5933" x="1020.3201" y="295.3867">Information:</text><text fill="#000000" font-family="'Segoe UI, Arial'" font-size="11" lengthAdjust="spacing" textLength="91.9585" x="1020.3201" y="308.3418">- Member details</text><text fill="#000000" font-family="'Segoe UI, Arial'" font-size="11" lengthAdjust="spacing" textLength="117.7666" x="1020.3201" y="321.2969">- Loan request details</text><text fill="#000000" font-family="'Segoe UI, Arial'" font-size="11" lengthAdjust="spacing" textLength="127.5742" x="1020.3201" y="334.252">- Officer review &amp; notes</text><text fill="#000000" font-family="'Segoe UI, Arial'" font-size="11" lengthAdjust="spacing" textLength="97.4692" x="1020.3201" y="347.207">- Risk assessment</text><text fill="#000000" font-family="'Segoe UI, Arial'" font-size="11" lengthAdjust="spacing" textLength="102.6899" x="1020.3201" y="360.1621">- Recommendation</text><rect fill="#438DD5" height="32.9551" rx="12.5" ry="12.5" style="stroke:#3C7FC0;stroke-width:0.5;" width="179.8975" x="814.4226" y="307.1396"/><text fill="#FFFFFF" font-family="'Segoe UI, Arial'" font-size="11" lengthAdjust="spacing" textLength="159.8975" x="824.4226" y="327.7744">Display Complete Loan Profile</text><path d="M809.2175,605.3477 L809.2175,632.2578 L789.2175,636.2578 L809.2175,640.2578 L809.2175,667.168 A0,0 0 0 0 809.2175,667.168 L947.866,667.168 A0,0 0 0 0 947.866,667.168 L947.866,615.3477 L937.866,605.3477 L809.2175,605.3477 A0,0 0 0 0 809.2175,605.3477" fill="#FEFFDD" style="stroke:#181818;stroke-width:0.5;"/><path d="M937.866,605.3477 L937.866,615.3477 L947.866,615.3477 L937.866,605.3477" fill="#FEFFDD" style="stroke:#181818;stroke-width:0.5;"/><text fill="#000000" font-family="'Segoe UI, Arial'" font-size="11" font-weight="bold" lengthAdjust="spacing" textLength="42.7646" x="815.2175" y="620.9824">Update:</text><text fill="#000000" font-family="'Segoe UI, Arial'" font-size="11" lengthAdjust="spacing" textLength="106.1113" x="815.2175" y="633.9375">- Status: APPROVED</text><text fill="#000000" font-family="'Segoe UI, Arial'" font-size="11" lengthAdjust="spacing" textLength="73.7505" x="815.2175" y="646.8926">- Approver ID</text><text fill="#000000" font-family="'Segoe UI, Arial'" font-size="11" lengthAdjust="spacing" textLength="117.6484" x="815.2175" y="659.8477">- Approval timestamp</text><rect fill="#438DD5" height="32.9551" rx="12.5" ry="12.5" style="stroke:#3C7FC0;stroke-width:0.5;" width="122.9316" x="666.2859" y="619.7803"/><text fill="#FFFFFF" font-family="'Segoe UI, Arial'" font-size="11" lengthAdjust="spacing" textLength="102.9316" x="676.2859" y="640.415">Update Loan Status</text><path d="M820.7358,690.123 L820.7358,723.5107 L800.7358,727.5107 L820.7358,731.5107 L820.7358,764.8984 A0,0 0 0 0 820.7358,764.8984 L947.5571,764.8984 A0,0 0 0 0 947.5571,764.8984 L947.5571,700.123 L937.5571,690.123 L820.7358,690.123 A0,0 0 0 0 820.7358,690.123" fill="#FEFFDD" style="stroke:#181818;stroke-width:0.5;"/><path d="M937.5571,690.123 L937.5571,700.123 L947.5571,700.123 L937.5571,690.123" fill="#FEFFDD" style="stroke:#181818;stroke-width:0.5;"/><text fill="#000000" font-family="'Segoe UI, Arial'" font-size="11" font-weight="bold" lengthAdjust="spacing" textLength="102.0776" x="826.7358" y="705.7578">Contract includes:</text><text fill="#000000" font-family="'Segoe UI, Arial'" font-size="11" lengthAdjust="spacing" textLength="69.4697" x="826.7358" y="718.7129">- Loan terms</text><text fill="#000000" font-family="'Segoe UI, Arial'" font-size="11" lengthAdjust="spacing" textLength="105.8213" x="826.7358" y="731.668">- Payment schedule</text><text fill="#000000" font-family="'Segoe UI, Arial'" font-size="11" lengthAdjust="spacing" textLength="74.7334" x="826.7358" y="744.623">- Interest rate</text><text fill="#000000" font-family="'Segoe UI, Arial'" font-size="11" lengthAdjust="spacing" textLength="57.1646" x="826.7358" y="757.5781">- Penalties</text><rect fill="#438DD5" height="32.9551" rx="12.5" ry="12.5" style="stroke:#3C7FC0;stroke-width:0.5;" width="145.9683" x="654.7676" y="711.0332"/><text fill="#FFFFFF" font-family="'Segoe UI, Arial'" font-size="11" lengthAdjust="spacing" textLength="125.9683" x="664.7676" y="731.668">Generate Loan Contract</text><path d="M828.9482,774.8984 L828.9482,801.8086 L808.9482,805.8086 L828.9482,809.8086 L828.9482,836.7188 A0,0 0 0 0 828.9482,836.7188 L979.0801,836.7188 A0,0 0 0 0 979.0801,836.7188 L979.0801,784.8984 L969.0801,774.8984 L828.9482,774.8984 A0,0 0 0 0 828.9482,774.8984" fill="#FEFFDD" style="stroke:#181818;stroke-width:0.5;"/><path d="M969.0801,774.8984 L969.0801,784.8984 L979.0801,784.8984 L969.0801,774.8984" fill="#FEFFDD" style="stroke:#181818;stroke-width:0.5;"/><text fill="#000000" font-family="'Segoe UI, Arial'" font-size="11" font-weight="bold" lengthAdjust="spacing" textLength="98.1782" x="834.9482" y="790.5332">Email to Member:</text><text fill="#000000" font-family="'Segoe UI, Arial'" font-size="11" lengthAdjust="spacing" textLength="129.1318" x="834.9482" y="803.4883">- Approval confirmation</text><text fill="#000000" font-family="'Segoe UI, Arial'" font-size="11" lengthAdjust="spacing" textLength="74.0566" x="834.9482" y="816.4434">- Loan details</text><text fill="#000000" font-family="'Segoe UI, Arial'" font-size="11" lengthAdjust="spacing" textLength="66.8218" x="834.9482" y="829.3984">- Next steps</text><rect fill="#438DD5" height="32.9551" rx="12.5" ry="12.5" style="stroke:#3C7FC0;stroke-width:0.5;" width="162.3931" x="646.5552" y="789.3311"/><text fill="#FFFFFF" font-family="'Segoe UI, Arial'" font-size="11" lengthAdjust="spacing" textLength="142.3931" x="656.5552" y="809.9658">Send Approval Notification</text><path d="M797.9731,861.7188 L797.9731,869.1963 L777.9731,873.1963 L797.9731,877.1963 L797.9731,884.6738 A0,0 0 0 0 797.9731,884.6738 L946.1016,884.6738 A0,0 0 0 0 946.1016,884.6738 L946.1016,871.7188 L936.1016,861.7188 L797.9731,861.7188 A0,0 0 0 0 797.9731,861.7188" fill="#FEFFDD" style="stroke:#181818;stroke-width:0.5;"/><path d="M936.1016,861.7188 L936.1016,871.7188 L946.1016,871.7188 L936.1016,861.7188" fill="#FEFFDD" style="stroke:#181818;stroke-width:0.5;"/><text fill="#000000" font-family="'Segoe UI, Arial'" font-size="11" lengthAdjust="spacing" textLength="127.1284" x="803.9731" y="877.3535">Ready for disbursement</text><rect fill="#D4EDDA" height="32.9551" rx="12.5" ry="12.5" style="stroke:#3C7FC0;stroke-width:0.5;" width="100.4429" x="677.5303" y="856.7188"/><text fill="#FFFFFF" font-family="'Segoe UI, Arial'" font-size="11" lengthAdjust="spacing" textLength="80.4429" x="687.5303" y="877.3535">Loan Approved</text><path d="M1162.4568,703.0781 L1162.4568,729.9883 L1142.4568,733.9883 L1162.4568,737.9883 L1162.4568,764.8984 A0,0 0 0 0 1162.4568,764.8984 L1302.5339,764.8984 A0,0 0 0 0 1302.5339,764.8984 L1302.5339,713.0781 L1292.5339,703.0781 L1162.4568,703.0781 A0,0 0 0 0 1162.4568,703.0781" fill="#FEFFDD" style="stroke:#181818;stroke-width:0.5;"/><path d="M1292.5339,703.0781 L1292.5339,713.0781 L1302.5339,713.0781 L1292.5339,703.0781" fill="#FEFFDD" style="stroke:#181818;stroke-width:0.5;"/><text fill="#000000" font-family="'Segoe UI, Arial'" font-size="11" font-weight="bold" lengthAdjust="spacing" textLength="42.7646" x="1168.4568" y="718.7129">Update:</text><text fill="#000000" font-family="'Segoe UI, Arial'" font-size="11" lengthAdjust="spacing" textLength="100.5361" x="1168.4568" y="731.668">- Status: REJECTED</text><text fill="#000000" font-family="'Segoe UI, Arial'" font-size="11" lengthAdjust="spacing" textLength="98.291" x="1168.4568" y="744.623">- Rejection reason</text><text fill="#000000" font-family="'Segoe UI, Arial'" font-size="11" lengthAdjust="spacing" textLength="119.0771" x="1168.4568" y="757.5781">- Rejection timestamp</text><rect fill="#438DD5" height="32.9551" rx="12.5" ry="12.5" style="stroke:#3C7FC0;stroke-width:0.5;" width="122.9316" x="1019.5251" y="717.5107"/><text fill="#FFFFFF" font-family="'Segoe UI, Arial'" font-size="11" lengthAdjust="spacing" textLength="102.9316" x="1029.5251" y="738.1455">Update Loan Status</text><path d="M1182.9019,774.8984 L1182.9019,801.8086 L1162.9019,805.8086 L1182.9019,809.8086 L1182.9019,836.7188 A0,0 0 0 0 1182.9019,836.7188 L1318.4082,836.7188 A0,0 0 0 0 1318.4082,836.7188 L1318.4082,784.8984 L1308.4082,774.8984 L1182.9019,774.8984 A0,0 0 0 0 1182.9019,774.8984" fill="#FEFFDD" style="stroke:#181818;stroke-width:0.5;"/><path d="M1308.4082,774.8984 L1308.4082,784.8984 L1318.4082,784.8984 L1308.4082,774.8984" fill="#FEFFDD" style="stroke:#181818;stroke-width:0.5;"/><text fill="#000000" font-family="'Segoe UI, Arial'" font-size="11" font-weight="bold" lengthAdjust="spacing" textLength="98.1782" x="1188.9019" y="790.5332">Email to Member:</text><text fill="#000000" font-family="'Segoe UI, Arial'" font-size="11" lengthAdjust="spacing" textLength="95.0361" x="1188.9019" y="803.4883">- Rejection notice</text><text fill="#000000" font-family="'Segoe UI, Arial'" font-size="11" lengthAdjust="spacing" textLength="114.5063" x="1188.9019" y="816.4434">- Reason explanation</text><text fill="#000000" font-family="'Segoe UI, Arial'" font-size="11" lengthAdjust="spacing" textLength="91.3032" x="1188.9019" y="829.3984">- Appeal process</text><rect fill="#438DD5" height="32.9551" rx="12.5" ry="12.5" style="stroke:#3C7FC0;stroke-width:0.5;" width="163.8218" x="999.0801" y="789.3311"/><text fill="#FFFFFF" font-family="'Segoe UI, Arial'" font-size="11" lengthAdjust="spacing" textLength="143.8218" x="1009.0801" y="809.9658">Send Rejection Notification</text><rect fill="#F8D7DA" height="32.9551" rx="12.5" ry="12.5" style="stroke:#3C7FC0;stroke-width:0.5;" width="94.3628" x="1033.8096" y="856.7188"/><text fill="#FFFFFF" font-family="'Segoe UI, Arial'" font-size="11" lengthAdjust="spacing" textLength="74.3628" x="1043.8096" y="877.3535">Loan Rejected</text><ellipse cx="904.3713" cy="954.6738" fill="none" rx="11" ry="11" style="stroke:#222222;stroke-width:1;"/><ellipse cx="904.3713" cy="954.6738" fill="#222222" rx="6" ry="6" style="stroke:#222222;stroke-width:1;"/><line style="stroke:#000000;stroke-width:1.5;" x1="640.5552" x2="640.5552" y1="64.9766" y2="965.6738"/><line style="stroke:#000000;stroke-width:1.5;" x1="1323.4082" x2="1323.4082" y1="64.9766" y2="965.6738"/><line style="stroke:#181818;stroke-width:1;" x1="228.2048" x2="228.2048" y1="420.4375" y2="440.4375"/><polygon fill="#181818" points="224.2048,430.4375,228.2048,440.4375,232.2048,430.4375,228.2048,434.4375" style="stroke:#181818;stroke-width:1;"/><line style="stroke:#181818;stroke-width:1;" x1="392.0552" x2="392.0552" y1="591.2578" y2="647.168"/><polygon fill="#181818" points="388.0552,637.168,392.0552,647.168,396.0552,637.168,392.0552,641.168" style="stroke:#181818;stroke-width:1;"/><line style="stroke:#181818;stroke-width:1;" x1="191.6267" x2="78.1555" y1="505.3926" y2="505.3926"/><line style="stroke:#181818;stroke-width:1;" x1="78.1555" x2="78.1555" y1="505.3926" y2="537.3926"/><polygon fill="#181818" points="74.1555,527.3926,78.1555,537.3926,82.1555,527.3926,78.1555,531.3926" style="stroke:#181818;stroke-width:1;"/><line style="stroke:#181818;stroke-width:1;" x1="264.783" x2="392.0552" y1="505.3926" y2="505.3926"/><line style="stroke:#181818;stroke-width:1;" x1="392.0552" x2="392.0552" y1="505.3926" y2="558.3027"/><polygon fill="#181818" points="388.0552,548.3027,392.0552,558.3027,396.0552,548.3027,392.0552,552.3027" style="stroke:#181818;stroke-width:1;"/><line style="stroke:#181818;stroke-width:1;" x1="228.2048" x2="228.2048" y1="473.3926" y2="493.3926"/><polygon fill="#181818" points="224.2048,483.3926,228.2048,493.3926,232.2048,483.3926,228.2048,487.3926" style="stroke:#181818;stroke-width:1;"/><line style="stroke:#181818;stroke-width:1;" x1="727.7517" x2="727.7517" y1="652.7354" y2="711.0332"/><polygon fill="#181818" points="723.7517,701.0332,727.7517,711.0332,731.7517,701.0332,727.7517,705.0332" style="stroke:#181818;stroke-width:1;"/><line style="stroke:#181818;stroke-width:1;" x1="727.7517" x2="727.7517" y1="743.9883" y2="789.3311"/><polygon fill="#181818" points="723.7517,779.3311,727.7517,789.3311,731.7517,779.3311,727.7517,783.3311" style="stroke:#181818;stroke-width:1;"/><line style="stroke:#181818;stroke-width:1;" x1="727.7517" x2="727.7517" y1="822.2861" y2="856.7188"/><polygon fill="#181818" points="723.7517,846.7188,727.7517,856.7188,731.7517,846.7188,727.7517,850.7188" style="stroke:#181818;stroke-width:1;"/><line style="stroke:#181818;stroke-width:1;" x1="1080.991" x2="1080.991" y1="750.4658" y2="789.3311"/><polygon fill="#181818" points="1076.991,779.3311,1080.991,789.3311,1084.991,779.3311,1080.991,783.3311" style="stroke:#181818;stroke-width:1;"/><line style="stroke:#181818;stroke-width:1;" x1="1080.991" x2="1080.991" y1="822.2861" y2="856.7188"/><polygon fill="#181818" points="1076.991,846.7188,1080.991,856.7188,1084.991,846.7188,1080.991,850.7188" style="stroke:#181818;stroke-width:1;"/><line style="stroke:#181818;stroke-width:1;" x1="904.3713" x2="904.3713" y1="102.9316" y2="107.9316"/><line style="stroke:#181818;stroke-width:1;" x1="904.3713" x2="228.2048" y1="107.9316" y2="107.9316"/><line style="stroke:#181818;stroke-width:1;" x1="228.2048" x2="228.2048" y1="107.9316" y2="122.9316"/><polygon fill="#181818" points="224.2048,112.9316,228.2048,122.9316,232.2048,112.9316,228.2048,116.9316" style="stroke:#181818;stroke-width:1;"/><line style="stroke:#181818;stroke-width:1;" x1="228.2048" x2="228.2048" y1="155.8867" y2="160.8867"/><line style="stroke:#181818;stroke-width:1;" x1="228.2048" x2="904.3713" y1="160.8867" y2="160.8867"/><line style="stroke:#181818;stroke-width:1;" x1="904.3713" x2="904.3713" y1="160.8867" y2="175.8867"/><polygon fill="#181818" points="900.3713,165.8867,904.3713,175.8867,908.3713,165.8867,904.3713,169.8867" style="stroke:#181818;stroke-width:1;"/><line style="stroke:#181818;stroke-width:1;" x1="904.3713" x2="904.3713" y1="208.8418" y2="221.7969"/><line style="stroke:#181818;stroke-width:1;" x1="904.3713" x2="228.2048" y1="221.7969" y2="221.7969"/><line style="stroke:#181818;stroke-width:1;" x1="228.2048" x2="228.2048" y1="221.7969" y2="236.7969"/><polygon fill="#181818" points="224.2048,226.7969,228.2048,236.7969,232.2048,226.7969,228.2048,230.7969" style="stroke:#181818;stroke-width:1;"/><line style="stroke:#181818;stroke-width:1;" x1="228.2048" x2="228.2048" y1="269.752" y2="275.9458"/><line style="stroke:#181818;stroke-width:1;" x1="228.2048" x2="904.3713" y1="275.9458" y2="275.9458"/><line style="stroke:#181818;stroke-width:1;" x1="904.3713" x2="904.3713" y1="275.9458" y2="307.1396"/><polygon fill="#181818" points="900.3713,297.1396,904.3713,307.1396,908.3713,297.1396,904.3713,301.1396" style="stroke:#181818;stroke-width:1;"/><line style="stroke:#181818;stroke-width:1;" x1="904.3713" x2="904.3713" y1="340.0947" y2="371.2886"/><line style="stroke:#181818;stroke-width:1;" x1="904.3713" x2="228.2048" y1="371.2886" y2="371.2886"/><line style="stroke:#181818;stroke-width:1;" x1="228.2048" x2="228.2048" y1="371.2886" y2="387.4824"/><polygon fill="#181818" points="224.2048,377.4824,228.2048,387.4824,232.2048,377.4824,228.2048,381.4824" style="stroke:#181818;stroke-width:1;"/><line style="stroke:#181818;stroke-width:1;" x1="78.1555" x2="78.1555" y1="570.3477" y2="595.064"/><line style="stroke:#181818;stroke-width:1;" x1="78.1555" x2="727.7517" y1="595.064" y2="595.064"/><line style="stroke:#181818;stroke-width:1;" x1="727.7517" x2="727.7517" y1="595.064" y2="619.7803"/><polygon fill="#181818" points="723.7517,609.7803,727.7517,619.7803,731.7517,609.7803,727.7517,613.7803" style="stroke:#181818;stroke-width:1;"/><line style="stroke:#181818;stroke-width:1;" x1="392.0552" x2="392.0552" y1="680.123" y2="692.7944"/><line style="stroke:#181818;stroke-width:1;" x1="392.0552" x2="1080.991" y1="692.7944" y2="692.7944"/><line style="stroke:#181818;stroke-width:1;" x1="1080.991" x2="1080.991" y1="692.7944" y2="717.5107"/><polygon fill="#181818" points="1076.991,707.5107,1080.991,717.5107,1084.991,707.5107,1080.991,711.5107" style="stroke:#181818;stroke-width:1;"/><line style="stroke:#181818;stroke-width:1;" x1="727.7517" x2="727.7517" y1="889.6738" y2="893.6738"/><line style="stroke:#181818;stroke-width:1;" x1="727.7517" x2="198.2048" y1="893.6738" y2="893.6738"/><line style="stroke:#181818;stroke-width:1;" x1="198.2048" x2="198.2048" y1="893.6738" y2="911.6738"/><line style="stroke:#181818;stroke-width:1;" x1="198.2048" x2="216.2048" y1="911.6738" y2="911.6738"/><polygon fill="#181818" points="206.2048,907.6738,216.2048,911.6738,206.2048,915.6738,210.2048,911.6738" style="stroke:#181818;stroke-width:1;"/><line style="stroke:#181818;stroke-width:1;" x1="1080.991" x2="1080.991" y1="889.6738" y2="911.6738"/><line style="stroke:#181818;stroke-width:1;" x1="1080.991" x2="240.2048" y1="911.6738" y2="911.6738"/><polygon fill="#181818" points="250.2048,907.6738,240.2048,911.6738,250.2048,915.6738,246.2048,911.6738" style="stroke:#181818;stroke-width:1;"/><line style="stroke:#181818;stroke-width:1;" x1="228.2048" x2="228.2048" y1="923.6738" y2="928.6738"/><line style="stroke:#181818;stroke-width:1;" x1="228.2048" x2="904.3713" y1="928.6738" y2="928.6738"/><line style="stroke:#181818;stroke-width:1;" x1="904.3713" x2="904.3713" y1="928.6738" y2="943.6738"/><polygon fill="#181818" points="900.3713,933.6738,904.3713,943.6738,908.3713,933.6738,904.3713,937.6738" style="stroke:#181818;stroke-width:1;"/><text fill="#000000" font-family="'Segoe UI, Arial'" font-size="11" lengthAdjust="spacing" textLength="49.4893" x="303.033" y="75.6113">President</text><text fill="#000000" font-family="'Segoe UI, Arial'" font-size="11" lengthAdjust="spacing" textLength="37.791" x="963.0862" y="75.6113">System</text><g class="legend" data-source-line="132"><rect fill="none" height="158.3945" rx="7.5" ry="7.5" style="stroke:#000000;stroke-width:1;" width="392.5841" x="473.2822" y="977.6738"/><text fill="#000000" font-family="'Segoe UI, Arial'" font-size="14" font-weight="bold" lengthAdjust="spacing" textLength="182.5469" x="478.2822" y="996.209">PSPEC 3.0: Loan Approval</text><text fill="#000000" font-family="'Segoe UI, Arial'" font-size="14" lengthAdjust="spacing" textLength="16.2012" x="478.2822" y="1012.6973">--</text><text fill="#000000" font-family="'Segoe UI, Arial'" font-size="14" font-weight="bold" lengthAdjust="spacing" textLength="79.1943" x="478.2822" y="1029.1855">Process ID:</text><text fill="#000000" font-family="'Segoe UI, Arial'" font-size="14" lengthAdjust="spacing" textLength="70.5264" x="561.9062" y="1029.1855">PSPEC-3.0</text><text fill="#000000" font-family="'Segoe UI, Arial'" font-size="14" font-weight="bold" lengthAdjust="spacing" textLength="104.2207" x="478.2822" y="1045.6738">Process Name:</text><text fill="#000000" font-family="'Segoe UI, Arial'" font-size="14" lengthAdjust="spacing" textLength="273.9337" x="586.9326" y="1045.6738">Approve/Reject Loan (&#3629;&#3609;&#3640;&#3617;&#3633;&#3605;&#3636;/&#3611;&#3599;&#3636;&#3648;&#3626;&#3608;&#3626;&#3636;&#3609;&#3648;&#3594;&#3639;&#3656;&#3629;)</text><text fill="#000000" font-family="'Segoe UI, Arial'" font-size="14" font-weight="bold" lengthAdjust="spacing" textLength="57.0732" x="478.2822" y="1062.1621">Trigger:</text><text fill="#000000" font-family="'Segoe UI, Arial'" font-size="14" lengthAdjust="spacing" textLength="211.6885" x="539.7851" y="1062.1621">President selects reviewed loan</text><text fill="#000000" font-family="'Segoe UI, Arial'" font-size="14" font-weight="bold" lengthAdjust="spacing" textLength="41.4395" x="478.2822" y="1078.6504">Input:</text><text fill="#000000" font-family="'Segoe UI, Arial'" font-size="14" lengthAdjust="spacing" textLength="175.9912" x="524.1513" y="1078.6504">Reviewed loan application</text><text fill="#000000" font-family="'Segoe UI, Arial'" font-size="14" font-weight="bold" lengthAdjust="spacing" textLength="53.9971" x="478.2822" y="1095.1387">Output:</text><text fill="#000000" font-family="'Segoe UI, Arial'" font-size="14" lengthAdjust="spacing" textLength="179.8809" x="536.7089" y="1095.1387">Approved or Rejected loan</text><text fill="#000000" font-family="'Segoe UI, Arial'" font-size="14" font-weight="bold" lengthAdjust="spacing" textLength="103.332" x="478.2822" y="1111.627">Pre-condition:</text><text fill="#000000" font-family="'Segoe UI, Arial'" font-size="14" lengthAdjust="spacing" textLength="165.334" x="586.0439" y="1111.627">Loan status = REVIEWED</text><text fill="#000000" font-family="'Segoe UI, Arial'" font-size="14" font-weight="bold" lengthAdjust="spacing" textLength="111.2959" x="478.2822" y="1128.1152">Post-condition:</text><text fill="#000000" font-family="'Segoe UI, Arial'" font-size="14" lengthAdjust="spacing" textLength="258.3438" x="594.0078" y="1128.1152">Loan status = APPROVED or REJECTED</text></g><g class="footer" data-source-line="144"><text fill="#888888" font-family="'Segoe UI, Arial'" font-size="9" lengthAdjust="spacing" textLength="238.0386" x="550.5549" y="1157.7695">Process Specification | Ban Sai Yai Savings Cooperative</text></g><!--SRC=[jLR1Rjj64BtpAnOn4Dj2LTjr3Dkouy8MoLP5OWjIaY90Bojo96rDSjdTbHsrAj1ZqKjF1Hhqr6k17WeKAFCt_9JExf8KfOW9Wg84R8WxRsVVpBpPuVRZ3tkSRT8NF00foJ25W8rPG1NZ2McJ9vmcv39D1R-ZaSOD-rwN77wyZxOhD0qf8o_nRqZlM3AHfCjv2W9ttu6p_Q4q77dBafGA6fCH3MudWi-IiCiZBiYMRvuQ8eGndKNAvucwfZ6G1qEOS23FUn-HIy5ez60pTiY-1N9mK3FAAGtvFR8dOnf9gBEW0GR2r9nyvn1yhjP9FJeySTqZQ-CY156i7tQF_Uw-MTTdheQWLrr6Ovw4RpdqFH_tha3gVlsZKs__olb-4yS2tqIrvdcJopMg1_udfuV7-Y35L0JaN6BQEWSd5-UZYqe2dLLrdE-DBixtDF3YgwJOi7_H9Amy-pFFNkTPbcU_vzbVUVPBdlsTPt-O_w_pDp_asKzvza_-vaT45cuTPx7b7lYNtj6YBq2o41Arm3Lltpls_SLmBXN42qoEea8Xk0RgFE4JbX35YKMTeRd4TrmcquZEoG3k6Dn3QEAIPqx25H319bE5-McrV1Of49rM2z-6YggP98_9m7lHyxxqNBqsvVU4Zp5844GONqIxa0vWNVIlDKv3Y21GDejZJBkBAPAOdetakZnE8q121evf7RC8tkBOIz1HR99iYRR9KuX7I2W4HLaapP9n8U2R6KYrOhXPPV-muAzD0oPl2PKIYnaZVRi60O_nBJG7DeLfqwfr4fNrVqYkjMCCjFEKta8zSZOcErPIyEakKLD8oCvBaBj6edM_-htJvScOYRWIuPbPjjWoXGRuF4MIHV9iyInq9N_wQRKirAPFF-rYGuTSzlk3cnUcsDPG41Majxv68w9OZFcbSMfCLN8gWftF8D5tPS4AGr42kxcHLmaWB0cYMGYoJj6uG7d6ibhgqxck59715C9P19MXbo1GbruVleH3GYF5G3RH7UgrAZeiODNFZPIz6AMbkywAi4wuSXJO4be9hOIpLAPTl8PN68s2j8dYbll8SztBJkrUWh21t01eE3Tj5p8vcWa9XQpN7GCE1R9ppHiKwEbaehUliPMrjD6lV4T6i8tZ2hLImLuYPxhzcAvPmAC8YoDmw9Rspz4FfcHaoiRuicuSOmW4X4oHAPEAYtdDPr1U6o4FPZh2nlAMhLI5yl_sqi3xmki-g_NICeN296U3uRqTPIIwnFzNZIuzuJwy66i6pP30AxoQarNbekm0LPtQkTSaLF_4FIw5Qa_HGaKW6-lvnLF7YM2YDuwuKZmsbtlJvBKNVTjYYddRSp4G-xdMnXqhDlszfAr5X-nP0jRdpiR1l9Tdl-NPpteuwycCK_hNfbczQuvwXZcUc6IIgc68DFDE5jC5vso49nPZAvqf3HxKJOGkHuQ1tSnKWIkRct1HvM_f3eziuxM27M7de0rDRfZPYELIlGjStldcf5ApM1XR7iSPSwul0Fl1SzhmlRDutyTo-ONpBm00]--></g></svg>