<svg xmlns="http://www.w3.org/2000/svg" xmlns:xlink="http://www.w3.org/1999/xlink" contentStyleType="text/css" data-diagram-type="ACTIVITY" height="1089px" preserveAspectRatio="none" style="width:1150px;height:1089px;background:#FFFFFF;" version="1.1" viewBox="0 0 1150 1089" width="1150px" zoomAndPan="magnify"><title>&lt;size:18&gt;&lt;b&gt;PSPEC 1.0: Loan Submission&lt;/b&gt;&lt;/size&gt;
&lt;size:10&gt;Process Specification - &#3618;&#3639;&#3656;&#3609;&#3588;&#3635;&#3586;&#3629;&#3626;&#3636;&#3609;&#3648;&#3594;&#3639;&#3656;&#3629;&lt;/size&gt;</title><defs/><g><g class="title" data-source-line="25"><text fill="#000000" font-family="'Segoe UI, Arial'" font-size="18" font-weight="bold" lengthAdjust="spacing" textLength="257.6689" x="445.1465" y="37.4023">PSPEC 1.0: Loan Submission</text><text fill="#000000" font-family="'Segoe UI, Arial'" font-size="10" font-weight="bold" lengthAdjust="spacing" textLength="183.8154" x="482.0733" y="50.8672">Process Specification - &#3618;&#3639;&#3656;&#3609;&#3588;&#3635;&#3586;&#3629;&#3626;&#3636;&#3609;&#3648;&#3594;&#3639;&#3656;&#3629;</text></g><rect fill="none" height="12.9551" style="stroke:none;stroke-width:1;" width="1117.962" x="15" y="64.9766"/><rect fill="#E0E7FF" height="817.0566" style="stroke:#E0E7FF;stroke-width:1;" width="544.0337" x="15" y="64.9766"/><path d="M388.1163,112.9316 L388.1163,146.3193 L368.1163,150.3193 L388.1163,154.3193 L388.1163,187.707 A0,0 0 0 0 388.1163,187.707 L552.3591,187.707 A0,0 0 0 0 552.3591,187.707 L552.3591,122.9316 L542.3591,112.9316 L388.1163,112.9316 A0,0 0 0 0 388.1163,112.9316" fill="#FEFFDD" style="stroke:#181818;stroke-width:0.5;"/><path d="M542.3591,112.9316 L542.3591,122.9316 L552.3591,122.9316 L542.3591,112.9316" fill="#FEFFDD" style="stroke:#181818;stroke-width:0.5;"/><text fill="#000000" font-family="'Segoe UI, Arial'" font-size="11" font-weight="bold" lengthAdjust="spacing" textLength="32.5596" x="394.1163" y="128.5664">Input:</text><text fill="#000000" font-family="'Segoe UI, Arial'" font-size="11" lengthAdjust="spacing" textLength="143.2427" x="394.1163" y="141.5215">- Loan amount (&#3592;&#3635;&#3609;&#3623;&#3609;&#3648;&#3591;&#3636;&#3609;&#3585;&#3641;&#3657;)</text><text fill="#000000" font-family="'Segoe UI, Arial'" font-size="11" lengthAdjust="spacing" textLength="117.1392" x="394.1163" y="154.4766">- Loan term (&#3619;&#3632;&#3618;&#3632;&#3648;&#3623;&#3621;&#3634;)</text><text fill="#000000" font-family="'Segoe UI, Arial'" font-size="11" lengthAdjust="spacing" textLength="136.9875" x="394.1163" y="167.4316">- Loan type (&#3611;&#3619;&#3632;&#3648;&#3616;&#3607;&#3626;&#3636;&#3609;&#3648;&#3594;&#3639;&#3656;&#3629;)</text><text fill="#000000" font-family="'Segoe UI, Arial'" font-size="11" lengthAdjust="spacing" textLength="118.5099" x="394.1163" y="180.3867">- Purpose (&#3623;&#3633;&#3605;&#3606;&#3640;&#3611;&#3619;&#3632;&#3626;&#3591;&#3588;&#3660;)</text><rect fill="#438DD5" height="32.9551" rx="12.5" ry="12.5" style="stroke:#3C7FC0;stroke-width:0.5;" width="159.208" x="208.9083" y="133.8418"/><text fill="#FFFFFF" font-family="'Segoe UI, Arial'" font-size="11" lengthAdjust="spacing" textLength="139.208" x="218.9083" y="154.4766">Fill Loan Application Form</text><rect fill="#438DD5" height="32.9551" rx="12.5" ry="12.5" style="stroke:#3C7FC0;stroke-width:0.5;" width="121.1001" x="227.9623" y="207.707"/><text fill="#FFFFFF" font-family="'Segoe UI, Arial'" font-size="11" lengthAdjust="spacing" textLength="101.1001" x="237.9623" y="228.3418">Submit Application</text><path d="M177.7327,678.3027 L177.7327,711.6904 L157.7327,715.6904 L177.7327,719.6904 L177.7327,753.0781 A0,0 0 0 0 177.7327,753.0781 L301.0681,753.0781 A0,0 0 0 0 301.0681,753.0781 L301.0681,688.3027 L291.0681,678.3027 L177.7327,678.3027 A0,0 0 0 0 177.7327,678.3027" fill="#FEFFDD" style="stroke:#181818;stroke-width:0.5;"/><path d="M291.0681,678.3027 L291.0681,688.3027 L301.0681,688.3027 L291.0681,678.3027" fill="#FEFFDD" style="stroke:#181818;stroke-width:0.5;"/><text fill="#000000" font-family="'Segoe UI, Arial'" font-size="11" font-weight="bold" lengthAdjust="spacing" textLength="44.9829" x="183.7327" y="693.9375">Display:</text><text fill="#000000" font-family="'Segoe UI, Arial'" font-size="11" lengthAdjust="spacing" textLength="50.2573" x="183.7327" y="706.8926">- Loan ID</text><text fill="#000000" font-family="'Segoe UI, Arial'" font-size="11" lengthAdjust="spacing" textLength="52.2285" x="183.7327" y="719.8477">- Amount</text><text fill="#000000" font-family="'Segoe UI, Arial'" font-size="11" lengthAdjust="spacing" textLength="74.7334" x="183.7327" y="732.8027">- Interest rate</text><text fill="#000000" font-family="'Segoe UI, Arial'" font-size="11" lengthAdjust="spacing" textLength="102.3354" x="183.7327" y="745.7578">- Monthly payment</text><rect fill="#438DD5" height="32.9551" rx="12.5" ry="12.5" style="stroke:#3C7FC0;stroke-width:0.5;" width="133.4697" x="24.2629" y="699.2129"/><text fill="#FFFFFF" font-family="'Segoe UI, Arial'" font-size="11" lengthAdjust="spacing" textLength="113.4697" x="34.2629" y="719.8477">Receive Confirmation</text><rect fill="#D4EDDA" height="32.9551" rx="12.5" ry="12.5" style="stroke:#3C7FC0;stroke-width:0.5;" width="139.9956" x="21" y="773.0781"/><text fill="#FFFFFF" font-family="'Segoe UI, Arial'" font-size="11" lengthAdjust="spacing" textLength="119.9956" x="31" y="793.7129">Submission Successful</text><rect fill="#438DD5" height="32.9551" rx="12.5" ry="12.5" style="stroke:#3C7FC0;stroke-width:0.5;" width="138.0137" x="417.02" y="497.3926"/><text fill="#FFFFFF" font-family="'Segoe UI, Arial'" font-size="11" lengthAdjust="spacing" textLength="118.0137" x="427.02" y="518.0273">Display Error Message</text><rect fill="#F8D7DA" height="32.9551" rx="12.5" ry="12.5" style="stroke:#3C7FC0;stroke-width:0.5;" width="115.9653" x="428.0442" y="563.5273"/><text fill="#FFFFFF" font-family="'Segoe UI, Arial'" font-size="11" lengthAdjust="spacing" textLength="95.9653" x="438.0442" y="584.1621">Submission Failed</text><ellipse cx="288.5123" cy="871.0332" fill="none" rx="11" ry="11" style="stroke:#222222;stroke-width:1;"/><ellipse cx="288.5123" cy="871.0332" fill="#222222" rx="6" ry="6" style="stroke:#222222;stroke-width:1;"/><line style="stroke:#000000;stroke-width:1.5;" x1="15" x2="15" y1="64.9766" y2="882.0332"/><rect fill="#DDD6FE" height="817.0566" style="stroke:#DDD6FE;stroke-width:1;" width="573.1881" x="559.0337" y="64.9766"/><ellipse cx="846.3605" cy="92.9316" fill="#222222" rx="10" ry="10" style="stroke:#222222;stroke-width:1;"/><rect fill="#438DD5" height="32.9551" rx="12.5" ry="12.5" style="stroke:#3C7FC0;stroke-width:0.5;" width="135.0166" x="778.8522" y="260.6621"/><text fill="#FFFFFF" font-family="'Segoe UI, Arial'" font-size="11" lengthAdjust="spacing" textLength="115.0166" x="788.8522" y="281.2969">Receive Loan Request</text><path d="M947.3287,303.6172 L947.3287,330.5273 L927.3287,334.5273 L947.3287,338.5273 L947.3287,365.4375 A0,0 0 0 0 947.3287,365.4375 L1127.2218,365.4375 A0,0 0 0 0 1127.2218,365.4375 L1127.2218,313.6172 L1117.2218,303.6172 L947.3287,303.6172 A0,0 0 0 0 947.3287,303.6172" fill="#FEFFDD" style="stroke:#181818;stroke-width:0.5;"/><path d="M1117.2218,303.6172 L1117.2218,313.6172 L1127.2218,313.6172 L1117.2218,303.6172" fill="#FEFFDD" style="stroke:#181818;stroke-width:0.5;"/><text fill="#000000" font-family="'Segoe UI, Arial'" font-size="11" font-weight="bold" lengthAdjust="spacing" textLength="37.0391" x="953.3287" y="319.252">Check:</text><text fill="#000000" font-family="'Segoe UI, Arial'" font-size="11" lengthAdjust="spacing" textLength="143.2793" x="953.3287" y="332.207">- Member status = ACTIVE</text><text fill="#000000" font-family="'Segoe UI, Arial'" font-size="11" lengthAdjust="spacing" textLength="103.0928" x="953.3287" y="345.1621">- No overdue loans</text><text fill="#000000" font-family="'Segoe UI, Arial'" font-size="11" lengthAdjust="spacing" textLength="158.8931" x="953.3287" y="358.1172">- Share balance &gt;= minimum</text><rect fill="#438DD5" height="32.9551" rx="12.5" ry="12.5" style="stroke:#3C7FC0;stroke-width:0.5;" width="161.9365" x="765.3922" y="318.0498"/><text fill="#FFFFFF" font-family="'Segoe UI, Arial'" font-size="11" lengthAdjust="spacing" textLength="141.9365" x="775.3922" y="338.6846">Validate Member Eligibility</text><polygon fill="#FEF3C7" points="824.7445,385.4375,867.9764,385.4375,879.9764,397.4375,867.9764,409.4375,824.7445,409.4375,812.7445,397.4375,824.7445,385.4375" style="stroke:#F59E0B;stroke-width:0.5;"/><text fill="#1F2937" font-family="'Segoe UI, Arial'" font-size="11" lengthAdjust="spacing" textLength="43.2319" x="824.7445" y="401.5947">Eligible?</text><text fill="#000000" font-family="'Segoe UI, Arial'" font-size="11" lengthAdjust="spacing" textLength="18.5894" x="794.1552" y="395.1172">Yes</text><text fill="#000000" font-family="'Segoe UI, Arial'" font-size="11" lengthAdjust="spacing" textLength="14.8833" x="879.9764" y="395.1172">No</text><path d="M738.6692,429.4375 L738.6692,469.3027 L718.6692,473.3027 L738.6692,477.3027 L738.6692,517.168 A0,0 0 0 0 738.6692,517.168 L942.759,517.168 A0,0 0 0 0 942.759,517.168 L942.759,439.4375 L932.759,429.4375 L738.6692,429.4375 A0,0 0 0 0 738.6692,429.4375" fill="#FEFFDD" style="stroke:#181818;stroke-width:0.5;"/><path d="M932.759,429.4375 L932.759,439.4375 L942.759,439.4375 L932.759,429.4375" fill="#FEFFDD" style="stroke:#181818;stroke-width:0.5;"/><text fill="#000000" font-family="'Segoe UI, Arial'" font-size="11" font-weight="bold" lengthAdjust="spacing" textLength="48.9951" x="744.6692" y="445.0723">Formula:</text><text fill="#000000" font-family="'Segoe UI, Arial'" font-size="11" lengthAdjust="spacing" textLength="183.0898" x="744.6692" y="458.0273">Interest = Principal &#215; Rate &#215; Time</text><text fill="#000000" font-family="'Segoe UI, Arial'" font-size="11" lengthAdjust="spacing" textLength="131.667" x="744.6692" y="470.9824">Rate based on loan type:</text><text fill="#000000" font-family="'Segoe UI, Arial'" font-size="11" lengthAdjust="spacing" textLength="133.2139" x="744.6692" y="483.9375">- Emergency: 1% /month</text><text fill="#000000" font-family="'Segoe UI, Arial'" font-size="11" lengthAdjust="spacing" textLength="141.0396" x="744.6692" y="496.8926">- Common: 0.75% /month</text><text fill="#000000" font-family="'Segoe UI, Arial'" font-size="11" lengthAdjust="spacing" textLength="144.4717" x="744.6692" y="509.8477">- Investment: 0.5% /month</text><rect fill="#438DD5" height="32.9551" rx="12.5" ry="12.5" style="stroke:#3C7FC0;stroke-width:0.5;" width="139.6465" x="579.0227" y="456.8252"/><text fill="#FFFFFF" font-family="'Segoe UI, Arial'" font-size="11" lengthAdjust="spacing" textLength="119.6465" x="589.0227" y="477.46">Calculate Interest Rate</text><rect fill="#438DD5" height="32.9551" rx="12.5" ry="12.5" style="stroke:#3C7FC0;stroke-width:0.5;" width="167.6245" x="565.0337" y="550.3477"/><text fill="#FFFFFF" font-family="'Segoe UI, Arial'" font-size="11" lengthAdjust="spacing" textLength="147.6245" x="575.0337" y="570.9824">Generate Payment Schedule</text><path d="M728.3406,606.4824 L728.3406,633.3926 L708.3406,637.3926 L728.3406,641.3926 L728.3406,668.3027 A0,0 0 0 0 728.3406,668.3027 L860.8284,668.3027 A0,0 0 0 0 860.8284,668.3027 L860.8284,616.4824 L850.8284,606.4824 L728.3406,606.4824 A0,0 0 0 0 728.3406,606.4824" fill="#FEFFDD" style="stroke:#181818;stroke-width:0.5;"/><path d="M850.8284,606.4824 L850.8284,616.4824 L860.8284,616.4824 L850.8284,606.4824" fill="#FEFFDD" style="stroke:#181818;stroke-width:0.5;"/><text fill="#000000" font-family="'Segoe UI, Arial'" font-size="11" font-weight="bold" lengthAdjust="spacing" textLength="42.4263" x="734.3406" y="622.1172">Output:</text><text fill="#000000" font-family="'Segoe UI, Arial'" font-size="11" lengthAdjust="spacing" textLength="50.2573" x="734.3406" y="635.0723">- Loan ID</text><text fill="#000000" font-family="'Segoe UI, Arial'" font-size="11" lengthAdjust="spacing" textLength="97.1201" x="734.3406" y="648.0273">- Status: PENDING</text><text fill="#000000" font-family="'Segoe UI, Arial'" font-size="11" lengthAdjust="spacing" textLength="111.4878" x="734.3406" y="660.9824">- Created timestamp</text><rect fill="#438DD5" height="32.9551" rx="12.5" ry="12.5" style="stroke:#3C7FC0;stroke-width:0.5;" width="118.9893" x="589.3513" y="620.915"/><text fill="#FFFFFF" font-family="'Segoe UI, Arial'" font-size="11" lengthAdjust="spacing" textLength="98.9893" x="599.3513" y="641.5498">Save Loan Request</text><rect fill="#438DD5" height="32.9551" rx="12.5" ry="12.5" style="stroke:#3C7FC0;stroke-width:0.5;" width="162.2319" x="962.759" y="429.4375"/><text fill="#FFFFFF" font-family="'Segoe UI, Arial'" font-size="11" lengthAdjust="spacing" textLength="142.2319" x="972.759" y="450.0723">Generate Rejection Reason</text><polygon fill="#FEF3C7" points="846.3605,816.0332,858.3605,828.0332,846.3605,840.0332,834.3605,828.0332,846.3605,816.0332" style="stroke:#F59E0B;stroke-width:0.5;"/><line style="stroke:#000000;stroke-width:1.5;" x1="559.0337" x2="559.0337" y1="64.9766" y2="882.0332"/><line style="stroke:#000000;stroke-width:1.5;" x1="1132.2218" x2="1132.2218" y1="64.9766" y2="882.0332"/><line style="stroke:#181818;stroke-width:1;" x1="288.5123" x2="288.5123" y1="166.7969" y2="207.707"/><polygon fill="#181818" points="284.5123,197.707,288.5123,207.707,292.5123,197.707,288.5123,201.707" style="stroke:#181818;stroke-width:1;"/><line style="stroke:#181818;stroke-width:1;" x1="90.9978" x2="90.9978" y1="732.168" y2="773.0781"/><polygon fill="#181818" points="86.9978,763.0781,90.9978,773.0781,94.9978,763.0781,90.9978,767.0781" style="stroke:#181818;stroke-width:1;"/><line style="stroke:#181818;stroke-width:1;" x1="486.0269" x2="486.0269" y1="530.3477" y2="563.5273"/><polygon fill="#181818" points="482.0269,553.5273,486.0269,563.5273,490.0269,553.5273,486.0269,557.5273" style="stroke:#181818;stroke-width:1;"/><line style="stroke:#181818;stroke-width:1;" x1="846.3605" x2="846.3605" y1="293.6172" y2="318.0498"/><polygon fill="#181818" points="842.3605,308.0498,846.3605,318.0498,850.3605,308.0498,846.3605,312.0498" style="stroke:#181818;stroke-width:1;"/><line style="stroke:#181818;stroke-width:1;" x1="648.8459" x2="648.8459" y1="489.7803" y2="550.3477"/><polygon fill="#181818" points="644.8459,540.3477,648.8459,550.3477,652.8459,540.3477,648.8459,544.3477" style="stroke:#181818;stroke-width:1;"/><line style="stroke:#181818;stroke-width:1;" x1="648.8459" x2="648.8459" y1="583.3027" y2="620.915"/><polygon fill="#181818" points="644.8459,610.915,648.8459,620.915,652.8459,610.915,648.8459,614.915" style="stroke:#181818;stroke-width:1;"/><line style="stroke:#181818;stroke-width:1;" x1="812.7445" x2="648.8459" y1="397.4375" y2="397.4375"/><line style="stroke:#181818;stroke-width:1;" x1="648.8459" x2="648.8459" y1="397.4375" y2="456.8252"/><polygon fill="#181818" points="644.8459,446.8252,648.8459,456.8252,652.8459,446.8252,648.8459,450.8252" style="stroke:#181818;stroke-width:1;"/><line style="stroke:#181818;stroke-width:1;" x1="879.9764" x2="1043.875" y1="397.4375" y2="397.4375"/><line style="stroke:#181818;stroke-width:1;" x1="1043.875" x2="1043.875" y1="397.4375" y2="429.4375"/><polygon fill="#181818" points="1039.875,419.4375,1043.875,429.4375,1047.875,419.4375,1043.875,423.4375" style="stroke:#181818;stroke-width:1;"/><line style="stroke:#181818;stroke-width:1;" x1="846.3605" x2="846.3605" y1="351.0049" y2="385.4375"/><polygon fill="#181818" points="842.3605,375.4375,846.3605,385.4375,850.3605,375.4375,846.3605,379.4375" style="stroke:#181818;stroke-width:1;"/><line style="stroke:#181818;stroke-width:1;" x1="846.3605" x2="846.3605" y1="102.9316" y2="107.9316"/><line style="stroke:#181818;stroke-width:1;" x1="846.3605" x2="288.5123" y1="107.9316" y2="107.9316"/><line style="stroke:#181818;stroke-width:1;" x1="288.5123" x2="288.5123" y1="107.9316" y2="133.8418"/><polygon fill="#181818" points="284.5123,123.8418,288.5123,133.8418,292.5123,123.8418,288.5123,127.8418" style="stroke:#181818;stroke-width:1;"/><line style="stroke:#181818;stroke-width:1;" x1="288.5123" x2="288.5123" y1="240.6621" y2="245.6621"/><line style="stroke:#181818;stroke-width:1;" x1="288.5123" x2="846.3605" y1="245.6621" y2="245.6621"/><line style="stroke:#181818;stroke-width:1;" x1="846.3605" x2="846.3605" y1="245.6621" y2="260.6621"/><polygon fill="#181818" points="842.3605,250.6621,846.3605,260.6621,850.3605,250.6621,846.3605,254.6621" style="stroke:#181818;stroke-width:1;"/><line style="stroke:#181818;stroke-width:1;" x1="648.8459" x2="648.8459" y1="653.8701" y2="673.3027"/><line style="stroke:#181818;stroke-width:1;" x1="648.8459" x2="90.9978" y1="673.3027" y2="673.3027"/><line style="stroke:#181818;stroke-width:1;" x1="90.9978" x2="90.9978" y1="673.3027" y2="699.2129"/><polygon fill="#181818" points="86.9978,689.2129,90.9978,699.2129,94.9978,689.2129,90.9978,693.2129" style="stroke:#181818;stroke-width:1;"/><line style="stroke:#181818;stroke-width:1;" x1="1043.875" x2="1043.875" y1="462.3926" y2="479.8926"/><line style="stroke:#181818;stroke-width:1;" x1="1043.875" x2="486.0269" y1="479.8926" y2="479.8926"/><line style="stroke:#181818;stroke-width:1;" x1="486.0269" x2="486.0269" y1="479.8926" y2="497.3926"/><polygon fill="#181818" points="482.0269,487.3926,486.0269,497.3926,490.0269,487.3926,486.0269,491.3926" style="stroke:#181818;stroke-width:1;"/><line style="stroke:#181818;stroke-width:1;" x1="90.9978" x2="90.9978" y1="806.0332" y2="828.0332"/><line style="stroke:#181818;stroke-width:1;" x1="90.9978" x2="834.3605" y1="828.0332" y2="828.0332"/><polygon fill="#181818" points="824.3605,824.0332,834.3605,828.0332,824.3605,832.0332,828.3605,828.0332" style="stroke:#181818;stroke-width:1;"/><line style="stroke:#181818;stroke-width:1;" x1="486.0269" x2="486.0269" y1="596.4824" y2="810.0332"/><line style="stroke:#181818;stroke-width:1;" x1="486.0269" x2="876.3605" y1="810.0332" y2="810.0332"/><line style="stroke:#181818;stroke-width:1;" x1="876.3605" x2="876.3605" y1="810.0332" y2="828.0332"/><line style="stroke:#181818;stroke-width:1;" x1="876.3605" x2="858.3605" y1="828.0332" y2="828.0332"/><polygon fill="#181818" points="868.3605,824.0332,858.3605,828.0332,868.3605,832.0332,864.3605,828.0332" style="stroke:#181818;stroke-width:1;"/><line style="stroke:#181818;stroke-width:1;" x1="846.3605" x2="846.3605" y1="840.0332" y2="845.0332"/><line style="stroke:#181818;stroke-width:1;" x1="846.3605" x2="288.5123" y1="845.0332" y2="845.0332"/><line style="stroke:#181818;stroke-width:1;" x1="288.5123" x2="288.5123" y1="845.0332" y2="860.0332"/><polygon fill="#181818" points="284.5123,850.0332,288.5123,860.0332,292.5123,850.0332,288.5123,854.0332" style="stroke:#181818;stroke-width:1;"/><text fill="#000000" font-family="'Segoe UI, Arial'" font-size="11" lengthAdjust="spacing" textLength="43.4253" x="265.3042" y="75.6113">Member</text><text fill="#000000" font-family="'Segoe UI, Arial'" font-size="11" lengthAdjust="spacing" textLength="37.791" x="826.7322" y="75.6113">System</text><g class="legend" data-source-line="100"><rect fill="none" height="158.3945" rx="7.5" ry="7.5" style="stroke:#000000;stroke-width:1;" width="362.5457" x="392.7082" y="894.0332"/><text fill="#000000" font-family="'Segoe UI, Arial'" font-size="14" font-weight="bold" lengthAdjust="spacing" textLength="200.4092" x="397.7082" y="912.5684">PSPEC 1.0: Loan Submission</text><text fill="#000000" font-family="'Segoe UI, Arial'" font-size="14" lengthAdjust="spacing" textLength="16.2012" x="397.7082" y="929.0566">--</text><text fill="#000000" font-family="'Segoe UI, Arial'" font-size="14" font-weight="bold" lengthAdjust="spacing" textLength="79.1943" x="397.7082" y="945.5449">Process ID:</text><text fill="#000000" font-family="'Segoe UI, Arial'" font-size="14" lengthAdjust="spacing" textLength="70.5264" x="481.3322" y="945.5449">PSPEC-1.0</text><text fill="#000000" font-family="'Segoe UI, Arial'" font-size="14" font-weight="bold" lengthAdjust="spacing" textLength="104.2207" x="397.7082" y="962.0332">Process Name:</text><text fill="#000000" font-family="'Segoe UI, Arial'" font-size="14" lengthAdjust="spacing" textLength="243.8953" x="506.3586" y="962.0332">Submit Loan Request (&#3618;&#3639;&#3656;&#3609;&#3588;&#3635;&#3586;&#3629;&#3626;&#3636;&#3609;&#3648;&#3594;&#3639;&#3656;&#3629;)</text><text fill="#000000" font-family="'Segoe UI, Arial'" font-size="14" font-weight="bold" lengthAdjust="spacing" textLength="57.0732" x="397.7082" y="978.5215">Trigger:</text><text fill="#000000" font-family="'Segoe UI, Arial'" font-size="14" lengthAdjust="spacing" textLength="226.6729" x="459.2111" y="978.5215">Member submits loan application</text><text fill="#000000" font-family="'Segoe UI, Arial'" font-size="14" font-weight="bold" lengthAdjust="spacing" textLength="41.4395" x="397.7082" y="995.0098">Input:</text><text fill="#000000" font-family="'Segoe UI, Arial'" font-size="14" lengthAdjust="spacing" textLength="145.7764" x="443.5773" y="995.0098">Loan application data</text><text fill="#000000" font-family="'Segoe UI, Arial'" font-size="14" font-weight="bold" lengthAdjust="spacing" textLength="53.9971" x="397.7082" y="1011.498">Output:</text><text fill="#000000" font-family="'Segoe UI, Arial'" font-size="14" lengthAdjust="spacing" textLength="195.2959" x="456.1349" y="1011.498">Loan ID with PENDING status</text><text fill="#000000" font-family="'Segoe UI, Arial'" font-size="14" font-weight="bold" lengthAdjust="spacing" textLength="103.332" x="397.7082" y="1027.9863">Pre-condition:</text><text fill="#000000" font-family="'Segoe UI, Arial'" font-size="14" lengthAdjust="spacing" textLength="212.5156" x="505.4699" y="1027.9863">Member is logged in and active</text><text fill="#000000" font-family="'Segoe UI, Arial'" font-size="14" font-weight="bold" lengthAdjust="spacing" textLength="111.2959" x="397.7082" y="1044.4746">Post-condition:</text><text fill="#000000" font-family="'Segoe UI, Arial'" font-size="14" lengthAdjust="spacing" textLength="218.0459" x="513.4338" y="1044.4746">Loan record created in database</text></g><g class="footer" data-source-line="112"><text fill="#888888" font-family="'Segoe UI, Arial'" font-size="9" lengthAdjust="spacing" textLength="238.0386" x="454.9617" y="1074.1289">Process Specification | Ban Sai Yai Savings Cooperative</text></g><!--SRC=[bLPjQoH54Fu-lwAu84aMSycQYqacoKgoCtCic1YoyU30BxqpjRjjUgR7dfuSgoke27UAN_KGluWYWd1mle2Jp_wH-IbMpyjcDiagQGXXkgkgdtggwkbTFhZVifRXL4aVamJwCVfyo7sckOnW3TwLB89-EWXvaj2EiUoVkbreFzoWqoDpo3WyfRy-k-JHA86kb34gyhz4Q_c-GApaWaSnKoo40VClHagcKT2LGYfOyehLi0Xmo5AXFHdf4nOYFEZZI2AyttiJ3XLdui7Tjdt-CKAxtJXCnYoGpmWz39b8i8c2-PG8rnFun09QHpT1FThSSPojyaog05MrlzdTzheRnRwvSpu5i-jm5ieek1NGSptodJDfnlMsTjsD8-lJkp1MzekWDYBV5V86rBRtrkxcjhb8SoqGzXEYpMxlTFO7dLaBs3VxOtzzqDbVDwQT3wBAPQEpgBdoxASy-pk_Uf5dt-VPbtdsPvvzaMUlykotFFlBR5vzbcTVrpQlgiYMDLroDznjpviUOpX0DQKDnt7UzjnfVv9e3AT4ZsPAasLjONjSY1BkOHoB6eGdLRXdHL8ZA3uQQwAXrUf5SQhjLei-gWaWOjD8mqgUlIXG4jnVQtpFAwpPvtbsbLzzjNhjfb65nkddF7jT9Fkwy23NN_BiZwRX94PZ-4DbQwn-pBENYvWeNKzJ5SkaSAIGl-VPjtdsNPvbrt6C-tD3xTKtgnPIRvXCBSikAgQRJEmHLpLvzXdwIFDROZl3Zr9CD1dOJvZW0IEkIbR15Np41rnGyzqYiJj6_w8ciRAdekWqWGCux9xtdhZ5qOa4UOagI144NPSKc_qnKqWI85Za8tGE8EGH3zEmaGCVmafvly1tLa6FCOALfvYi5friTvdmKs6mzY8g0oK0P_IrLvpEGJMhrJADGFObOBDcRWSaZZpoUSm4_FEoY6B-d_CGAzDYQy0I381QIjG5jQlZDN13L2EC_8aDxJTWdQPKZsU7NHdIXWqR3xUtRXtseal246AaZS7y-OmByr5c_HWZexq8fsnYdA3lZp58HPLtQKHAVREq2qXvBzMpIIZn56uzP_RTBofgmwbxulHE7bydfP1W1A299Qfw62z0F9lF0bdTTrqP3RaAgyPS0CxXIIpOvB_G7HPZso2pAgcXQBPxR0WL4uXBoXO0NN8UkOvpQ5zh7ScURsHjc8gANHHc64zasOApSPglp1b-Y7wXFMV8aZg_EyYeyWDNAHBaOxg9ZPfrNF9sdErvH1xZ0eCzCoLyQ3HGnfObS6JI6KYjPLYCvcBzBiTrhRIgLBld4CNbixz6FdDdvjqrfvMUD9lAgDBzv7sr27rELHwXCb5hrIY29-LWiMl9cjFgIgSRqav2nQovBgxx0vvnFQvRjXAbAYrSy-a9vIP00m4tbnEg03ZTGMGMJowMFZBHyqx5BGfzUcJ1h-Q0btYCI9Zgb3MnhA6a9bFLuxgxuA6S_j_lhFfT_1S0]--></g></svg>