<svg xmlns="http://www.w3.org/2000/svg" xmlns:xlink="http://www.w3.org/1999/xlink" width="1342" height="1172" contentStyleType="text/css" data-diagram-type="ACTIVITY" style="width:1342px;height:1172px;background:#fff" preserveAspectRatio="none" version="1.1" viewBox="0 0 1342 1172" zoomAndPan="magnify"><title>&lt;size:18&gt;&lt;b&gt;PSPEC 3.0: Loan Approval&lt;/b&gt;&lt;/size&gt; &lt;size:10&gt;Process Specification - อนุมัติสินเชื่อ&lt;/size&gt;</title><g><g class="title" data-source-line="25"><text x="552.223" y="37.402" fill="#000" font-family="'Segoe UI, Arial'" font-size="18" font-weight="bold" lengthAdjust="spacing" textLength="234.703">PSPEC 3.0: Loan Approval</text><text x="583.073" y="50.867" fill="#000" font-family="'Segoe UI, Arial'" font-size="10" font-weight="bold" lengthAdjust="spacing" textLength="173.003">Process Specification - อนุมัติสินเชื่อ</text></g><rect style="stroke:none;stroke-width:1" width="1309.148" height="12.955" x="15" y="64.977" fill="none"/><rect style="stroke:#d1fae5;stroke-width:1" width="625.555" height="900.697" x="15" y="64.977" fill="#D1FAE5"/><rect style="stroke:#3c7fc0;stroke-width:.5" width="105.11" height="32.955" x="175.65" y="122.932" fill="#438DD5" rx="12.5" ry="12.5"/><text x="185.65" y="143.566" fill="#FFF" font-family="'Segoe UI, Arial'" font-size="11" lengthAdjust="spacing" textLength="85.11">Login to System</text><rect style="stroke:#3c7fc0;stroke-width:.5" width="147.929" height="32.955" x="154.24" y="236.797" fill="#438DD5" rx="12.5" ry="12.5"/><text x="164.24" y="257.432" fill="#FFF" font-family="'Segoe UI, Arial'" font-size="11" lengthAdjust="spacing" textLength="127.929">Select Loan for Decision</text><rect style="stroke:#3c7fc0;stroke-width:.5" width="165.788" height="32.955" x="145.311" y="387.482" fill="#438DD5" rx="12.5" ry="12.5"/><text x="155.311" y="408.117" fill="#FFF" font-family="'Segoe UI, Arial'" font-size="11" lengthAdjust="spacing" textLength="145.788">Review Application &amp; Notes</text><rect style="stroke:#3c7fc0;stroke-width:.5" width="97.14" height="32.955" x="179.635" y="440.438" fill="#438DD5" rx="12.5" ry="12.5"/><text x="189.635" y="461.072" fill="#FFF" font-family="'Segoe UI, Arial'" font-size="11" lengthAdjust="spacing" textLength="77.14">Make Decision</text><polygon fill="#FEF3C7" points="203.627 493.393 252.783 493.393 264.783 505.393 252.783 517.393 203.627 517.393 191.627 505.393 203.627 493.393" style="stroke:#f59e0b;stroke-width:.5"/><text x="203.627" y="509.55" fill="#1F2937" font-family="'Segoe UI, Arial'" font-size="11" lengthAdjust="spacing" textLength="49.156">Approve?</text><text x="173.037" y="503.072" fill="#000" font-family="'Segoe UI, Arial'" font-size="11" lengthAdjust="spacing" textLength="18.589">Yes</text><text x="264.783" y="503.072" fill="#000" font-family="'Segoe UI, Arial'" font-size="11" lengthAdjust="spacing" textLength="14.883">No</text><rect style="stroke:#3c7fc0;stroke-width:.5" width="114.311" height="32.955" x="21" y="537.393" fill="#438DD5" rx="12.5" ry="12.5"/><text x="31" y="558.027" fill="#FFF" font-family="'Segoe UI, Arial'" font-size="11" lengthAdjust="spacing" textLength="94.311">Confirm Approval</text><path fill="#FEFFDD" d="M483.0117,537.3926 L483.0117,570.7803 L463.0117,574.7803 L483.0117,578.7803 L483.0117,612.168 A0,0 0 0 0 483.0117,612.168 L635.5552,612.168 A0,0 0 0 0 635.5552,612.168 L635.5552,547.3926 L625.5552,537.3926 L483.0117,537.3926 A0,0 0 0 0 483.0117,537.3926" style="stroke:#181818;stroke-width:.5"/><path fill="#FEFFDD" d="M625.5552,537.3926 L625.5552,547.3926 L635.5552,547.3926 L625.5552,537.3926" style="stroke:#181818;stroke-width:.5"/><text x="489.012" y="553.027" fill="#000" font-family="'Segoe UI, Arial'" font-size="11" font-weight="bold" lengthAdjust="spacing" textLength="103.979">Common Reasons:</text><text x="489.012" y="565.982" fill="#000" font-family="'Segoe UI, Arial'" font-size="11" lengthAdjust="spacing" textLength="121.731">- Insufficient collateral</text><text x="489.012" y="578.938" fill="#000" font-family="'Segoe UI, Arial'" font-size="11" lengthAdjust="spacing" textLength="90.471">- High debt ratio</text><text x="489.012" y="591.893" fill="#000" font-family="'Segoe UI, Arial'" font-size="11" lengthAdjust="spacing" textLength="108.115">- Poor credit history</text><text x="489.012" y="604.848" fill="#000" font-family="'Segoe UI, Arial'" font-size="11" lengthAdjust="spacing" textLength="131.543">- Incomplete documents</text><rect style="stroke:#3c7fc0;stroke-width:.5" width="141.913" height="32.955" x="321.099" y="558.303" fill="#438DD5" rx="12.5" ry="12.5"/><text x="331.099" y="578.938" fill="#FFF" font-family="'Segoe UI, Arial'" font-size="11" lengthAdjust="spacing" textLength="121.913">Enter Rejection Reason</text><rect style="stroke:#3c7fc0;stroke-width:.5" width="115.74" height="32.955" x="334.185" y="647.168" fill="#438DD5" rx="12.5" ry="12.5"/><text x="344.185" y="667.803" fill="#FFF" font-family="'Segoe UI, Arial'" font-size="11" lengthAdjust="spacing" textLength="95.74">Confirm Rejection</text><polygon fill="#FEF3C7" points="228.205 899.674 240.205 911.674 228.205 923.674 216.205 911.674 228.205 899.674" style="stroke:#f59e0b;stroke-width:.5"/><line style="stroke:#000;stroke-width:1.5" x1="15" x2="15" y1="64.977" y2="965.674"/><rect style="stroke:#e0e7ff;stroke-width:1" width="682.853" height="900.697" x="640.555" y="64.977" fill="#E0E7FF"/><ellipse cx="904.371" cy="92.932" fill="#222" rx="10" ry="10" style="stroke:#222;stroke-width:1"/><path fill="#FEFFDD" d="M997.6992,167.9316 L997.6992,188.3643 L977.6992,192.3643 L997.6992,196.3643 L997.6992,216.7969 A0,0 0 0 0 997.6992,216.7969 L1154.9531,216.7969 A0,0 0 0 0 1154.9531,216.7969 L1154.9531,177.9316 L1144.9531,167.9316 L997.6992,167.9316 A0,0 0 0 0 997.6992,167.9316" style="stroke:#181818;stroke-width:.5"/><path fill="#FEFFDD" d="M1144.9531,167.9316 L1144.9531,177.9316 L1154.9531,177.9316 L1144.9531,167.9316" style="stroke:#181818;stroke-width:.5"/><text x="1003.699" y="183.566" fill="#000" font-family="'Segoe UI, Arial'" font-size="11" font-weight="bold" lengthAdjust="spacing" textLength="32.092">Filter:</text><text x="1003.699" y="196.522" fill="#000" font-family="'Segoe UI, Arial'" font-size="11" lengthAdjust="spacing" textLength="101.218">Status = REVIEWED</text><text x="1003.699" y="209.477" fill="#000" font-family="'Segoe UI, Arial'" font-size="11" lengthAdjust="spacing" textLength="136.254">Show officer review notes</text><rect style="stroke:#3c7fc0;stroke-width:.5" width="146.656" height="32.955" x="831.043" y="175.887" fill="#438DD5" rx="12.5" ry="12.5"/><text x="841.043" y="196.522" fill="#FFF" font-family="'Segoe UI, Arial'" font-size="11" lengthAdjust="spacing" textLength="126.656">Display Reviewed Loans</text><path fill="#FEFFDD" d="M1014.3201,279.752 L1014.3201,319.6172 L994.3201,323.6172 L1014.3201,327.6172 L1014.3201,367.4824 A0,0 0 0 0 1014.3201,367.4824 L1162.8943,367.4824 A0,0 0 0 0 1162.8943,367.4824 L1162.8943,289.752 L1152.8943,279.752 L1014.3201,279.752 A0,0 0 0 0 1014.3201,279.752" style="stroke:#181818;stroke-width:.5"/><path fill="#FEFFDD" d="M1152.8943,279.752 L1152.8943,289.752 L1162.8943,289.752 L1152.8943,279.752" style="stroke:#181818;stroke-width:.5"/><text x="1020.32" y="295.387" fill="#000" font-family="'Segoe UI, Arial'" font-size="11" font-weight="bold" lengthAdjust="spacing" textLength="69.593">Information:</text><text x="1020.32" y="308.342" fill="#000" font-family="'Segoe UI, Arial'" font-size="11" lengthAdjust="spacing" textLength="91.959">- Member details</text><text x="1020.32" y="321.297" fill="#000" font-family="'Segoe UI, Arial'" font-size="11" lengthAdjust="spacing" textLength="117.767">- Loan request details</text><text x="1020.32" y="334.252" fill="#000" font-family="'Segoe UI, Arial'" font-size="11" lengthAdjust="spacing" textLength="127.574">- Officer review &amp; notes</text><text x="1020.32" y="347.207" fill="#000" font-family="'Segoe UI, Arial'" font-size="11" lengthAdjust="spacing" textLength="97.469">- Risk assessment</text><text x="1020.32" y="360.162" fill="#000" font-family="'Segoe UI, Arial'" font-size="11" lengthAdjust="spacing" textLength="102.69">- Recommendation</text><rect style="stroke:#3c7fc0;stroke-width:.5" width="179.898" height="32.955" x="814.423" y="307.14" fill="#438DD5" rx="12.5" ry="12.5"/><text x="824.423" y="327.774" fill="#FFF" font-family="'Segoe UI, Arial'" font-size="11" lengthAdjust="spacing" textLength="159.898">Display Complete Loan Profile</text><path fill="#FEFFDD" d="M809.2175,605.3477 L809.2175,632.2578 L789.2175,636.2578 L809.2175,640.2578 L809.2175,667.168 A0,0 0 0 0 809.2175,667.168 L947.866,667.168 A0,0 0 0 0 947.866,667.168 L947.866,615.3477 L937.866,605.3477 L809.2175,605.3477 A0,0 0 0 0 809.2175,605.3477" style="stroke:#181818;stroke-width:.5"/><path fill="#FEFFDD" d="M937.866,605.3477 L937.866,615.3477 L947.866,615.3477 L937.866,605.3477" style="stroke:#181818;stroke-width:.5"/><text x="815.217" y="620.982" fill="#000" font-family="'Segoe UI, Arial'" font-size="11" font-weight="bold" lengthAdjust="spacing" textLength="42.765">Update:</text><text x="815.217" y="633.938" fill="#000" font-family="'Segoe UI, Arial'" font-size="11" lengthAdjust="spacing" textLength="106.111">- Status: APPROVED</text><text x="815.217" y="646.893" fill="#000" font-family="'Segoe UI, Arial'" font-size="11" lengthAdjust="spacing" textLength="73.751">- Approver ID</text><text x="815.217" y="659.848" fill="#000" font-family="'Segoe UI, Arial'" font-size="11" lengthAdjust="spacing" textLength="117.648">- Approval timestamp</text><rect style="stroke:#3c7fc0;stroke-width:.5" width="122.932" height="32.955" x="666.286" y="619.78" fill="#438DD5" rx="12.5" ry="12.5"/><text x="676.286" y="640.415" fill="#FFF" font-family="'Segoe UI, Arial'" font-size="11" lengthAdjust="spacing" textLength="102.932">Update Loan Status</text><path fill="#FEFFDD" d="M820.7358,690.123 L820.7358,723.5107 L800.7358,727.5107 L820.7358,731.5107 L820.7358,764.8984 A0,0 0 0 0 820.7358,764.8984 L947.5571,764.8984 A0,0 0 0 0 947.5571,764.8984 L947.5571,700.123 L937.5571,690.123 L820.7358,690.123 A0,0 0 0 0 820.7358,690.123" style="stroke:#181818;stroke-width:.5"/><path fill="#FEFFDD" d="M937.5571,690.123 L937.5571,700.123 L947.5571,700.123 L937.5571,690.123" style="stroke:#181818;stroke-width:.5"/><text x="826.736" y="705.758" fill="#000" font-family="'Segoe UI, Arial'" font-size="11" font-weight="bold" lengthAdjust="spacing" textLength="102.078">Contract includes:</text><text x="826.736" y="718.713" fill="#000" font-family="'Segoe UI, Arial'" font-size="11" lengthAdjust="spacing" textLength="69.47">- Loan terms</text><text x="826.736" y="731.668" fill="#000" font-family="'Segoe UI, Arial'" font-size="11" lengthAdjust="spacing" textLength="105.821">- Payment schedule</text><text x="826.736" y="744.623" fill="#000" font-family="'Segoe UI, Arial'" font-size="11" lengthAdjust="spacing" textLength="74.733">- Interest rate</text><text x="826.736" y="757.578" fill="#000" font-family="'Segoe UI, Arial'" font-size="11" lengthAdjust="spacing" textLength="57.165">- Penalties</text><rect style="stroke:#3c7fc0;stroke-width:.5" width="145.968" height="32.955" x="654.768" y="711.033" fill="#438DD5" rx="12.5" ry="12.5"/><text x="664.768" y="731.668" fill="#FFF" font-family="'Segoe UI, Arial'" font-size="11" lengthAdjust="spacing" textLength="125.968">Generate Loan Contract</text><path fill="#FEFFDD" d="M828.9482,774.8984 L828.9482,801.8086 L808.9482,805.8086 L828.9482,809.8086 L828.9482,836.7188 A0,0 0 0 0 828.9482,836.7188 L979.0801,836.7188 A0,0 0 0 0 979.0801,836.7188 L979.0801,784.8984 L969.0801,774.8984 L828.9482,774.8984 A0,0 0 0 0 828.9482,774.8984" style="stroke:#181818;stroke-width:.5"/><path fill="#FEFFDD" d="M969.0801,774.8984 L969.0801,784.8984 L979.0801,784.8984 L969.0801,774.8984" style="stroke:#181818;stroke-width:.5"/><text x="834.948" y="790.533" fill="#000" font-family="'Segoe UI, Arial'" font-size="11" font-weight="bold" lengthAdjust="spacing" textLength="98.178">Email to Member:</text><text x="834.948" y="803.488" fill="#000" font-family="'Segoe UI, Arial'" font-size="11" lengthAdjust="spacing" textLength="129.132">- Approval confirmation</text><text x="834.948" y="816.443" fill="#000" font-family="'Segoe UI, Arial'" font-size="11" lengthAdjust="spacing" textLength="74.057">- Loan details</text><text x="834.948" y="829.398" fill="#000" font-family="'Segoe UI, Arial'" font-size="11" lengthAdjust="spacing" textLength="66.822">- Next steps</text><rect style="stroke:#3c7fc0;stroke-width:.5" width="162.393" height="32.955" x="646.555" y="789.331" fill="#438DD5" rx="12.5" ry="12.5"/><text x="656.555" y="809.966" fill="#FFF" font-family="'Segoe UI, Arial'" font-size="11" lengthAdjust="spacing" textLength="142.393">Send Approval Notification</text><path fill="#FEFFDD" d="M797.9731,861.7188 L797.9731,869.1963 L777.9731,873.1963 L797.9731,877.1963 L797.9731,884.6738 A0,0 0 0 0 797.9731,884.6738 L946.1016,884.6738 A0,0 0 0 0 946.1016,884.6738 L946.1016,871.7188 L936.1016,861.7188 L797.9731,861.7188 A0,0 0 0 0 797.9731,861.7188" style="stroke:#181818;stroke-width:.5"/><path fill="#FEFFDD" d="M936.1016,861.7188 L936.1016,871.7188 L946.1016,871.7188 L936.1016,861.7188" style="stroke:#181818;stroke-width:.5"/><text x="803.973" y="877.354" fill="#000" font-family="'Segoe UI, Arial'" font-size="11" lengthAdjust="spacing" textLength="127.128">Ready for disbursement</text><rect style="stroke:#3c7fc0;stroke-width:.5" width="100.443" height="32.955" x="677.53" y="856.719" fill="#D4EDDA" rx="12.5" ry="12.5"/><text x="687.53" y="877.354" fill="#FFF" font-family="'Segoe UI, Arial'" font-size="11" lengthAdjust="spacing" textLength="80.443">Loan Approved</text><path fill="#FEFFDD" d="M1162.4568,703.0781 L1162.4568,729.9883 L1142.4568,733.9883 L1162.4568,737.9883 L1162.4568,764.8984 A0,0 0 0 0 1162.4568,764.8984 L1302.5339,764.8984 A0,0 0 0 0 1302.5339,764.8984 L1302.5339,713.0781 L1292.5339,703.0781 L1162.4568,703.0781 A0,0 0 0 0 1162.4568,703.0781" style="stroke:#181818;stroke-width:.5"/><path fill="#FEFFDD" d="M1292.5339,703.0781 L1292.5339,713.0781 L1302.5339,713.0781 L1292.5339,703.0781" style="stroke:#181818;stroke-width:.5"/><text x="1168.457" y="718.713" fill="#000" font-family="'Segoe UI, Arial'" font-size="11" font-weight="bold" lengthAdjust="spacing" textLength="42.765">Update:</text><text x="1168.457" y="731.668" fill="#000" font-family="'Segoe UI, Arial'" font-size="11" lengthAdjust="spacing" textLength="100.536">- Status: REJECTED</text><text x="1168.457" y="744.623" fill="#000" font-family="'Segoe UI, Arial'" font-size="11" lengthAdjust="spacing" textLength="98.291">- Rejection reason</text><text x="1168.457" y="757.578" fill="#000" font-family="'Segoe UI, Arial'" font-size="11" lengthAdjust="spacing" textLength="119.077">- Rejection timestamp</text><rect style="stroke:#3c7fc0;stroke-width:.5" width="122.932" height="32.955" x="1019.525" y="717.511" fill="#438DD5" rx="12.5" ry="12.5"/><text x="1029.525" y="738.145" fill="#FFF" font-family="'Segoe UI, Arial'" font-size="11" lengthAdjust="spacing" textLength="102.932">Update Loan Status</text><path fill="#FEFFDD" d="M1182.9019,774.8984 L1182.9019,801.8086 L1162.9019,805.8086 L1182.9019,809.8086 L1182.9019,836.7188 A0,0 0 0 0 1182.9019,836.7188 L1318.4082,836.7188 A0,0 0 0 0 1318.4082,836.7188 L1318.4082,784.8984 L1308.4082,774.8984 L1182.9019,774.8984 A0,0 0 0 0 1182.9019,774.8984" style="stroke:#181818;stroke-width:.5"/><path fill="#FEFFDD" d="M1308.4082,774.8984 L1308.4082,784.8984 L1318.4082,784.8984 L1308.4082,774.8984" style="stroke:#181818;stroke-width:.5"/><text x="1188.902" y="790.533" fill="#000" font-family="'Segoe UI, Arial'" font-size="11" font-weight="bold" lengthAdjust="spacing" textLength="98.178">Email to Member:</text><text x="1188.902" y="803.488" fill="#000" font-family="'Segoe UI, Arial'" font-size="11" lengthAdjust="spacing" textLength="95.036">- Rejection notice</text><text x="1188.902" y="816.443" fill="#000" font-family="'Segoe UI, Arial'" font-size="11" lengthAdjust="spacing" textLength="114.506">- Reason explanation</text><text x="1188.902" y="829.398" fill="#000" font-family="'Segoe UI, Arial'" font-size="11" lengthAdjust="spacing" textLength="91.303">- Appeal process</text><rect style="stroke:#3c7fc0;stroke-width:.5" width="163.822" height="32.955" x="999.08" y="789.331" fill="#438DD5" rx="12.5" ry="12.5"/><text x="1009.08" y="809.966" fill="#FFF" font-family="'Segoe UI, Arial'" font-size="11" lengthAdjust="spacing" textLength="143.822">Send Rejection Notification</text><rect style="stroke:#3c7fc0;stroke-width:.5" width="94.363" height="32.955" x="1033.81" y="856.719" fill="#F8D7DA" rx="12.5" ry="12.5"/><text x="1043.81" y="877.354" fill="#FFF" font-family="'Segoe UI, Arial'" font-size="11" lengthAdjust="spacing" textLength="74.363">Loan Rejected</text><ellipse cx="904.371" cy="954.674" fill="none" rx="11" ry="11" style="stroke:#222;stroke-width:1"/><ellipse cx="904.371" cy="954.674" fill="#222" rx="6" ry="6" style="stroke:#222;stroke-width:1"/><line style="stroke:#000;stroke-width:1.5" x1="640.555" x2="640.555" y1="64.977" y2="965.674"/><line style="stroke:#000;stroke-width:1.5" x1="1323.408" x2="1323.408" y1="64.977" y2="965.674"/><line style="stroke:#181818;stroke-width:1" x1="228.205" x2="228.205" y1="420.438" y2="440.438"/><polygon fill="#181818" points="224.205 430.438 228.205 440.438 232.205 430.438 228.205 434.438" style="stroke:#181818;stroke-width:1"/><line style="stroke:#181818;stroke-width:1" x1="392.055" x2="392.055" y1="591.258" y2="647.168"/><polygon fill="#181818" points="388.055 637.168 392.055 647.168 396.055 637.168 392.055 641.168" style="stroke:#181818;stroke-width:1"/><line style="stroke:#181818;stroke-width:1" x1="191.627" x2="78.156" y1="505.393" y2="505.393"/><line style="stroke:#181818;stroke-width:1" x1="78.156" x2="78.156" y1="505.393" y2="537.393"/><polygon fill="#181818" points="74.156 527.393 78.156 537.393 82.156 527.393 78.156 531.393" style="stroke:#181818;stroke-width:1"/><line style="stroke:#181818;stroke-width:1" x1="264.783" x2="392.055" y1="505.393" y2="505.393"/><line style="stroke:#181818;stroke-width:1" x1="392.055" x2="392.055" y1="505.393" y2="558.303"/><polygon fill="#181818" points="388.055 548.303 392.055 558.303 396.055 548.303 392.055 552.303" style="stroke:#181818;stroke-width:1"/><line style="stroke:#181818;stroke-width:1" x1="228.205" x2="228.205" y1="473.393" y2="493.393"/><polygon fill="#181818" points="224.205 483.393 228.205 493.393 232.205 483.393 228.205 487.393" style="stroke:#181818;stroke-width:1"/><line style="stroke:#181818;stroke-width:1" x1="727.752" x2="727.752" y1="652.735" y2="711.033"/><polygon fill="#181818" points="723.752 701.033 727.752 711.033 731.752 701.033 727.752 705.033" style="stroke:#181818;stroke-width:1"/><line style="stroke:#181818;stroke-width:1" x1="727.752" x2="727.752" y1="743.988" y2="789.331"/><polygon fill="#181818" points="723.752 779.331 727.752 789.331 731.752 779.331 727.752 783.331" style="stroke:#181818;stroke-width:1"/><line style="stroke:#181818;stroke-width:1" x1="727.752" x2="727.752" y1="822.286" y2="856.719"/><polygon fill="#181818" points="723.752 846.719 727.752 856.719 731.752 846.719 727.752 850.719" style="stroke:#181818;stroke-width:1"/><line style="stroke:#181818;stroke-width:1" x1="1080.991" x2="1080.991" y1="750.466" y2="789.331"/><polygon fill="#181818" points="1076.991 779.331 1080.991 789.331 1084.991 779.331 1080.991 783.331" style="stroke:#181818;stroke-width:1"/><line style="stroke:#181818;stroke-width:1" x1="1080.991" x2="1080.991" y1="822.286" y2="856.719"/><polygon fill="#181818" points="1076.991 846.719 1080.991 856.719 1084.991 846.719 1080.991 850.719" style="stroke:#181818;stroke-width:1"/><line style="stroke:#181818;stroke-width:1" x1="904.371" x2="904.371" y1="102.932" y2="107.932"/><line style="stroke:#181818;stroke-width:1" x1="904.371" x2="228.205" y1="107.932" y2="107.932"/><line style="stroke:#181818;stroke-width:1" x1="228.205" x2="228.205" y1="107.932" y2="122.932"/><polygon fill="#181818" points="224.205 112.932 228.205 122.932 232.205 112.932 228.205 116.932" style="stroke:#181818;stroke-width:1"/><line style="stroke:#181818;stroke-width:1" x1="228.205" x2="228.205" y1="155.887" y2="160.887"/><line style="stroke:#181818;stroke-width:1" x1="228.205" x2="904.371" y1="160.887" y2="160.887"/><line style="stroke:#181818;stroke-width:1" x1="904.371" x2="904.371" y1="160.887" y2="175.887"/><polygon fill="#181818" points="900.371 165.887 904.371 175.887 908.371 165.887 904.371 169.887" style="stroke:#181818;stroke-width:1"/><line style="stroke:#181818;stroke-width:1" x1="904.371" x2="904.371" y1="208.842" y2="221.797"/><line style="stroke:#181818;stroke-width:1" x1="904.371" x2="228.205" y1="221.797" y2="221.797"/><line style="stroke:#181818;stroke-width:1" x1="228.205" x2="228.205" y1="221.797" y2="236.797"/><polygon fill="#181818" points="224.205 226.797 228.205 236.797 232.205 226.797 228.205 230.797" style="stroke:#181818;stroke-width:1"/><line style="stroke:#181818;stroke-width:1" x1="228.205" x2="228.205" y1="269.752" y2="275.946"/><line style="stroke:#181818;stroke-width:1" x1="228.205" x2="904.371" y1="275.946" y2="275.946"/><line style="stroke:#181818;stroke-width:1" x1="904.371" x2="904.371" y1="275.946" y2="307.14"/><polygon fill="#181818" points="900.371 297.14 904.371 307.14 908.371 297.14 904.371 301.14" style="stroke:#181818;stroke-width:1"/><line style="stroke:#181818;stroke-width:1" x1="904.371" x2="904.371" y1="340.095" y2="371.289"/><line style="stroke:#181818;stroke-width:1" x1="904.371" x2="228.205" y1="371.289" y2="371.289"/><line style="stroke:#181818;stroke-width:1" x1="228.205" x2="228.205" y1="371.289" y2="387.482"/><polygon fill="#181818" points="224.205 377.482 228.205 387.482 232.205 377.482 228.205 381.482" style="stroke:#181818;stroke-width:1"/><line style="stroke:#181818;stroke-width:1" x1="78.156" x2="78.156" y1="570.348" y2="595.064"/><line style="stroke:#181818;stroke-width:1" x1="78.156" x2="727.752" y1="595.064" y2="595.064"/><line style="stroke:#181818;stroke-width:1" x1="727.752" x2="727.752" y1="595.064" y2="619.78"/><polygon fill="#181818" points="723.752 609.78 727.752 619.78 731.752 609.78 727.752 613.78" style="stroke:#181818;stroke-width:1"/><line style="stroke:#181818;stroke-width:1" x1="392.055" x2="392.055" y1="680.123" y2="692.794"/><line style="stroke:#181818;stroke-width:1" x1="392.055" x2="1080.991" y1="692.794" y2="692.794"/><line style="stroke:#181818;stroke-width:1" x1="1080.991" x2="1080.991" y1="692.794" y2="717.511"/><polygon fill="#181818" points="1076.991 707.511 1080.991 717.511 1084.991 707.511 1080.991 711.511" style="stroke:#181818;stroke-width:1"/><line style="stroke:#181818;stroke-width:1" x1="727.752" x2="727.752" y1="889.674" y2="893.674"/><line style="stroke:#181818;stroke-width:1" x1="727.752" x2="198.205" y1="893.674" y2="893.674"/><line style="stroke:#181818;stroke-width:1" x1="198.205" x2="198.205" y1="893.674" y2="911.674"/><line style="stroke:#181818;stroke-width:1" x1="198.205" x2="216.205" y1="911.674" y2="911.674"/><polygon fill="#181818" points="206.205 907.674 216.205 911.674 206.205 915.674 210.205 911.674" style="stroke:#181818;stroke-width:1"/><line style="stroke:#181818;stroke-width:1" x1="1080.991" x2="1080.991" y1="889.674" y2="911.674"/><line style="stroke:#181818;stroke-width:1" x1="1080.991" x2="240.205" y1="911.674" y2="911.674"/><polygon fill="#181818" points="250.205 907.674 240.205 911.674 250.205 915.674 246.205 911.674" style="stroke:#181818;stroke-width:1"/><line style="stroke:#181818;stroke-width:1" x1="228.205" x2="228.205" y1="923.674" y2="928.674"/><line style="stroke:#181818;stroke-width:1" x1="228.205" x2="904.371" y1="928.674" y2="928.674"/><line style="stroke:#181818;stroke-width:1" x1="904.371" x2="904.371" y1="928.674" y2="943.674"/><polygon fill="#181818" points="900.371 933.674 904.371 943.674 908.371 933.674 904.371 937.674" style="stroke:#181818;stroke-width:1"/><text x="303.033" y="75.611" fill="#000" font-family="'Segoe UI, Arial'" font-size="11" lengthAdjust="spacing" textLength="49.489">President</text><text x="963.086" y="75.611" fill="#000" font-family="'Segoe UI, Arial'" font-size="11" lengthAdjust="spacing" textLength="37.791">System</text><g class="legend" data-source-line="132"><rect style="stroke:#000;stroke-width:1" width="392.584" height="158.394" x="473.282" y="977.674" fill="none" rx="7.5" ry="7.5"/><text x="478.282" y="996.209" fill="#000" font-family="'Segoe UI, Arial'" font-size="14" font-weight="bold" lengthAdjust="spacing" textLength="182.547">PSPEC 3.0: Loan Approval</text><text x="478.282" y="1012.697" fill="#000" font-family="'Segoe UI, Arial'" font-size="14" lengthAdjust="spacing" textLength="16.201">--</text><text x="478.282" y="1029.186" fill="#000" font-family="'Segoe UI, Arial'" font-size="14" font-weight="bold" lengthAdjust="spacing" textLength="79.194">Process ID:</text><text x="561.906" y="1029.186" fill="#000" font-family="'Segoe UI, Arial'" font-size="14" lengthAdjust="spacing" textLength="70.526">PSPEC-3.0</text><text x="478.282" y="1045.674" fill="#000" font-family="'Segoe UI, Arial'" font-size="14" font-weight="bold" lengthAdjust="spacing" textLength="104.221">Process Name:</text><text x="586.933" y="1045.674" fill="#000" font-family="'Segoe UI, Arial'" font-size="14" lengthAdjust="spacing" textLength="273.934">Approve/Reject Loan (อนุมัติ/ปฏิเสธสินเชื่อ)</text><text x="478.282" y="1062.162" fill="#000" font-family="'Segoe UI, Arial'" font-size="14" font-weight="bold" lengthAdjust="spacing" textLength="57.073">Trigger:</text><text x="539.785" y="1062.162" fill="#000" font-family="'Segoe UI, Arial'" font-size="14" lengthAdjust="spacing" textLength="211.689">President selects reviewed loan</text><text x="478.282" y="1078.65" fill="#000" font-family="'Segoe UI, Arial'" font-size="14" font-weight="bold" lengthAdjust="spacing" textLength="41.44">Input:</text><text x="524.151" y="1078.65" fill="#000" font-family="'Segoe UI, Arial'" font-size="14" lengthAdjust="spacing" textLength="175.991">Reviewed loan application</text><text x="478.282" y="1095.139" fill="#000" font-family="'Segoe UI, Arial'" font-size="14" font-weight="bold" lengthAdjust="spacing" textLength="53.997">Output:</text><text x="536.709" y="1095.139" fill="#000" font-family="'Segoe UI, Arial'" font-size="14" lengthAdjust="spacing" textLength="179.881">Approved or Rejected loan</text><text x="478.282" y="1111.627" fill="#000" font-family="'Segoe UI, Arial'" font-size="14" font-weight="bold" lengthAdjust="spacing" textLength="103.332">Pre-condition:</text><text x="586.044" y="1111.627" fill="#000" font-family="'Segoe UI, Arial'" font-size="14" lengthAdjust="spacing" textLength="165.334">Loan status = REVIEWED</text><text x="478.282" y="1128.115" fill="#000" font-family="'Segoe UI, Arial'" font-size="14" font-weight="bold" lengthAdjust="spacing" textLength="111.296">Post-condition:</text><text x="594.008" y="1128.115" fill="#000" font-family="'Segoe UI, Arial'" font-size="14" lengthAdjust="spacing" textLength="258.344">Loan status = APPROVED or REJECTED</text></g><g class="footer" data-source-line="144"><text x="550.555" y="1157.77" fill="#888" font-family="'Segoe UI, Arial'" font-size="9" lengthAdjust="spacing" textLength="238.039">Process Specification | Ban Sai Yai Savings Cooperative</text></g></g></svg>