<svg xmlns="http://www.w3.org/2000/svg" xmlns:xlink="http://www.w3.org/1999/xlink" width="1199" height="1187" contentStyleType="text/css" data-diagram-type="ACTIVITY" style="width:1199px;height:1187px;background:#fff" preserveAspectRatio="none" version="1.1" viewBox="0 0 1199 1187" zoomAndPan="magnify"><title>&lt;size:18&gt;&lt;b&gt;PSPEC 2.0: Loan Review&lt;/b&gt;&lt;/size&gt; &lt;size:10&gt;Process Specification - ตรวจสอบคำขอสินเชื่อ&lt;/size&gt;</title><g><g class="title" data-source-line="25"><text x="490.263" y="37.402" fill="#000" font-family="'Segoe UI, Arial'" font-size="18" font-weight="bold" lengthAdjust="spacing" textLength="216.378">PSPEC 2.0: Loan Review</text><text x="492.843" y="50.867" fill="#000" font-family="'Segoe UI, Arial'" font-size="10" font-weight="bold" lengthAdjust="spacing" textLength="211.218">Process Specification - ตรวจสอบคำขอสินเชื่อ</text></g><rect style="stroke:none;stroke-width:1" width="1166.904" height="12.955" x="15" y="64.977" fill="none"/><rect style="stroke:#ddd6fe;stroke-width:1" width="522.407" height="915.697" x="15" y="64.977" fill="#DDD6FE"/><rect style="stroke:#3c7fc0;stroke-width:.5" width="105.11" height="32.955" x="207.372" y="122.932" fill="#438DD5" rx="12.5" ry="12.5"/><text x="217.372" y="143.566" fill="#FFF" font-family="'Segoe UI, Arial'" font-size="11" lengthAdjust="spacing" textLength="85.11">Login to System</text><rect style="stroke:#3c7fc0;stroke-width:.5" width="134.506" height="32.955" x="192.674" y="236.797" fill="#438DD5" rx="12.5" ry="12.5"/><text x="202.674" y="257.432" fill="#FFF" font-family="'Segoe UI, Arial'" font-size="11" lengthAdjust="spacing" textLength="114.506">Select Loan to Review</text><rect style="stroke:#3c7fc0;stroke-width:.5" width="140.817" height="32.955" x="189.519" y="374.527" fill="#438DD5" rx="12.5" ry="12.5"/><text x="199.519" y="395.162" fill="#FFF" font-family="'Segoe UI, Arial'" font-size="11" lengthAdjust="spacing" textLength="120.817">Review Member Profile</text><path fill="#FEFFDD" d="M337.2655,417.4824 L337.2655,450.8701 L317.2655,454.8701 L337.2655,458.8701 L337.2655,492.2578 A0,0 0 0 0 337.2655,492.2578 L517.3121,492.2578 A0,0 0 0 0 517.3121,492.2578 L517.3121,427.4824 L507.3121,417.4824 L337.2655,417.4824 A0,0 0 0 0 337.2655,417.4824" style="stroke:#181818;stroke-width:.5"/><path fill="#FEFFDD" d="M507.3121,417.4824 L507.3121,427.4824 L517.3121,427.4824 L507.3121,417.4824" style="stroke:#181818;stroke-width:.5"/><text x="343.265" y="433.117" fill="#000" font-family="'Segoe UI, Arial'" font-size="11" font-weight="bold" lengthAdjust="spacing" textLength="104.505">Check Documents:</text><text x="343.265" y="446.072" fill="#000" font-family="'Segoe UI, Arial'" font-size="11" lengthAdjust="spacing" textLength="122.311">- ID Card (บัตรประชาชน)</text><text x="343.265" y="459.027" fill="#000" font-family="'Segoe UI, Arial'" font-size="11" lengthAdjust="spacing" textLength="159.047">- Income proof (หลักฐานรายได้)</text><text x="343.265" y="471.982" fill="#000" font-family="'Segoe UI, Arial'" font-size="11" lengthAdjust="spacing" textLength="150.274">- Collateral docs (หลักประกัน)</text><text x="343.265" y="484.938" fill="#000" font-family="'Segoe UI, Arial'" font-size="11" lengthAdjust="spacing" textLength="148.323">- Guarantor info (ผู้ค้ำประกัน)</text><rect style="stroke:#3c7fc0;stroke-width:.5" width="114.676" height="32.955" x="202.589" y="438.393" fill="#438DD5" rx="12.5" ry="12.5"/><text x="212.589" y="459.027" fill="#FFF" font-family="'Segoe UI, Arial'" font-size="11" lengthAdjust="spacing" textLength="94.676">Verify Documents</text><polygon fill="#FEF3C7" points="200.109 512.258 319.745 512.258 331.745 524.258 319.745 536.258 200.109 536.258 188.109 524.258 200.109 512.258" style="stroke:#f59e0b;stroke-width:.5"/><text x="200.109" y="528.415" fill="#1F2937" font-family="'Segoe UI, Arial'" font-size="11" lengthAdjust="spacing" textLength="119.636">Documents Complete?</text><text x="169.52" y="521.938" fill="#000" font-family="'Segoe UI, Arial'" font-size="11" lengthAdjust="spacing" textLength="18.589">Yes</text><text x="331.745" y="521.938" fill="#000" font-family="'Segoe UI, Arial'" font-size="11" lengthAdjust="spacing" textLength="14.883">No</text><path fill="#FEFFDD" d="M154.2476,556.2578 L154.2476,589.6455 L134.2476,593.6455 L154.2476,597.6455 L154.2476,631.0332 A0,0 0 0 0 154.2476,631.0332 L301.001,631.0332 A0,0 0 0 0 301.001,631.0332 L301.001,566.2578 L291.001,556.2578 L154.2476,556.2578 A0,0 0 0 0 154.2476,556.2578" style="stroke:#181818;stroke-width:.5"/><path fill="#FEFFDD" d="M291.001,556.2578 L291.001,566.2578 L301.001,566.2578 L291.001,556.2578" style="stroke:#181818;stroke-width:.5"/><text x="160.248" y="571.893" fill="#000" font-family="'Segoe UI, Arial'" font-size="11" font-weight="bold" lengthAdjust="spacing" textLength="98.909">Risk Assessment:</text><text x="160.248" y="584.848" fill="#000" font-family="'Segoe UI, Arial'" font-size="11" lengthAdjust="spacing" textLength="125.753">- Debt-to-income ratio</text><text x="160.248" y="597.803" fill="#000" font-family="'Segoe UI, Arial'" font-size="11" lengthAdjust="spacing" textLength="82.516">- Credit history</text><text x="160.248" y="610.758" fill="#000" font-family="'Segoe UI, Arial'" font-size="11" lengthAdjust="spacing" textLength="92.028">- Collateral value</text><text x="160.248" y="623.713" fill="#000" font-family="'Segoe UI, Arial'" font-size="11" lengthAdjust="spacing" textLength="99.295">- Guarantor status</text><rect style="stroke:#3c7fc0;stroke-width:.5" width="110.804" height="32.955" x="23.444" y="577.168" fill="#438DD5" rx="12.5" ry="12.5"/><text x="33.444" y="597.803" fill="#FFF" font-family="'Segoe UI, Arial'" font-size="11" lengthAdjust="spacing" textLength="90.804">Assess Loan Risk</text><rect style="stroke:#3c7fc0;stroke-width:.5" width="115.691" height="32.955" x="21" y="666.033" fill="#438DD5" rx="12.5" ry="12.5"/><text x="31" y="686.668" fill="#FFF" font-family="'Segoe UI, Arial'" font-size="11" lengthAdjust="spacing" textLength="95.691">Add Review Notes</text><rect style="stroke:#3c7fc0;stroke-width:.5" width="97.279" height="32.955" x="30.206" y="733.988" fill="#438DD5" rx="12.5" ry="12.5"/><text x="40.206" y="754.623" fill="#FFF" font-family="'Segoe UI, Arial'" font-size="11" lengthAdjust="spacing" textLength="77.279">Submit Review</text><rect style="stroke:#3c7fc0;stroke-width:.5" width="184.796" height="32.955" x="348.611" y="556.258" fill="#438DD5" rx="12.5" ry="12.5"/><text x="358.611" y="576.893" fill="#FFF" font-family="'Segoe UI, Arial'" font-size="11" lengthAdjust="spacing" textLength="164.796">Request Additional Documents</text><polygon fill="#FEF3C7" points="259.927 914.674 271.927 926.674 259.927 938.674 247.927 926.674 259.927 914.674" style="stroke:#f59e0b;stroke-width:.5"/><line style="stroke:#000;stroke-width:1.5" x1="15" x2="15" y1="64.977" y2="980.674"/><rect style="stroke:#e0e7ff;stroke-width:1" width="643.757" height="915.697" x="537.407" y="64.977" fill="#E0E7FF"/><ellipse cx="785.955" cy="92.932" fill="#222" rx="10" ry="10" style="stroke:#222;stroke-width:1"/><path fill="#FEFFDD" d="M894.8558,167.9316 L894.8558,188.3643 L874.8558,192.3643 L894.8558,196.3643 L894.8558,216.7969 A0,0 0 0 0 894.8558,216.7969 L1066.6439,216.7969 A0,0 0 0 0 1066.6439,216.7969 L1066.6439,177.9316 L1056.6439,167.9316 L894.8558,167.9316 A0,0 0 0 0 894.8558,167.9316" style="stroke:#181818;stroke-width:.5"/><path fill="#FEFFDD" d="M1056.6439,167.9316 L1056.6439,177.9316 L1066.6439,177.9316 L1056.6439,167.9316" style="stroke:#181818;stroke-width:.5"/><text x="900.856" y="183.566" fill="#000" font-family="'Segoe UI, Arial'" font-size="11" font-weight="bold" lengthAdjust="spacing" textLength="32.092">Filter:</text><text x="900.856" y="196.522" fill="#000" font-family="'Segoe UI, Arial'" font-size="11" lengthAdjust="spacing" textLength="96.019">Status = PENDING</text><text x="900.856" y="209.477" fill="#000" font-family="'Segoe UI, Arial'" font-size="11" lengthAdjust="spacing" textLength="150.788">Ordered by submission date</text><rect style="stroke:#3c7fc0;stroke-width:.5" width="177.803" height="32.955" x="697.053" y="175.887" fill="#438DD5" rx="12.5" ry="12.5"/><text x="707.053" y="196.522" fill="#FFF" font-family="'Segoe UI, Arial'" font-size="11" lengthAdjust="spacing" textLength="157.803">Display Pending Loans Queue</text><path fill="#FEFFDD" d="M864.7589,279.752 L864.7589,313.1396 L844.7589,317.1396 L864.7589,321.1396 L864.7589,354.5273 A0,0 0 0 0 864.7589,354.5273 L1008.7032,354.5273 A0,0 0 0 0 1008.7032,354.5273 L1008.7032,289.752 L998.7032,279.752 L864.7589,279.752 A0,0 0 0 0 864.7589,279.752" style="stroke:#181818;stroke-width:.5"/><path fill="#FEFFDD" d="M998.7032,279.752 L998.7032,289.752 L1008.7032,289.752 L998.7032,279.752" style="stroke:#181818;stroke-width:.5"/><text x="870.759" y="295.387" fill="#000" font-family="'Segoe UI, Arial'" font-size="11" font-weight="bold" lengthAdjust="spacing" textLength="44.983">Display:</text><text x="870.759" y="308.342" fill="#000" font-family="'Segoe UI, Arial'" font-size="11" lengthAdjust="spacing" textLength="119.281">- Member information</text><text x="870.759" y="321.297" fill="#000" font-family="'Segoe UI, Arial'" font-size="11" lengthAdjust="spacing" textLength="74.057">- Loan details</text><text x="870.759" y="334.252" fill="#000" font-family="'Segoe UI, Arial'" font-size="11" lengthAdjust="spacing" textLength="95.299">- Payment history</text><text x="870.759" y="347.207" fill="#000" font-family="'Segoe UI, Arial'" font-size="11" lengthAdjust="spacing" textLength="122.944">- Uploaded documents</text><rect style="stroke:#3c7fc0;stroke-width:.5" width="117.609" height="32.955" x="727.15" y="300.662" fill="#438DD5" rx="12.5" ry="12.5"/><text x="737.15" y="321.297" fill="#FFF" font-family="'Segoe UI, Arial'" font-size="11" lengthAdjust="spacing" textLength="97.609">Fetch Loan Details</text><path fill="#FEFFDD" d="M686.3386,776.9434 L686.3386,810.3311 L666.3386,814.3311 L686.3386,818.3311 L686.3386,851.7188 A0,0 0 0 0 686.3386,851.7188 L813.9065,851.7188 A0,0 0 0 0 813.9065,851.7188 L813.9065,786.9434 L803.9065,776.9434 L686.3386,776.9434 A0,0 0 0 0 686.3386,776.9434" style="stroke:#181818;stroke-width:.5"/><path fill="#FEFFDD" d="M803.9065,776.9434 L803.9065,786.9434 L813.9065,786.9434 L803.9065,776.9434" style="stroke:#181818;stroke-width:.5"/><text x="692.339" y="792.578" fill="#000" font-family="'Segoe UI, Arial'" font-size="11" font-weight="bold" lengthAdjust="spacing" textLength="42.765">Update:</text><text x="692.339" y="805.533" fill="#000" font-family="'Segoe UI, Arial'" font-size="11" lengthAdjust="spacing" textLength="102.319">- Status: REVIEWED</text><text x="692.339" y="818.488" fill="#000" font-family="'Segoe UI, Arial'" font-size="11" lengthAdjust="spacing" textLength="71.924">- Reviewer ID</text><text x="692.339" y="831.443" fill="#000" font-family="'Segoe UI, Arial'" font-size="11" lengthAdjust="spacing" textLength="106.568">- Review timestamp</text><text x="692.339" y="844.398" fill="#000" font-family="'Segoe UI, Arial'" font-size="11" lengthAdjust="spacing" textLength="79.32">- Review notes</text><rect style="stroke:#3c7fc0;stroke-width:.5" width="122.932" height="32.955" x="543.407" y="797.854" fill="#438DD5" rx="12.5" ry="12.5"/><text x="553.407" y="818.488" fill="#FFF" font-family="'Segoe UI, Arial'" font-size="11" lengthAdjust="spacing" textLength="102.932">Update Loan Status</text><path fill="#FEFFDD" d="M680.4492,876.7188 L680.4492,884.1963 L660.4492,888.1963 L680.4492,892.1963 L680.4492,899.6738 A0,0 0 0 0 680.4492,899.6738 L854.6382,899.6738 A0,0 0 0 0 854.6382,899.6738 L854.6382,886.7188 L844.6382,876.7188 L680.4492,876.7188 A0,0 0 0 0 680.4492,876.7188" style="stroke:#181818;stroke-width:.5"/><path fill="#FEFFDD" d="M844.6382,876.7188 L844.6382,886.7188 L854.6382,886.7188 L844.6382,876.7188" style="stroke:#181818;stroke-width:.5"/><text x="686.449" y="892.354" fill="#000" font-family="'Segoe UI, Arial'" font-size="11" lengthAdjust="spacing" textLength="153.189">Ready for President approval</text><rect style="stroke:#3c7fc0;stroke-width:.5" width="111.153" height="32.955" x="549.296" y="871.719" fill="#D4EDDA" rx="12.5" ry="12.5"/><text x="559.296" y="892.354" fill="#FFF" font-family="'Segoe UI, Arial'" font-size="11" lengthAdjust="spacing" textLength="91.153">Review Complete</text><path fill="#FEFFDD" d="M1036.4734,624.2129 L1036.4734,638.168 L1016.4734,642.168 L1036.4734,646.168 L1036.4734,660.123 A0,0 0 0 0 1036.4734,660.123 L1176.1638,660.123 A0,0 0 0 0 1176.1638,660.123 L1176.1638,634.2129 L1166.1638,624.2129 L1036.4734,624.2129 A0,0 0 0 0 1036.4734,624.2129" style="stroke:#181818;stroke-width:.5"/><path fill="#FEFFDD" d="M1166.1638,624.2129 L1166.1638,634.2129 L1176.1638,634.2129 L1166.1638,624.2129" style="stroke:#181818;stroke-width:.5"/><text x="1042.473" y="639.848" fill="#000" font-family="'Segoe UI, Arial'" font-size="11" lengthAdjust="spacing" textLength="118.69">Send email requesting</text><text x="1042.473" y="652.803" fill="#000" font-family="'Segoe UI, Arial'" font-size="11" lengthAdjust="spacing" textLength="104.097">missing documents</text><rect style="stroke:#3c7fc0;stroke-width:.5" width="98.874" height="32.955" x="917.599" y="625.69" fill="#438DD5" rx="12.5" ry="12.5"/><text x="927.599" y="646.325" fill="#FFF" font-family="'Segoe UI, Arial'" font-size="11" lengthAdjust="spacing" textLength="78.874">Notify Member</text><rect style="stroke:#3c7fc0;stroke-width:.5" width="130.183" height="32.955" x="901.945" y="695.123" fill="#FFF3CD" rx="12.5" ry="12.5"/><text x="911.945" y="715.758" fill="#FFF" font-family="'Segoe UI, Arial'" font-size="11" lengthAdjust="spacing" textLength="110.183">Awaiting Documents</text><ellipse cx="785.955" cy="969.674" fill="none" rx="11" ry="11" style="stroke:#222;stroke-width:1"/><ellipse cx="785.955" cy="969.674" fill="#222" rx="6" ry="6" style="stroke:#222;stroke-width:1"/><line style="stroke:#000;stroke-width:1.5" x1="537.407" x2="537.407" y1="64.977" y2="980.674"/><line style="stroke:#000;stroke-width:1.5" x1="1181.164" x2="1181.164" y1="64.977" y2="980.674"/><line style="stroke:#181818;stroke-width:1" x1="259.927" x2="259.927" y1="407.482" y2="438.393"/><polygon fill="#181818" points="255.927 428.393 259.927 438.393 263.927 428.393 259.927 432.393" style="stroke:#181818;stroke-width:1"/><line style="stroke:#181818;stroke-width:1" x1="78.846" x2="78.846" y1="610.123" y2="666.033"/><polygon fill="#181818" points="74.846 656.033 78.846 666.033 82.846 656.033 78.846 660.033" style="stroke:#181818;stroke-width:1"/><line style="stroke:#181818;stroke-width:1" x1="78.846" x2="78.846" y1="698.988" y2="733.988"/><polygon fill="#181818" points="74.846 723.988 78.846 733.988 82.846 723.988 78.846 727.988" style="stroke:#181818;stroke-width:1"/><line style="stroke:#181818;stroke-width:1" x1="188.109" x2="78.846" y1="524.258" y2="524.258"/><line style="stroke:#181818;stroke-width:1" x1="78.846" x2="78.846" y1="524.258" y2="577.168"/><polygon fill="#181818" points="74.846 567.168 78.846 577.168 82.846 567.168 78.846 571.168" style="stroke:#181818;stroke-width:1"/><line style="stroke:#181818;stroke-width:1" x1="331.745" x2="441.009" y1="524.258" y2="524.258"/><line style="stroke:#181818;stroke-width:1" x1="441.009" x2="441.009" y1="524.258" y2="556.258"/><polygon fill="#181818" points="437.009 546.258 441.009 556.258 445.009 546.258 441.009 550.258" style="stroke:#181818;stroke-width:1"/><line style="stroke:#181818;stroke-width:1" x1="259.927" x2="259.927" y1="471.348" y2="512.258"/><polygon fill="#181818" points="255.927 502.258 259.927 512.258 263.927 502.258 259.927 506.258" style="stroke:#181818;stroke-width:1"/><line style="stroke:#181818;stroke-width:1" x1="604.873" x2="604.873" y1="830.809" y2="871.719"/><polygon fill="#181818" points="600.873 861.719 604.873 871.719 608.873 861.719 604.873 865.719" style="stroke:#181818;stroke-width:1"/><line style="stroke:#181818;stroke-width:1" x1="967.036" x2="967.036" y1="658.645" y2="695.123"/><polygon fill="#181818" points="963.036 685.123 967.036 695.123 971.036 685.123 967.036 689.123" style="stroke:#181818;stroke-width:1"/><line style="stroke:#181818;stroke-width:1" x1="785.955" x2="785.955" y1="102.932" y2="107.932"/><line style="stroke:#181818;stroke-width:1" x1="785.955" x2="259.927" y1="107.932" y2="107.932"/><line style="stroke:#181818;stroke-width:1" x1="259.927" x2="259.927" y1="107.932" y2="122.932"/><polygon fill="#181818" points="255.927 112.932 259.927 122.932 263.927 112.932 259.927 116.932" style="stroke:#181818;stroke-width:1"/><line style="stroke:#181818;stroke-width:1" x1="259.927" x2="259.927" y1="155.887" y2="160.887"/><line style="stroke:#181818;stroke-width:1" x1="259.927" x2="785.955" y1="160.887" y2="160.887"/><line style="stroke:#181818;stroke-width:1" x1="785.955" x2="785.955" y1="160.887" y2="175.887"/><polygon fill="#181818" points="781.955 165.887 785.955 175.887 789.955 165.887 785.955 169.887" style="stroke:#181818;stroke-width:1"/><line style="stroke:#181818;stroke-width:1" x1="785.955" x2="785.955" y1="208.842" y2="221.797"/><line style="stroke:#181818;stroke-width:1" x1="785.955" x2="259.927" y1="221.797" y2="221.797"/><line style="stroke:#181818;stroke-width:1" x1="259.927" x2="259.927" y1="221.797" y2="236.797"/><polygon fill="#181818" points="255.927 226.797 259.927 236.797 263.927 226.797 259.927 230.797" style="stroke:#181818;stroke-width:1"/><line style="stroke:#181818;stroke-width:1" x1="259.927" x2="259.927" y1="269.752" y2="274.752"/><line style="stroke:#181818;stroke-width:1" x1="259.927" x2="785.955" y1="274.752" y2="274.752"/><line style="stroke:#181818;stroke-width:1" x1="785.955" x2="785.955" y1="274.752" y2="300.662"/><polygon fill="#181818" points="781.955 290.662 785.955 300.662 789.955 290.662 785.955 294.662" style="stroke:#181818;stroke-width:1"/><line style="stroke:#181818;stroke-width:1" x1="785.955" x2="785.955" y1="333.617" y2="359.527"/><line style="stroke:#181818;stroke-width:1" x1="785.955" x2="259.927" y1="359.527" y2="359.527"/><line style="stroke:#181818;stroke-width:1" x1="259.927" x2="259.927" y1="359.527" y2="374.527"/><polygon fill="#181818" points="255.927 364.527 259.927 374.527 263.927 364.527 259.927 368.527" style="stroke:#181818;stroke-width:1"/><line style="stroke:#181818;stroke-width:1" x1="78.846" x2="78.846" y1="766.943" y2="771.943"/><line style="stroke:#181818;stroke-width:1" x1="78.846" x2="604.873" y1="771.943" y2="771.943"/><line style="stroke:#181818;stroke-width:1" x1="604.873" x2="604.873" y1="771.943" y2="797.854"/><polygon fill="#181818" points="600.873 787.854 604.873 797.854 608.873 787.854 604.873 791.854" style="stroke:#181818;stroke-width:1"/><line style="stroke:#181818;stroke-width:1" x1="441.009" x2="441.009" y1="589.213" y2="607.452"/><line style="stroke:#181818;stroke-width:1" x1="441.009" x2="967.036" y1="607.452" y2="607.452"/><line style="stroke:#181818;stroke-width:1" x1="967.036" x2="967.036" y1="607.452" y2="625.69"/><polygon fill="#181818" points="963.036 615.69 967.036 625.69 971.036 615.69 967.036 619.69" style="stroke:#181818;stroke-width:1"/><line style="stroke:#181818;stroke-width:1" x1="604.873" x2="604.873" y1="904.674" y2="908.674"/><line style="stroke:#181818;stroke-width:1" x1="604.873" x2="229.927" y1="908.674" y2="908.674"/><line style="stroke:#181818;stroke-width:1" x1="229.927" x2="229.927" y1="908.674" y2="926.674"/><line style="stroke:#181818;stroke-width:1" x1="229.927" x2="247.927" y1="926.674" y2="926.674"/><polygon fill="#181818" points="237.927 922.674 247.927 926.674 237.927 930.674 241.927 926.674" style="stroke:#181818;stroke-width:1"/><line style="stroke:#181818;stroke-width:1" x1="967.036" x2="967.036" y1="728.078" y2="926.674"/><line style="stroke:#181818;stroke-width:1" x1="967.036" x2="271.927" y1="926.674" y2="926.674"/><polygon fill="#181818" points="281.927 922.674 271.927 926.674 281.927 930.674 277.927 926.674" style="stroke:#181818;stroke-width:1"/><line style="stroke:#181818;stroke-width:1" x1="259.927" x2="259.927" y1="938.674" y2="943.674"/><line style="stroke:#181818;stroke-width:1" x1="259.927" x2="785.955" y1="943.674" y2="943.674"/><line style="stroke:#181818;stroke-width:1" x1="785.955" x2="785.955" y1="943.674" y2="958.674"/><polygon fill="#181818" points="781.955 948.674 785.955 958.674 789.955 948.674 785.955 952.674" style="stroke:#181818;stroke-width:1"/><text x="258.165" y="75.611" fill="#000" font-family="'Segoe UI, Arial'" font-size="11" lengthAdjust="spacing" textLength="36.078">Officer</text><text x="840.39" y="75.611" fill="#000" font-family="'Segoe UI, Arial'" font-size="11" lengthAdjust="spacing" textLength="37.791">System</text><g class="legend" data-source-line="113"><rect style="stroke:#000;stroke-width:1" width="422.572" height="158.394" x="387.166" y="992.674" fill="none" rx="7.5" ry="7.5"/><text x="392.166" y="1011.209" fill="#000" font-family="'Segoe UI, Arial'" font-size="14" font-weight="bold" lengthAdjust="spacing" textLength="168.294">PSPEC 2.0: Loan Review</text><text x="392.166" y="1027.697" fill="#000" font-family="'Segoe UI, Arial'" font-size="14" lengthAdjust="spacing" textLength="16.201">--</text><text x="392.166" y="1044.186" fill="#000" font-family="'Segoe UI, Arial'" font-size="14" font-weight="bold" lengthAdjust="spacing" textLength="79.194">Process ID:</text><text x="475.79" y="1044.186" fill="#000" font-family="'Segoe UI, Arial'" font-size="14" lengthAdjust="spacing" textLength="70.526">PSPEC-2.0</text><text x="392.166" y="1060.674" fill="#000" font-family="'Segoe UI, Arial'" font-size="14" font-weight="bold" lengthAdjust="spacing" textLength="104.221">Process Name:</text><text x="500.816" y="1060.674" fill="#000" font-family="'Segoe UI, Arial'" font-size="14" lengthAdjust="spacing" textLength="303.922">Review Loan Application (ตรวจสอบคำขอสินเชื่อ)</text><text x="392.166" y="1077.162" fill="#000" font-family="'Segoe UI, Arial'" font-size="14" font-weight="bold" lengthAdjust="spacing" textLength="57.073">Trigger:</text><text x="453.669" y="1077.162" fill="#000" font-family="'Segoe UI, Arial'" font-size="14" lengthAdjust="spacing" textLength="190.176">Officer selects pending loan</text><text x="392.166" y="1093.65" fill="#000" font-family="'Segoe UI, Arial'" font-size="14" font-weight="bold" lengthAdjust="spacing" textLength="41.44">Input:</text><text x="438.035" y="1093.65" fill="#000" font-family="'Segoe UI, Arial'" font-size="14" lengthAdjust="spacing" textLength="167.351">Pending loan application</text><text x="392.166" y="1110.139" fill="#000" font-family="'Segoe UI, Arial'" font-size="14" font-weight="bold" lengthAdjust="spacing" textLength="53.997">Output:</text><text x="450.593" y="1110.139" fill="#000" font-family="'Segoe UI, Arial'" font-size="14" lengthAdjust="spacing" textLength="225.497">Reviewed loan ready for approval</text><text x="392.166" y="1126.627" fill="#000" font-family="'Segoe UI, Arial'" font-size="14" font-weight="bold" lengthAdjust="spacing" textLength="103.332">Pre-condition:</text><text x="499.928" y="1126.627" fill="#000" font-family="'Segoe UI, Arial'" font-size="14" lengthAdjust="spacing" textLength="158.717">Loan status = PENDING</text><text x="392.166" y="1143.115" fill="#000" font-family="'Segoe UI, Arial'" font-size="14" font-weight="bold" lengthAdjust="spacing" textLength="111.296">Post-condition:</text><text x="507.892" y="1143.115" fill="#000" font-family="'Segoe UI, Arial'" font-size="14" lengthAdjust="spacing" textLength="165.334">Loan status = REVIEWED</text></g><g class="footer" data-source-line="125"><text x="479.433" y="1172.77" fill="#888" font-family="'Segoe UI, Arial'" font-size="9" lengthAdjust="spacing" textLength="238.039">Process Specification | Ban Sai Yai Savings Cooperative</text></g></g></svg>