<svg xmlns="http://www.w3.org/2000/svg" xmlns:xlink="http://www.w3.org/1999/xlink" contentStyleType="text/css" data-diagram-type="ACTIVITY" height="1187px" preserveAspectRatio="none" style="width:1199px;height:1187px;background:#FFFFFF;" version="1.1" viewBox="0 0 1199 1187" width="1199px" zoomAndPan="magnify"><title>&lt;size:18&gt;&lt;b&gt;PSPEC 2.0: Loan Review&lt;/b&gt;&lt;/size&gt;
&lt;size:10&gt;Process Specification - &#3605;&#3619;&#3623;&#3592;&#3626;&#3629;&#3610;&#3588;&#3635;&#3586;&#3629;&#3626;&#3636;&#3609;&#3648;&#3594;&#3639;&#3656;&#3629;&lt;/size&gt;</title><defs/><g><g class="title" data-source-line="25"><text fill="#000000" font-family="'Segoe UI, Arial'" font-size="18" font-weight="bold" lengthAdjust="spacing" textLength="216.3779" x="490.2631" y="37.4023">PSPEC 2.0: Loan Review</text><text fill="#000000" font-family="'Segoe UI, Arial'" font-size="10" font-weight="bold" lengthAdjust="spacing" textLength="211.2178" x="492.8431" y="50.8672">Process Specification - &#3605;&#3619;&#3623;&#3592;&#3626;&#3629;&#3610;&#3588;&#3635;&#3586;&#3629;&#3626;&#3636;&#3609;&#3648;&#3594;&#3639;&#3656;&#3629;</text></g><rect fill="none" height="12.9551" style="stroke:none;stroke-width:1;" width="1166.9041" x="15" y="64.9766"/><rect fill="#DDD6FE" height="915.6973" style="stroke:#DDD6FE;stroke-width:1;" width="522.407" x="15" y="64.9766"/><rect fill="#438DD5" height="32.9551" rx="12.5" ry="12.5" style="stroke:#3C7FC0;stroke-width:0.5;" width="105.1104" x="207.3722" y="122.9316"/><text fill="#FFFFFF" font-family="'Segoe UI, Arial'" font-size="11" lengthAdjust="spacing" textLength="85.1104" x="217.3722" y="143.5664">Login to System</text><rect fill="#438DD5" height="32.9551" rx="12.5" ry="12.5" style="stroke:#3C7FC0;stroke-width:0.5;" width="134.5063" x="192.6742" y="236.7969"/><text fill="#FFFFFF" font-family="'Segoe UI, Arial'" font-size="11" lengthAdjust="spacing" textLength="114.5063" x="202.6742" y="257.4316">Select Loan to Review</text><rect fill="#438DD5" height="32.9551" rx="12.5" ry="12.5" style="stroke:#3C7FC0;stroke-width:0.5;" width="140.8174" x="189.5187" y="374.5273"/><text fill="#FFFFFF" font-family="'Segoe UI, Arial'" font-size="11" lengthAdjust="spacing" textLength="120.8174" x="199.5187" y="395.1621">Review Member Profile</text><path d="M337.2655,417.4824 L337.2655,450.8701 L317.2655,454.8701 L337.2655,458.8701 L337.2655,492.2578 A0,0 0 0 0 337.2655,492.2578 L517.3121,492.2578 A0,0 0 0 0 517.3121,492.2578 L517.3121,427.4824 L507.3121,417.4824 L337.2655,417.4824 A0,0 0 0 0 337.2655,417.4824" fill="#FEFFDD" style="stroke:#181818;stroke-width:0.5;"/><path d="M507.3121,417.4824 L507.3121,427.4824 L517.3121,427.4824 L507.3121,417.4824" fill="#FEFFDD" style="stroke:#181818;stroke-width:0.5;"/><text fill="#000000" font-family="'Segoe UI, Arial'" font-size="11" font-weight="bold" lengthAdjust="spacing" textLength="104.5054" x="343.2655" y="433.1172">Check Documents:</text><text fill="#000000" font-family="'Segoe UI, Arial'" font-size="11" lengthAdjust="spacing" textLength="122.3105" x="343.2655" y="446.0723">- ID Card (&#3610;&#3633;&#3605;&#3619;&#3611;&#3619;&#3632;&#3594;&#3634;&#3594;&#3609;)</text><text fill="#000000" font-family="'Segoe UI, Arial'" font-size="11" lengthAdjust="spacing" textLength="159.0466" x="343.2655" y="459.0273">- Income proof (&#3627;&#3621;&#3633;&#3585;&#3600;&#3634;&#3609;&#3619;&#3634;&#3618;&#3652;&#3604;&#3657;)</text><text fill="#000000" font-family="'Segoe UI, Arial'" font-size="11" lengthAdjust="spacing" textLength="150.2735" x="343.2655" y="471.9824">- Collateral docs (&#3627;&#3621;&#3633;&#3585;&#3611;&#3619;&#3632;&#3585;&#3633;&#3609;)</text><text fill="#000000" font-family="'Segoe UI, Arial'" font-size="11" lengthAdjust="spacing" textLength="148.3227" x="343.2655" y="484.9375">- Guarantor info (&#3612;&#3641;&#3657;&#3588;&#3657;&#3635;&#3611;&#3619;&#3632;&#3585;&#3633;&#3609;)</text><rect fill="#438DD5" height="32.9551" rx="12.5" ry="12.5" style="stroke:#3C7FC0;stroke-width:0.5;" width="114.6763" x="202.5892" y="438.3926"/><text fill="#FFFFFF" font-family="'Segoe UI, Arial'" font-size="11" lengthAdjust="spacing" textLength="94.6763" x="212.5892" y="459.0273">Verify Documents</text><polygon fill="#FEF3C7" points="200.1095,512.2578,319.7452,512.2578,331.7452,524.2578,319.7452,536.2578,200.1095,536.2578,188.1095,524.2578,200.1095,512.2578" style="stroke:#F59E0B;stroke-width:0.5;"/><text fill="#1F2937" font-family="'Segoe UI, Arial'" font-size="11" lengthAdjust="spacing" textLength="119.6357" x="200.1095" y="528.415">Documents Complete?</text><text fill="#000000" font-family="'Segoe UI, Arial'" font-size="11" lengthAdjust="spacing" textLength="18.5894" x="169.5201" y="521.9375">Yes</text><text fill="#000000" font-family="'Segoe UI, Arial'" font-size="11" lengthAdjust="spacing" textLength="14.8833" x="331.7452" y="521.9375">No</text><path d="M154.2476,556.2578 L154.2476,589.6455 L134.2476,593.6455 L154.2476,597.6455 L154.2476,631.0332 A0,0 0 0 0 154.2476,631.0332 L301.001,631.0332 A0,0 0 0 0 301.001,631.0332 L301.001,566.2578 L291.001,556.2578 L154.2476,556.2578 A0,0 0 0 0 154.2476,556.2578" fill="#FEFFDD" style="stroke:#181818;stroke-width:0.5;"/><path d="M291.001,556.2578 L291.001,566.2578 L301.001,566.2578 L291.001,556.2578" fill="#FEFFDD" style="stroke:#181818;stroke-width:0.5;"/><text fill="#000000" font-family="'Segoe UI, Arial'" font-size="11" font-weight="bold" lengthAdjust="spacing" textLength="98.9087" x="160.2476" y="571.8926">Risk Assessment:</text><text fill="#000000" font-family="'Segoe UI, Arial'" font-size="11" lengthAdjust="spacing" textLength="125.7534" x="160.2476" y="584.8477">- Debt-to-income ratio</text><text fill="#000000" font-family="'Segoe UI, Arial'" font-size="11" lengthAdjust="spacing" textLength="82.5161" x="160.2476" y="597.8027">- Credit history</text><text fill="#000000" font-family="'Segoe UI, Arial'" font-size="11" lengthAdjust="spacing" textLength="92.0283" x="160.2476" y="610.7578">- Collateral value</text><text fill="#000000" font-family="'Segoe UI, Arial'" font-size="11" lengthAdjust="spacing" textLength="99.2954" x="160.2476" y="623.7129">- Guarantor status</text><rect fill="#438DD5" height="32.9551" rx="12.5" ry="12.5" style="stroke:#3C7FC0;stroke-width:0.5;" width="110.8037" x="23.4438" y="577.168"/><text fill="#FFFFFF" font-family="'Segoe UI, Arial'" font-size="11" lengthAdjust="spacing" textLength="90.8037" x="33.4438" y="597.8027">Assess Loan Risk</text><rect fill="#438DD5" height="32.9551" rx="12.5" ry="12.5" style="stroke:#3C7FC0;stroke-width:0.5;" width="115.6914" x="21" y="666.0332"/><text fill="#FFFFFF" font-family="'Segoe UI, Arial'" font-size="11" lengthAdjust="spacing" textLength="95.6914" x="31" y="686.668">Add Review Notes</text><rect fill="#438DD5" height="32.9551" rx="12.5" ry="12.5" style="stroke:#3C7FC0;stroke-width:0.5;" width="97.2793" x="30.2061" y="733.9883"/><text fill="#FFFFFF" font-family="'Segoe UI, Arial'" font-size="11" lengthAdjust="spacing" textLength="77.2793" x="40.2061" y="754.623">Submit Review</text><rect fill="#438DD5" height="32.9551" rx="12.5" ry="12.5" style="stroke:#3C7FC0;stroke-width:0.5;" width="184.7959" x="348.6111" y="556.2578"/><text fill="#FFFFFF" font-family="'Segoe UI, Arial'" font-size="11" lengthAdjust="spacing" textLength="164.7959" x="358.6111" y="576.8926">Request Additional Documents</text><polygon fill="#FEF3C7" points="259.9274,914.6738,271.9274,926.6738,259.9274,938.6738,247.9274,926.6738,259.9274,914.6738" style="stroke:#F59E0B;stroke-width:0.5;"/><line style="stroke:#000000;stroke-width:1.5;" x1="15" x2="15" y1="64.9766" y2="980.6738"/><rect fill="#E0E7FF" height="915.6973" style="stroke:#E0E7FF;stroke-width:1;" width="643.7568" x="537.407" y="64.9766"/><ellipse cx="785.9545" cy="92.9316" fill="#222222" rx="10" ry="10" style="stroke:#222222;stroke-width:1;"/><path d="M894.8558,167.9316 L894.8558,188.3643 L874.8558,192.3643 L894.8558,196.3643 L894.8558,216.7969 A0,0 0 0 0 894.8558,216.7969 L1066.6439,216.7969 A0,0 0 0 0 1066.6439,216.7969 L1066.6439,177.9316 L1056.6439,167.9316 L894.8558,167.9316 A0,0 0 0 0 894.8558,167.9316" fill="#FEFFDD" style="stroke:#181818;stroke-width:0.5;"/><path d="M1056.6439,167.9316 L1056.6439,177.9316 L1066.6439,177.9316 L1056.6439,167.9316" fill="#FEFFDD" style="stroke:#181818;stroke-width:0.5;"/><text fill="#000000" font-family="'Segoe UI, Arial'" font-size="11" font-weight="bold" lengthAdjust="spacing" textLength="32.0923" x="900.8558" y="183.5664">Filter:</text><text fill="#000000" font-family="'Segoe UI, Arial'" font-size="11" lengthAdjust="spacing" textLength="96.019" x="900.8558" y="196.5215">Status = PENDING</text><text fill="#000000" font-family="'Segoe UI, Arial'" font-size="11" lengthAdjust="spacing" textLength="150.7881" x="900.8558" y="209.4766">Ordered by submission date</text><rect fill="#438DD5" height="32.9551" rx="12.5" ry="12.5" style="stroke:#3C7FC0;stroke-width:0.5;" width="177.8027" x="697.0531" y="175.8867"/><text fill="#FFFFFF" font-family="'Segoe UI, Arial'" font-size="11" lengthAdjust="spacing" textLength="157.8027" x="707.0531" y="196.5215">Display Pending Loans Queue</text><path d="M864.7589,279.752 L864.7589,313.1396 L844.7589,317.1396 L864.7589,321.1396 L864.7589,354.5273 A0,0 0 0 0 864.7589,354.5273 L1008.7032,354.5273 A0,0 0 0 0 1008.7032,354.5273 L1008.7032,289.752 L998.7032,279.752 L864.7589,279.752 A0,0 0 0 0 864.7589,279.752" fill="#FEFFDD" style="stroke:#181818;stroke-width:0.5;"/><path d="M998.7032,279.752 L998.7032,289.752 L1008.7032,289.752 L998.7032,279.752" fill="#FEFFDD" style="stroke:#181818;stroke-width:0.5;"/><text fill="#000000" font-family="'Segoe UI, Arial'" font-size="11" font-weight="bold" lengthAdjust="spacing" textLength="44.9829" x="870.7589" y="295.3867">Display:</text><text fill="#000000" font-family="'Segoe UI, Arial'" font-size="11" lengthAdjust="spacing" textLength="119.2813" x="870.7589" y="308.3418">- Member information</text><text fill="#000000" font-family="'Segoe UI, Arial'" font-size="11" lengthAdjust="spacing" textLength="74.0566" x="870.7589" y="321.2969">- Loan details</text><text fill="#000000" font-family="'Segoe UI, Arial'" font-size="11" lengthAdjust="spacing" textLength="95.2993" x="870.7589" y="334.252">- Payment history</text><text fill="#000000" font-family="'Segoe UI, Arial'" font-size="11" lengthAdjust="spacing" textLength="122.9443" x="870.7589" y="347.207">- Uploaded documents</text><rect fill="#438DD5" height="32.9551" rx="12.5" ry="12.5" style="stroke:#3C7FC0;stroke-width:0.5;" width="117.6089" x="727.15" y="300.6621"/><text fill="#FFFFFF" font-family="'Segoe UI, Arial'" font-size="11" lengthAdjust="spacing" textLength="97.6089" x="737.15" y="321.2969">Fetch Loan Details</text><path d="M686.3386,776.9434 L686.3386,810.3311 L666.3386,814.3311 L686.3386,818.3311 L686.3386,851.7188 A0,0 0 0 0 686.3386,851.7188 L813.9065,851.7188 A0,0 0 0 0 813.9065,851.7188 L813.9065,786.9434 L803.9065,776.9434 L686.3386,776.9434 A0,0 0 0 0 686.3386,776.9434" fill="#FEFFDD" style="stroke:#181818;stroke-width:0.5;"/><path d="M803.9065,776.9434 L803.9065,786.9434 L813.9065,786.9434 L803.9065,776.9434" fill="#FEFFDD" style="stroke:#181818;stroke-width:0.5;"/><text fill="#000000" font-family="'Segoe UI, Arial'" font-size="11" font-weight="bold" lengthAdjust="spacing" textLength="42.7646" x="692.3386" y="792.5781">Update:</text><text fill="#000000" font-family="'Segoe UI, Arial'" font-size="11" lengthAdjust="spacing" textLength="102.3193" x="692.3386" y="805.5332">- Status: REVIEWED</text><text fill="#000000" font-family="'Segoe UI, Arial'" font-size="11" lengthAdjust="spacing" textLength="71.9243" x="692.3386" y="818.4883">- Reviewer ID</text><text fill="#000000" font-family="'Segoe UI, Arial'" font-size="11" lengthAdjust="spacing" textLength="106.5679" x="692.3386" y="831.4434">- Review timestamp</text><text fill="#000000" font-family="'Segoe UI, Arial'" font-size="11" lengthAdjust="spacing" textLength="79.3203" x="692.3386" y="844.3984">- Review notes</text><rect fill="#438DD5" height="32.9551" rx="12.5" ry="12.5" style="stroke:#3C7FC0;stroke-width:0.5;" width="122.9316" x="543.407" y="797.8535"/><text fill="#FFFFFF" font-family="'Segoe UI, Arial'" font-size="11" lengthAdjust="spacing" textLength="102.9316" x="553.407" y="818.4883">Update Loan Status</text><path d="M680.4492,876.7188 L680.4492,884.1963 L660.4492,888.1963 L680.4492,892.1963 L680.4492,899.6738 A0,0 0 0 0 680.4492,899.6738 L854.6382,899.6738 A0,0 0 0 0 854.6382,899.6738 L854.6382,886.7188 L844.6382,876.7188 L680.4492,876.7188 A0,0 0 0 0 680.4492,876.7188" fill="#FEFFDD" style="stroke:#181818;stroke-width:0.5;"/><path d="M844.6382,876.7188 L844.6382,886.7188 L854.6382,886.7188 L844.6382,876.7188" fill="#FEFFDD" style="stroke:#181818;stroke-width:0.5;"/><text fill="#000000" font-family="'Segoe UI, Arial'" font-size="11" lengthAdjust="spacing" textLength="153.189" x="686.4492" y="892.3535">Ready for President approval</text><rect fill="#D4EDDA" height="32.9551" rx="12.5" ry="12.5" style="stroke:#3C7FC0;stroke-width:0.5;" width="111.1528" x="549.2964" y="871.7188"/><text fill="#FFFFFF" font-family="'Segoe UI, Arial'" font-size="11" lengthAdjust="spacing" textLength="91.1528" x="559.2964" y="892.3535">Review Complete</text><path d="M1036.4734,624.2129 L1036.4734,638.168 L1016.4734,642.168 L1036.4734,646.168 L1036.4734,660.123 A0,0 0 0 0 1036.4734,660.123 L1176.1638,660.123 A0,0 0 0 0 1176.1638,660.123 L1176.1638,634.2129 L1166.1638,624.2129 L1036.4734,624.2129 A0,0 0 0 0 1036.4734,624.2129" fill="#FEFFDD" style="stroke:#181818;stroke-width:0.5;"/><path d="M1166.1638,624.2129 L1166.1638,634.2129 L1176.1638,634.2129 L1166.1638,624.2129" fill="#FEFFDD" style="stroke:#181818;stroke-width:0.5;"/><text fill="#000000" font-family="'Segoe UI, Arial'" font-size="11" lengthAdjust="spacing" textLength="118.6904" x="1042.4734" y="639.8477">Send email requesting</text><text fill="#000000" font-family="'Segoe UI, Arial'" font-size="11" lengthAdjust="spacing" textLength="104.0972" x="1042.4734" y="652.8027">missing documents</text><rect fill="#438DD5" height="32.9551" rx="12.5" ry="12.5" style="stroke:#3C7FC0;stroke-width:0.5;" width="98.8745" x="917.5989" y="625.6904"/><text fill="#FFFFFF" font-family="'Segoe UI, Arial'" font-size="11" lengthAdjust="spacing" textLength="78.8745" x="927.5989" y="646.3252">Notify Member</text><rect fill="#FFF3CD" height="32.9551" rx="12.5" ry="12.5" style="stroke:#3C7FC0;stroke-width:0.5;" width="130.1826" x="901.9448" y="695.123"/><text fill="#FFFFFF" font-family="'Segoe UI, Arial'" font-size="11" lengthAdjust="spacing" textLength="110.1826" x="911.9448" y="715.7578">Awaiting Documents</text><ellipse cx="785.9545" cy="969.6738" fill="none" rx="11" ry="11" style="stroke:#222222;stroke-width:1;"/><ellipse cx="785.9545" cy="969.6738" fill="#222222" rx="6" ry="6" style="stroke:#222222;stroke-width:1;"/><line style="stroke:#000000;stroke-width:1.5;" x1="537.407" x2="537.407" y1="64.9766" y2="980.6738"/><line style="stroke:#000000;stroke-width:1.5;" x1="1181.1638" x2="1181.1638" y1="64.9766" y2="980.6738"/><line style="stroke:#181818;stroke-width:1;" x1="259.9274" x2="259.9274" y1="407.4824" y2="438.3926"/><polygon fill="#181818" points="255.9274,428.3926,259.9274,438.3926,263.9274,428.3926,259.9274,432.3926" style="stroke:#181818;stroke-width:1;"/><line style="stroke:#181818;stroke-width:1;" x1="78.8457" x2="78.8457" y1="610.123" y2="666.0332"/><polygon fill="#181818" points="74.8457,656.0332,78.8457,666.0332,82.8457,656.0332,78.8457,660.0332" style="stroke:#181818;stroke-width:1;"/><line style="stroke:#181818;stroke-width:1;" x1="78.8457" x2="78.8457" y1="698.9883" y2="733.9883"/><polygon fill="#181818" points="74.8457,723.9883,78.8457,733.9883,82.8457,723.9883,78.8457,727.9883" style="stroke:#181818;stroke-width:1;"/><line style="stroke:#181818;stroke-width:1;" x1="188.1095" x2="78.8457" y1="524.2578" y2="524.2578"/><line style="stroke:#181818;stroke-width:1;" x1="78.8457" x2="78.8457" y1="524.2578" y2="577.168"/><polygon fill="#181818" points="74.8457,567.168,78.8457,577.168,82.8457,567.168,78.8457,571.168" style="stroke:#181818;stroke-width:1;"/><line style="stroke:#181818;stroke-width:1;" x1="331.7452" x2="441.009" y1="524.2578" y2="524.2578"/><line style="stroke:#181818;stroke-width:1;" x1="441.009" x2="441.009" y1="524.2578" y2="556.2578"/><polygon fill="#181818" points="437.009,546.2578,441.009,556.2578,445.009,546.2578,441.009,550.2578" style="stroke:#181818;stroke-width:1;"/><line style="stroke:#181818;stroke-width:1;" x1="259.9274" x2="259.9274" y1="471.3477" y2="512.2578"/><polygon fill="#181818" points="255.9274,502.2578,259.9274,512.2578,263.9274,502.2578,259.9274,506.2578" style="stroke:#181818;stroke-width:1;"/><line style="stroke:#181818;stroke-width:1;" x1="604.8728" x2="604.8728" y1="830.8086" y2="871.7188"/><polygon fill="#181818" points="600.8728,861.7188,604.8728,871.7188,608.8728,861.7188,604.8728,865.7188" style="stroke:#181818;stroke-width:1;"/><line style="stroke:#181818;stroke-width:1;" x1="967.0361" x2="967.0361" y1="658.6455" y2="695.123"/><polygon fill="#181818" points="963.0361,685.123,967.0361,695.123,971.0361,685.123,967.0361,689.123" style="stroke:#181818;stroke-width:1;"/><line style="stroke:#181818;stroke-width:1;" x1="785.9545" x2="785.9545" y1="102.9316" y2="107.9316"/><line style="stroke:#181818;stroke-width:1;" x1="785.9545" x2="259.9274" y1="107.9316" y2="107.9316"/><line style="stroke:#181818;stroke-width:1;" x1="259.9274" x2="259.9274" y1="107.9316" y2="122.9316"/><polygon fill="#181818" points="255.9274,112.9316,259.9274,122.9316,263.9274,112.9316,259.9274,116.9316" style="stroke:#181818;stroke-width:1;"/><line style="stroke:#181818;stroke-width:1;" x1="259.9274" x2="259.9274" y1="155.8867" y2="160.8867"/><line style="stroke:#181818;stroke-width:1;" x1="259.9274" x2="785.9545" y1="160.8867" y2="160.8867"/><line style="stroke:#181818;stroke-width:1;" x1="785.9545" x2="785.9545" y1="160.8867" y2="175.8867"/><polygon fill="#181818" points="781.9545,165.8867,785.9545,175.8867,789.9545,165.8867,785.9545,169.8867" style="stroke:#181818;stroke-width:1;"/><line style="stroke:#181818;stroke-width:1;" x1="785.9545" x2="785.9545" y1="208.8418" y2="221.7969"/><line style="stroke:#181818;stroke-width:1;" x1="785.9545" x2="259.9274" y1="221.7969" y2="221.7969"/><line style="stroke:#181818;stroke-width:1;" x1="259.9274" x2="259.9274" y1="221.7969" y2="236.7969"/><polygon fill="#181818" points="255.9274,226.7969,259.9274,236.7969,263.9274,226.7969,259.9274,230.7969" style="stroke:#181818;stroke-width:1;"/><line style="stroke:#181818;stroke-width:1;" x1="259.9274" x2="259.9274" y1="269.752" y2="274.752"/><line style="stroke:#181818;stroke-width:1;" x1="259.9274" x2="785.9545" y1="274.752" y2="274.752"/><line style="stroke:#181818;stroke-width:1;" x1="785.9545" x2="785.9545" y1="274.752" y2="300.6621"/><polygon fill="#181818" points="781.9545,290.6621,785.9545,300.6621,789.9545,290.6621,785.9545,294.6621" style="stroke:#181818;stroke-width:1;"/><line style="stroke:#181818;stroke-width:1;" x1="785.9545" x2="785.9545" y1="333.6172" y2="359.5273"/><line style="stroke:#181818;stroke-width:1;" x1="785.9545" x2="259.9274" y1="359.5273" y2="359.5273"/><line style="stroke:#181818;stroke-width:1;" x1="259.9274" x2="259.9274" y1="359.5273" y2="374.5273"/><polygon fill="#181818" points="255.9274,364.5273,259.9274,374.5273,263.9274,364.5273,259.9274,368.5273" style="stroke:#181818;stroke-width:1;"/><line style="stroke:#181818;stroke-width:1;" x1="78.8457" x2="78.8457" y1="766.9434" y2="771.9434"/><line style="stroke:#181818;stroke-width:1;" x1="78.8457" x2="604.8728" y1="771.9434" y2="771.9434"/><line style="stroke:#181818;stroke-width:1;" x1="604.8728" x2="604.8728" y1="771.9434" y2="797.8535"/><polygon fill="#181818" points="600.8728,787.8535,604.8728,797.8535,608.8728,787.8535,604.8728,791.8535" style="stroke:#181818;stroke-width:1;"/><line style="stroke:#181818;stroke-width:1;" x1="441.009" x2="441.009" y1="589.2129" y2="607.4517"/><line style="stroke:#181818;stroke-width:1;" x1="441.009" x2="967.0361" y1="607.4517" y2="607.4517"/><line style="stroke:#181818;stroke-width:1;" x1="967.0361" x2="967.0361" y1="607.4517" y2="625.6904"/><polygon fill="#181818" points="963.0361,615.6904,967.0361,625.6904,971.0361,615.6904,967.0361,619.6904" style="stroke:#181818;stroke-width:1;"/><line style="stroke:#181818;stroke-width:1;" x1="604.8728" x2="604.8728" y1="904.6738" y2="908.6738"/><line style="stroke:#181818;stroke-width:1;" x1="604.8728" x2="229.9274" y1="908.6738" y2="908.6738"/><line style="stroke:#181818;stroke-width:1;" x1="229.9274" x2="229.9274" y1="908.6738" y2="926.6738"/><line style="stroke:#181818;stroke-width:1;" x1="229.9274" x2="247.9274" y1="926.6738" y2="926.6738"/><polygon fill="#181818" points="237.9274,922.6738,247.9274,926.6738,237.9274,930.6738,241.9274,926.6738" style="stroke:#181818;stroke-width:1;"/><line style="stroke:#181818;stroke-width:1;" x1="967.0361" x2="967.0361" y1="728.0781" y2="926.6738"/><line style="stroke:#181818;stroke-width:1;" x1="967.0361" x2="271.9274" y1="926.6738" y2="926.6738"/><polygon fill="#181818" points="281.9274,922.6738,271.9274,926.6738,281.9274,930.6738,277.9274,926.6738" style="stroke:#181818;stroke-width:1;"/><line style="stroke:#181818;stroke-width:1;" x1="259.9274" x2="259.9274" y1="938.6738" y2="943.6738"/><line style="stroke:#181818;stroke-width:1;" x1="259.9274" x2="785.9545" y1="943.6738" y2="943.6738"/><line style="stroke:#181818;stroke-width:1;" x1="785.9545" x2="785.9545" y1="943.6738" y2="958.6738"/><polygon fill="#181818" points="781.9545,948.6738,785.9545,958.6738,789.9545,948.6738,785.9545,952.6738" style="stroke:#181818;stroke-width:1;"/><text fill="#000000" font-family="'Segoe UI, Arial'" font-size="11" lengthAdjust="spacing" textLength="36.0776" x="258.1647" y="75.6113">Officer</text><text fill="#000000" font-family="'Segoe UI, Arial'" font-size="11" lengthAdjust="spacing" textLength="37.791" x="840.3899" y="75.6113">System</text><g class="legend" data-source-line="113"><rect fill="none" height="158.3945" rx="7.5" ry="7.5" style="stroke:#000000;stroke-width:1;" width="422.572" x="387.166" y="992.6738"/><text fill="#000000" font-family="'Segoe UI, Arial'" font-size="14" font-weight="bold" lengthAdjust="spacing" textLength="168.2939" x="392.166" y="1011.209">PSPEC 2.0: Loan Review</text><text fill="#000000" font-family="'Segoe UI, Arial'" font-size="14" lengthAdjust="spacing" textLength="16.2012" x="392.166" y="1027.6973">--</text><text fill="#000000" font-family="'Segoe UI, Arial'" font-size="14" font-weight="bold" lengthAdjust="spacing" textLength="79.1943" x="392.166" y="1044.1855">Process ID:</text><text fill="#000000" font-family="'Segoe UI, Arial'" font-size="14" lengthAdjust="spacing" textLength="70.5264" x="475.79" y="1044.1855">PSPEC-2.0</text><text fill="#000000" font-family="'Segoe UI, Arial'" font-size="14" font-weight="bold" lengthAdjust="spacing" textLength="104.2207" x="392.166" y="1060.6738">Process Name:</text><text fill="#000000" font-family="'Segoe UI, Arial'" font-size="14" lengthAdjust="spacing" textLength="303.9216" x="500.8164" y="1060.6738">Review Loan Application (&#3605;&#3619;&#3623;&#3592;&#3626;&#3629;&#3610;&#3588;&#3635;&#3586;&#3629;&#3626;&#3636;&#3609;&#3648;&#3594;&#3639;&#3656;&#3629;)</text><text fill="#000000" font-family="'Segoe UI, Arial'" font-size="14" font-weight="bold" lengthAdjust="spacing" textLength="57.0732" x="392.166" y="1077.1621">Trigger:</text><text fill="#000000" font-family="'Segoe UI, Arial'" font-size="14" lengthAdjust="spacing" textLength="190.1758" x="453.6689" y="1077.1621">Officer selects pending loan</text><text fill="#000000" font-family="'Segoe UI, Arial'" font-size="14" font-weight="bold" lengthAdjust="spacing" textLength="41.4395" x="392.166" y="1093.6504">Input:</text><text fill="#000000" font-family="'Segoe UI, Arial'" font-size="14" lengthAdjust="spacing" textLength="167.3506" x="438.0352" y="1093.6504">Pending loan application</text><text fill="#000000" font-family="'Segoe UI, Arial'" font-size="14" font-weight="bold" lengthAdjust="spacing" textLength="53.9971" x="392.166" y="1110.1387">Output:</text><text fill="#000000" font-family="'Segoe UI, Arial'" font-size="14" lengthAdjust="spacing" textLength="225.4971" x="450.5928" y="1110.1387">Reviewed loan ready for approval</text><text fill="#000000" font-family="'Segoe UI, Arial'" font-size="14" font-weight="bold" lengthAdjust="spacing" textLength="103.332" x="392.166" y="1126.627">Pre-condition:</text><text fill="#000000" font-family="'Segoe UI, Arial'" font-size="14" lengthAdjust="spacing" textLength="158.7168" x="499.9277" y="1126.627">Loan status = PENDING</text><text fill="#000000" font-family="'Segoe UI, Arial'" font-size="14" font-weight="bold" lengthAdjust="spacing" textLength="111.2959" x="392.166" y="1143.1152">Post-condition:</text><text fill="#000000" font-family="'Segoe UI, Arial'" font-size="14" lengthAdjust="spacing" textLength="165.334" x="507.8916" y="1143.1152">Loan status = REVIEWED</text></g><g class="footer" data-source-line="125"><text fill="#888888" font-family="'Segoe UI, Arial'" font-size="9" lengthAdjust="spacing" textLength="238.0386" x="479.4327" y="1172.7695">Process Specification | Ban Sai Yai Savings Cooperative</text></g><!--SRC=[dLPFR-D45B_xKpnj3ssZ3TjkTxVRj5lKnlOgqjAMXYvQYSiaVab6jJt6CsuL21ABE00d3d0eS08X9D1Am2BXVXj_5DxCE8xJ9g35KgFwlT-R-Rt_NdtoPe-p2YUfwAEKq4smpmUypnGNCJJXcM0ndE85nqkDwfvuRRZ_rWPf3adHPHnUq5-NNV1uAA4jH88fsLwWi_gc91nvpkE4fIo27kkV3rEHnK5RX2A55TyyDKI00vQ5oXUnEc8Hmfqk3WN2MUSk7AISXNSMOxly8uJDpPfIZbWWBeaz35WeiSw2zSaHhiRmiGFq7DuazM3hiUi-j3gH1fYMygtsjj_UC79zvxmBMkfo5eauk7MWx_baEmUfd-i_tF4s3frF5d4iySkeravUTEGDgfl-_PsjRNsHuYf4s9CKjjRcu_sztdvL0grwRUpTw-tltTEm_G_Y4hwnlwoeYlpR8l-fo7yfyY-A_DSYVrNatnNvvqN-kiW_Cwya_Al8huhhJulygoB_kxWcvAlo2iUPhBYk-yZt9iS3EXVJ2Kcy3M_RzoVTiLGOJIX8YgMAe1MazKmCUGnAWCNiadAARhbS9Y4Rmmd6WQu6xPo4TpFCSDU9XK98-N2aA5IDXiz3XMchqQ2thc8ga_04JhmZjtFqb4J7Ei0OG6yCCkj5N4hjTi0KEdGuwCFcQ7KnnBwouIHoDg9pv7nK_P45kAWO3-KjJYL_Iwe9xs3KmnHuF11fPE9knEQ8m1vX12Ti766iOCIb4kdOoCwIKB2070X4FzDQkPYt9JgzYf8zu245osaznvGFnk1EpM-HRO-mVpxJJqbtN6YpD80rKmv_JClaU_Fxkoc4FytlrRh5ntr1lP-aGWoqqMz5_hEnUrdaNnlibJ6bVtuihgcylYcklxIcLEaX9IHbeVPIthIkhdnf9ELzJpFgkPZYPEAgRNueyciwKzUk_dszo78MEquiAwU9GfI4gF3jTL0ZZ67j1Sfrqugj0obrtzW6u_9yruZdWgYVHaChmQBreJQG-cbIeVHKKuacjq7IKrbKoZRL9wzdlHJFedB1mWmhnSnpQUhTA2h7z4j9F0ZA-eKZqiZTcgwhUq5LvLqfgZ8tgBD4DufrtVRMKkSjjEwpDMZ1gVUyuxtlkPN2NafLshaf0yKZ9AUYvAP2txZCqHNtWUUw1zCMcAPo2TLJPC4Og1EfIL3oG3SSIwXiASWBBa3QGx1s96mnp1hEnESKFyo8Br2akMvhIbMjpvO4bNAX6z9swXAINKq28veCaDexQ0oMEZF3Q2ZE1iAIiD26ssgxhODBnhLvdPgUgmCzbKNYE24EjNLFA2KYCn8MxnKx69eMKMwJZaifjvyYJSBFwVItWDQMUJ4d7IH9EDqzQ_zxzQoRUzwZY0tDw8SoBI3Dz9QGb8k3PcTii9quoPIXMjFel4_P6DHnfafOMQE1nQLLpTGgHJkApJujUfDxRMLSbBUN4465LF-6hPg4wDbyECv0K3xJSk7lB5dWa__wzfkkwNy0]--></g></svg>