<svg xmlns="http://www.w3.org/2000/svg" xmlns:xlink="http://www.w3.org/1999/xlink" width="646" height="749" contentStyleType="text/css" data-diagram-type="DESCRIPTION" style="width:646px;height:749px;background:#fff" preserveAspectRatio="none" version="1.1" viewBox="0 0 646 749" zoomAndPan="magnify"><title>&lt;size:18&gt;&lt;b&gt;Loan Request &amp; Approval&lt;/b&gt;&lt;/size&gt; &lt;size:10&gt;[Use Case Diagram] Ban Sai Yai Savings Cooperative&lt;/size&gt;</title><g><g class="title" data-source-line="58"><text x="199.079" y="27.402" fill="#000" font-family="'Segoe UI, Arial'" font-size="18" font-weight="bold" lengthAdjust="spacing" textLength="234.202">Loan Request &amp; Approval</text><text x="181.81" y="40.867" fill="#000" font-family="'Segoe UI, Arial'" font-size="10" font-weight="bold" lengthAdjust="spacing" textLength="268.74">[Use Case Diagram] Ban Sai Yai Savings Cooperative</text></g><g id="cluster_System" class="cluster" data-entity="System" data-source-line="70" data-uid="ent0005"><rect style="stroke:#1168bd;stroke-width:2" width="488.96" height="367" x="151.4" y="60.977" fill="#FFF" rx="2.5" ry="2.5"/><text x="302.023" y="76.512" fill="#1168BD" font-family="'Segoe UI, Arial'" font-size="14" font-weight="bold" lengthAdjust="spacing" textLength="187.715">Loan Management System</text><text x="354.154" y="88.166" fill="#1168BD" font-family="'Segoe UI, Arial'" font-size="9" font-weight="bold" lengthAdjust="spacing" textLength="83.452">[Software System]</text></g><g id="entity_UC_Submit" class="entity" data-entity="UC_Submit" data-source-line="73" data-uid="ent0006"><ellipse cx="394.518" cy="144.978" fill="#438DD5" rx="42.648" ry="25.092" style="stroke:#3c7fc0;stroke-width:2"/><text x="364.408" y="138.883" fill="#FFF" font-family="'Segoe UI, Arial'" font-size="10" lengthAdjust="spacing" textLength="60.22">Submit Loan</text><text x="375.116" y="150.661" fill="#FFF" font-family="'Segoe UI, Arial'" font-size="10" lengthAdjust="spacing" textLength="38.804">Request</text><text x="374.367" y="160.504" fill="#FFF" font-family="'Segoe UI, Arial'" font-size="8" lengthAdjust="spacing" textLength="40.301">[Use Case]</text></g><g id="entity_UC_Upload" class="entity" data-entity="UC_Upload" data-source-line="74" data-uid="ent0007"><ellipse cx="203.637" cy="216.977" fill="#438DD5" rx="36.107" ry="23.23" style="stroke:#3c7fc0;stroke-width:2"/><text x="186.601" y="207.908" fill="#FFF" font-family="'Segoe UI, Arial'" font-size="10" lengthAdjust="spacing" textLength="34.072">Upload</text><text x="176.181" y="219.685" fill="#FFF" font-family="'Segoe UI, Arial'" font-size="10" lengthAdjust="spacing" textLength="54.912">Documents</text><text x="183.487" y="229.529" fill="#FFF" font-family="'Segoe UI, Arial'" font-size="8" lengthAdjust="spacing" textLength="40.301">[Use Case]</text></g><g id="entity_UC_Status" class="entity" data-entity="UC_Status" data-source-line="75" data-uid="ent0008"><ellipse cx="203.644" cy="132.981" fill="#438DD5" rx="36.234" ry="25.725" style="stroke:#3c7fc0;stroke-width:2"/><text x="179.108" y="125.931" fill="#FFF" font-family="'Segoe UI, Arial'" font-size="10" lengthAdjust="spacing" textLength="49.072">View Loan</text><text x="188.798" y="137.708" fill="#FFF" font-family="'Segoe UI, Arial'" font-size="10" lengthAdjust="spacing" textLength="29.692">Status</text><text x="183.493" y="147.552" fill="#FFF" font-family="'Segoe UI, Arial'" font-size="8" lengthAdjust="spacing" textLength="40.301">[Use Case]</text></g><g id="entity_UC_Validate" class="entity" data-entity="UC_Validate" data-source-line="78" data-uid="ent0009"><ellipse cx="586.756" cy="134.981" fill="#85BBF0" rx="36.836" ry="25.505" style="stroke:#3c7fc0;stroke-width:2"/><text x="567.271" y="124.86" fill="#FFF" font-family="'Segoe UI, Arial'" font-size="10" lengthAdjust="spacing" textLength="38.97">Validate</text><text x="564.627" y="136.637" fill="#FFF" font-family="'Segoe UI, Arial'" font-size="10" lengthAdjust="spacing" textLength="44.258">Eligibility</text><text x="561.531" y="146.481" fill="#FFF" font-family="'Segoe UI, Arial'" font-size="8" lengthAdjust="spacing" textLength="50.449">[Component]</text></g><g id="entity_UC_Interest" class="entity" data-entity="UC_Interest" data-source-line="79" data-uid="ent0010"><ellipse cx="586.765" cy="221.976" fill="#85BBF0" rx="37.595" ry="26.01" style="stroke:#3c7fc0;stroke-width:2"/><text x="564.573" y="212.602" fill="#FFF" font-family="'Segoe UI, Arial'" font-size="10" lengthAdjust="spacing" textLength="44.385">Calculate</text><text x="568.315" y="224.38" fill="#FFF" font-family="'Segoe UI, Arial'" font-size="10" lengthAdjust="spacing" textLength="36.899">Interest</text><text x="561.54" y="234.223" fill="#FFF" font-family="'Segoe UI, Arial'" font-size="8" lengthAdjust="spacing" textLength="50.449">[Component]</text></g><g id="entity_UC_Review" class="entity" data-entity="UC_Review" data-source-line="82" data-uid="ent0011"><ellipse cx="394.517" cy="376.977" fill="#438DD5" rx="35.997" ry="23.171" style="stroke:#3c7fc0;stroke-width:2"/><text x="377.899" y="367.829" fill="#FFF" font-family="'Segoe UI, Arial'" font-size="10" lengthAdjust="spacing" textLength="33.237">Review</text><text x="367.071" y="379.606" fill="#FFF" font-family="'Segoe UI, Arial'" font-size="10" lengthAdjust="spacing" textLength="54.893">Application</text><text x="374.367" y="389.45" fill="#FFF" font-family="'Segoe UI, Arial'" font-size="8" lengthAdjust="spacing" textLength="40.301">[Use Case]</text></g><g id="entity_UC_Verify" class="entity" data-entity="UC_Verify" data-source-line="83" data-uid="ent0012"><ellipse cx="586.757" cy="382.981" fill="#438DD5" rx="35.427" ry="22.815" style="stroke:#3c7fc0;stroke-width:2"/><text x="572.76" y="373.385" fill="#FFF" font-family="'Segoe UI, Arial'" font-size="10" lengthAdjust="spacing" textLength="27.993">Verify</text><text x="559.301" y="385.162" fill="#FFF" font-family="'Segoe UI, Arial'" font-size="10" lengthAdjust="spacing" textLength="54.912">Documents</text><text x="566.606" y="395.006" fill="#FFF" font-family="'Segoe UI, Arial'" font-size="8" lengthAdjust="spacing" textLength="40.301">[Use Case]</text></g><g id="entity_UC_Approve" class="entity" data-entity="UC_Approve" data-source-line="86" data-uid="ent0013"><ellipse cx="203.642" cy="385.981" fill="#27AE60" rx="32.042" ry="26.234" style="stroke:#3c7fc0;stroke-width:2"/><text x="183.408" y="377.591" fill="#FFF" font-family="'Segoe UI, Arial'" font-size="10" lengthAdjust="spacing" textLength="40.469">Approve</text><text x="192.041" y="389.368" fill="#FFF" font-family="'Segoe UI, Arial'" font-size="10" lengthAdjust="spacing" textLength="23.203">Loan</text><text x="183.492" y="399.212" fill="#FFF" font-family="'Segoe UI, Arial'" font-size="8" lengthAdjust="spacing" textLength="40.301">[Use Case]</text></g><g id="entity_UC_Reject" class="entity" data-entity="UC_Reject" data-source-line="87" data-uid="ent0014"><ellipse cx="203.638" cy="299.981" fill="#E74C3C" rx="30.418" ry="24.935" style="stroke:#3c7fc0;stroke-width:2"/><text x="188.953" y="289.735" fill="#FFF" font-family="'Segoe UI, Arial'" font-size="10" lengthAdjust="spacing" textLength="29.37">Reject</text><text x="192.037" y="301.513" fill="#FFF" font-family="'Segoe UI, Arial'" font-size="10" lengthAdjust="spacing" textLength="23.203">Loan</text><text x="183.488" y="311.356" fill="#FFF" font-family="'Segoe UI, Arial'" font-size="8" lengthAdjust="spacing" textLength="40.301">[Use Case]</text></g><g id="entity_UC_Notify" class="entity" data-entity="UC_Notify" data-source-line="90" data-uid="ent0015"><ellipse cx="394.522" cy="260.974" fill="#85BBF0" rx="35.742" ry="24.777" style="stroke:#3c7fc0;stroke-width:2"/><text x="379.99" y="249.736" fill="#FFF" font-family="'Segoe UI, Arial'" font-size="10" lengthAdjust="spacing" textLength="29.063">Notify</text><text x="374.783" y="261.514" fill="#FFF" font-family="'Segoe UI, Arial'" font-size="10" lengthAdjust="spacing" textLength="39.477">Member</text><text x="369.297" y="271.357" fill="#FFF" font-family="'Segoe UI, Arial'" font-size="8" lengthAdjust="spacing" textLength="50.449">[Component]</text></g><g id="entity_Member" class="entity" data-entity="Member" data-source-line="63" data-uid="ent0002"><ellipse cx="32.706" cy="94.707" fill="#08427B" rx="8" ry="8" style="stroke:#073b6f;stroke-width:2"/><path fill="none" d="M32.7058,102.7066 L32.7058,129.7066 M19.7058,110.7066 L45.7058,110.7066 M32.7058,129.7066 L19.7058,144.7066 M32.7058,129.7066 L45.7058,144.7066" style="stroke:#073b6f;stroke-width:2"/><text x="9.79" y="158.341" fill="#FFF" font-family="'Segoe UI, Arial'" font-size="11" font-weight="bold" lengthAdjust="spacing" textLength="45.831">Member</text><text x="9.79" y="169.363" fill="#FFF" font-family="'Segoe UI, Arial'" font-size="9" font-weight="bold" lengthAdjust="spacing" textLength="38.303">[Person]</text><text x="9.79" y="178.996" fill="#FFF" font-family="'Segoe UI, Arial'" font-size="8" font-weight="bold" lengthAdjust="spacing" textLength="23.353">สมาชิก</text></g><g id="entity_Officer" class="entity" data-entity="Officer" data-source-line="64" data-uid="ent0003"><ellipse cx="203.637" cy="457.707" fill="#08427B" rx="8" ry="8" style="stroke:#073b6f;stroke-width:2"/><path fill="none" d="M203.6366,465.7066 L203.6366,492.7066 M190.6366,473.7066 L216.6366,473.7066 M203.6366,492.7066 L190.6366,507.7066 M203.6366,492.7066 L216.6366,507.7066" style="stroke:#073b6f;stroke-width:2"/><text x="184.11" y="521.341" fill="#FFF" font-family="'Segoe UI, Arial'" font-size="11" font-weight="bold" lengthAdjust="spacing" textLength="39.053">Officer</text><text x="184.11" y="532.363" fill="#FFF" font-family="'Segoe UI, Arial'" font-size="9" font-weight="bold" lengthAdjust="spacing" textLength="38.303">[Person]</text><text x="184.11" y="541.996" fill="#FFF" font-family="'Segoe UI, Arial'" font-size="8" font-weight="bold" lengthAdjust="spacing" textLength="29.909">เจ้าหน้าที่</text></g><g id="entity_President" class="entity" data-entity="President" data-source-line="65" data-uid="ent0004"><ellipse cx="32.702" cy="308.707" fill="#08427B" rx="8" ry="8" style="stroke:#073b6f;stroke-width:2"/><path fill="none" d="M32.7024,316.7066 L32.7024,343.7066 M19.7024,324.7066 L45.7024,324.7066 M32.7024,343.7066 L19.7024,358.7066 M32.7024,343.7066 L45.7024,358.7066" style="stroke:#073b6f;stroke-width:2"/><text x="6" y="372.341" fill="#FFF" font-family="'Segoe UI, Arial'" font-size="11" font-weight="bold" lengthAdjust="spacing" textLength="53.405">President</text><text x="6" y="383.363" fill="#FFF" font-family="'Segoe UI, Arial'" font-size="9" font-weight="bold" lengthAdjust="spacing" textLength="38.303">[Person]</text><text x="6" y="392.996" fill="#FFF" font-family="'Segoe UI, Arial'" font-size="8" font-weight="bold" lengthAdjust="spacing" textLength="25.938">ประธาน</text></g><g id="link_Member_UC_Submit" class="link" data-entity-1="Member" data-entity-2="UC_Submit" data-source-line="96" data-uid="lnk16"><path id="Member-to-UC_Submit" fill="none" d="M56.07,121.3166 C77.73,110.7366 111.84,95.8966 143.4,89.9766 C185.54,82.0766 197.63,82.6466 239.87,89.9766 C283,97.4666 324.5518,113.5218 355.0618,127.0018" style="stroke:#707070;stroke-width:1"/><polygon fill="#707070" points="360.55 129.427 353.934 122.131 355.976 127.406 350.701 129.448 360.55 129.427" style="stroke:#707070;stroke-width:1"/><text x="182.64" y="81.901" fill="#000" font-family="'Segoe UI, Arial'" font-size="11" lengthAdjust="spacing" textLength="42.528">submits</text></g><g id="link_Member_UC_Upload" class="link" data-entity-1="Member" data-entity-2="UC_Upload" data-source-line="97" data-uid="lnk17"><path id="Member-to-UC_Upload" fill="none" d="M55.79,143.9566 C86.2,159.0766 135.608,183.6442 168.978,200.2442" style="stroke:#707070;stroke-width:1"/><polygon fill="#707070" points="174.35 202.917 168.073 195.327 169.873 200.69 164.51 202.489 174.35 202.917" style="stroke:#707070;stroke-width:1"/><text x="90.4" y="160.181" fill="#000" font-family="'Segoe UI, Arial'" font-size="11" lengthAdjust="spacing" textLength="44.575">attaches</text></g><g id="link_Member_UC_Status" class="link" data-entity-1="Member" data-entity-2="UC_Status" data-source-line="98" data-uid="lnk18"><path id="Member-to-UC_Status" fill="none" d="M55.79,132.9766 C84.05,132.9766 127.36,132.9766 160.98,132.9766" style="stroke:#707070;stroke-width:1"/><polygon fill="#707070" points="166.98 132.977 157.98 128.977 161.98 132.977 157.98 136.977 166.98 132.977" style="stroke:#707070;stroke-width:1"/><text x="97.9" y="130.611" fill="#000" font-family="'Segoe UI, Arial'" font-size="11" lengthAdjust="spacing" textLength="29.084">views</text></g><g id="link_Officer_UC_Review" class="link" data-entity-1="Officer" data-entity-2="UC_Review" data-source-line="100" data-uid="lnk19"><path id="Officer-to-UC_Review" fill="none" d="M223.44,484.1366 C257.5,462.6766 324.3537,420.5553 362.8537,396.2953" style="stroke:#707070;stroke-width:1"/><polygon fill="#707070" points="367.93 393.097 358.183 394.51 363.7 395.762 362.448 401.279 367.93 393.097" style="stroke:#707070;stroke-width:1"/><text x="271.87" y="419.951" fill="#000" font-family="'Segoe UI, Arial'" font-size="11" lengthAdjust="spacing" textLength="48.732">performs</text></g><g id="link_Officer_UC_Verify" class="link" data-entity-1="Officer" data-entity-2="UC_Verify" data-source-line="101" data-uid="lnk20"><path id="Officer-to-UC_Verify" fill="none" d="M223.42,491.1466 C263.07,480.8766 358.21,455.8466 437.17,431.9766 C478.12,419.5966 519.2532,405.8494 549.2032,395.5994" style="stroke:#707070;stroke-width:1"/><polygon fill="#707070" points="554.88 393.657 545.07 392.786 550.149 395.276 547.66 400.355 554.88 393.657" style="stroke:#707070;stroke-width:1"/><text x="376.52" y="429.611" fill="#000" font-family="'Segoe UI, Arial'" font-size="11" lengthAdjust="spacing" textLength="36.26">checks</text></g><g id="link_President_UC_Approve" class="link" data-entity-1="President" data-entity-2="UC_Approve" data-source-line="103" data-uid="lnk21"><path id="President-to-UC_Approve" fill="none" d="M59.66,361.2166 C68.82,365.6566 79.34,370.1366 89.4,372.9766 C116.44,380.6266 142.3395,383.4484 165.3695,384.7484" style="stroke:#707070;stroke-width:1"/><polygon fill="#707070" points="171.36 385.087 162.6 380.586 166.368 384.805 162.149 388.573 171.36 385.087" style="stroke:#707070;stroke-width:1"/><text x="92.4" y="370.611" fill="#000" font-family="'Segoe UI, Arial'" font-size="11" lengthAdjust="spacing" textLength="40.525">decides</text></g><g id="link_President_UC_Reject" class="link" data-entity-1="President" data-entity-2="UC_Reject" data-source-line="104" data-uid="lnk22"><path id="President-to-UC_Reject" fill="none" d="M59.73,339.7366 C90.73,331.1166 136.5697,318.3652 168.5497,309.4652" style="stroke:#707070;stroke-width:1"/><polygon fill="#707070" points="174.33 307.857 164.587 306.416 169.513 309.197 166.732 314.123 174.33 307.857" style="stroke:#707070;stroke-width:1"/><text x="92.4" y="316.901" fill="#000" font-family="'Segoe UI, Arial'" font-size="11" lengthAdjust="spacing" textLength="40.525">decides</text></g><g id="link_UC_Submit_UC_Validate" class="link" data-entity-1="UC_Submit" data-entity-2="UC_Validate" data-source-line="109" data-uid="lnk23"><path id="UC_Submit-to-UC_Validate" fill="none" d="M437.27,142.7866 C470.85,141.0166 511.5582,138.881 543.5682,137.201" style="stroke:#707070;stroke-width:1;stroke-dasharray:7,7"/><polygon fill="#707070" points="549.56 136.887 540.363 133.364 544.567 137.149 540.782 141.353 549.56 136.887" style="stroke:#707070;stroke-width:1"/><text x="468.17" y="136.131" fill="#000" font-family="'Segoe UI, Arial'" font-size="11" lengthAdjust="spacing" textLength="50.225">«include»</text></g><g id="link_UC_Submit_UC_Interest" class="link" data-entity-1="UC_Submit" data-entity-2="UC_Interest" data-source-line="110" data-uid="lnk24"><path id="UC_Submit-to-UC_Interest" fill="none" d="M430.41,159.1066 C465.6,173.3466 513.8985,192.8949 548.0585,206.7249" style="stroke:#707070;stroke-width:1;stroke-dasharray:7,7"/><polygon fill="#707070" points="553.62 208.977 546.779 201.892 548.985 207.1 543.777 209.307 553.62 208.977" style="stroke:#707070;stroke-width:1"/><text x="468.17" y="171.951" fill="#000" font-family="'Segoe UI, Arial'" font-size="11" lengthAdjust="spacing" textLength="50.225">«include»</text></g><g id="link_UC_Review_UC_Verify" class="link" data-entity-1="UC_Review" data-entity-2="UC_Verify" data-source-line="111" data-uid="lnk25"><path id="UC_Review-to-UC_Verify" fill="none" d="M430.86,378.0966 C465.14,379.1766 510.8329,380.6184 544.9429,381.6884" style="stroke:#707070;stroke-width:1;stroke-dasharray:7,7"/><polygon fill="#707070" points="550.94 381.877 542.07 377.596 545.942 381.72 541.819 385.592 550.94 381.877" style="stroke:#707070;stroke-width:1"/><text x="468.17" y="376.901" fill="#000" font-family="'Segoe UI, Arial'" font-size="11" lengthAdjust="spacing" textLength="50.225">«include»</text></g><g id="link_UC_Approve_UC_Review" class="link" data-entity-1="UC_Approve" data-entity-2="UC_Review" data-source-line="112" data-uid="lnk26"><path id="UC_Approve-to-UC_Review" fill="none" d="M235.83,384.4966 C269.57,382.8866 317.2468,380.6127 352.4368,378.9327" style="stroke:#707070;stroke-width:1;stroke-dasharray:7,7"/><polygon fill="#707070" points="358.43 378.647 349.25 375.08 353.436 378.885 349.631 383.071 358.43 378.647" style="stroke:#707070;stroke-width:1"/><text x="270.87" y="378.041" fill="#000" font-family="'Segoe UI, Arial'" font-size="11" lengthAdjust="spacing" textLength="50.225">«include»</text></g><g id="link_UC_Reject_UC_Review" class="link" data-entity-1="UC_Reject" data-entity-2="UC_Review" data-source-line="113" data-uid="lnk27"><path id="UC_Reject-to-UC_Review" fill="none" d="M233.9,296.5766 C258.46,294.9566 293.9,295.5766 321.87,307.9766 C345.24,318.3366 361.7857,335.0983 374.7557,351.3383" style="stroke:#707070;stroke-width:1;stroke-dasharray:7,7"/><polygon fill="#707070" points="378.5 356.027 376.009 346.498 375.38 352.12 369.758 351.49 378.5 356.027" style="stroke:#707070;stroke-width:1"/><text x="270.87" y="294.281" fill="#000" font-family="'Segoe UI, Arial'" font-size="11" lengthAdjust="spacing" textLength="50.225">«include»</text></g><g id="link_UC_Approve_UC_Notify" class="link" data-entity-1="UC_Approve" data-entity-2="UC_Notify" data-source-line="114" data-uid="lnk28"><path id="UC_Approve-to-UC_Notify" fill="none" d="M232.86,374.4366 C257.4,363.7866 293.39,346.6866 321.87,326.9766 C341.06,313.6966 356.162,299.8237 369.902,285.9237" style="stroke:#707070;stroke-width:1;stroke-dasharray:7,7"/><polygon fill="#707070" points="374.12 281.657 364.948 285.245 370.605 285.212 370.638 290.869 374.12 281.657" style="stroke:#707070;stroke-width:1"/><text x="270.87" y="324.611" fill="#000" font-family="'Segoe UI, Arial'" font-size="11" lengthAdjust="spacing" textLength="50.225">«include»</text></g><g id="link_UC_Reject_UC_Notify" class="link" data-entity-1="UC_Reject" data-entity-2="UC_Notify" data-source-line="115" data-uid="lnk29"><path id="UC_Reject-to-UC_Notify" fill="none" d="M224.29,281.2366 C236.4,271.0166 252.83,259.3866 269.87,253.9766 C299.49,244.5866 329.1737,246.9156 354.5437,251.6956" style="stroke:#707070;stroke-width:1;stroke-dasharray:7,7"/><polygon fill="#707070" points="360.44 252.807 352.336 247.209 355.526 251.881 350.855 255.071 360.44 252.807" style="stroke:#707070;stroke-width:1"/><text x="270.87" y="245.681" fill="#000" font-family="'Segoe UI, Arial'" font-size="11" lengthAdjust="spacing" textLength="50.225">«include»</text></g><g id="link_UC_Upload_UC_Submit" class="link" data-entity-1="UC_Upload" data-entity-2="UC_Submit" data-source-line="120" data-uid="lnk30"><path id="UC_Upload-to-UC_Submit" fill="none" d="M235.41,205.2466 C268.96,192.4566 316.9835,174.1535 352.3235,160.6835" style="stroke:#707070;stroke-width:1;stroke-dasharray:7,7"/><polygon fill="#707070" points="357.93 158.547 348.096 158.014 353.258 160.327 350.945 165.49 357.93 158.547" style="stroke:#707070;stroke-width:1"/><text x="271.87" y="170.051" fill="#000" font-family="'Segoe UI, Arial'" font-size="11" lengthAdjust="spacing" textLength="48.394">«extend»</text></g><g class="legend" data-source-line="125"><rect style="stroke:#000;stroke-width:1" width="176.134" height="155.906" x="444.226" y="561.496" fill="none" rx="7.5" ry="7.5"/><text x="449.226" y="580.031" fill="#000" font-family="'Segoe UI, Arial'" font-size="14" font-weight="bold" lengthAdjust="spacing" textLength="76.077">C4 Legend</text><rect style="stroke:none;stroke-width:1" width="88.04" height="16.488" x="449.226" y="584.984" fill="#08427B"/><text x="453.656" y="598.519" fill="#000" font-family="'Segoe UI, Arial'" font-size="14" lengthAdjust="spacing" textLength="45.691">Person</text><rect style="stroke:none;stroke-width:1" width="88.04" height="16.488" x="449.226" y="601.472" fill="#438DD5"/><text x="453.656" y="615.007" fill="#000" font-family="'Segoe UI, Arial'" font-size="14" lengthAdjust="spacing" textLength="61.421">Use Case</text><rect style="stroke:none;stroke-width:1" width="88.04" height="16.488" x="449.226" y="617.961" fill="#85BBF0"/><text x="453.656" y="631.496" fill="#000" font-family="'Segoe UI, Arial'" font-size="14" lengthAdjust="spacing" textLength="79.181">Component</text><rect style="stroke:none;stroke-width:1" width="88.04" height="16.488" x="449.226" y="634.449" fill="#27AE60"/><text x="453.656" y="647.984" fill="#000" font-family="'Segoe UI, Arial'" font-size="14" lengthAdjust="spacing" textLength="56.656">Approve</text><rect style="stroke:none;stroke-width:1" width="88.04" height="16.488" x="449.226" y="650.937" fill="#E74C3C"/><text x="453.656" y="664.472" fill="#000" font-family="'Segoe UI, Arial'" font-size="14" lengthAdjust="spacing" textLength="41.118">Reject</text><line style="stroke:#000;stroke-width:1" x1="449.226" x2="537.266" y1="584.984" y2="584.984"/><line style="stroke:#000;stroke-width:1" x1="449.226" x2="537.266" y1="601.472" y2="601.472"/><line style="stroke:#000;stroke-width:1" x1="449.226" x2="537.266" y1="617.961" y2="617.961"/><line style="stroke:#000;stroke-width:1" x1="449.226" x2="537.266" y1="634.449" y2="634.449"/><line style="stroke:#000;stroke-width:1" x1="449.226" x2="537.266" y1="650.937" y2="650.937"/><line style="stroke:#000;stroke-width:1" x1="449.226" x2="537.266" y1="667.425" y2="667.425"/><line style="stroke:#000;stroke-width:1" x1="449.226" x2="449.226" y1="584.984" y2="667.425"/><line style="stroke:#000;stroke-width:1" x1="537.266" x2="537.266" y1="584.984" y2="667.425"/><line style="stroke:#000;stroke-width:1" x1="444.226" x2="620.36" y1="674.425" y2="674.425"/><text x="449.226" y="692.961" fill="#000" font-family="'Segoe UI, Arial'" font-size="14" lengthAdjust="spacing" textLength="121.611">——&gt; Association</text><text x="449.226" y="709.449" fill="#000" font-family="'Segoe UI, Arial'" font-size="14" lengthAdjust="spacing" textLength="166.134">..&gt; «include» / «extend»</text></g><g class="footer" data-source-line="137"><text x="185.234" y="739.103" fill="#888" font-family="'Segoe UI, Arial'" font-size="9" lengthAdjust="spacing" textLength="261.892">C4 Model - Use Case View | Ban Sai Yai Savings Cooperative</text></g></g></svg>